<?xml version="1.0" encoding="utf-8"?>
<!-- Generator: Adobe Illustrator 23.0.1, SVG Export Plug-In . SVG Version: 6.00 Build 0)  -->
<svg version="1.1" id="Capa_1" xmlns="http://www.w3.org/2000/svg" xmlns:xlink="http://www.w3.org/1999/xlink" x="0px" y="0px"
	 viewBox="0 0 512 512" style="enable-background:new 0 0 512 512;" xml:space="preserve">
<g>
	<g>
		<g>
			<path d="M438.1,256l71.9-151.4c2.9-6.2,2.5-13.5-1.2-19.3c-3.7-5.8-10-9.3-16.9-9.3H20C9,76,0,85,0,96v320c0,11,9,20,20,20h472
				c6.9,0,13.2-3.5,16.9-9.3c3.7-5.8,4.1-13.1,1.2-19.3L438.1,256z M40,396V116h420.4l-62.4,131.4c-2.6,5.4-2.6,11.7,0,17.2
				L460.4,396H40z"/>
		</g>
	</g>
</g>
<path d="M313.9,191.7c-5.7-5.6-14-8.1-24.7-7.5h-52.1v-22.3c0-11.6-6.7-18.9-17.5-18.9c-10.8,0-17.5,7.2-17.5,18.9v22.3h-49.8
	c-11-0.7-19.3,1.8-24.7,7.6c-5.2,5.5-7.8,13.9-7.8,24.9v50.5c-0.5,10.9,2.1,19.3,7.8,25c5.7,5.6,14,8.1,24.7,7.5h49.8v47.5
	c0,11.5,6.7,18.6,17.5,18.6c10.8,0,17.5-7.1,17.5-18.6v-47.5h52.1c10.8,0.7,19-1.8,24.5-7.5c5.3-5.5,8-13.9,8-24.8v-50.5
	C322.3,205.9,319.7,197.4,313.9,191.7z M286.8,223.1v38c0,2.8-0.3,4.3-0.5,4.9c-0.6,0.2-2.1,0.5-4.9,0.5h-44.1v-49.1h44.1
	c2.8,0,4.3,0.3,4.9,0.5C286.4,218.6,286.8,220.1,286.8,223.1z M155.1,217.9c0.7-0.2,2.1-0.5,4.9-0.5h42.1v49.1h-42.1
	c-2.8,0-4.3-0.3-4.9-0.5c-0.2-0.6-0.5-2.1-0.5-4.9v-38C154.6,220.1,154.9,218.6,155.1,217.9z"/>
</svg>
