<?xml version="1.0" encoding="utf-8"?>
<!-- Generator: Adobe Illustrator 24.1.2, SVG Export Plug-In . SVG Version: 6.00 Build 0)  -->
<svg version="1.1" id="Layer_1" xmlns="http://www.w3.org/2000/svg" xmlns:xlink="http://www.w3.org/1999/xlink" x="0px" y="0px"
	 viewBox="0 0 1200 273.5" style="enable-background:new 0 0 1200 273.5;" xml:space="preserve">
<style type="text/css">
	.st0{fill:#7DACE4;}
	.st1{fill:#95E8D7;}
	.st2{enable-background:new    ;}
</style>
<path id="shape.secondary" class="st0" d="M16.8,46c-0.1,0.9-29.3,88.4,47,164.9c76.2,76.5,164.4,47.1,164.4,47.1
	s29.3-88.4-47-164.9S16.7,46,16.8,46L16.8,46z"/>
<path id="shape.accent" class="st1" d="M225.8,93.1c-76.2,76.5-47,164.9-47,164.9s88.2,29.3,164.4-47.1c76.2-76.5,47-164,47-164.9
	C390.2,46,302,16.6,225.8,93.1L225.8,93.1z"/>
<g id="shape" transform="translate(122.000000, 225.000000)">
	<g>
		<path d="M279.7-182.7l-0.1-0.2c-0.6-2.6-2.6-4.8-5.2-5.7c-1-0.3-24.3-7.9-57.6-5.6c-30.7,2.2-76,13.5-117.9,55.5
			c-41.8,42-53.2,87.4-55.3,118.2c-2.3,33.4,5.3,56.8,5.6,57.8c0.8,2.4,2.7,4.3,5,5.1c0.8,0.3,18.5,6,44.9,6c4,0,8.3-0.1,12.7-0.4
			c30.7-2.2,76-13.5,117.9-55.5C303.8-81.7,284.4-166.4,279.7-182.7L279.7-182.7z M217.2-178.2c16.1-1.2,29.8,0.2,39.1,1.8
			c-0.4,0.3-0.8,0.6-1.1,0.9L198-118.1v-57.5C204.3-176.8,210.7-177.7,217.2-178.2z M128.8-48.7V-143c0-0.3,0-0.5,0-0.8
			c16.5-12.8,34.3-22.1,53.4-27.9v69.5C182.1-102.2,128.8-48.7,128.8-48.7z M59.5-19.4c2.9-40.8,19.9-77.1,50.7-108
			c0.9-0.9,1.8-1.7,2.6-2.6v96.9c0,0.1,0,0.2,0,0.3L61.3,19C59.7,9.8,58.4-3.5,59.5-19.4L59.5-19.4z M111.5,32
			c-16,1.2-29.6-0.2-38.9-1.8L97.4,5.3h0.1h91.7C165.7,21,139.6,29.9,111.5,32z M218.5-18.8c-2.8,2.8-5.7,5.5-8.6,8.2h-96.6
			L159.5-57h88.4C240.6-44.2,231-31.4,218.5-18.8L218.5-18.8z M256-72.9h-80.6l91-91.3c0.3-0.3,0.6-0.7,0.9-1.1
			C270.6-146,272.7-111,256-72.9L256-72.9z"/>
	</g>
	<g>
		<path d="M26.1-57.5v-92.7c9.5,6.5,18.7,14.1,27.3,22.8c3.1,3.1,8.1,3.1,11.3,0c3.1-3.1,3.1-8.2,0-11.3
			c-41.8-42-87.2-53.3-117.9-55.5c-33.3-2.3-56.7,5.3-57.6,5.6c-2.6,0.9-4.6,3-5.2,5.7l-0.1,0.2c-4.6,16.2-24,100.9,50,175.2
			C-42.6,16-15.7,32.4,13.8,41.2c0.7,0.2,1.5,0.3,2.3,0.3c3.4,0,6.6-2.3,7.6-5.7c1.2-4.2-1.2-8.7-5.4-9.9c-27-8-51.6-23-73.2-44.6
			c-18.8-18.9-31-38.4-38.8-57.1h78.9l38.4,38.5c1.6,1.6,3.6,2.3,5.6,2.3s4.1-0.8,5.6-2.3c3.1-3.1,3.1-8.2,0-11.3L26.1-57.5
			L26.1-57.5z M10.2-73.5L-28-111.8v-62.5c13.3,3.1,26,7.9,38.2,14.4L10.2-73.5L10.2-73.5z M-54.2-178.2c3.5,0.2,6.9,0.6,10.4,1.1
			v49.5L-92-175.9c-0.2-0.2-0.4-0.4-0.6-0.5C-83.4-178-70.1-179.4-54.2-178.2z M-99.3-91.9c-9-30.4-7.1-57.3-4.4-73.3
			c0.1,0.2,0.3,0.4,0.5,0.5l72.5,72.8L-99.3-91.9L-99.3-91.9L-99.3-91.9z M28.4-1.4c4.2,1.2,6.6,5.7,5.4,9.9c-1,3.5-4.2,5.7-7.6,5.7
			c-0.7,0-1.5-0.1-2.3-0.3c-17.1-5-33.4-13.1-48.2-24c-3.5-2.6-4.3-7.6-1.7-11.2s7.6-4.3,11.1-1.7C-1.6-13.2,13-5.9,28.4-1.4
			L28.4-1.4z M-45.4-39.5c3.1-3.1,8.1-3.1,11.2,0l0,0c3.1,3.1,3.1,8.2,0,11.3c-1.6,1.6-3.6,2.3-5.6,2.3s-4.1-0.8-5.6-2.3
			C-48.5-31.3-48.5-36.4-45.4-39.5L-45.4-39.5z M73.9-216.2c0-4.4,3.6-8,8-8s8,3.6,8,8v22.6c0,4.4-3.6,8-8,8s-8-3.6-8-8V-216.2
			L73.9-216.2z M100.9-174.7c-3.1-3.1-3.1-8.2,0-11.3l16.2-16.3c3.1-3.1,8.1-3.1,11.3,0c3.1,3.1,3.1,8.2,0,11.3l-16.2,16.3
			c-1.6,1.6-3.6,2.3-5.6,2.3S102.4-173.1,100.9-174.7L100.9-174.7z M46.6-202.5l16.3,16.3c3.1,3.1,3.1,8.2,0,11.3
			c-1.6,1.6-3.6,2.3-5.6,2.3s-4.1-0.8-5.6-2.3l-16.3-16.3c-3.1-3.1-3.1-8.2,0-11.3S43.5-205.6,46.6-202.5z"/>
	</g>
</g>
<g>
	<path d="M597.8,148c0,5.5-2.5,8.2-7.5,8.2c-3.6,0-10.9-2.6-21.9-7.7c-10.1-4.6-19.1-9.9-27-15.8c-7.9-5.9-14.3-12-19.2-18.5v39.9
		c0,5.7-2.4,8.6-7.1,8.6c-4.8,0-7.1-2.9-7.1-8.6v-39.4c-8.7,9.2-18.3,17.2-28.9,24.1c-9,5.8-16.7,10.2-23.1,13.2s-11,4.5-14,4.5
		c-4.6,0-7-2.4-7-7.1c0-1.3,0.3-2.6,0.9-3.7c0.6-1.2,1.4-2.1,2.5-2.7l12.3-5.3c18.1-7.1,34.6-17.8,49.7-31.9h-35.1
		c-5.9,0-10.3-1.3-12.9-4c-2.7-2.7-3.8-6.9-3.5-12.6V57.6c0-5.9,1.3-10.3,3.8-13c2.6-2.7,6.7-4,12.6-3.7h42.6V28.7h-62.8
		c-2.6,0-4.7-0.6-6.2-1.8c-1.5-1.2-2.2-2.9-2.2-5c0-4.5,2.8-6.8,8.4-6.8h62.8V6.4c0-2.1,0.6-3.7,1.9-4.8c1.2-1.1,3-1.6,5.3-1.6
		s4,0.5,5.3,1.6c1.2,1.1,1.9,2.7,1.9,4.8v8.7h64.5c5.7,0,8.6,2.3,8.6,6.8s-2.9,6.8-8.6,6.8h-64.5v12.1h44.4c5.9,0,10.3,1.4,12.9,4.1
		c2.7,2.7,3.8,7,3.5,12.7v31.6c0,6.1-1.3,10.5-3.8,13.2c-2.6,2.7-6.7,3.9-12.6,3.4h-37.8c6.4,7.1,14.7,13.5,25,19.2
		c10.2,5.6,21.9,10.4,35.1,14.2C594.8,140.7,597.8,143.7,597.8,148z M507.9,53.8h-37.4c-2.9,0-4.8,0.5-5.7,1.4c-1,1-1.4,2.9-1.4,5.7
		v5.5H508V53.8H507.9z M507.9,79.3h-44.6v6.6c0,2.6,0.5,4.4,1.4,5.3c0.9,1,2.9,1.4,5.7,1.4h37.4V79.3H507.9z M522.2,66.5h46.4V61
		c0-2.9-0.4-4.8-1.3-5.7c-0.9-0.9-2.8-1.4-5.6-1.4h-39.4v12.6H522.2z M522.2,92.7h39.4c2.9,0,4.7-0.5,5.6-1.4
		c0.9-0.9,1.3-2.7,1.3-5.3v-6.6h-46.4v13.3H522.2z"/>
	<path d="M797.1,149.4c0,4.5-2.8,6.8-8.4,6.8h-143c-5.7,0-8.6-2.3-8.6-6.8s2.9-6.8,8.6-6.8h67.4V99.3h-43c-5.6,0-8.4-2.3-8.4-6.8
		c0-4.4,2.8-6.6,8.4-6.6h43V49.2h-43.3c-4,14.5-8.7,26.6-14.1,36.2c-2.3,4.2-4.5,7.3-6.7,9.4s-4.2,3.2-6,3.2c-2.4,0-4.1-0.6-5.3-1.8
		c-1.1-1.2-1.7-3.1-1.7-5.7c0-1.7,1.2-4.5,3.7-8.6c8.9-14.5,16.3-36.1,22.3-64.7c1.1-5.3,3.7-8,7.8-8c5,0,7.5,1.9,7.5,5.7l-0.5,4.6
		l-3.6,16H713v-26c0-5.6,2.5-8.4,7.5-8.4c4.9,0,7.3,2.8,7.3,8.4v26h53.5c5.7,0,8.6,2.3,8.6,6.8s-2.9,6.8-8.6,6.8H728v36.7h44.7
		c5.6,0,8.4,2.2,8.4,6.6c0,4.5-2.8,6.8-8.4,6.8H728v43.3h60.8C794.3,142.6,797.1,144.9,797.1,149.4z"/>
	<path d="M999.5,111.1c0,4.6-2.7,7-8.2,7H979v30.7c0,4.3-1.2,7.6-3.5,9.9c-2.3,2.3-5.6,3.5-9.9,3.5h-20.3c-5.1,0-7.7-2.3-7.7-7
		c0-4.6,2.6-7,7.7-7H960c3,0,4.5-1.5,4.5-4.5V118h-92.7v36.2c0,2.7-0.6,4.8-1.8,6.1s-3.1,2-5.7,2c-4.8,0-7.1-2.7-7.1-8V118h-13
		c-5.3,0-8-2.3-8-7c0-4.4,2.7-6.6,8-6.6h13v-47c0-5.9,1.3-10.3,3.8-13c2.6-2.7,6.7-4.1,12.6-4.1h36.9V22.1H853
		c-5.7,0-8.6-2.3-8.6-6.8s2.9-6.8,8.6-6.8h129.4c5.6,0,8.4,2.3,8.4,6.8s-2.8,6.8-8.4,6.8H925v18.2h36.9c6.1,0,10.4,1.3,13.1,4
		c2.7,2.7,4,7,4,13.1v47.1h12.3C996.8,104.5,999.5,106.7,999.5,111.1z M871.9,72.6h38.5V53.5h-30.8c-5.1,0-7.7,2.6-7.7,7.7V72.6z
		 M871.9,85.4v19.1h38.5V85.4H871.9z M925,53.5v19.1h39.4V61.1c0-5.1-2.6-7.7-7.7-7.7H925V53.5z M925,104.5h39.4V85.4H925V104.5z"/>
	<path d="M1200,149.9c0,2.3-0.8,4.2-2.3,5.7c-1.4,1.4-5.8,2.1-13,2.1c-8,0-13.9-0.1-17.8-0.2c-12,0-21-0.1-26.9-0.2
		c-13.1-0.2-24.5-1-34.4-2.3s-17.4-3-22.6-5.2c-9.9-4-17.9-11.2-24.1-21.4c-4.4,19.5-9.6,29.2-15.7,29.2c-4.2,0-6.2-2.4-6.2-7.1
		c0-2,0.8-4.5,2.3-7.5c3.1-6.1,5.7-13.9,7.8-23.6c2.1-9.7,3.2-19.1,3.5-28.3c0.2-5.7,2.6-8.6,7-8.6c4,0,6.1,2.9,6.1,8.6
		c0,3.4-0.6,11-1.8,22.6c2.1,3.9,4.3,7.1,6.4,9.5s5.2,5,9.1,7.6V70.6h-30.3c-5.5,0-8.2-2.2-8.2-6.6s2.7-6.6,8.2-6.6h29.9V37.6h-24.1
		c-2.6,0-4.6-0.6-6.1-1.7c-1.4-1.1-2.1-2.8-2.1-5.1c0-4.4,2.7-6.6,8.2-6.6h24.1v-16c0-5.3,2.4-8,7.3-8c4.6,0,7,2.7,7,8v16h18.4
		c2.6,0,4.6,0.6,6.1,1.7c1.4,1.1,2.1,2.8,2.1,5.1c0,4.4-2.7,6.6-8.2,6.6h-18.4v19.8h22.5c5.5,0,8.2,2.2,8.2,6.6c0,2.3-0.7,3.9-2,5
		c-1.3,1.1-3.4,1.6-6.2,1.6h-22.1v22.6h18.5c2.6,0,4.6,0.6,6.1,1.7c1.4,1.1,2.1,2.8,2.1,5.1c0,4.4-2.7,6.6-8.2,6.6h-18.5v32.1
		c10.2,2.9,30.5,4.4,60.8,4.6c6.8,0,14.4-0.2,22.8-0.5c2.9,0,8.3-0.1,16.4-0.4C1197.1,142.2,1200,144.7,1200,149.9z M1126.7,115.3
		V25.7c0-4.5,1.2-8,3.6-10.3c2.4-2.4,5.8-3.6,10.3-3.6h34.8c5.7,0,9.8,1.2,12.4,3.7s3.6,6.5,3.1,11.9v26.4c0,5.6-1.2,9.7-3.7,12.2
		c-2.4,2.6-6.4,3.7-11.9,3.3H1141v38.5c0,4.3,1,6.9,3,7.8c1.2,0.5,3,0.8,5.4,1.1c2.4,0.2,4.1,0.4,5.1,0.5c4,0.2,7.9,0.4,11.6,0.4
		s7.7-0.1,11.9-0.4c1.7-0.2,2.9-1.5,3.7-3.7c0.8-2.3,1.2-5.9,1.2-10.9c0-2.6,0.6-4.6,1.8-5.9c1.2-1.3,2.9-2,5-2c2.6,0,4.6,0.7,5.9,2
		s2,3.4,2,6.2c0,11.1-1.6,18.4-4.8,22.1c-1.8,2-4.4,3.4-7.8,4.2s-8.2,1.2-14.4,1.2c-12.4,0-21.3-0.3-26.8-0.9
		c-5.5-0.6-9.3-1.5-11.3-2.7C1128.7,124.8,1126.8,120.9,1126.7,115.3z M1141,55.4h29.1c2.1,0,3.8-0.6,4.9-1.8s1.7-2.9,1.7-5V32.4
		c0-4.3-2.2-6.5-6.6-6.8H1148c-4.6,0-7,2.3-7,7V55.4z"/>
</g>
<g class="st2">
	<path d="M456.4,198.5c-11.3,0-13.6,0.2-14,5.1c-0.2,2.7-0.1,8.2-0.2,14.8c0,2.3,0.1,2.3,14,2.3c5.2,0,10.6,0,12.6-0.1
		c6.3-0.3,6.3,5.6,6.3,6c0,3.3-2,6.4-6,6.4c-0.1,0-0.3,0-0.6,0c-2.8-0.2-7.1-0.3-11.4-0.3c-14,0-15.1,0.1-15.1,2.5
		c0,16.8,0.1,19.4,0.3,21.3c0.6,5.2,2.4,5.4,18.2,5.4c6.6,0,13.9-0.1,16-0.2c0.2,0,0.3,0,0.6,0c3.9,0,6.1,2.8,6.1,5.7
		c0,3-2.3,6.1-7.1,6.3c-1.5,0.1-8,0.2-14.5,0.2c-6.4,0-13-0.1-14.4-0.2c-10.4-0.8-16.8-4.5-17.2-14.4c-0.2-4.7-0.2-13.1-0.2-22.2
		c0-13.7,0.1-29.1,0.3-36.1c0.2-9,6.1-13.7,15.2-14.2c2-0.1,8.4-0.2,14.8-0.2s12.6,0.1,14.3,0.2c4.3,0.2,6.3,3,6.3,6
		s-2.4,6.1-6.6,6.1C474,198.6,464,198.5,456.4,198.5z"/>
	<path d="M533.9,270.4c-1-0.8-2-2-3-3.7c-0.1-0.2-0.3-0.3-0.5-0.3s-0.5,0.1-0.7,0.3c-3.8,4.4-10.9,6.8-17.6,6.8
		c-12.4,0-19.7-9-19.7-17.7c0-5.7,3.4-11.5,10.9-14.1c7.8-2.7,17.5-4.8,19.3-5c1.1-0.1,2-1.5,2-3.8c0-1.4-0.3-7.1-8-7.1
		c-5.1,0-8.9,2.4-11,4.7c-1.2,1.5-2.8,2-4.2,2c-2.9,0-5.4-2.3-5.4-5.2c0-5.4,9.9-11.4,21.3-11.4c12.4,0,19.1,6.1,19.1,19
		c0,1.5-0.1,2.8-0.2,4.4c-0.2,1.7-0.6,6-0.6,9.3c0,1,0,1.9,0.1,2.6c1,9,5.2,9.3,6.1,10c1.2,0.9,1.8,2.4,1.8,3.9
		c0,3.2-2.5,6.8-5.7,6.8C536.8,272.1,535.3,271.6,533.9,270.4z M523.6,246.2c-19,2.4-20.2,7.1-20.2,9.8c0,3.5,3,7,8.8,7
		c9.1,0,13.1-4.6,13.1-12.6C525.3,248.7,525.1,246.2,523.6,246.2L523.6,246.2z"/>
	<path d="M568.6,273.4c-13.7,0-19.5-7.8-19.5-11.5c0-3,2.8-5.4,5.7-5.4c1.6,0,3.3,0.7,4.5,2.4c1.6,2,4.5,3.9,9.1,3.9
		c6,0,8.3-3.2,8.3-5.7c0-3.6-2.5-5.7-15.7-11.7c-7-3-10.1-8.6-10.1-14.1c0-7.7,6.3-15.1,17.1-15.1c10.4,0,17.3,5.1,17.3,9.5
		c0,3-2.6,5.6-5.6,5.6c-1.5,0-3.2-0.7-4.6-2.3c-1.1-1.1-3.2-2.7-7.1-2.7c-3.8,0-6,2.1-6,4.6c0,1.7,1.1,3.7,3.7,5
		c2.9,1.5,8,3.7,11.4,5.5c7.8,4.2,11,9.9,11,15.4C588.3,265.6,579.9,273.4,568.6,273.4z"/>
	<path d="M618.2,227.9c-1.7,0-1.7,0.6-1.7,1.2c0,4.2-0.3,13.7-0.3,21.2c0,8.8,0.3,12.4,6.6,12.4c0.8,0,1.7-0.1,2.6-0.2
		c0.3,0,0.6-0.1,0.9-0.1c3,0,4.8,2.5,4.8,5c0,4.1-3.7,6-9.6,6c-16.7,0-16.7-14.8-16.7-19.4c0-6.5,0.2-17.8,0.2-22.7
		c0-0.7,0-1.2,0-1.7c0-1.5-0.7-1.6-1.8-1.6h-3.4c-3.3,0-5.1-2.7-5.1-5.4c0-2.6,1.7-5.2,5.1-5.2h3.3c1.8,0,1.9-0.3,1.9-1.9
		c0,0,0.1-2.3,0.1-4.8c0-1.4,0-2.7-0.1-3.9c0-0.1,0-0.2,0-0.3c0-3.4,2.7-5.1,5.6-5.1c6,0,6,5.4,6,6.9c0,3-0.2,7.3-0.2,7.3
		c0,1.8,0.5,1.9,1.6,1.9h7.5c3.4,0,5,2.6,5,5.3c0,2.6-1.6,5.3-5,5.3h-7.3V227.9z"/>
	<path d="M666.1,273.5c-15.4,0-26.9-11.6-26.9-28.4c0-17.2,12.2-29.1,26.7-29.1c15.5,0,24.3,11.4,24.3,19.9c0,5.3-3.5,9.6-10.7,9.8
		c-3.5,0.1-5.9,0.1-27.7,0.1c-0.7,0-0.9,0.9-0.9,2.1c0.1,9.3,7.3,15,15.3,15c7.1,0,11.4-3.4,14.6-6.9c1.1-1.2,2.5-1.8,3.8-1.8
		c3,0,6,2.7,6,5.9c0,1.4-0.5,2.7-1.7,3.9C683.6,269.8,677.5,273.5,666.1,273.5z M678.5,234.1c0-1.6-2.4-8.2-12.5-8.2
		c-9.1,0-14.1,7.9-14.1,9.8c0,1,1.1,1,11.6,1c4.6,0,9.7,0,12.7-0.1C677.6,236.4,678.5,235.4,678.5,234.1z"/>
	<path d="M704.4,267.3c0-0.1,0-0.1,0-0.2c0.3-10.7,0.4-18.1,0.4-24.8c0-6.8-0.1-12.6-0.3-20.2c0-0.1,0-0.1,0-0.2
		c0-3.4,3.3-5.1,6.1-5.1s5.7,1.7,5.7,5.3c0,0.5-0.1,0.8-0.1,1.1c0,0.2,0,0.3,0,0.4c0,0.2,0,0.3,0.1,0.3c0,0,0.2-0.1,0.5-0.5
		c4.5-5,10.6-6.9,14.4-6.9c3.5,0,5.5,2.6,5.5,5.4c0,2.8-2,5.7-6.4,6.2c-6.6,0.7-14.1,6.2-14.4,13.3c-0.1,2-0.1,4.4-0.1,7.4
		c0,4.4,0.1,10,0.3,18c0.1,2.4-1.2,5.7-5.7,5.7C707.3,272.8,704.4,270.9,704.4,267.3z"/>
	<path d="M783.9,267.1c0.1-4.6,0.2-13.2,0.2-20c0-4.5-0.1-8.3-0.2-10.1c-0.5-7-4.4-9.8-9.1-9.8c-6.9,0-15.1,6.1-15.4,13.6
		c-0.1,2-0.1,4.6-0.1,7.8c0,4.6,0.1,10.6,0.3,18.6c0.1,2.4-1.2,5.7-5.7,5.7c-3,0-6-1.9-6-5.5c0-0.1,0-0.1,0-0.2
		c0.3-10.7,0.4-18.1,0.4-24.8c0-6.8-0.1-12.6-0.3-20.2c0-0.1,0-0.1,0-0.2c0-3.4,3.3-5.1,6.1-5.1s5.7,1.7,5.7,5.3
		c0,0.5-0.1,0.8-0.1,1.1c0,0.1,0,0.2,0,0.3s0,0.2,0.1,0.2s0.3-0.2,0.6-0.5c4.2-4.5,10.1-6.8,16-6.8c9.5,0,18.6,6.2,19,18.8
		c0.1,4.1,0.3,14.1,0.3,22.4c0,3.5,0,6.6-0.1,9c-0.1,4.1-2.9,6-5.9,6c-2.9,0-5.9-2-5.9-5.6l0,0H783.9z"/>
	<path d="M867.7,233c-1.5,0-4.1-0.1-6.2-0.1c-2.1,0-3.7,0.1-3.7,2.1c0,8.4,0.3,26.9,0.3,31c-0.1,4.2-3.4,6.2-6.6,6.2
		c-3,0-6.1-1.9-6.1-5.6c0-0.1,0-0.1,0-0.2c0.3-10.5,0.3-23.9,0.3-36.3c0-24.3,0-24.8,0.1-29.4c0.3-14.4,13.2-14.4,22.6-14.4
		c2.6,0,5.2,0.1,6.9,0.2c18.2,1.2,25.8,11.9,25.8,22.5c0,9.7-6.3,19.1-16.4,21.2c-0.8,0.2-1.1,0.3-1.1,0.7c0,0.5,0.8,1,1.6,1.9
		c5.5,6.1,8.7,13,12.6,19.3c2.8,4.6,5.4,6.8,9.2,7.2s5.9,3.5,5.9,6.6c0,3.4-2.3,6.6-7.2,6.6c-1.8,0-11-0.3-18.7-14
		C879.7,246.1,873.1,233.2,867.7,233z M888.3,209.4c0-5.6-4.3-11.1-14.1-11.7c-1.5-0.1-3.5-0.1-5.6-0.1c-6.1,0-10.1,0.3-10.5,5.6
		c-0.2,2.7-0.1,10.7-0.2,17.2c0,2.3,1.5,2.4,9.3,2.4c2.8,0,5.7-0.1,7.8-0.2C883.4,221.8,888.3,215.5,888.3,209.4z"/>
	<path d="M945.6,273.5c-15.4,0-26.9-11.6-26.9-28.4c0-17.2,12.2-29.1,26.7-29.1c15.5,0,24.3,11.4,24.3,19.9c0,5.3-3.5,9.6-10.7,9.8
		c-3.5,0.1-5.9,0.1-27.7,0.1c-0.7,0-0.9,0.9-0.9,2.1c0.1,9.3,7.3,15,15.3,15c7.1,0,11.4-3.4,14.6-6.9c1.1-1.2,2.5-1.8,3.8-1.8
		c3,0,6,2.7,6,5.9c0,1.4-0.5,2.7-1.7,3.9C963.1,269.8,957,273.5,945.6,273.5z M958,234.1c0-1.6-2.4-8.2-12.5-8.2
		c-9.1,0-14.1,7.9-14.1,9.8c0,1,1.1,1,11.6,1c4.6,0,9.7,0,12.7-0.1C957.1,236.4,958,235.4,958,234.1z"/>
	<path d="M1001.8,272.7c-3,0-6-1.8-7.7-6c-16.8-42.5-16.8-42.6-16.8-44.4c0-3.5,2.9-5.6,5.9-5.6c2.4,0,4.6,1.2,5.5,4.1
		c1.4,4.1,8.6,23.4,11.9,34.2c0.5,1.5,0.8,2.1,1.2,2.1s0.8-0.9,1.2-2.1c3.2-9.2,9.6-27,12-34.3c0.9-2.7,3.2-3.9,5.4-3.9
		c3,0,6.2,2.3,6.2,5.5c0,3.8-15.5,41.6-16.8,44.5C1008.5,270.4,1005.1,272.7,1001.8,272.7z"/>
	<path d="M1037.7,194.3c0-5.5,4.7-7.7,7.9-7.7c4.1,0,7.9,3.4,7.9,7.7c0,4.1-3,8-7.9,8C1041.2,202.3,1037.7,199.5,1037.7,194.3z
		 M1045.6,273.1c-3,0-6-1.9-6-5.7c0-9.3,0.1-22.2,0.1-32.4c0-5.1,0-9.6-0.1-12.6c-0.1-3.7,2.7-5.7,6.1-5.7c2.9,0,6,1.8,6,5.4
		c0,0.1,0,0.1,0,0.2c-0.1,4.6-0.2,13.5-0.2,23c0,7.8,0.1,15.8,0.2,22c0,0.1,0,0.1,0,0.2C1051.7,271.2,1048.7,273.1,1045.6,273.1z"/>
	<path d="M1088.6,272.7c-3,0-6-1.8-7.7-6c-16.8-42.5-16.8-42.6-16.8-44.4c0-3.5,2.9-5.6,5.9-5.6c2.4,0,4.6,1.2,5.5,4.1
		c1.4,4.1,8.6,23.4,11.9,34.2c0.5,1.5,0.8,2.1,1.2,2.1s0.8-0.9,1.2-2.1c3.2-9.2,9.6-27,12-34.3c0.9-2.7,3.2-3.9,5.4-3.9
		c3,0,6.2,2.3,6.2,5.5c0,3.8-15.5,41.6-16.8,44.5C1095.3,270.4,1091.9,272.7,1088.6,272.7z"/>
	<path d="M1163.6,270.4c-1-0.8-2-2-3-3.7c-0.1-0.2-0.3-0.3-0.5-0.3s-0.5,0.1-0.7,0.3c-3.8,4.4-10.9,6.8-17.6,6.8
		c-12.4,0-19.7-9-19.7-17.7c0-5.7,3.4-11.5,10.9-14.1c7.8-2.7,17.5-4.8,19.3-5c1.1-0.1,2-1.5,2-3.8c0-1.4-0.3-7.1-8-7.1
		c-5.1,0-8.9,2.4-11,4.7c-1.2,1.5-2.8,2-4.2,2c-2.9,0-5.4-2.3-5.4-5.2c0-5.4,9.9-11.4,21.3-11.4c12.4,0,19.1,6.1,19.1,19
		c0,1.5-0.1,2.8-0.2,4.4c-0.2,1.7-0.6,6-0.6,9.3c0,1,0,1.9,0.1,2.6c1,9,5.2,9.3,6.1,10c1.2,0.9,1.8,2.4,1.8,3.9
		c0,3.2-2.5,6.8-5.7,6.8C1166.4,272.1,1165,271.6,1163.6,270.4z M1153.3,246.2c-19,2.4-20.2,7.1-20.2,9.8c0,3.5,3,7,8.8,7
		c9.1,0,13.1-4.6,13.1-12.6c0-1.7-0.2-4.2-1.6-4.2H1153.3z"/>
	<path d="M1185.1,266.4c0.2-7.9,0.2-23.9,0.2-39s0-29.4-0.2-33.9c-0.1-4.1,2.9-6.3,6.2-6.3c3,0,6.1,2,6.1,6c0,0.1,0,0.1,0,0.2
		c-0.1,5.5-0.3,22.9-0.3,40.4c0,11.9,0.1,24,0.3,32.5c0,0.1,0,0.1,0,0.2c0,3.9-3,5.9-6.1,5.9
		C1188.1,272.4,1185.1,270.4,1185.1,266.4L1185.1,266.4z"/>
</g>
</svg>
