<svg xmlns="http://www.w3.org/2000/svg" viewBox="0 0 226.77 283.46"><defs><style>.cls-1{isolation:isolate;}.cls-2{fill:#fff;}.cls-3{fill:#280000;}.cls-4{fill:#ecb79e;}.cls-5{fill:#d1d3d4;mix-blend-mode:multiply;}.cls-6{fill:#003a54;}.cls-7{fill:#4b1d1b;}.cls-8{fill:#612c2a;}</style></defs><g class="cls-1"><g id="Capa_1" data-name="Capa 1"><rect class="cls-2" x="-19.13" y="-16.04" width="425.2" height="425.2"/><rect class="cls-3" x="56.83" y="123.04" width="115.32" height="96.68"/><rect class="cls-4" x="91.2" y="184.28" width="45.3" height="26.17"/><path class="cls-5" d="M103.86,204.35a40.27,40.27,0,0,0,20-6.16,37.32,37.32,0,0,0,11-10.34c.54-.79,1.14-1.68,1.69-2.64v-.93H91.2v19.59A94.16,94.16,0,0,0,103.86,204.35Z"/><path class="cls-4" d="M170,113c0-42-25.15-66.08-56.24-66.28h-.65C82,46.94,56.83,71.06,56.83,113c0,54.43,39.17,86.17,56.49,86.31h.12C130.76,199.19,170,167.45,170,113Z"/><path class="cls-4" d="M164.37,128.56l-3.23,24.73c12.69,5.59,14.68-23.51,14.68-23.51C172.88,122.52,164.37,128.56,164.37,128.56Z"/><path class="cls-4" d="M52.39,129.78s2,29.1,14.67,23.51l-3.23-24.73S55.32,122.52,52.39,129.78Z"/><path class="cls-4" d="M91,208.46,36.53,225.32S17.46,228.7,12.6,248.55l-8.34,36H222.52l-8.34-36c-4.87-19.85-23.94-23.23-23.94-23.23l-54.49-16.86Z"/><path class="cls-6" d="M167.2,218.19l23,7.13s19.07,3.38,23.94,23.23l8.34,36H4.26l8.34-36c4.86-19.85,23.93-23.23,23.93-23.23l23.19-7.17s0,51.06,53.66,52.35C113.38,270.5,166.15,275.94,167.2,218.19Z"/><path class="cls-7" d="M86.05,67.18s11,44.08,83.9,57c0,0-4,83.83-31.26,124.22,0,0,30.95,5.44,39.33-15.42,0,0,12.27-111.29-3-152.89,0,0-17.38-66.88-83.84-37.93C91.2,42.13,75.19,46.74,86.05,67.18Z"/><path class="cls-7" d="M147.17,67.18S86.07,34.43,67.06,121c0,0,.21,87,27.46,127.39,0,0-30.95,5.44-39.32-15.42,0,0-12.28-111.29,3-152.89,0,0,17.39-66.88,83.85-37.94C142,42.12,158,46.74,147.17,67.18Z"/><path class="cls-8" d="M91.83,47.14c-.86,6.47,4.41,19.62,8.31,26.24,0-3.18-.64-7.09.87-9.69,2.79,6.25,5.22,15.57,10,20.22a15.41,15.41,0,0,0-.58-10.26c.38,5.92,8.93,21.22,13.93,23.57a16.1,16.1,0,0,0-.93-8c4.73,4.32,8.33,12,14,14.84,1.14-2.65-.37-5.42-.52-8.19,3.86,5.77,11.62,12,18.51,13.33.09-2-.59-4.15-.91-6.09,4.47.43,10.11,5.51,12.94,9.06a18.37,18.37,0,0,1-1-3.4c.88,1.12,2,1.93,2.64,3.56.79-7.13-6.24-15.52-10-21.53a12.62,12.62,0,0,0,.61,4.89,29.2,29.2,0,0,0-6.2-7.44c-.15,2.75,0,5.64-.15,8.33-1.18-2-1.6-4.44-3.58-5.8a14.45,14.45,0,0,0-.6,2.91c-.7-3.39-3.87-4.06-4.65,0-1.91-1.68-3.09-5.23-5-7.2.16,1.23-.25,2.66-.07,4-1.42-1.61-2.11-3.74-3.56-5.36-.18.58-.83,1.52-1,1.93-1.7-4.86-4.7-8.73-7.44-13a15.49,15.49,0,0,0-.47,5.64,7.82,7.82,0,0,0-3.15-7.55c-.7,1.78-.54,3.93-.47,6,.06-5.57-7.34-8.57-9.22-13.32a26.3,26.3,0,0,0-.1,4.44c.24-2.44-.79-12.55-4.53-9.28a22.32,22.32,0,0,1-1.68-1.84,5.35,5.35,0,0,1-1.18,1.23c-.41-2.6-3.2-12.33-7-9.25-.8-.45-1.42-.95-2.13-1.3a1.84,1.84,0,0,0-.08,1,20.8,20.8,0,0,1-1.63-3.09,8.73,8.73,0,0,0-2.5-.08"/></g></g></svg>