<svg width="150" height="150" xmlns="http://www.w3.org/2000/svg">
 <!-- Created with Method Draw - http://github.com/duopixel/Method-Draw/ -->

 <g>
  <title>background</title>
  <rect fill="none" id="canvas_background" height="152" width="152" y="-1" x="-1"/>
  <g display="none" overflow="visible" y="0" x="0" height="100%" width="100%" id="canvasGrid">
   <rect fill="url(#gridpattern)" stroke-width="0" y="0" x="0" height="100%" width="100%"/>
  </g>
 </g>
 <g>
  <title>Layer 1</title>
  <g fill-opacity="0" stroke="null" id="svg_52">
   <g stroke="null" transform="matrix(0.29287658877123296,0,0,0.29287658877123296,-2227.5732501791217,-2227.789033030218) " id="svg_31">
    <g stroke="null" id="svg_32">
     <g stroke="null" id="svg_33">
      <path fill="#000000" stroke="null" id="svg_34" d="m7911.11467,7783.90155c-7.789,0 -15.578,2.797 -15.578,9.387l0,67.9l-32.352,-61.709c-7.59,-14.579 -11.783,-15.578 -22.967,-15.578c-7.789,0 -15.577,2.996 -15.577,9.586l0,126.813c0,6.391 7.788,9.586 15.577,9.586s15.577,-3.195 15.577,-9.586l0,-67.9l37.944,69.099c3.795,6.99 10.186,8.388 17.375,8.388c7.788,0 15.576,-3.195 15.576,-9.586l0,-127.014c0,-6.589 -7.788,-9.386 -15.575,-9.386z"/>
      <path fill="#000000" stroke="null" id="svg_35" d="m7801.67767,7811.06155c5.991,0 9.387,-6.39 9.387,-13.779c0,-6.391 -2.797,-13.381 -9.387,-13.381l-71.096,0c-6.79,0 -13.58,3.195 -13.58,9.586l0,126.814c0,6.391 6.79,9.586 13.58,9.586l71.096,0c6.59,0 9.387,-6.99 9.387,-13.381c0,-7.388 -3.396,-13.779 -9.387,-13.779l-53.521,0l0,-33.95l29.956,0c6.591,0 9.386,-6.39 9.386,-11.782c0,-6.391 -3.395,-12.183 -9.386,-12.183l-29.956,0l0,-33.751l53.521,0z"/>
      <path fill="#000000" stroke="null" id="svg_36" d="m8043.98567,7857.13755l71.924,-151.419c2.943,-6.196 2.506,-13.469 -1.159,-19.267c-3.666,-5.798 -10.048,-9.314 -16.907,-9.314l-472,0c-11.046,0 -20,8.954 -20,20l0,320c0,11.046 8.954,20 20,20l472,0c6.859,0 13.241,-3.516 16.906,-9.314c3.665,-5.798 4.103,-13.07 1.159,-19.267l-71.923,-151.419zm-398.142,140l0,-280l420.358,0l-62.424,131.419c-2.579,5.43 -2.579,11.732 0,17.162l62.424,131.419l-420.358,0z"/>
     </g>
    </g>
   </g>
   <g stroke="null" transform="matrix(0.29287658877123296,0,0,0.29287658877123296,-2227.5732501791217,-2227.789033030218) " id="svg_37"/>
   <g stroke="null" transform="matrix(0.29287658877123296,0,0,0.29287658877123296,-2227.5732501791217,-2227.789033030218) " id="svg_38"/>
   <g stroke="null" transform="matrix(0.29287658877123296,0,0,0.29287658877123296,-2227.5732501791217,-2227.789033030218) " id="svg_39"/>
   <g stroke="null" transform="matrix(0.29287658877123296,0,0,0.29287658877123296,-2227.5732501791217,-2227.789033030218) " id="svg_40"/>
   <g stroke="null" transform="matrix(0.29287658877123296,0,0,0.29287658877123296,-2227.5732501791217,-2227.789033030218) " id="svg_41"/>
   <g stroke="null" transform="matrix(0.29287658877123296,0,0,0.29287658877123296,-2227.5732501791217,-2227.789033030218) " id="svg_42"/>
   <g stroke="null" transform="matrix(0.29287658877123296,0,0,0.29287658877123296,-2227.5732501791217,-2227.789033030218) " id="svg_43"/>
   <g stroke="null" transform="matrix(0.29287658877123296,0,0,0.29287658877123296,-2227.5732501791217,-2227.789033030218) " id="svg_44"/>
   <g stroke="null" transform="matrix(0.29287658877123296,0,0,0.29287658877123296,-2227.5732501791217,-2227.789033030218) " id="svg_45"/>
   <g stroke="null" transform="matrix(0.29287658877123296,0,0,0.29287658877123296,-2227.5732501791217,-2227.789033030218) " id="svg_46"/>
   <g stroke="null" transform="matrix(0.29287658877123296,0,0,0.29287658877123296,-2227.5732501791217,-2227.789033030218) " id="svg_47"/>
   <g stroke="null" transform="matrix(0.29287658877123296,0,0,0.29287658877123296,-2227.5732501791217,-2227.789033030218) " id="svg_48"/>
   <g stroke="null" transform="matrix(0.29287658877123296,0,0,0.29287658877123296,-2227.5732501791217,-2227.789033030218) " id="svg_49"/>
   <g stroke="null" transform="matrix(0.29287658877123296,0,0,0.29287658877123296,-2227.5732501791217,-2227.789033030218) " id="svg_50"/>
   <g stroke="null" transform="matrix(0.29287658877123296,0,0,0.29287658877123296,-2227.5732501791217,-2227.789033030218) " id="svg_51"/>
  </g>
 </g>
</svg>