<svg xmlns="http://www.w3.org/2000/svg" viewBox="0 0 500 500"><defs><style>.cls-1{isolation:isolate;}.cls-2{fill:#d9defa;}.cls-3{fill:#ff495a;}.cls-4{fill:#e21c47;}.cls-5{fill:#b9112e;}.cls-6{fill:#22d4b8;}.cls-7{fill:#7c3cdf;}.cls-8{fill:#fff9ff;}.cls-9{mix-blend-mode:multiply;}.cls-10{fill:#2a3554;}.cls-11{fill:#00a8a0;}.cls-12{fill:#007e87;}.cls-13{fill:#5320b1;}.cls-14{fill:#f9a38f;}.cls-15{fill:#021019;}.cls-16{fill:#524e82;}.cls-17{fill:#f9856b;}.cls-18{fill:#d25c48;}.cls-19{fill:#e6e6e6;}</style></defs><g class="cls-1"><g id="OBJECTS"><ellipse class="cls-2" cx="249.39" cy="436.86" rx="210.35" ry="15.14"/><path class="cls-2" d="M228.37,182.3c-16.43-59.59-90.44-78.78-132.86-34.25-.61.64-1.22,1.29-1.82,1.95C32.88,216.1,59.93,381.26,188,418.89,320.84,458,447.43,386.18,454.84,318.78s-51.13-88.57-142-69.73C261.51,259.7,238.59,219.39,228.37,182.3Z"/><path class="cls-2" d="M117.56,117.21H55.32s2.73-17.55,10.43-16.87c2.13.19,3.58,2.35,4.53,4.67a1.61,1.61,0,0,0,3-.16c2-7.14,6.2-18,12.66-18,6.67,0,6.9,12.46,6.41,20a1.12,1.12,0,0,0,2,.71c1.76-2.6,4.33-5.09,7.46-4.36,2.67.61,3.85,3.38,4.34,6.3a.87.87,0,0,0,1.67.15c1.63-4.32,4.51-10.6,7.58-10.73C120.17,98.74,117.56,117.21,117.56,117.21Z"/><path class="cls-2" d="M462.67,195.56H400.44s2.73-17.56,10.43-16.87c2.13.18,3.58,2.35,4.53,4.66a1.61,1.61,0,0,0,3.05-.15c2-7.14,6.2-18,12.66-18,6.67,0,6.89,12.46,6.41,20.05a1.12,1.12,0,0,0,2.05.7c1.76-2.59,4.33-5.08,7.46-4.36,2.67.62,3.85,3.39,4.34,6.3A.87.87,0,0,0,453,188c1.63-4.32,4.51-10.61,7.57-10.74C465.29,177.08,462.67,195.56,462.67,195.56Z"/><path class="cls-2" d="M407.36,95.88H345.12S347.85,78.33,355.55,79c2.13.19,3.58,2.35,4.53,4.67a1.62,1.62,0,0,0,3.06-.16c2-7.14,6.2-18,12.65-18,6.68,0,6.9,12.45,6.42,20a1.12,1.12,0,0,0,2.05.71c1.76-2.6,4.33-5.09,7.46-4.36,2.67.61,3.85,3.38,4.34,6.3a.87.87,0,0,0,1.67.15c1.62-4.32,4.51-10.6,7.57-10.73C410,77.41,407.36,95.88,407.36,95.88Z"/><path class="cls-2" d="M57.93,313.71a27.91,27.91,0,0,0-.35-22.2c-3-6.88-8.1-14.31-15.13-11.72-12.34,4.55-3,36,6.43,40.1C53.14,321.77,56,318.19,57.93,313.71Z"/><path class="cls-2" d="M430.34,409.24A28,28,0,0,0,448.84,397c4.15-6.28,7.68-14.54,1.71-19.06-10.49-7.94-31.88,16.89-30.3,27C421,409.55,425.54,410.06,430.34,409.24Z"/><path class="cls-2" d="M222.78,129.32a20.06,20.06,0,0,0-11-11.56c-4.95-2.15-11.24-3.63-13.69,1.16C193.8,127.32,214,139.37,221,137,224.17,135.91,224,132.61,222.78,129.32Z"/><path class="cls-2" d="M349.7,128.45a.86.86,0,0,0,.39,0c1.4-.34,2.21-.48,2.22-.48a.73.73,0,0,0,.62-.85.77.77,0,0,0-.9-.59s-.87.15-2.34.51a.72.72,0,0,0,0,1.41Z"/><path class="cls-2" d="M304.42,162c-.72,1.24-1.42,2.53-2.08,3.83a.8.8,0,0,1-.89.4l-.15-.05a.73.73,0,0,1-.37-1c.67-1.32,1.38-2.64,2.12-3.91a.82.82,0,0,1,1.06-.29A.71.71,0,0,1,304.42,162Z"/><path class="cls-2" d="M300.51,169.76c-.56,1.31-1.1,2.67-1.59,4a.79.79,0,0,1-.93.47l-.06,0a.71.71,0,0,1-.48-.92c.5-1.39,1-2.78,1.61-4.12a.81.81,0,0,1,1-.4A.72.72,0,0,1,300.51,169.76Z"/><path class="cls-2" d="M293.9,191.19a.73.73,0,0,1-.58-.8c.2-1.45.43-2.91.7-4.33a.77.77,0,0,1,.9-.59.72.72,0,0,1,.63.84c-.26,1.4-.49,2.83-.68,4.27a.78.78,0,0,1-.88.63Z"/><path class="cls-2" d="M297,177a.72.72,0,0,1,.54.9c-.19.64-.37,1.29-.55,1.93s-.39,1.5-.57,2.25a.78.78,0,0,1-.93.55h0a.74.74,0,0,1-.57-.87c.19-.77.38-1.54.58-2.29s.37-1.31.56-2A.79.79,0,0,1,297,177Z"/><path class="cls-2" d="M306.75,158.29a.81.81,0,0,1-.85.31.5.5,0,0,1-.23-.09.71.71,0,0,1-.24-1c.83-1.23,1.71-2.45,2.62-3.63a.81.81,0,0,1,1.09-.16.69.69,0,0,1,.17,1C308.42,155.88,307.56,157.08,306.75,158.29Z"/><path class="cls-2" d="M345.71,129.7c-1.42.45-2.86,1-4.29,1.52a.8.8,0,0,1-.48,0,.75.75,0,0,1-.53-.43.7.7,0,0,1,.42-.95c1.45-.57,2.93-1.09,4.38-1.56a.8.8,0,0,1,1,.46A.72.72,0,0,1,345.71,129.7Z"/><path class="cls-2" d="M333.17,135a.81.81,0,0,1-1.06-.28.7.7,0,0,1,.3-1c1.36-.71,2.75-1.4,4.15-2a.8.8,0,0,1,1,.34.71.71,0,0,1-.36,1C335.87,133.6,334.5,134.27,333.17,135Z"/><path class="cls-2" d="M318.39,145.07a.82.82,0,0,1-.73.18.85.85,0,0,1-.37-.21.71.71,0,0,1,0-1c1.13-1,2.31-2,3.51-2.9a.83.83,0,0,1,1.1.1.7.7,0,0,1-.1,1C320.65,143.14,319.5,144.1,318.39,145.07Z"/><path class="cls-2" d="M325.45,139.6a.8.8,0,0,1-.65.11.78.78,0,0,1-.44-.27.71.71,0,0,1,.17-1c1.25-.85,2.55-1.68,3.87-2.47a.8.8,0,0,1,1.07.22.71.71,0,0,1-.23,1C328,137.94,326.67,138.76,325.45,139.6Z"/><path class="cls-2" d="M312.12,151.33a.82.82,0,0,1-.8.24.75.75,0,0,1-.3-.14.7.7,0,0,1-.1-1c1-1.13,2-2.23,3.09-3.3a.83.83,0,0,1,1.1,0,.71.71,0,0,1,0,1C314.1,149.15,313.09,150.23,312.12,151.33Z"/><polygon class="cls-3" points="350.48 123.5 348.9 111.3 390.22 117.23 350.48 123.5"/><polygon class="cls-4" points="390.22 117.23 352.05 126.61 351.95 126.63 350.03 128.83 350.48 123.5 390.22 117.23"/><polygon class="cls-5" points="350.03 128.83 353.46 128.79 351.95 126.63 350.03 128.83"/><polygon class="cls-3" points="356.75 125.45 351.95 126.63 359.76 137.76 390.22 117.23 356.75 125.45"/><path class="cls-3" d="M381.36,209.52a5.31,5.31,0,1,1,5.31,5.31A5.31,5.31,0,0,1,381.36,209.52Zm1.66,0a3.65,3.65,0,1,0,3.65-3.65A3.66,3.66,0,0,0,383,209.52Z"/><path class="cls-6" d="M386.36,178.83a5.31,5.31,0,1,1,5.31,5.31A5.32,5.32,0,0,1,386.36,178.83Zm1.67,0a3.65,3.65,0,1,0,3.64-3.64A3.64,3.64,0,0,0,388,178.83Z"/><path class="cls-7" d="M367.15,187.05a.83.83,0,0,0,.83-.83v-3.68a.83.83,0,1,0-1.66,0v3.68A.83.83,0,0,0,367.15,187.05Z"/><path class="cls-7" d="M367.15,193.48a.83.83,0,0,0,.83-.83V189a.83.83,0,0,0-1.66,0v3.68A.83.83,0,0,0,367.15,193.48Z"/><path class="cls-7" d="M362,188.43h3.3a.84.84,0,0,0,.84-.83.85.85,0,0,0-.84-.84H362a.84.84,0,0,0-.83.84A.83.83,0,0,0,362,188.43Z"/><path class="cls-7" d="M369,188.43h3.29a.84.84,0,0,0,.84-.83.85.85,0,0,0-.84-.84H369a.85.85,0,0,0-.84.84A.84.84,0,0,0,369,188.43Z"/><path class="cls-3" d="M375.58,158.39a.84.84,0,0,0,.84-.83v-3.67a.85.85,0,0,0-.84-.84.84.84,0,0,0-.83.84v3.67A.83.83,0,0,0,375.58,158.39Z"/><path class="cls-3" d="M375.58,164.82a.84.84,0,0,0,.84-.83v-3.68a.84.84,0,0,0-.84-.83.83.83,0,0,0-.83.83V164A.83.83,0,0,0,375.58,164.82Z"/><path class="cls-3" d="M370.43,159.77h3.3a.83.83,0,0,0,.83-.83.84.84,0,0,0-.83-.84h-3.3a.85.85,0,0,0-.84.84A.84.84,0,0,0,370.43,159.77Z"/><path class="cls-3" d="M377.44,159.77h3.3a.83.83,0,0,0,.83-.83.84.84,0,0,0-.83-.84h-3.3a.84.84,0,0,0-.83.84A.83.83,0,0,0,377.44,159.77Z"/><path class="cls-3" d="M48.82,254.3A5.31,5.31,0,1,1,54.13,249,5.31,5.31,0,0,1,48.82,254.3Zm0-9A3.65,3.65,0,1,0,52.46,249,3.65,3.65,0,0,0,48.82,245.35Z"/><path class="cls-6" d="M45.17,225.16a5.31,5.31,0,1,1,5.31-5.31A5.33,5.33,0,0,1,45.17,225.16Zm0-9a3.65,3.65,0,1,0,3.65,3.65A3.65,3.65,0,0,0,45.17,216.2Z"/><path class="cls-7" d="M70,226.28a.84.84,0,0,1-.84-.83v-3.68a.84.84,0,0,1,.84-.83.83.83,0,0,1,.83.83v3.68A.83.83,0,0,1,70,226.28Z"/><path class="cls-7" d="M70,232.71a.85.85,0,0,1-.84-.84V228.2a.84.84,0,0,1,.84-.83.83.83,0,0,1,.83.83v3.67A.84.84,0,0,1,70,232.71Z"/><path class="cls-7" d="M75.17,227.66h-3.3a.84.84,0,0,1-.83-.84.83.83,0,0,1,.83-.83h3.3a.83.83,0,0,1,.83.83A.84.84,0,0,1,75.17,227.66Z"/><path class="cls-7" d="M68.16,227.66h-3.3a.84.84,0,0,1-.83-.84.83.83,0,0,1,.83-.83h3.3a.83.83,0,0,1,.83.83A.84.84,0,0,1,68.16,227.66Z"/><path class="cls-3" d="M66.51,197.46a.84.84,0,0,1-.83-.84V193a.83.83,0,0,1,1.66,0v3.67A.84.84,0,0,1,66.51,197.46Z"/><path class="cls-3" d="M66.51,203.88a.83.83,0,0,1-.83-.83v-3.67a.83.83,0,1,1,1.66,0v3.67A.83.83,0,0,1,66.51,203.88Z"/><path class="cls-3" d="M71.67,198.83h-3.3a.83.83,0,1,1,0-1.66h3.3a.83.83,0,0,1,0,1.66Z"/><path class="cls-3" d="M64.65,198.83h-3.3a.83.83,0,1,1,0-1.66h3.3a.83.83,0,1,1,0,1.66Z"/><rect class="cls-3" x="164.59" y="84.63" width="28.49" height="22.72" rx="4.73"/><path class="cls-8" d="M178.84,88.2a7.8,7.8,0,1,0,7.8,7.8A7.81,7.81,0,0,0,178.84,88.2Zm.31,10.67V96.14h3.53a9.94,9.94,0,0,1-.42,2.73Zm2.21,3.12a9,9,0,0,0,1.36-2.49h2.37a7.14,7.14,0,0,1-4.67,3.49A8.11,8.11,0,0,0,181.36,102Zm.69-2.49a8.11,8.11,0,0,1-1.17,2.08,6.47,6.47,0,0,1-1.73,1.58V99.5Zm-2.9-7.34V88.83l.28,0a9.77,9.77,0,0,1,2.45,3.31Zm3.41,0a10.23,10.23,0,0,0-1.05-1.92,9.67,9.67,0,0,0-1-1.21,7.18,7.18,0,0,1,4.37,3.13Zm-3.41,3.36V92.78h3a8.83,8.83,0,0,1,.54,2.74Zm4.15,0a9.53,9.53,0,0,0-.5-2.74h2.45a7.08,7.08,0,0,1,.74,2.74Zm2.71.62a6.92,6.92,0,0,1-.61,2.73h-2.49a10.9,10.9,0,0,0,.39-2.73Zm-11.17,2.73h-2.57a7.09,7.09,0,0,1-.6-2.73h2.78A10.9,10.9,0,0,0,174.84,98.87Zm1-6.71a10.25,10.25,0,0,1,.87-1.55,9.64,9.64,0,0,1,1.59-1.77h.2v3.33Zm2.66.62v2.74h-3.45a9,9,0,0,1,.54-2.74Zm-5.74-.62A7.2,7.2,0,0,1,177.25,89a11.14,11.14,0,0,0-1,1.24,10.23,10.23,0,0,0-1.05,1.92Zm5.74,4v2.73h-3a10.33,10.33,0,0,1-.42-2.73Zm-6.84-.62a7.08,7.08,0,0,1,.74-2.74H175a9.53,9.53,0,0,0-.5,2.74Zm3.34,4a9,9,0,0,0,1.36,2.49,8.5,8.5,0,0,0,1,1,7.25,7.25,0,0,1-4.76-3.51Zm3.5,0v3.61a7.31,7.31,0,0,1-2.83-3.61Z"/><rect class="cls-3" x="429.01" y="216.52" width="28.49" height="22.72" rx="4.73"/><path class="cls-8" d="M441.4,229.19a5.3,5.3,0,1,1,7.49-.3A5.3,5.3,0,0,1,441.4,229.19Zm6-6.5a3.55,3.55,0,1,0,.21,5A3.54,3.54,0,0,0,447.4,222.69Z"/><path class="cls-8" d="M435.55,235.53a.88.88,0,0,1-.05-1.23l5.85-6.34a.87.87,0,0,1,1.29,1.18l-5.85,6.34A.87.87,0,0,1,435.55,235.53Z"/><path class="cls-3" d="M55.56,152.52v15.12a3.63,3.63,0,0,0,3.62,3.62H86.63l8.28,3a1.05,1.05,0,0,0,1.34-1.37l-3.13-8.1V152.52a3.62,3.62,0,0,0-3.62-3.62H59.18A3.62,3.62,0,0,0,55.56,152.52Z"/><g class="cls-9"><path class="cls-4" d="M79.4,160.51A2.62,2.62,0,1,0,82,157.89,2.63,2.63,0,0,0,79.4,160.51Z"/><path class="cls-4" d="M71.11,160.51a2.62,2.62,0,1,0,2.62-2.62A2.63,2.63,0,0,0,71.11,160.51Z"/><path class="cls-4" d="M62.82,160.51a2.62,2.62,0,1,0,2.62-2.62A2.63,2.63,0,0,0,62.82,160.51Z"/></g><path class="cls-10" d="M196.11,438.59a3.37,3.37,0,0,1-1.34-.29,3.27,3.27,0,0,1-1.65-4.32l24.53-54.75a3.27,3.27,0,0,1,6,2.67l-24.54,54.75A3.25,3.25,0,0,1,196.11,438.59Z"/><path class="cls-10" d="M312.73,438.59a3.37,3.37,0,0,0,1.34-.29,3.27,3.27,0,0,0,1.64-4.32l-24.53-54.75a3.27,3.27,0,0,0-6,2.67l24.53,54.75A3.28,3.28,0,0,0,312.73,438.59Z"/><circle class="cls-4" cx="267.76" cy="280.99" r="116.65" transform="translate(-120.26 271.64) rotate(-45)"/><circle class="cls-3" cx="254.42" cy="280.99" r="116.65" transform="translate(-124.17 262.2) rotate(-45)"/><circle class="cls-8" cx="254.42" cy="280.99" r="92.2" transform="translate(-124.17 262.2) rotate(-45)"/><circle class="cls-3" cx="254.42" cy="280.99" r="67.75" transform="translate(-60.52 70.05) rotate(-14.03)"/><circle class="cls-8" cx="254.42" cy="280.99" r="43.3" transform="translate(-68.42 82.35) rotate(-16.24)"/><path class="cls-3" d="M259.51,299.13a18.84,18.84,0,1,1,13.05-23.23A18.85,18.85,0,0,1,259.51,299.13Z"/><path class="cls-10" d="M257.44,278.9,145.25,153.62a3.1,3.1,0,0,0-4.62,4.14L253.05,283.3A6.41,6.41,0,0,0,257.44,278.9Z"/><polygon class="cls-6" points="193.9 217.25 158.53 215.17 139.75 194.2 149.26 193.4 132.39 185.98 105.93 156.44 141.18 158.37 193.9 217.25"/><polygon class="cls-6" points="198.53 213.11 200.34 177.73 181.56 156.76 179.72 166.12 174.2 148.54 147.74 119 145.8 154.23 198.53 213.11"/><path class="cls-3" d="M93.52,435.63V388.31c0-5.68-42-5.68-42,0v47.32C51.48,439.94,93.52,439.94,93.52,435.63Z"/><path class="cls-4" d="M93.52,393.24V396a83.59,83.59,0,0,1-20.86,2.43,81.7,81.7,0,0,1-21.18-2.54v-2.75a78.75,78.75,0,0,0,21.18,2.65A79.9,79.9,0,0,0,93.52,393.24Z"/><ellipse class="cls-10" cx="72.5" cy="387.8" rx="18.83" ry="2.45"/><path class="cls-11" d="M72.57,374.84l.54-.14c3-.85,17.26-5.76,19.4-22.09,1.92-14.55,3.94-23.77,7.58-28.8A.89.89,0,0,0,99,322.47C86.25,328,49.78,346.8,71.66,373.75,72,374.11,72.26,374.47,72.57,374.84Z"/><path class="cls-12" d="M72.12,387.81c-.08-1.79,1.1-14,1.1-14h0c2.34-17,14.88-36.7,15-36.95A.77.77,0,1,0,87,336a138,138,0,0,0-9.48,18.18,77.76,77.76,0,0,0-5.74,18.91c0,.07,0,.18,0,.3s0,.22,0,.35c-.21,1.72-.9,14-.9,14C71.14,388.5,71.3,388.32,72.12,387.81Z"/><path class="cls-6" d="M70.91,383.15s-.19,0-.53-.17c-2.89-1-16.87-6.82-18-23.24-1-14.65-2.45-24-5.77-29.22a.89.89,0,0,1,1.15-1.28c12.4,6.31,47.63,27.34,24.13,52.88C71.57,382.47,71.25,382.81,70.91,383.15Z"/><path class="cls-11" d="M70.32,388a55.52,55.52,0,0,0,0-5.92h0c-1.28-17.14-12.58-37.55-12.72-37.8a.76.76,0,0,1,.29-1,.76.76,0,0,1,1,.29,137.27,137.27,0,0,1,8.34,18.73,78.23,78.23,0,0,1,4.56,19.23c0,.07,0,.18,0,.3s0,.22,0,.35c.1,1.73.24,5.68.24,5.68C71.71,388.47,71.12,388.55,70.32,388Z"/><path class="cls-13" d="M268,74.57s9.42,20.34,20.79,25.36l-5.95,8.59s-11.18-4.1-15.23-13.34C265.35,88.66,266.43,81.65,268,74.57Z"/><path class="cls-14" d="M322.64,155.14l5.24,14c-2.66.4-5.51-.45-8.52-2.33l-4.13-9.29Z"/><path class="cls-6" d="M324.64,168.47s3.15-2.44,4.5-1.94,8.48,12.34,11.28,15c3.15,3,0,7.91-1.38,7.08-10.62-6.45-24.63-13.81-24.63-13.81s1.33-6,3-8.37S321.61,168.25,324.64,168.47Z"/><path class="cls-8" d="M329.74,175.26a.54.54,0,0,1-.39-.16.53.53,0,0,1,0-.75,8.17,8.17,0,0,1,3.47-2,3.69,3.69,0,0,1,3.58,1.22.54.54,0,0,1-.85.65,2.63,2.63,0,0,0-2.53-.82,7.4,7.4,0,0,0-2.93,1.72A.51.51,0,0,1,329.74,175.26Z"/><path class="cls-8" d="M328.63,173.38a.54.54,0,0,1-.38-.92,8.18,8.18,0,0,1,3.48-2,3.66,3.66,0,0,1,3.57,1.22.53.53,0,1,1-.85.64,2.61,2.61,0,0,0-2.53-.81,7.05,7.05,0,0,0-2.92,1.72A.55.55,0,0,1,328.63,173.38Z"/><path class="cls-8" d="M331.47,177a.49.49,0,0,1-.39-.16.53.53,0,0,1,0-.75,8.28,8.28,0,0,1,3.47-2,3.69,3.69,0,0,1,3.58,1.22.54.54,0,1,1-.85.65,2.65,2.65,0,0,0-2.53-.82,7.44,7.44,0,0,0-2.93,1.72A.51.51,0,0,1,331.47,177Z"/><path class="cls-10" d="M325.45,159.07l-3.59.78-2.52.5-3.46.56c-4.94-3.91-19.92-19-22.52-25.95,0,0-17.14,39.86-40.84,39.86-1.54,0,2.53-19.83,6.39-24,0,0,21.85-40.71,36-36.39C301.26,116.41,309.07,128.78,325.45,159.07Z"/><path class="cls-15" d="M321.07,160l-.72.9c-14.54-11-23.66-23.91-26.76-29.88a.46.46,0,0,0-.4-.27.23.23,0,0,0-.22.18c-7,16.38-15.32,26.22-21.1,31.59-6.3,5.84-10.92,7.77-11.11,7.85l-.26-.65-.27-.65s4.62-1.94,10.75-7.64c5.66-5.27,13.85-14.94,20.7-31.05a1.61,1.61,0,0,1,1.45-1,1.84,1.84,0,0,1,1.7,1C298,136.4,306.45,147.77,321.07,160Z"/><path class="cls-16" d="M313.49,160.36a18.32,18.32,0,0,0,3.44,4.19s7.65-1,11.72-3l-1.83-4.26A62.91,62.91,0,0,1,313.49,160.36Z"/><path class="cls-7" d="M227.8,134.39l2.51,19c33.27,18.48,43-12.39,40.33-21.11-5.25-23.11-2.53-29.25-2.61-57.66l-9-1.24-.72-.1L256.28,73l-12.55-1.73-2.12.72-2.67.9-.63.22-11.9,4,.18,37.07v6.4h0Q226.89,127.5,227.8,134.39Z"/><path class="cls-13" d="M237,145.59h0c9.41-2.62,16.27-9.11,20.36-14.09a53,53,0,0,0,6.71-10.28.47.47,0,0,0-.23-.63.48.48,0,0,0-.62.23,52.32,52.32,0,0,1-6.6,10.1c-4,4.87-10.71,11.21-19.87,13.77a.47.47,0,0,0-.32.58A.45.45,0,0,0,237,145.59Z"/><path class="cls-13" d="M247.68,146.1c8.17-2.24,15-9.13,15.35-9.45a.47.47,0,0,0-.67-.66c-.08.08-8.16,8.19-16.9,9.64a.47.47,0,0,0,.15.93A20.64,20.64,0,0,0,247.68,146.1Z"/><path class="cls-13" d="M241.9,85.66c8.16-2.26,15-9.17,15.32-9.48a.47.47,0,1,0-.67-.66c-.08.08-8.14,8.2-16.88,9.68a.47.47,0,0,0-.38.54.47.47,0,0,0,.54.39A20.68,20.68,0,0,0,241.9,85.66Z"/><polygon class="cls-14" points="313.53 231.64 316.82 238.96 310.08 241.86 306.16 234.3 313.53 231.64"/><path class="cls-6" d="M315.35,238.8s.69-3,2-3.44,15.08,3.19,18.86,2.33,4.22,2,4.15,3.61-28.05,11.63-28.05,11.63-4.28-7.77-4.47-10.63S312.87,240.58,315.35,238.8Z"/><path class="cls-8" d="M323.44,242a.53.53,0,0,1-.87-.46,8.23,8.23,0,0,1,1.39-3.77,3.67,3.67,0,0,1,3.53-1.34.53.53,0,0,1-.25,1,2.61,2.61,0,0,0-2.46,1,7.09,7.09,0,0,0-1.15,3.19A.58.58,0,0,1,323.44,242Z"/><path class="cls-8" d="M321.38,241.26a.51.51,0,0,1-.4.12.53.53,0,0,1-.47-.59A8.24,8.24,0,0,1,321.9,237a3.68,3.68,0,0,1,3.53-1.34.53.53,0,0,1,.4.64.55.55,0,0,1-.64.4,2.6,2.6,0,0,0-2.47,1,7.19,7.19,0,0,0-1.15,3.2A.58.58,0,0,1,321.38,241.26Z"/><path class="cls-8" d="M325.9,242.26a.51.51,0,0,1-.4.12.53.53,0,0,1-.47-.59,8.24,8.24,0,0,1,1.39-3.76,3.65,3.65,0,0,1,3.53-1.34.53.53,0,1,1-.24,1,2.65,2.65,0,0,0-2.47,1,7.19,7.19,0,0,0-1.15,3.2A.58.58,0,0,1,325.9,242.26Z"/><path class="cls-10" d="M315.23,233.06a19.32,19.32,0,0,1-5.21,3.05l-1.29.56c-.77.31-1.53.6-2.24.84,0,0-16-29.47-22.13-50.85,0,0-54.13-6.68-56-25.64a9.76,9.76,0,0,1,0-2,13.93,13.93,0,0,1,2-5.73c1.23-2.13,19.76-.06,29.77,2.75,0,0,27.13,10.57,37.16,21.46C302.32,183.06,315.23,233.06,315.23,233.06Z"/><path class="cls-15" d="M310,236.11l-1.29.56c-8.09-13.39-19.32-44.66-21.82-52.17a1.5,1.5,0,0,0-1.14-1c-26.3-5-41.45-11.85-49.53-16.76a52.52,52.52,0,0,1-7.88-5.74,9.76,9.76,0,0,1,0-2,48.26,48.26,0,0,0,8.78,6.59c8,4.82,22.93,11.6,48.9,16.48a2.89,2.89,0,0,1,2.21,1.92C290.74,191.57,302,223,310,236.11Z"/><path class="cls-16" d="M303.6,234.42l2.56,4.09s6.36-1.1,10.66-5.45l-1.59-3.65A115.4,115.4,0,0,1,303.6,234.42Z"/><circle class="cls-10" cx="251" cy="48.94" r="13.7" transform="translate(59.78 218.74) rotate(-52.64)"/><path class="cls-10" d="M264.7,48.87s4-.38,4.16-4.18c.13-3.23-3.94-1.84-3.18-4.25s1.88-4.52-1.2-5.7c-2.69-1-3.08.87-6.25-2.55-3.75-4-8.42,3-12.33,2.5-5.75-.67-7,2.43-8.06,4.91a4.87,4.87,0,0,0,.86,4.67Z"/><path class="cls-17" d="M261.56,54.7s2.64-2.47,3.81.17-2.3,9.2-5.89,6.81Z"/><path class="cls-18" d="M260.71,59.68a.36.36,0,0,0,.36-.18A5.17,5.17,0,0,1,264.45,57a.34.34,0,0,0,.27-.39.33.33,0,0,0-.39-.26,5.71,5.71,0,0,0-3.86,2.89.33.33,0,0,0,.15.44Z"/><path class="cls-18" d="M263.15,59a.23.23,0,0,0,.18,0,.33.33,0,0,0,.18-.43,3.05,3.05,0,0,0-1.06-1.22.34.34,0,0,0-.46.09.35.35,0,0,0,.09.47,2.48,2.48,0,0,1,.82.91A.3.3,0,0,0,263.15,59Z"/><path class="cls-14" d="M243.76,65l-1.23,6.92s2.31,3.55,5.06,4.28,5-2.27,5-2.27l1.17-6.66Z"/><path class="cls-17" d="M243.76,65l-.54,3.07c1.5,2.41,4.73,3.51,9.79,3.66l.78-4.46Z"/><path class="cls-14" d="M239.6,45.93a69.18,69.18,0,0,0-.64,8.9c0,.69,0,1.35.1,1.94.55,5.36,2.65,14.74,13.49,12.9,4.79-.81,7.77-5.45,9.6-10.39a50,50,0,0,0,2.35-9.35,7.34,7.34,0,0,0-2.58-6.8c-5.41-4.47-12-4.32-16.45-3.45A7.32,7.32,0,0,0,239.6,45.93Z"/><path class="cls-10" d="M256.27,54.7c-.13.74.15,1.4.62,1.49s.95-.45,1.08-1.19-.14-1.41-.61-1.49S256.4,54,256.27,54.7Z"/><path class="cls-10" d="M246.32,52.94c-.13.74.14,1.4.61,1.49s1-.45,1.09-1.19-.15-1.41-.62-1.49S246.45,52.2,246.32,52.94Z"/><path class="cls-10" d="M260.62,51.23s-3.3-2-6.23-1.33v1.31a11.65,11.65,0,0,1,5.77,1.45C260.45,52.11,260.74,51.87,260.62,51.23Z"/><path class="cls-10" d="M244.42,48.37s3.78-.78,6.3.88l-.45,1.23a11.72,11.72,0,0,0-5.92-.62C244.28,49.25,244.08,48.93,244.42,48.37Z"/><path class="cls-17" d="M250.63,59.13a3.62,3.62,0,0,1-1.14-.46.33.33,0,0,1-.11-.46.34.34,0,0,1,.46-.11,2,2,0,0,0,1.3.36c.07,0,.16-.08.21-.28a50.24,50.24,0,0,0,.7-5.07.33.33,0,1,1,.66.07,47.72,47.72,0,0,1-.71,5.19,1.07,1.07,0,0,1-.62.72A1.58,1.58,0,0,1,250.63,59.13Z"/><path class="cls-8" d="M254.41,61.87c-.51,1.31-1.84,3.64-4.85,3.1S246.1,62,246.09,60.4Z"/><path class="cls-17" d="M249.3,66.7a3.32,3.32,0,0,1-1.52-.74.32.32,0,0,1,0-.47.33.33,0,0,1,.47,0,2.35,2.35,0,0,0,2.46.44.32.32,0,0,1,.43.19.33.33,0,0,1-.19.43A3.39,3.39,0,0,1,249.3,66.7Z"/><path class="cls-10" d="M261.51,57a13.82,13.82,0,0,0,1-3.94c0-1.65-1.19-2.81-.48-4.26s-.61-3.39-1.76-3.88-4-.38-6.54-2.17-7.1-1.62-8.14-.07c-1.25,1.87-.07,2.28-2.9,4-1.13.71-.38,3.19-.47,4.7a11.17,11.17,0,0,1-.25,1.75l-.08.37L239,53c.09-2.35.35-4.91.62-7a7.32,7.32,0,0,1,5.87-6.24c4.46-.87,11-1,16.46,3.45a7.35,7.35,0,0,1,2.57,6.8,53,53,0,0,1-1.65,7.26Z"/><path class="cls-14" d="M240.06,54.47a12.93,12.93,0,0,0,.22-2.32,2.8,2.8,0,0,0-1.11-2.67,1.83,1.83,0,0,0-2.51.18c-2,2.08-1.53,9.72,2.66,8.71Z"/><path class="cls-17" d="M239,56.1a.34.34,0,0,1-.22-.34,5.13,5.13,0,0,0-1.58-3.92.34.34,0,0,1,0-.47.33.33,0,0,1,.47,0,5.74,5.74,0,0,1,1.8,4.48.33.33,0,0,1-.37.3Z"/><path class="cls-17" d="M237.22,54.25a.29.29,0,0,1-.15-.12.32.32,0,0,1,.08-.46,3,3,0,0,1,1.53-.49.34.34,0,0,1,0,.67,2.22,2.22,0,0,0-1.17.36A.34.34,0,0,1,237.22,54.25Z"/><rect class="cls-6" x="193.54" y="127.21" width="163.48" height="20.38" transform="translate(5.64 285.57) rotate(-55.31)"/><rect class="cls-11" x="198.47" y="140.14" width="163.48" height="1.36" transform="translate(4.96 291.1) rotate(-55.31)"/><rect class="cls-11" x="193.54" y="136.72" width="163.48" height="1.36" transform="translate(5.64 285.57) rotate(-55.31)"/><rect class="cls-11" x="188.6" y="133.31" width="163.48" height="1.36" transform="translate(6.32 280.04) rotate(-55.31)"/><rect class="cls-10" x="226.92" y="190.91" width="8.55" height="20.38" transform="translate(-65.74 276.77) rotate(-55.31)"/><path class="cls-3" d="M237.14,210.41l-1.39,2A10.19,10.19,0,0,1,221.58,215h0A10.18,10.18,0,0,1,219,200.82l1.38-2Z"/><polygon class="cls-14" points="313.42 64.39 330.17 75.98 332.98 61.29 333.57 58.23 335.22 49.6 327.78 54.64 324.88 56.61 313.42 64.39"/><path class="cls-3" d="M327.78,54.64a10.51,10.51,0,0,0,2.4,2.24,7.28,7.28,0,0,0,3.39,1.35l1.65-8.63Z"/><path class="cls-14" d="M268.05,140h1.6a3.51,3.51,0,0,0,3.18-2.13,19.19,19.19,0,0,1,.94-2c.75-1,2.8-2.69,3.57-2.74s.62,1.38.08,2a12.68,12.68,0,0,0-1.86,2.31c-.46.88,3.76,2.68,5.47,3.1s4.72-.51,5,.91-2,1.63-2,1.63.66,1.28-1.21,2.34a1.73,1.73,0,0,1-.88,1.92,1.94,1.94,0,0,1-1.26,2c-1.41.41-5.79,1.69-14.4-3.53Z"/><path class="cls-13" d="M238.53,103.51c3.25,12.27,6.43,17.7,6.43,17.7a45.53,45.53,0,0,0,11.13,10.84,146.57,146.57,0,0,0,13.56,8c-1.44,1.88-2.46,5.58-1.9,6.69-17.38,0-32.57-16.46-32.57-16.46-12.16-21.16-13-38.39-12.75-44.67a12,12,0,0,1,1.93-6.22,6.24,6.24,0,0,1,2.33-2.27,12.65,12.65,0,0,1,7,8.06C235.53,91.27,238.53,103.51,238.53,103.51Z"/><path class="cls-14" d="M311,104s-3.62-1.27-5.28-.58,2.95,3.18,2.95,3.18-5.58-3-6.55-1.77,4.38,4.24,4.38,4.24-4.09-1.44-4.92-.6,3,3.23,3,3.23-3.35-.81-4-.24,2.27,3,4.16,3.59,2.19-2,2.19-2,1.77-1.56,1.54-2.64c0,0,1.84-1.25,2-2.52C310.34,107.89,312.94,105.61,311,104Z"/><path class="cls-14" d="M158.88,245.72a119,119,0,0,0,9.82,15.33,40.9,40.9,0,0,0,4.81,5.26c2.61,2.31,5.16,3.52,7.23,2.49,7.69-3.79,26.87-35.31,26.87-35.31l-4.11-4.76s-9.78,9.78-15.36,14.94C183,248.44,179,252,179,252c-.71-1.07-1.47-2.23-2.26-3.46s-1.71-2.69-2.59-4.12C167.76,234.09,160,222.78,160,222.78Z"/><path class="cls-17" d="M168.7,261.05a40.9,40.9,0,0,0,4.81,5.26l3.27-17.77c-.84-1.31-1.71-2.69-2.59-4.12Z"/><path class="cls-7" d="M159.79,222,176,245.43l-5.17,20.88L158.12,246S155.73,232.36,159.79,222Z"/><path class="cls-14" d="M202.52,226.84a5.47,5.47,0,0,0-.53,3.85l4.53,4.42a12.29,12.29,0,0,0,2.86-.6Z"/><path class="cls-14" d="M205.66,219s-2.53,3.69-2.25,5.78,4.48-2.36,4.48-2.36-5,5.4-4,6.85,6.1-3.66,6.1-3.66-2.85,4.18-2.15,5.37,4.54-2.39,4.54-2.39-1.93,3.54-1.5,4.5,4-1.67,5.31-3.61-1.62-3.09-1.62-3.09-1.23-2.47-2.53-2.53c0,0-.85-2.45-2.24-3C209.83,220.83,208,217.2,205.66,219Z"/><polygon class="cls-14" points="151.45 422.55 151.45 429.94 144.54 429.84 144.09 422 151.45 422.55"/><path class="cls-10" d="M133.91,314.43c.05.88.29,5.1.65,11,1,16.18,2.79,44.92,3.86,51.38,1.1,6.62.6,28.35.25,39.72a6.8,6.8,0,0,0,2,5,7,7,0,0,0,5.07,2.12H151a7,7,0,0,0,7-7.1c-.29-9.62-.65-27.15,0-40.7.66-12.9-.29-35.72-1-49.94h0c-.29-5.68-.55-10-.65-11.74Z"/><path class="cls-15" d="M156.33,314.14l-22.42.29c.05.88.29,5.1.65,11a96.34,96.34,0,0,0,22.42.46C156.69,320.2,156.43,315.9,156.33,314.14Z"/><path class="cls-15" d="M140.71,396.24c-.19,7.27-.4,14.79-.26,20.85,0,1.7.09,3.16.17,4.41a6.9,6.9,0,0,0,1.61,1.22c-.13-1.44-.23-3.3-.28-5.66-.13-6,.07-13.53.27-20.78.24-8.87.47-17.25,0-20.81-1.07-7.8-3.48-50.1-4.11-61.39l-1.5.07c.63,11.28,3,53.66,4.12,61.52C141.18,379.11,141,387.43,140.71,396.24Z"/><path class="cls-6" d="M149.68,429.67s1.43-2,2.6-1.92,10.36,6.9,13.47,7.42,2.55,2.75,2,3.91-24.69.1-24.69.1-.81-7-.08-9.19S147.27,430.23,149.68,429.67Z"/><path class="cls-8" d="M154.78,434.47a.45.45,0,0,1-.34,0,.43.43,0,0,1-.18-.58,6.65,6.65,0,0,1,2.21-2.35,3.08,3.08,0,0,1,3.07.07.43.43,0,0,1,.1.6.44.44,0,0,1-.6.1,2.15,2.15,0,0,0-2.16,0,5.7,5.7,0,0,0-1.85,2A.44.44,0,0,1,154.78,434.47Z"/><path class="cls-8" d="M153.46,433.3a.42.42,0,0,1-.51-.6,6.48,6.48,0,0,1,2.2-2.36,3,3,0,0,1,3.07.08.41.41,0,0,1,.1.59.43.43,0,0,1-.6.1,2.15,2.15,0,0,0-2.16,0,5.79,5.79,0,0,0-1.85,2A.44.44,0,0,1,153.46,433.3Z"/><path class="cls-8" d="M156.55,435.4a.42.42,0,0,1-.51-.6,6.58,6.58,0,0,1,2.2-2.36,3,3,0,0,1,3.07.08.41.41,0,0,1,.1.59.43.43,0,0,1-.6.1,2.15,2.15,0,0,0-2.16,0,5.79,5.79,0,0,0-1.85,2A.44.44,0,0,1,156.55,435.4Z"/><polygon class="cls-14" points="117.81 422.55 117.06 429.93 110.9 429.84 110.45 422 117.81 422.55"/><path class="cls-10" d="M105.12,375.82c.68,13.55.32,31.08,0,40.7a7,7,0,0,0,7,7.1h5.27a7.25,7.25,0,0,0,3.23-.76,6.91,6.91,0,0,0,1.6-1.13,6.72,6.72,0,0,0,2.2-5.21c-.35-11.37-.85-33.1.25-39.72s3-36.2,3.92-52.2c.31-5.35.53-9.17.59-10.11l-22.45.29c-.07,1.14-.18,2.89-.3,5.12C105.76,332.7,104.35,360.89,105.12,375.82Z"/><path class="cls-15" d="M106.48,319.9a223.68,223.68,0,0,0,22.16,4.7c.31-5.35.53-9.17.59-10.11l-22.45.29C106.71,315.92,106.6,317.67,106.48,319.9Z"/><path class="cls-15" d="M121,417.06c0,2.44-.16,4.33-.29,5.79a6.83,6.83,0,0,0,1.6-1.11c.09-1.3.16-2.84.2-4.65.13-6.06-.08-13.58-.27-20.85-.24-8.81-.46-17.13,0-20.57,1.08-7.86,3.5-50.27,4.12-61.53l-1.5-.07c-.63,11.28-3,53.59-4.11,61.4-.5,3.56-.27,11.94,0,20.81C120.89,403.53,121.09,411,121,417.06Z"/><path class="cls-6" d="M114.66,428.8a29.93,29.93,0,0,0-4-.81c-.87,0-6.7,6.4-8.66,6.77-3.55.68-3.56,6.12-1.39,6.39,6.26.78,17-1.81,17-1.81s1-7,.56-9.16S116.41,429.44,114.66,428.8Z"/><path class="cls-8" d="M109.48,434.75a.39.39,0,0,0,.33-.06.42.42,0,0,0,.12-.59,6.62,6.62,0,0,0-2.42-2.13,3,3,0,0,0-3.05.36.43.43,0,0,0,0,.6.46.46,0,0,0,.62,0,2.17,2.17,0,0,1,2.15-.22,5.81,5.81,0,0,1,2,1.83A.44.44,0,0,0,109.48,434.75Z"/><path class="cls-8" d="M110.68,433.47a.48.48,0,0,0,.33-.06.42.42,0,0,0,.12-.59,6.7,6.7,0,0,0-2.42-2.14,3,3,0,0,0-3,.36.43.43,0,1,0,.56.64,2.2,2.2,0,0,1,2.15-.21,5.79,5.79,0,0,1,2,1.82A.39.39,0,0,0,110.68,433.47Z"/><path class="cls-8" d="M107.8,435.85a.5.5,0,0,0,.34-.06.42.42,0,0,0,.12-.59,6.67,6.67,0,0,0-2.43-2.14,3,3,0,0,0-3,.36.41.41,0,0,0-.05.6.43.43,0,0,0,.61,0,2.2,2.2,0,0,1,2.15-.21,5.79,5.79,0,0,1,2,1.82A.43.43,0,0,0,107.8,435.85Z"/><path class="cls-7" d="M101.68,316.7a124.85,124.85,0,0,0,60.77,0c.1-7.41.21-37-.37-61.33,0-.48,0-1,0-1.43,0-.23,0-.47,0-.7v0c0-.3,0-.6,0-.9-.43-16-1.19-29.12-2.48-30.87h0c-3-4.06-18.2-10.56-22.4-13.45-.35.55-2.41,3.61-5.12,3.84-3,.26-5.61-3.17-5.61-3.17V208c-4.22,2.9-18,8.91-21,13C102.11,225.4,101.54,304.08,101.68,316.7Z"/><path class="cls-13" d="M155.9,244c1.74,2.3,4.28,7.53,5.42,9.94.16.34.29.61.38.83s.2.43.21.44a.42.42,0,0,0,.17.2c0-.48,0-1,0-1.43,0-.23,0-.47,0-.7v0c-.23-.49-.51-1.07-.82-1.7a59.37,59.37,0,0,0-4.55-8.09.48.48,0,0,0-.66-.09A.44.44,0,0,0,155.9,244Z"/><path class="cls-13" d="M117.06,226.07h0a33,33,0,0,0,18.07-6.25,31.54,31.54,0,0,0,6.39-5.9.45.45,0,0,0-.1-.64.48.48,0,0,0-.66.1c-.08.11-8.78,11.3-23.73,11.77a.46.46,0,0,0,0,.92Z"/><path class="cls-13" d="M144.21,301.25a.47.47,0,0,0,.47-.43.46.46,0,0,0-.44-.49c-13.22-.85-21.1-7.42-25.39-12.77A35.62,35.62,0,0,1,112.62,276a.47.47,0,0,0-.91.23,35.78,35.78,0,0,0,6.37,11.9c4.41,5.51,12.52,12.27,26.1,13.15Z"/><path class="cls-13" d="M137.11,293a.47.47,0,0,0,.46-.34.46.46,0,0,0-.33-.56c-11.49-3.05-13.71-12.45-13.73-12.54a.47.47,0,0,0-.56-.35.46.46,0,0,0-.36.54,16.12,16.12,0,0,0,2.64,5.43A20.56,20.56,0,0,0,137,293Z"/><path class="cls-14" d="M86.8,315.89c.29,4,2.76,7,2.77,9.67s3.14.92,1.69-4.32S92,310.93,93.1,311s-.36,5.9.84,7.85,2.12-2.14,3.17-4.67.48-8.06-.51-11.89,3.88-28.12,3.24-35l1.76-8.88,1-5.18.19-5.41-9.39-3.64c-.35,1.73-.72,3.53-1.07,5.34-.16.8-.32,1.6-.47,2.4-1.26,6.47-2.39,12.85-2.85,16.94-1.27,11.31.82,34.38.82,34.38S86.53,312.11,86.8,315.89Z"/><path class="cls-17" d="M91.89,251.93c2.12,2.37,5.5,5.39,9.71,6.49l1-5.18.19-5.41-9.39-3.64c-.35,1.73-.72,3.53-1.07,5.34C92.2,250.33,92,251.13,91.89,251.93Z"/><path class="cls-7" d="M89.28,246.8a19.86,19.86,0,0,0,3.08,2.73,17.87,17.87,0,0,0,10.26,3.71c.52-15,1.29-27.65,2.4-31.37C103,224.27,93.52,236.07,89.28,246.8Z"/><path class="cls-13" d="M109.07,242.45a74,74,0,0,0-5.43,10l-.38.82c-.13.28-.2.44-.21.45a.46.46,0,0,1-.43.27h0c0-.23,0-.47,0-.7h-.41c.06-.14.22-.47.44-.94s.65-1.39,1.1-2.31a60.3,60.3,0,0,1,4.55-8.08.48.48,0,0,1,.66-.1A.45.45,0,0,1,109.07,242.45Z"/><path class="cls-10" d="M117.56,183.91c0,8.11,5.1,13.71,13.39,13.71s14.06-6,14.06-14.13-4.91-14.27-13.2-14.27C121.88,169.22,117.56,175.79,117.56,183.91Z"/><path class="cls-10" d="M118.05,182.82s-1.73-.2-2.3-5.58,3.54-4,5.25-6.84,3.69-6.84,8.11-5.53,8.17,2.44,12.16.57,8.55,3.42,7.66,7-5.7,4.88-5.7,4.88Z"/><path class="cls-17" d="M119.42,187.4s-2.3-3-4-.52.7,9.83,4.9,8Z"/><path class="cls-18" d="M119.39,192.65a.35.35,0,0,1-.34-.25,5.45,5.45,0,0,0-3.07-3.2.35.35,0,0,1-.21-.45.36.36,0,0,1,.46-.2,6.06,6.06,0,0,1,3.5,3.66.36.36,0,0,1-.24.43Z"/><path class="cls-18" d="M117,191.51a.33.33,0,0,1-.19-.06.34.34,0,0,1-.11-.48,3.29,3.29,0,0,1,1.33-1.05.36.36,0,0,1,.47.18.35.35,0,0,1-.18.46,2.42,2.42,0,0,0-1,.79A.37.37,0,0,1,117,191.51Z"/><path class="cls-17" d="M143.14,187.4s2.31-3,4-.52-.71,9.83-4.9,8Z"/><path class="cls-18" d="M143.17,192.65a.37.37,0,0,0,.35-.25,5.39,5.39,0,0,1,3.07-3.2.35.35,0,0,0-.25-.65,6,6,0,0,0-3.51,3.66.36.36,0,0,0,.25.43Z"/><path class="cls-18" d="M145.59,191.51a.36.36,0,0,0,.2-.06.34.34,0,0,0,.1-.48,3.29,3.29,0,0,0-1.33-1.05.34.34,0,0,0-.46.18.35.35,0,0,0,.17.46,2.58,2.58,0,0,1,1,.79A.35.35,0,0,0,145.59,191.51Z"/><path class="cls-14" d="M137,201.15v7.3s-2.22,3.72-5.23,4-5.67-3.21-5.67-3.21v-7.56Z"/><path class="cls-17" d="M137,201.15v3.24c-2,2.19-5.6,2.74-10.9,2v-4.7Z"/><path class="cls-14" d="M118.19,187.17a43.87,43.87,0,0,0,.6,4.81c1,5.38,3.25,10.68,8.11,12.38,11,3.84,14.91-5.39,16.48-10.77.17-.6.32-1.26.46-2,.25-1.29.44-2.72.6-4.16.17-1.75.29-3.51.37-5.07a7.6,7.6,0,0,0-5-7.46c-4.5-1.69-11.35-3-17.83.57a7.57,7.57,0,0,0-4,6.48C118,183.45,118.05,185.24,118.19,187.17Z"/><path class="cls-10" d="M118.19,187.17a43.87,43.87,0,0,0,.6,4.81c1,5.38,3.25,10.68,8.11,12.38,11,3.84,14.91-5.39,16.48-10.77.17-.6.32-1.26.46-2,.25-1.29.44-2.72.6-4.16h-1.61c-.33,1-2.12,7.11-2.7,8-1.25-2.93-7.59-1-7.59-1h0a4,4,0,0,1-1.18.18,3.83,3.83,0,0,1-1.21-.19s-6.27-2-7.57.77c-.57-.87-2.63-7.1-3-7.76Zm13.12,8.61c7.17-.95,6,2.83,6,2.83a11.34,11.34,0,0,1-2,1.5,8.35,8.35,0,0,1-4.22,1.13c-1.1-.05-1.4.18-4.19-1.3a7,7,0,0,1-1.47-1.1h0C125.34,198.1,124.12,194.57,131.31,195.78Z"/><path class="cls-10" d="M126.57,188.35c0,.78-.41,1.42-.91,1.42s-.92-.64-.92-1.42.41-1.41.92-1.41S126.57,187.57,126.57,188.35Z"/><path class="cls-10" d="M137.37,188.33c0,.78-.41,1.41-.92,1.41s-.91-.63-.91-1.41.41-1.42.91-1.42S137.37,187.55,137.37,188.33Z"/><path class="cls-10" d="M122,184.37s3.51-1.36,6.21-.22l-.27,1.47s-4-.32-6,.47A2.48,2.48,0,0,1,122,184.37Z"/><path class="cls-10" d="M139.48,184.37s-3.51-1.36-6.21-.22l.27,1.47s4-.32,6,.47A2.48,2.48,0,0,0,139.48,184.37Z"/><path class="cls-17" d="M131.41,193.82a3.73,3.73,0,0,0,1.28-.27.34.34,0,0,0,.19-.45.35.35,0,0,0-.46-.19A2.12,2.12,0,0,1,131,193c-.07,0-.15-.11-.18-.32-.12-1.21.22-5.27.22-5.31a.36.36,0,0,0-.33-.38.36.36,0,0,0-.38.32,53,53,0,0,0-.21,5.44,1.06,1.06,0,0,0,.52.85A1.51,1.51,0,0,0,131.41,193.82Z"/><path class="cls-8" d="M126.57,196.36c.29,1.43,1.25,4,4.49,4s4.16-2.4,4.48-4Z"/><path class="cls-10" d="M144.43,187.46h-1.6c.18-1.58.43-4.36-.89-4.76-4.18-1.25,1.24-4.15-.65-5.59s-6.59-.83-9.86-.93a70.88,70.88,0,0,0-9.85.23c-1.29.29-.58,2.38-.11,4s-1.58,3.41-1.92,5.08a7.13,7.13,0,0,0,0,2h-1.34c-.16-2-.18-3.94-.15-5.48a7.57,7.57,0,0,1,4-6.48c6.48-3.61,13.33-2.26,17.83-.57a7.6,7.6,0,0,1,5,7.46C144.73,184,144.62,185.71,144.43,187.46Z"/><path class="cls-8" d="M129.81,187.39a1.36,1.36,0,0,0-.15-.63,1.55,1.55,0,0,0-1.39-.88h-5.45a1.56,1.56,0,0,0-1.1.46,1.53,1.53,0,0,0-.35.54,1.68,1.68,0,0,0-.1.55v.7a4.31,4.31,0,0,0,1.27,3.09,4,4,0,0,0,2.74,1.21h.14a4.4,4.4,0,0,0,4.4-4.41v-.59A.06.06,0,0,0,129.81,187.39Zm-.64.63a3.76,3.76,0,0,1-3.75,3.77h-.13a3.33,3.33,0,0,1-2.3-1,3.65,3.65,0,0,1-1.08-2.63v-.7a.91.91,0,0,1,.91-.91h5.45a.9.9,0,0,1,.9.91Z"/><path class="cls-8" d="M140.67,187a1.73,1.73,0,0,0-.3-.57,1.57,1.57,0,0,0-1.19-.56h-5.45a1.54,1.54,0,0,0-1.42.93,1.45,1.45,0,0,0-.13.59v.73a4.31,4.31,0,0,0,1.27,3.09,4,4,0,0,0,2.73,1.21h.15a4.4,4.4,0,0,0,4.4-4.41v-.59A1.52,1.52,0,0,0,140.67,187Zm-.59,1a3.76,3.76,0,0,1-3.75,3.77h-.13a3.32,3.32,0,0,1-2.3-1,3.65,3.65,0,0,1-1.08-2.63v-.7a.91.91,0,0,1,.91-.91h5.45a.9.9,0,0,1,.9.91Z"/><path class="cls-8" d="M118.13,186.25a7.82,7.82,0,0,1,2.6.63c.17.08.59.33.6.34l.3-.55s-.4-.26-.55-.33a6.51,6.51,0,0,0-4.46-.4A3.34,3.34,0,0,1,118.13,186.25Z"/><path class="cls-8" d="M144.56,186.19a9.12,9.12,0,0,0-3.29.69c-.17.08-.59.33-.6.34l-.3-.55s.4-.26.55-.33a7.29,7.29,0,0,1,4.73-.44A1.85,1.85,0,0,0,144.56,186.19Z"/><path class="cls-8" d="M129.38,187.45l-.21-.6a6.24,6.24,0,0,1,1.93-.33,4.42,4.42,0,0,1,1.77.34l-.28.58a4,4,0,0,0-1.49-.27A6.38,6.38,0,0,0,129.38,187.45Z"/><path class="cls-3" d="M442,371.4H362.56c1.31-8,7.64-13.76,15-13.74l24.73.07,24.72-.07C434.38,357.64,440.7,363.43,442,371.4Z"/><rect class="cls-3" x="368.81" y="370.26" width="4.33" height="67.1"/><rect class="cls-3" x="431.43" y="370.26" width="4.33" height="67.1"/><rect class="cls-4" x="373.14" y="391.02" width="58.3" height="4.17"/><path class="cls-7" d="M415.61,306.43l9.21,34.24s-8.09,3.79-20.56,4.5c-1.18.07-2.4.11-3.66.11s-2.38,0-3.52,0A77.35,77.35,0,0,1,376,341.79l9.77-35.4-9.21-28.78L395,270.45h10.1l20,7.34Z"/><path class="cls-8" d="M400,279.66c-7.32,0-7.8-8.4-7.8-8.49a.5.5,0,0,1,.47-.51.5.5,0,0,1,.51.47c0,.31.44,7.55,6.82,7.55s7.11-7.05,7.13-7.35a.49.49,0,1,1,1,.07C408.07,271.48,407.4,279.66,400,279.66Z"/><path class="cls-13" d="M388.5,288.76h0A30.38,30.38,0,0,0,405.17,283a29,29,0,0,0,5.88-5.44A.42.42,0,0,0,411,277a.43.43,0,0,0-.6.09c-.08.1-8.1,10.42-21.88,10.85a.42.42,0,0,0-.42.43A.44.44,0,0,0,388.5,288.76Z"/><path class="cls-7" d="M376.59,277.61s-9.3,12.89-8.4,28.51c.81,14.24,11.68,23.72,11.68,23.72l4.21-6.87s-4.76-8.31-5-16.85,2.31-13.5,2.31-13.5Z"/><path class="cls-7" d="M425.1,277.79s8.43,12.61,9.3,26.84-10.25,25.21-10.25,25.21L419.94,323a40.3,40.3,0,0,0,4.39-16.11,22.32,22.32,0,0,0-4.73-14.24Z"/><path class="cls-8" d="M404.26,345.17c-1.18.07-2.4.11-3.66.11s-2.38,0-3.52,0l3.41-23.33Z"/><path class="cls-15" d="M375.11,350.47s11.11,11.37,26.25,11.37c18.41,0,26.26-9.25,26.26-9.25l-2.8-11.92-49.31,1.05Z"/><polygon class="cls-14" points="410.21 424.05 410.52 430.97 417.19 429.57 417.19 423.82 410.21 424.05"/><path class="cls-15" d="M402.34,356.57a17.61,17.61,0,0,1,.4-4.95c1-5.81,4.38-17.65,14.41-16.3,13.23,1.76,9.2,26.92,9.2,26.92l-8.57,61.56-8.45.31S405.72,388.21,402.34,356.57Z"/><path class="cls-10" d="M419.28,420.55l-10.81.81.16,4.29s7.14-.39,9.91-.71Z"/><path class="cls-15" d="M362.51,335.46s12.05,18,25.8,25.13c14.69,7.61,21.61-6.35,21.61-6.35S377.18,331.26,362.51,335.46Z"/><path class="cls-6" d="M427.26,332.15H374.05l-4.92-28.76a4.08,4.08,0,0,1,4-4.77h55a4.08,4.08,0,0,1,4,4.77Z"/><path class="cls-11" d="M374,332.15h53.27a0,0,0,0,1,0,0v3a3.25,3.25,0,0,1-3.25,3.25H377.29a3.25,3.25,0,0,1-3.25-3.25v-3A0,0,0,0,1,374,332.15Z"/><path class="cls-11" d="M405.82,316.57a4.63,4.63,0,1,1-4.63-4.62A4.63,4.63,0,0,1,405.82,316.57Z"/><polygon class="cls-14" points="435.41 358.06 442.18 359.55 443.26 353.7 437 351.26 435.41 358.06"/><path class="cls-10" d="M438.42,351.94a20.9,20.9,0,0,1-2.45,6.62s-55.19-13.14-64.38-16.82a25.72,25.72,0,0,1-9.38-6.61,19.84,19.84,0,0,1-1.54-2c-2.83-4.15-3.31-8.75,1.17-11.89,8.36-5.87,18.31.06,18.31.06s11.41,1.5,32.09,14.68C421.32,341.79,438.42,351.94,438.42,351.94Z"/><path class="cls-15" d="M434.57,356.07l-.24.95c-.4-.1-39.7-10.25-54.51-14.94a114.14,114.14,0,0,1-17.61-6.95,19.84,19.84,0,0,1-1.54-2c3.57,2,9.59,4.86,19.44,8C394.89,345.84,434.17,356,434.57,356.07Z"/><path class="cls-16" d="M435.38,349,433,358.47l3.69.69s1.94-6,2.45-8.45Z"/><path class="cls-10" d="M388,253.92s-5.27-9-.82-16,13.89-6.3,16.33-5.75,16.53,7.15,8,23.16Z"/><path class="cls-17" d="M388.83,251.37s-2.13-2.85-3.72-.5.66,9.31,4.54,7.61Z"/><path class="cls-18" d="M388.81,256.33a.32.32,0,0,1-.32-.24,5.09,5.09,0,0,0-2.85-3,.33.33,0,0,1,.23-.62,5.63,5.63,0,0,1,3.25,3.46.33.33,0,0,1-.23.41Z"/><path class="cls-18" d="M386.56,255.25a.41.41,0,0,1-.18-.05.33.33,0,0,1-.09-.46,3,3,0,0,1,1.23-1,.33.33,0,0,1,.43.17.32.32,0,0,1-.16.43,2.42,2.42,0,0,0-1,.75A.33.33,0,0,1,386.56,255.25Z"/><path class="cls-17" d="M410.83,251.37s2.13-2.85,3.72-.5-.66,9.31-4.54,7.61Z"/><path class="cls-18" d="M410.86,256.33a.32.32,0,0,0,.31-.24,5.09,5.09,0,0,1,2.85-3,.33.33,0,0,0-.23-.62,5.63,5.63,0,0,0-3.25,3.46.33.33,0,0,0,.23.41Z"/><path class="cls-18" d="M413.1,255.25a.41.41,0,0,0,.18-.05.33.33,0,0,0,.09-.46,2.93,2.93,0,0,0-1.23-1,.33.33,0,0,0-.43.17.32.32,0,0,0,.16.43,2.42,2.42,0,0,1,.95.75A.33.33,0,0,0,413.1,255.25Z"/><path class="cls-14" d="M405.08,264.37v6.92s-2.06,3.52-4.84,3.76-5.26-3-5.26-3v-7.16Z"/><path class="cls-17" d="M405.08,264.37v3.07c-1.87,2.08-5.19,2.6-10.1,1.87v-4.45Z"/><path class="cls-14" d="M412.37,246.62a66.08,66.08,0,0,1-.9,8.73c-.12.67-.27,1.31-.43,1.87-1.45,5.09-5.09,13.83-15.28,10.19-4.5-1.61-6.58-6.62-7.51-11.71a49,49,0,0,1-.68-9.46,7.22,7.22,0,0,1,3.66-6.14c6-3.41,12.36-2.14,16.53-.53A7.19,7.19,0,0,1,412.37,246.62Z"/><path class="cls-10" d="M397.08,236.78s13.44,21.56,15.3,13.66C415,239.23,407,232.3,397.08,236.78Z"/><path class="cls-10" d="M396.53,236.78c-8.95.07-13.4,10.23-9.25,11.43,5.77,1.68,10.78-6.49,12.32-9.33C398.56,238.2,397.53,237.52,396.53,236.78Z"/><circle class="cls-10" cx="403.97" cy="231.95" r="8.85" transform="translate(107.81 591.51) rotate(-80.38)"/><path class="cls-10" d="M389.13,247.25s.95,2.7,0,4.52-.18,4.93.25,8.44a9,9,0,0,1-2.1-5.56c-.09-3.42.47-6.26,0-7.63Z"/><path class="cls-10" d="M410.25,247.25s-.69,2.7.26,4.52-.07,5-.5,8.49a9.22,9.22,0,0,0,2.09-5.61c.09-3.42-.47-6.26,0-7.63Z"/><path class="cls-10" d="M395.34,252.18c0,.74-.38,1.33-.84,1.33s-.85-.59-.85-1.33.38-1.34.85-1.34S395.34,251.44,395.34,252.18Z"/><path class="cls-10" d="M405.83,252.18c0,.74-.38,1.33-.85,1.33s-.85-.59-.85-1.33.38-1.34.85-1.34S405.83,251.44,405.83,252.18Z"/><path class="cls-10" d="M392.81,247.79a14,14,0,0,1,3.64-.54.63.63,0,0,1,.62.74h0a.63.63,0,0,1-.65.52,15.68,15.68,0,0,0-5,.61.9.9,0,0,1,.29-.68A2.18,2.18,0,0,1,392.81,247.79Z"/><path class="cls-10" d="M406.54,247.82a14,14,0,0,0-3.64-.54.64.64,0,0,0-.63.74h0a.61.61,0,0,0,.65.51,16.28,16.28,0,0,1,5,.61.9.9,0,0,0-.29-.67A2.18,2.18,0,0,0,406.54,247.82Z"/><path class="cls-17" d="M399.94,257.87a1.43,1.43,0,0,1-.71-.17,1,1,0,0,1-.48-.81,50.86,50.86,0,0,1,.2-5.15.33.33,0,1,1,.65.06s-.31,3.88-.19,5c0,.2.1.27.16.3a1.92,1.92,0,0,0,1.31-.12.33.33,0,0,1,.25.61A3.56,3.56,0,0,1,399.94,257.87Z"/><path class="cls-8" d="M395.88,259.94c.25,1.25,1.07,3.55,3.85,3.55s3.57-2.1,3.84-3.55Z"/><path class="cls-17" d="M399.69,265.4a3.28,3.28,0,0,1-1.54-.45.32.32,0,0,1-.1-.45.33.33,0,0,1,.45-.11h0a2.47,2.47,0,0,0,1.19.36,2.65,2.65,0,0,0,1.26-.36.33.33,0,0,1,.45.11.32.32,0,0,1-.11.45A3.4,3.4,0,0,1,399.69,265.4Z"/><path class="cls-8" d="M398.33,251a1.59,1.59,0,0,0-.15-.65,1.62,1.62,0,0,0-1.47-.93H391a1.61,1.61,0,0,0-1.14.48,1.44,1.44,0,0,0-.37.57,1.58,1.58,0,0,0-.11.58v.73a4.53,4.53,0,0,0,1.33,3.24,4.17,4.17,0,0,0,2.87,1.27h.15A4.55,4.55,0,0,0,397,255a4.6,4.6,0,0,0,1.37-3.29v-.61A.09.09,0,0,0,398.33,251Zm-.67.66a3.94,3.94,0,0,1-3.93,4h-.14a3.56,3.56,0,0,1-2.41-1.08,3.86,3.86,0,0,1-1.13-2.76v-.73a1,1,0,0,1,.95-1h5.71a.94.94,0,0,1,1,1Z"/><path class="cls-8" d="M410.25,250.61a1.61,1.61,0,0,0-1.56-1.19H403a1.62,1.62,0,0,0-1.49,1,1.65,1.65,0,0,0-.13.63,0,0,0,0,0,0,0v.73a4.54,4.54,0,0,0,1.34,3.24,4.13,4.13,0,0,0,2.86,1.27h.15a4.63,4.63,0,0,0,4.61-4.63v-.61A1.61,1.61,0,0,0,410.25,250.61Zm-.61,1a4,4,0,0,1-3.94,4h-.13a3.52,3.52,0,0,1-2.41-1.08,3.86,3.86,0,0,1-1.13-2.76v-.73a.94.94,0,0,1,1-1h5.71a1,1,0,0,1,.95,1Z"/><path class="cls-8" d="M398,251.07l-.22-.63a6.6,6.6,0,0,1,2-.34,4.67,4.67,0,0,1,1.85.35l-.29.61a3.85,3.85,0,0,0-1.56-.29A6.45,6.45,0,0,0,398,251.07Z"/><path class="cls-6" d="M413,429.18a31.66,31.66,0,0,1,4.43-1.1c1,0,7.79,6.77,10,7.09,4,.57,4.28,6.63,1.89,7-6.93,1.2-19-1.13-19-1.13s-1.46-7.72-1.1-10.18S411.09,430,413,429.18Z"/><path class="cls-8" d="M419.08,435.55a.48.48,0,0,1-.54-.7,7.51,7.51,0,0,1,2.59-2.51,3.44,3.44,0,0,1,3.42.24.48.48,0,0,1,.08.67.5.5,0,0,1-.68.08,2.41,2.41,0,0,0-2.41-.13,6.47,6.47,0,0,0-2.17,2.14A.51.51,0,0,1,419.08,435.55Z"/><path class="cls-8" d="M417.68,434.18a.48.48,0,0,1-.37-.05.47.47,0,0,1-.17-.65,7.41,7.41,0,0,1,2.59-2.51,3.41,3.41,0,0,1,3.41.24.48.48,0,0,1,.09.67.5.5,0,0,1-.68.08,2.42,2.42,0,0,0-2.41-.13A6.47,6.47,0,0,0,418,434,.51.51,0,0,1,417.68,434.18Z"/><path class="cls-8" d="M421,436.68a.49.49,0,0,1-.37-.05.47.47,0,0,1-.16-.65,7.35,7.35,0,0,1,2.58-2.51,3.43,3.43,0,0,1,3.42.24.48.48,0,0,1,.08.67.5.5,0,0,1-.68.08,2.41,2.41,0,0,0-2.41-.13,6.47,6.47,0,0,0-2.17,2.14A.48.48,0,0,1,421,436.68Z"/><path class="cls-6" d="M441.35,356.83a31.18,31.18,0,0,1,2.39-3.94c.68-.71,10.9-.78,12.75-2.12,3.36-2.45,8.24,1.62,6.81,3.61-4.14,5.78-14.74,12.74-14.74,12.74s-7-4.4-8.65-6.39S440.58,358.76,441.35,356.83Z"/><path class="cls-8" d="M450.7,357a.5.5,0,0,1-.31.24.51.51,0,0,1-.62-.35,6.88,6.88,0,0,1,0-3.6,3.45,3.45,0,0,1,2.68-2.26.5.5,0,0,1,.57.41.49.49,0,0,1-.44.54,2.42,2.42,0,0,0-1.85,1.62,6.11,6.11,0,0,0,.06,3.05A.46.46,0,0,1,450.7,357Z"/><path class="cls-8" d="M448.62,357a.46.46,0,0,1-.31.23.5.5,0,0,1-.62-.34,6.93,6.93,0,0,1,0-3.61,3.45,3.45,0,0,1,2.68-2.26.51.51,0,0,1,.57.41.49.49,0,0,1-.44.54,2.47,2.47,0,0,0-1.85,1.62,6.14,6.14,0,0,0,.06,3.06A.47.47,0,0,1,448.62,357Z"/><path class="cls-8" d="M453,356.4a.46.46,0,0,1-.31.23.5.5,0,0,1-.62-.34,7,7,0,0,1,0-3.61,3.48,3.48,0,0,1,2.68-2.26.51.51,0,0,1,.57.41.47.47,0,0,1-.43.54A2.48,2.48,0,0,0,453,353a6.25,6.25,0,0,0,.06,3.06A.39.39,0,0,1,453,356.4Z"/><path class="cls-3" d="M347.21,443.31H328.69a5.81,5.81,0,0,1-5.53-4l-7.85-24.17a1.61,1.61,0,0,1,1.4-2.1,271.36,271.36,0,0,1,42.48,0,1.6,1.6,0,0,1,1.41,2.09l-7.86,24.18A5.81,5.81,0,0,1,347.21,443.31Z"/><ellipse class="cls-10" cx="338.08" cy="414.78" rx="20.87" ry="1.16"/><path class="cls-11" d="M338.93,414.78V384.61a1,1,0,0,0-2,0v30.17A1.85,1.85,0,0,0,338.93,414.78Z"/><path class="cls-6" d="M338,391.72s1.86-13.38,19-13.38C356.93,378.34,354,397.26,338,391.72Z"/><path class="cls-6" d="M338.83,395.82s-1.86-13.37-19-13.37C319.85,382.45,322.78,401.37,338.83,395.82Z"/><path class="cls-6" d="M339,407.71s-4.38-12.78-21.19-9.49C317.83,398.22,324.34,416.23,339,407.71Z"/><path class="cls-6" d="M337.94,407.6s12.58,4.89,20.93-10.06C358.87,397.54,340.91,390.88,337.94,407.6Z"/></g><g id="DESIGNED_BY_FREEPIK" data-name="DESIGNED BY FREEPIK"><path class="cls-19" d="M398.17,458.61a7,7,0,0,0-1.11,1.45l-.47-.24a.6.6,0,1,0-.51.73l.18-.05.45.23a7.56,7.56,0,0,0-.54,1.75l.75.13a6.63,6.63,0,0,1,1.79-3.48Z"/><path class="cls-19" d="M403.65,456.3l-.51,0-.07-.63a.7.7,0,0,0,.27-.64.72.72,0,0,0-1.43.17.71.71,0,0,0,.41.56l.07.63a7.57,7.57,0,0,0-2.06.64l.33.68a7,7,0,0,1,3-.67,6.64,6.64,0,0,1,1.48.16l.16-.74A7.56,7.56,0,0,0,403.65,456.3Z"/><path class="cls-19" d="M410.26,458.85a.6.6,0,0,0,.52-.67.6.6,0,0,0-1.2.08l-.42.36a7.3,7.3,0,0,0-1.4-1.13l-.41.64a6.72,6.72,0,0,1,2.57,2.92l.69-.31a7.5,7.5,0,0,0-.95-1.55l.41-.35A.4.4,0,0,0,410.26,458.85Z"/><path class="cls-19" d="M403.11,466.51c-.39,0-.78,0-1.16,0a16,16,0,0,1-2.48-.18,9.53,9.53,0,0,1-1.27-.29,6.2,6.2,0,0,0,11.34-1.38,9.83,9.83,0,0,1-2.46,1.12A16.6,16.6,0,0,1,403.11,466.51Z"/><path class="cls-19" d="M403.65,457.82a6,6,0,0,0-6.08,5.94,5.86,5.86,0,0,0,.14,1.26c.68.49,2.71.89,5.35.74,2.88-.18,5.3-1,6.67-2.16a5.46,5.46,0,0,0,0-.58A6,6,0,0,0,403.65,457.82Zm-2.16,6.51a1.85,1.85,0,1,1,1.85-1.85A1.85,1.85,0,0,1,401.49,464.33Zm4.74-.9a1.36,1.36,0,1,1,1.36-1.36A1.36,1.36,0,0,1,406.23,463.43Z"/><path class="cls-19" d="M419.66,459.69a2.8,2.8,0,0,0-1.38-.24c-.56.07-.85.34-.85,1v.86h2.23V463h-2.23v5.45H415.5V463h-1.34v-1.72h1.34v-.89a2.46,2.46,0,0,1,2.57-2.78,3.88,3.88,0,0,1,1.59.31Z"/><path class="cls-19" d="M424.36,463a3.27,3.27,0,0,0-.53,0,1.44,1.44,0,0,0-1.51,1.62v3.9h-1.93v-7.17h1.88v.79a2.24,2.24,0,0,1,2-1,1.79,1.79,0,0,1,1.09.34Z"/><path class="cls-19" d="M432,464.9a6,6,0,0,1,0,.65h-5.08a1.73,1.73,0,0,0,1.84,1.49,2.94,2.94,0,0,0,1.81-.69l1.13,1.24a4.33,4.33,0,0,1-3.05,1.09,3.78,3.78,0,0,1-.1-7.55A3.47,3.47,0,0,1,432,464.9Zm-5.12-.67h3.18a1.55,1.55,0,0,0-1.56-1.44A1.57,1.57,0,0,0,426.91,464.23Z"/><path class="cls-19" d="M439.68,464.9a4.19,4.19,0,0,1,0,.65h-5.08A1.74,1.74,0,0,0,436.4,467a3,3,0,0,0,1.82-.69l1.13,1.24a4.35,4.35,0,0,1-3.06,1.09,3.78,3.78,0,0,1-.1-7.55A3.47,3.47,0,0,1,439.68,464.9Zm-5.11-.67h3.17a1.59,1.59,0,0,0-3.17,0Z"/><path class="cls-19" d="M448,464.9a3.56,3.56,0,0,1-3.47,3.78,2.62,2.62,0,0,1-2.11-.93v3.7h-1.93V461.32h1.89v.79a2.61,2.61,0,0,1,2.14-1A3.56,3.56,0,0,1,448,464.9Zm-5.68,0a1.85,1.85,0,1,0,1.84-2A1.84,1.84,0,0,0,442.35,464.9Z"/><path class="cls-19" d="M451.13,459a1.23,1.23,0,1,1-1.24-1.25A1.23,1.23,0,0,1,451.13,459Zm-.26,9.51h-1.93v-7.17h1.93Z"/><path class="cls-19" d="M454.09,463.88l2.71-2.56h2.36l-3.47,3.38,3.5,3.79h-2.38l-2.72-2.9v2.9h-1.93V457.84h1.93Z"/><path class="cls-19" d="M322.47,468.43v-1.06a3,3,0,0,1-2.38,1.23c-1.85,0-3.15-1.4-3.15-3.7s1.29-3.72,3.15-3.72a3,3,0,0,1,2.38,1.24v-3.76h1.1v9.77Zm0-1.92V463.3a2.65,2.65,0,0,0-2.12-1.14c-1.42,0-2.27,1.17-2.27,2.74s.85,2.72,2.27,2.72A2.6,2.6,0,0,0,322.47,466.51Z"/><path class="cls-19" d="M325,464.88a3.54,3.54,0,0,1,3.49-3.7c2.14,0,3.4,1.67,3.4,3.79v.28h-5.73a2.5,2.5,0,0,0,2.55,2.45,3.08,3.08,0,0,0,2.18-.9l.53.72a3.84,3.84,0,0,1-2.81,1.08A3.51,3.51,0,0,1,325,464.88Zm3.48-2.79a2.36,2.36,0,0,0-2.32,2.35h4.64A2.28,2.28,0,0,0,328.47,462.09Z"/><path class="cls-19" d="M332.67,467.49l.57-.79a3.21,3.21,0,0,0,2.33,1c1.08,0,1.67-.51,1.67-1.21,0-1.72-4.38-.66-4.38-3.29,0-1.09.95-2,2.64-2a3.58,3.58,0,0,1,2.62,1l-.51.77a2.76,2.76,0,0,0-2.11-.9c-1,0-1.57.49-1.57,1.12,0,1.55,4.38.52,4.38,3.28,0,1.18-.95,2.13-2.78,2.13A3.77,3.77,0,0,1,332.67,467.49Z"/><path class="cls-19" d="M339.54,459.61a.74.74,0,1,1,1.48,0,.74.74,0,0,1-1.48,0Zm.19,8.82v-7.08h1.1v7.08Z"/><path class="cls-19" d="M342.64,470.25l.56-.82a2.71,2.71,0,0,0,2.3,1,2,2,0,0,0,2.27-2.12v-1a3,3,0,0,1-2.37,1.26c-1.85,0-3.15-1.38-3.15-3.67s1.29-3.67,3.15-3.67a2.94,2.94,0,0,1,2.37,1.24v-1.07h1.1v6.87c0,2.35-1.64,3.08-3.37,3.08A3.63,3.63,0,0,1,342.64,470.25Zm5.13-3.86V463.3a2.62,2.62,0,0,0-2.11-1.14c-1.42,0-2.27,1.13-2.27,2.69s.85,2.7,2.27,2.7A2.61,2.61,0,0,0,347.77,466.39Z"/><path class="cls-19" d="M355.48,468.43V463.8c0-1.24-.63-1.64-1.59-1.64a2.73,2.73,0,0,0-2.09,1.1v5.17h-1.1v-7.08h1.1v1a3.49,3.49,0,0,1,2.52-1.2,2,2,0,0,1,2.25,2.28v5Z"/><path class="cls-19" d="M358,464.88a3.54,3.54,0,0,1,3.49-3.7c2.14,0,3.4,1.67,3.4,3.79v.28h-5.73a2.5,2.5,0,0,0,2.55,2.45,3.08,3.08,0,0,0,2.18-.9l.53.72a3.84,3.84,0,0,1-2.81,1.08A3.51,3.51,0,0,1,358,464.88Zm3.48-2.79a2.36,2.36,0,0,0-2.32,2.35h4.65A2.29,2.29,0,0,0,361.47,462.09Z"/><path class="cls-19" d="M371.41,468.43v-1.06A3,3,0,0,1,369,468.6c-1.84,0-3.14-1.4-3.14-3.7s1.28-3.72,3.14-3.72a3,3,0,0,1,2.39,1.24v-3.76h1.1v9.77Zm0-1.92V463.3a2.65,2.65,0,0,0-2.12-1.14c-1.42,0-2.27,1.17-2.27,2.74s.85,2.72,2.27,2.72A2.6,2.6,0,0,0,371.41,466.51Z"/><path class="cls-19" d="M377.75,468.43v-9.77h1.1v3.76a3,3,0,0,1,2.39-1.24c1.85,0,3.15,1.46,3.15,3.72s-1.3,3.7-3.15,3.7a3,3,0,0,1-2.39-1.23v1.06Zm3.21-.81c1.44,0,2.29-1.15,2.29-2.72s-.85-2.74-2.29-2.74a2.65,2.65,0,0,0-2.11,1.14v3.21A2.59,2.59,0,0,0,381,467.62Z"/><path class="cls-19" d="M385.59,470.2a1.78,1.78,0,0,0,.6.12,1,1,0,0,0,1.06-.75l.47-1.07-3-7.15h1.18l2.36,5.8,2.34-5.8h1.21l-3.55,8.51a2.09,2.09,0,0,1-2.08,1.44,3.44,3.44,0,0,1-.8-.1Z"/></g></g></svg>