<svg xmlns="http://www.w3.org/2000/svg" xmlns:xlink="http://www.w3.org/1999/xlink" viewBox="0 0 401.82 382"><defs><style>.cls-1{fill:none;}.cls-2{isolation:isolate;}.cls-3,.cls-53,.cls-54{opacity:0.28;}.cls-3{fill:url(#Degradado_sin_nombre_45);}.cls-4,.cls-5,.cls-6{opacity:0.8;}.cls-4{fill:url(#Degradado_sin_nombre_58);}.cls-5{fill:url(#Degradado_sin_nombre_58-2);}.cls-6{fill:url(#Degradado_sin_nombre_58-3);}.cls-17,.cls-22,.cls-7{opacity:0.35;}.cls-12,.cls-17,.cls-22,.cls-25,.cls-26,.cls-28,.cls-48,.cls-62,.cls-7{mix-blend-mode:multiply;}.cls-22,.cls-8{fill:#969696;}.cls-9{fill:url(#Degradado_sin_nombre_63);}.cls-10{clip-path:url(#clip-path);}.cls-11{fill:#fff;}.cls-12,.cls-48,.cls-66{fill:#cdd4de;}.cls-13{fill:url(#Degradado_sin_nombre_63-2);}.cls-14{fill:url(#Degradado_sin_nombre_63-3);}.cls-15{clip-path:url(#clip-path-2);}.cls-16{fill:url(#Degradado_sin_nombre_63-4);}.cls-17,.cls-65{fill:#9e9e9e;}.cls-18{fill:#737373;}.cls-19{fill:#636363;}.cls-20{fill:#dbdbdb;}.cls-21{fill:#616161;}.cls-23{fill:#363636;}.cls-24,.cls-26,.cls-28{opacity:0.7;}.cls-25,.cls-27,.cls-28{fill:#666;}.cls-29{clip-path:url(#clip-path-3);}.cls-30{fill:url(#Degradado_sin_nombre_4);}.cls-31{fill:url(#Degradado_sin_nombre_63-5);}.cls-32{fill:url(#Degradado_sin_nombre_63-6);}.cls-33{fill:url(#Degradado_sin_nombre_63-7);}.cls-34{fill:url(#Degradado_sin_nombre_63-8);}.cls-35{fill:url(#Degradado_sin_nombre_63-9);}.cls-36{fill:url(#Degradado_sin_nombre_63-10);}.cls-37{clip-path:url(#clip-path-4);}.cls-38{fill:url(#Degradado_sin_nombre_4-2);}.cls-39{fill:url(#Degradado_sin_nombre_63-11);}.cls-40{fill:url(#Degradado_sin_nombre_63-12);}.cls-41{fill:url(#Degradado_sin_nombre_63-13);}.cls-42{fill:url(#Degradado_sin_nombre_63-14);}.cls-43{fill:url(#Degradado_sin_nombre_63-15);}.cls-44{fill:url(#Degradado_sin_nombre_63-16);}.cls-45{fill:url(#Degradado_sin_nombre_62);}.cls-46{fill:#ffedad;}.cls-47{fill:#212121;}.cls-48{opacity:0.46;}.cls-49{fill:#454545;}.cls-50{fill:#fa304a;}.cls-51{fill:url(#Degradado_sin_nombre_62-2);}.cls-52{fill:url(#Degradado_sin_nombre_62-3);}.cls-53{fill:url(#Degradado_sin_nombre_45-2);}.cls-54{fill:url(#Degradado_sin_nombre_45-3);}.cls-55{fill:#545454;}.cls-56{fill:url(#Degradado_sin_nombre_3);}.cls-57{fill:url(#Degradado_sin_nombre_3-2);}.cls-58{fill:url(#Degradado_sin_nombre_3-3);}.cls-59{fill:url(#Degradado_sin_nombre_2);}.cls-60{fill:url(#Degradado_sin_nombre_2-2);}.cls-61{fill:#ffd22e;}.cls-63{clip-path:url(#clip-path-5);}.cls-64{fill:gray;}</style><linearGradient id="Degradado_sin_nombre_45" x1="191" y1="48" x2="191" y2="325.02" gradientUnits="userSpaceOnUse"><stop offset="0" stop-color="#fff"/><stop offset="1" stop-color="#fff" stop-opacity="0"/></linearGradient><linearGradient id="Degradado_sin_nombre_58" x1="189.78" y1="27.17" x2="189.78" y2="46.17" gradientUnits="userSpaceOnUse"><stop offset="0" stop-color="#fff"/><stop offset="0.09" stop-color="#fff" stop-opacity="0.97"/><stop offset="0.22" stop-color="#fff" stop-opacity="0.89"/><stop offset="0.38" stop-color="#fff" stop-opacity="0.75"/><stop offset="0.57" stop-color="#fff" stop-opacity="0.56"/><stop offset="0.77" stop-color="#fff" stop-opacity="0.31"/><stop offset="0.99" stop-color="#fff" stop-opacity="0.02"/><stop offset="1" stop-color="#fff" stop-opacity="0"/></linearGradient><linearGradient id="Degradado_sin_nombre_58-2" x1="319.78" y1="113.39" x2="319.78" y2="132.4" xlink:href="#Degradado_sin_nombre_58"/><linearGradient id="Degradado_sin_nombre_58-3" x1="61.78" y1="113.39" x2="61.78" y2="132.4" xlink:href="#Degradado_sin_nombre_58"/><linearGradient id="Degradado_sin_nombre_63" x1="58.28" y1="198.67" x2="58.28" y2="277.67" gradientUnits="userSpaceOnUse"><stop offset="0.01" stop-color="#fa304a"/><stop offset="1" stop-color="#b32235"/></linearGradient><clipPath id="clip-path"><path class="cls-1" d="M60,198.27h-3.4a3.21,3.21,0,0,0-2.93,2.26l-27.17,74.6h63.6l-27.17-74.6A3.21,3.21,0,0,0,60,198.27Z"/></clipPath><linearGradient id="Degradado_sin_nombre_63-2" x1="58.28" y1="226.17" x2="58.28" y2="300.75" xlink:href="#Degradado_sin_nombre_63"/><linearGradient id="Degradado_sin_nombre_63-3" x1="326.11" y1="198.67" x2="326.11" y2="277.67" xlink:href="#Degradado_sin_nombre_63"/><clipPath id="clip-path-2"><path class="cls-1" d="M327.81,198.27h-3.4a3.22,3.22,0,0,0-2.93,2.26l-27.17,74.6h63.6l-27.17-74.6A3.21,3.21,0,0,0,327.81,198.27Z"/></clipPath><linearGradient id="Degradado_sin_nombre_63-4" x1="326.11" y1="226.17" x2="326.11" y2="300.75" xlink:href="#Degradado_sin_nombre_63"/><clipPath id="clip-path-3"><rect class="cls-1" x="92.46" y="94.88" width="197.02" height="42.71" rx="5.47"/></clipPath><linearGradient id="Degradado_sin_nombre_4" x1="190.98" y1="99.71" x2="190.98" y2="135.73" gradientUnits="userSpaceOnUse"><stop offset="0" stop-color="#fff"/><stop offset="1" stop-color="#e0e0e0"/></linearGradient><linearGradient id="Degradado_sin_nombre_63-5" x1="107.9" y1="94.17" x2="107.9" y2="144.67" xlink:href="#Degradado_sin_nombre_63"/><linearGradient id="Degradado_sin_nombre_63-6" x1="132.52" y1="94.17" x2="132.52" y2="144.67" xlink:href="#Degradado_sin_nombre_63"/><linearGradient id="Degradado_sin_nombre_63-7" x1="172.06" y1="94.17" x2="172.06" y2="144.67" xlink:href="#Degradado_sin_nombre_63"/><linearGradient id="Degradado_sin_nombre_63-8" x1="211.59" y1="94.17" x2="211.59" y2="144.67" xlink:href="#Degradado_sin_nombre_63"/><linearGradient id="Degradado_sin_nombre_63-9" x1="251.13" y1="94.17" x2="251.13" y2="144.67" xlink:href="#Degradado_sin_nombre_63"/><linearGradient id="Degradado_sin_nombre_63-10" x1="274.9" y1="94.17" x2="274.9" y2="144.67" xlink:href="#Degradado_sin_nombre_63"/><clipPath id="clip-path-4"><rect class="cls-1" x="92.46" y="175.43" width="197.02" height="42.71" rx="5.47"/></clipPath><linearGradient id="Degradado_sin_nombre_4-2" x1="190.98" y1="180.26" x2="190.98" y2="216.28" xlink:href="#Degradado_sin_nombre_4"/><linearGradient id="Degradado_sin_nombre_63-11" x1="107.9" y1="173.67" x2="107.9" y2="217.19" xlink:href="#Degradado_sin_nombre_63"/><linearGradient id="Degradado_sin_nombre_63-12" x1="132.52" y1="173.67" x2="132.52" y2="217.19" xlink:href="#Degradado_sin_nombre_63"/><linearGradient id="Degradado_sin_nombre_63-13" x1="172.06" y1="173.67" x2="172.06" y2="217.19" xlink:href="#Degradado_sin_nombre_63"/><linearGradient id="Degradado_sin_nombre_63-14" x1="211.59" y1="173.67" x2="211.59" y2="217.19" xlink:href="#Degradado_sin_nombre_63"/><linearGradient id="Degradado_sin_nombre_63-15" x1="251.13" y1="173.67" x2="251.13" y2="217.19" xlink:href="#Degradado_sin_nombre_63"/><linearGradient id="Degradado_sin_nombre_63-16" x1="274.9" y1="173.67" x2="274.9" y2="217.19" xlink:href="#Degradado_sin_nombre_63"/><linearGradient id="Degradado_sin_nombre_62" x1="190.98" y1="74.17" x2="190.98" y2="144.37" gradientTransform="translate(-26.25 169.08) rotate(-45)" gradientUnits="userSpaceOnUse"><stop offset="0" stop-color="#ffd22e"/><stop offset="0.36" stop-color="#ffc82e"/><stop offset="0.96" stop-color="#ffad2e"/><stop offset="1" stop-color="#ffab2e"/></linearGradient><linearGradient id="Degradado_sin_nombre_62-2" x1="115.55" y1="53.17" x2="115.55" y2="77.17" gradientTransform="matrix(1, 0, 0, 1, 0, 0)" xlink:href="#Degradado_sin_nombre_62"/><linearGradient id="Degradado_sin_nombre_62-3" x1="269.85" y1="53.17" x2="269.85" y2="77.17" gradientTransform="matrix(1, 0, 0, 1, 0, 0)" xlink:href="#Degradado_sin_nombre_62"/><linearGradient id="Degradado_sin_nombre_45-2" x1="115.42" y1="53.92" x2="115.42" y2="78.27" xlink:href="#Degradado_sin_nombre_45"/><linearGradient id="Degradado_sin_nombre_45-3" x1="269.75" y1="53.58" x2="269.75" y2="77.94" xlink:href="#Degradado_sin_nombre_45"/><linearGradient id="Degradado_sin_nombre_3" x1="192.16" y1="268.5" x2="192.16" y2="367.54" gradientTransform="translate(494.33 110) rotate(90)" gradientUnits="userSpaceOnUse"><stop offset="0" stop-color="#d6d6d6"/><stop offset="0.28" stop-color="#d4d4d4"/><stop offset="0.44" stop-color="#ccc"/><stop offset="0.56" stop-color="#bebebe"/><stop offset="0.67" stop-color="#ababab"/><stop offset="0.76" stop-color="#919191"/><stop offset="0.85" stop-color="#727272"/><stop offset="0.93" stop-color="#4e4e4e"/><stop offset="0.98" stop-color="#363636"/></linearGradient><linearGradient id="Degradado_sin_nombre_3-2" x1="192.16" y1="270.5" x2="192.16" y2="369.54" gradientTransform="translate(470.99 86.67) rotate(90)" xlink:href="#Degradado_sin_nombre_3"/><linearGradient id="Degradado_sin_nombre_3-3" x1="192.16" y1="255.83" x2="192.16" y2="354.88" gradientTransform="translate(517.35 133.03) rotate(90)" xlink:href="#Degradado_sin_nombre_3"/><linearGradient id="Degradado_sin_nombre_2" x1="165.41" y1="302.78" x2="165.41" y2="346.12" gradientUnits="userSpaceOnUse"><stop offset="0" stop-color="#fff"/><stop offset="0.98" stop-color="#363636"/></linearGradient><linearGradient id="Degradado_sin_nombre_2-2" x1="219.93" y1="303.15" x2="219.93" y2="346.85" xlink:href="#Degradado_sin_nombre_2"/><clipPath id="clip-path-5"><ellipse class="cls-1" cx="309.55" cy="323.7" rx="65.15" ry="17.43"/></clipPath></defs><g class="cls-2"><g id="Layer_2" data-name="Layer 2"><g id="Objects"><circle class="cls-3" cx="191" cy="191" r="191"/><polygon class="cls-4" points="191.56 33.94 191.56 28.78 188 28.78 188 33.94 182.84 33.94 182.84 37.5 188 37.5 188 42.66 191.56 42.66 191.56 37.5 196.72 37.5 196.72 33.94 191.56 33.94"/><polygon class="cls-5" points="321.56 120.17 321.56 115.01 318 115.01 318 120.17 312.84 120.17 312.84 123.73 318 123.73 318 128.88 321.56 128.88 321.56 123.73 326.72 123.73 326.72 120.17 321.56 120.17"/><polygon class="cls-6" points="63.56 120.17 63.56 115.01 60 115.01 60 120.17 54.84 120.17 54.84 123.73 60 123.73 60 128.88 63.56 128.88 63.56 123.73 68.72 123.73 68.72 120.17 63.56 120.17"/><g class="cls-7"><path class="cls-8" d="M99,281.35c.13,3.2-18,6.44-40.6,6.43s-40.72-3.24-40.6-6.43,18.3-5.18,40.6-5.19S98.84,278.13,99,281.35Z"/></g><path class="cls-9" d="M60,198.27h-3.4a3.21,3.21,0,0,0-2.93,2.26l-27.17,74.6a113.43,113.43,0,0,0,63.6,0q-13.59-37.31-27.17-74.6A3.21,3.21,0,0,0,60,198.27Z"/><g class="cls-10"><rect class="cls-11" x="28.71" y="216.93" width="58.11" height="15.41"/><rect class="cls-11" x="28.71" y="247.06" width="58.11" height="15.41"/></g><path class="cls-12" d="M63.45,247.48a83.7,83.7,0,0,1-3.76,13.16c-1.44,3.9-3.12,7.88-5.77,11.12A73,73,0,0,1,47.47,278l42.61-2.87-27.17-74.6A3.21,3.21,0,0,0,60,198.27h-.39C64.61,214.12,66.62,231,63.45,247.48Z"/><path class="cls-13" d="M95.88,280.78a199.38,199.38,0,0,1-75.2,0,2.79,2.79,0,0,1-2.28-3.28l.33-1.62a2.82,2.82,0,0,1,3.3-2.16,192.53,192.53,0,0,0,72.49,0,2.81,2.81,0,0,1,3.3,2.16c.12.54.23,1.08.34,1.62A2.8,2.8,0,0,1,95.88,280.78Z"/><g class="cls-7"><path class="cls-8" d="M366.8,281.35c.12,3.2-18.06,6.44-40.6,6.43s-40.73-3.24-40.6-6.43,18.29-5.18,40.6-5.19S366.67,278.13,366.8,281.35Z"/></g><path class="cls-14" d="M327.81,198.27h-3.4a3.22,3.22,0,0,0-2.93,2.26l-27.17,74.6a113.44,113.44,0,0,0,63.6,0q-13.57-37.31-27.17-74.6A3.21,3.21,0,0,0,327.81,198.27Z"/><g class="cls-15"><rect class="cls-11" x="296.55" y="216.93" width="58.11" height="15.41"/><rect class="cls-11" x="296.55" y="247.06" width="58.11" height="15.41"/></g><path class="cls-12" d="M331.28,247.48a82.61,82.61,0,0,1-3.75,13.16c-1.45,3.9-3.12,7.88-5.78,11.12a74.24,74.24,0,0,1-6.44,6.24l42.6-2.87-27.17-74.6a3.21,3.21,0,0,0-2.93-2.26h-.39C332.44,214.12,334.45,231,331.28,247.48Z"/><path class="cls-16" d="M363.71,280.78a199.38,199.38,0,0,1-75.2,0,2.81,2.81,0,0,1-2.28-3.28c.11-.54.22-1.08.34-1.62a2.81,2.81,0,0,1,3.3-2.16,192.53,192.53,0,0,0,72.49,0,2.82,2.82,0,0,1,3.3,2.16l.33,1.62A2.79,2.79,0,0,1,363.71,280.78Z"/><ellipse class="cls-17" cx="54.89" cy="316.96" rx="34.79" ry="4.09"/><rect class="cls-18" x="20.6" y="307.98" width="12.68" height="4.99"/><rect class="cls-18" x="76.5" y="307.5" width="12.68" height="5.47"/><path class="cls-19" d="M20.43,316.39c4.21,2.67,15.36,2.68,19.68-.18l29.2-.16a8.26,8.26,0,0,0,1.81.79c5.24,1.86,14.17,1.38,18.06-.9v-4.1s-11.79,3.46-17.62-1.3l-32.49-.28s-11.7,3.61-18.64,1.95Z"/><path class="cls-20" d="M71,306.92c-.82.29-1.23.58-1.84.81l-28.8.15c-.61-.21-1-.5-1.81-.79-5.24-1.86-14.17-1.38-18.07.9l6.09,0c3.24,0,5.66.84,5.64,2S29.76,312,26.52,312l-6.09.18c4.21,2.67,15.36,2.68,19.68-.18l29.2-.16a8.26,8.26,0,0,0,1.81.79c5.24,1.87,14.17,1.38,18.06-.9l-6.08,0c-3.24,0-5.66-.85-5.64-2s2.47-2.05,5.72-2.07l6.08,0C85.45,305.31,76.34,305,71,306.92Z"/><path class="cls-17" d="M74.08,340.21c0,2.26-15.58,4.09-34.79,4.09S4.5,342.47,4.5,340.21s15.58-4.09,34.79-4.09S74.08,338,74.08,340.21Z"/><rect class="cls-18" x="5" y="331.22" width="12.68" height="4.99"/><rect class="cls-18" x="60.9" y="330.74" width="12.68" height="5.47"/><path class="cls-19" d="M4.83,339.63c4.2,2.67,15.36,2.69,19.67-.17l29.2-.16a9,9,0,0,0,1.81.79c5.24,1.86,14.17,1.38,18.07-.9v-4.1s-11.79,3.46-17.63-1.3l-32.49-.29s-11.7,3.62-18.63,2Z"/><path class="cls-20" d="M55.42,330.16c-.82.3-1.23.59-1.84.81l-28.8.16c-.6-.22-1-.51-1.81-.79-5.23-1.86-14.17-1.38-18.06.9l6.08,0c3.25,0,5.66.85,5.64,2s-2.47,2.05-5.72,2.07l-6.08.18c4.2,2.67,15.36,2.68,19.67-.18l29.2-.16a9,9,0,0,0,1.81.79c5.24,1.86,14.17,1.38,18.07-.9l-6.09,0c-3.24,0-5.66-.84-5.64-2S64.33,331,67.57,331l6.09,0C69.85,328.56,60.73,328.24,55.42,330.16Z"/><path class="cls-17" d="M93.88,342.38c-4.77,0-8.63-1.67-8.63-3.74s3.86-3.74,8.63-3.74,8.62,1.68,8.62,3.74S98.64,342.38,93.88,342.38Z"/><polygon class="cls-19" points="102.39 334.75 98.15 331.58 89.68 331.58 85.44 334.75 85.44 338.19 89.68 341.36 98.15 341.36 102.39 338.19 102.39 334.75"/><path class="cls-20" d="M98.15,331.5H89.68l-4.24,3.17,4.24,3.17h8.47l4.24-3.17Z"/><ellipse class="cls-21" cx="93.92" cy="334.67" rx="3.04" ry="1.31"/><path class="cls-17" d="M122,353.23c-4.77,0-8.63-1.67-8.63-3.74s3.86-3.74,8.63-3.74,8.62,1.68,8.62,3.74S126.72,353.23,122,353.23Z"/><polygon class="cls-19" points="130.47 345.6 126.24 342.43 117.76 342.43 113.53 345.6 113.53 349.04 117.76 352.21 126.24 352.21 130.47 349.04 130.47 345.6"/><path class="cls-20" d="M126.24,342.35h-8.48l-4.23,3.17,4.23,3.17h8.48l4.23-3.17Z"/><path class="cls-21" d="M122,346.83c-1.68,0-3-.59-3-1.31s1.36-1.32,3-1.32,3,.59,3,1.32S123.68,346.83,122,346.83Z"/><ellipse class="cls-22" cx="192.61" cy="250.66" rx="107.4" ry="6.55"/><path class="cls-23" d="M111.79,78.79h6.55a4.13,4.13,0,0,1,4.13,4.13V245.78a0,0,0,0,1,0,0H107.66a0,0,0,0,1,0,0V82.92a4.13,4.13,0,0,1,4.13-4.13Z"/><g class="cls-24"><path class="cls-25" d="M122.59,82.92a4.13,4.13,0,0,0-4.13-4.13h-6.55a4.35,4.35,0,0,0-1,.12h3.7A4.13,4.13,0,0,1,118.78,83v53l-11,1.47h0a18.56,18.56,0,0,1,11,16.94v20.88l-11.06,42.16-.16,22.75,11.22,0h3.81Z"/></g><path class="cls-23" d="M267,78.79h6.55a4.13,4.13,0,0,1,4.13,4.13V245.78a0,0,0,0,1,0,0H262.86a0,0,0,0,1,0,0V82.92A4.13,4.13,0,0,1,267,78.79Z"/><g class="cls-26"><path class="cls-27" d="M277.79,82.92a4.13,4.13,0,0,0-4.13-4.13h-6.55a4.35,4.35,0,0,0-1,.12h3.7A4.13,4.13,0,0,1,274,83v53l-11,1.47h0a18.56,18.56,0,0,1,11,16.94v20.88l-11.06,42.16-.16,22.75,11.22,0h3.81Z"/></g><rect class="cls-23" x="98.62" y="239.8" width="32.88" height="10.68" rx="3.06"/><rect class="cls-23" x="253.82" y="239.8" width="32.88" height="10.68" rx="3.06"/><path class="cls-28" d="M116.23,246.75c-5.52-.06-15,.73-17.37-5.06a3,3,0,0,0-.24,1.17v4.55a3.06,3.06,0,0,0,3.06,3.06h26.77a3.06,3.06,0,0,0,3.06-3.06v-4.55a3.2,3.2,0,0,0-.23-1.16C129.27,246.58,121.06,246.79,116.23,246.75Z"/><path class="cls-28" d="M271.43,246.75c-5.52-.06-15,.73-17.37-5.06a3,3,0,0,0-.24,1.17v4.55a3.06,3.06,0,0,0,3.06,3.06h26.77a3.06,3.06,0,0,0,3.06-3.06v-4.55a3.2,3.2,0,0,0-.23-1.16C284.47,246.58,276.26,246.79,271.43,246.75Z"/><g class="cls-29"><rect class="cls-30" x="92.46" y="94.88" width="197.02" height="42.71"/><polygon class="cls-31" points="105.47 93.88 90.61 108.74 90.61 128.62 125.19 94.04 125.03 93.88 105.47 93.88"/><polygon class="cls-32" points="120.19 138.58 164.73 94.04 164.57 93.88 145.01 93.88 100.31 138.58 120.19 138.58"/><polygon class="cls-33" points="159.73 138.58 204.27 94.04 204.11 93.88 184.54 93.88 139.84 138.58 159.73 138.58"/><polygon class="cls-34" points="199.26 138.58 243.81 94.04 243.65 93.88 224.08 93.88 179.38 138.58 199.26 138.58"/><polygon class="cls-35" points="238.8 138.58 283.34 94.04 283.19 93.88 263.62 93.88 218.92 138.58 238.8 138.58"/><polygon class="cls-36" points="258.46 138.58 278.34 138.58 291.34 125.59 291.34 105.7 258.46 138.58"/></g><path class="cls-12" d="M285.52,95.1l-.13,20.29c0,9.82-.45,18.7-17.77,17.78H93.84a5.09,5.09,0,0,1-1.3-.17,5.48,5.48,0,0,0,5.4,4.59H284a5.48,5.48,0,0,0,5.48-5.48V100.35A5.46,5.46,0,0,0,285.52,95.1Z"/><g class="cls-37"><rect class="cls-38" x="92.46" y="175.43" width="197.02" height="42.71"/><polygon class="cls-39" points="105.47 174.43 90.61 189.28 90.61 209.17 125.19 174.59 125.03 174.43 105.47 174.43"/><polygon class="cls-40" points="120.19 219.13 164.73 174.59 164.57 174.43 145.01 174.43 100.31 219.13 120.19 219.13"/><polygon class="cls-41" points="159.73 219.13 204.27 174.59 204.11 174.43 184.54 174.43 139.84 219.13 159.73 219.13"/><polygon class="cls-42" points="199.26 219.13 243.81 174.59 243.65 174.43 224.08 174.43 179.38 219.13 199.26 219.13"/><polygon class="cls-43" points="238.8 219.13 283.34 174.59 283.19 174.43 263.62 174.43 218.92 219.13 238.8 219.13"/><polygon class="cls-44" points="258.46 219.13 278.34 219.13 291.34 206.13 291.34 186.25 258.46 219.13"/></g><path class="cls-12" d="M285.52,175.64l-.13,20.3c0,9.82-.45,18.7-17.77,17.77H93.84a5.58,5.58,0,0,1-1.3-.16,5.47,5.47,0,0,0,5.4,4.58H284a5.47,5.47,0,0,0,5.48-5.47V180.9A5.48,5.48,0,0,0,285.52,175.64Z"/><rect class="cls-45" x="153.73" y="78.99" width="74.49" height="74.49" rx="3.2" transform="translate(138.12 -101) rotate(45)"/><path class="cls-46" d="M191,160.75a4.17,4.17,0,0,1-2.93-1.21l-40.38-40.39a4.13,4.13,0,0,1,0-5.84l40.38-40.38a4.13,4.13,0,0,1,5.85,0l40.38,40.38a4.13,4.13,0,0,1,0,5.84L193.9,159.54A4.16,4.16,0,0,1,191,160.75ZM149,114.6a2.29,2.29,0,0,0,0,3.26l40.38,40.39a2.32,2.32,0,0,0,3.27,0L233,117.86a2.29,2.29,0,0,0,0-3.26L192.61,74.21a2.32,2.32,0,0,0-3.27,0Z"/><path class="cls-47" d="M202.41,118.9c-.73,0-1.29.19-1.84.19l-5.34-5.35,4.42-4.42,5.71-2,4.24-6.82a1.17,1.17,0,0,0,0-1.1l-2.21-2.21A1.14,1.14,0,0,0,206.1,97l-7,4.06-2.21,5.89h0l-4.42,4.42-5-5.34c0-.55.19-1.11.19-1.84A7.49,7.49,0,0,0,178.47,97l2.76,2.77a3.65,3.65,0,0,1-5.16,5.15l-2.94-2.57a7.23,7.23,0,0,0,9,8.84l5.34,5.34-2.21,2.21a3.51,3.51,0,0,0-3.5.92l-7.55,7.55a3.75,3.75,0,0,0-.37,5.16,3.62,3.62,0,0,0,5.34.18l7.74-7.73a3.61,3.61,0,0,0,.92-3.5l2.21-2.21,5.34,5.34a6.39,6.39,0,0,0-.18,1.84,7.48,7.48,0,0,0,9.21,7.18l-2.76-2.76a3.65,3.65,0,0,1,5.15-5.16l2.77,2.77A7.48,7.48,0,0,0,202.41,118.9Z"/><path class="cls-48" d="M241.38,114,193.24,65.82a3.22,3.22,0,0,0-2.11-.92V167.56a3.13,3.13,0,0,0,2.11-.92l48.14-48.15A3.19,3.19,0,0,0,241.38,114Z"/><path class="cls-49" d="M151.54,116.52a1.6,1.6,0,1,1,1.6,1.6A1.6,1.6,0,0,1,151.54,116.52Z"/><path class="cls-49" d="M225.35,116.52a1.6,1.6,0,1,1,1.6,1.6A1.6,1.6,0,0,1,225.35,116.52Z"/><circle class="cls-50" cx="115.55" cy="64.58" r="15.95"/><circle class="cls-51" cx="115.55" cy="64.58" r="10.93"/><circle class="cls-46" cx="115.55" cy="64.58" r="5.47"/><circle class="cls-50" cx="269.85" cy="64.58" r="15.95"/><circle class="cls-52" cx="269.85" cy="64.58" r="10.93"/><circle class="cls-46" cx="269.85" cy="64.58" r="5.47"/><circle class="cls-53" cx="115.42" cy="64.92" r="14"/><circle class="cls-54" cx="269.75" cy="64.58" r="14"/><ellipse class="cls-55" cx="195.43" cy="313.03" rx="72.93" ry="22.1"/><ellipse class="cls-47" cx="195.43" cy="323.81" rx="63.68" ry="11.33"/><rect class="cls-56" x="189.4" y="274.31" width="5.53" height="55.71" transform="translate(-110 494.33) rotate(-90)"/><rect class="cls-57" x="189.4" y="250.98" width="5.53" height="55.71" transform="translate(-86.67 470.99) rotate(-90)"/><rect class="cls-58" x="189.4" y="297.33" width="5.53" height="55.71" transform="translate(-133.03 517.35) rotate(-90)"/><path class="cls-59" d="M168.17,333.54l-5.52-.75v-72.2a2.06,2.06,0,0,1,2.07-2.07h1.38a2.07,2.07,0,0,1,2.07,2.07Z"/><path class="cls-60" d="M222.69,333.67l-5.53.5V260.59a2.07,2.07,0,0,1,2.08-2.07h1.38a2.07,2.07,0,0,1,2.07,2.07Z"/><path class="cls-50" d="M147.74,305.65c3.88,6,3.41,14.9-1.3,23.75.66.17,1.27.35,1.92.53,4.87-9.37,5.29-18.8,1.06-25.36-2.72-4.22-7.07-7-11.27-9.62-4.76-3-9.26-5.84-11.38-10.59a13.48,13.48,0,0,1,5.73-16.69,1,1,0,1,0-.95-1.76,15.37,15.37,0,0,0-6.61,19.27c2.37,5.29,7.34,8.43,12.14,11.46C141.1,299.18,145.26,301.81,147.74,305.65Z"/><path class="cls-61" d="M137.15,326.35c.63.21,1.27.47,1.89.69a1,1,0,0,0,0-.17,16.7,16.7,0,0,0-6.27-16.74c-3.67-2.66-8.16-3.55-12.5-4.42l-1.12-.23c-4.54-.92-9.15-2.21-12.12-5.37a9.25,9.25,0,0,1-2.39-6.82,5.8,5.8,0,0,1,2.12-4.22,1,1,0,0,0,.17-1.41,1,1,0,0,0-1.4-.17,7.8,7.8,0,0,0-2.88,5.65,11.32,11.32,0,0,0,2.92,8.34c3.35,3.57,8.31,5,13.18,6l1.13.23c4.13.83,8.4,1.68,11.72,4.08A14.68,14.68,0,0,1,137.15,326.35Z"/><g class="cls-62"><path class="cls-8" d="M149,323.27a37,37,0,0,1-2.58,6.13c.66.17,1.27.35,1.92.53a38.21,38.21,0,0,0,2-4.55C149.93,324.67,149.48,324,149,323.27Z"/></g><g class="cls-62"><path class="cls-8" d="M137.23,321a14.48,14.48,0,0,1-.08,5.37c.63.21,1.27.47,1.89.69a1,1,0,0,0,0-.17,15.89,15.89,0,0,0,.32-4.51C138.67,321.91,137.94,321.45,137.23,321Z"/></g><ellipse class="cls-22" cx="311.12" cy="335.84" rx="74.88" ry="22.63"/><path class="cls-19" d="M381.38,329.41c0,12.21-32.66,22.11-72.94,22.11s-72.93-9.9-72.93-22.11c0-2.14,0-6.18,1.92-8.14,8.83-9.19,37.82-14,71-14,32.47,0,63.08,6.05,72.53,14.94C383.24,324.39,381.38,327.05,381.38,329.41Z"/><ellipse class="cls-20" cx="309.18" cy="324.26" rx="72.93" ry="22.1"/><g class="cls-63"><polygon class="cls-64" points="401.82 325.06 397.97 326.62 298.16 286.16 302.01 284.6 401.82 325.06"/><polygon class="cls-64" points="396.05 320.37 399.9 321.93 308.43 359.01 304.58 357.45 396.05 320.37"/><path class="cls-65" d="M384.49,332.08l3.85-1.56-18.29-7.42,16.37-6.63-3.85-1.56-16.37,6.63-9.63-3.9L372.94,311l-3.85-1.57-16.37,6.64-9.63-3.9,16.37-6.64L355.61,304l-16.37,6.64-9.63-3.91L346,300.08l-3.85-1.56-16.37,6.63-9.63-3.9,16.37-6.63-3.85-1.57-16.37,6.64-23.75-9.63-3.85,1.56,23.75,9.63-9.63,3.9-23.75-9.62-3.85,1.56L295,306.71l-9.63,3.91L261.58,301l-3.86,1.56,23.75,9.63-9.62,3.9-23.75-9.63L244.25,308,268,317.64l-9.62,3.9-23.75-9.62-3.85,1.56,23.74,9.62L244.89,327l-23.75-9.63-3.85,1.56L241,328.57l-3.86,1.56,3.86,1.56,3.85-1.56,9.62,3.9-3.85,1.56,3.85,1.56,3.86-1.56,9.62,3.9-3.85,1.57,3.85,1.56,3.86-1.56,9.62,3.9-3.85,1.56,3.85,1.56,3.85-1.56,9.63,3.9L291.1,352l3.85,1.56L298.8,352l18.3,7.42,3.85-1.56-18.3-7.42,9.63-3.9,18.3,7.41,3.85-1.56L316.13,345l9.63-3.9,18.3,7.41,3.85-1.56-18.3-7.42,9.63-3.9L357.53,343l3.86-1.56L343.09,334l9.63-3.9L371,337.54l3.85-1.56-18.29-7.41,9.63-3.91Zm-35.62-14.44-9.63,3.9-9.63-3.9,9.63-3.9Zm-40.44,5.46L298.8,327l-9.62-3.91,9.62-3.9Zm-5.78-5.46,9.63-3.9,9.63,3.9-9.63,3.9ZM295,328.57l-9.63,3.9-9.62-3.9,9.62-3.91Zm3.85,1.56,9.63,3.9-9.63,3.9-9.62-3.9Zm3.85-1.56,9.63-3.91,9.63,3.91-9.63,3.9Zm13.48-5.47,9.63-3.9,9.63,3.9L325.76,327Zm19.26-10.92-9.63,3.9-9.63-3.9,9.63-3.91Zm-23.11-9.37,9.63,3.9-9.63,3.91-9.63-3.91Zm-13.48,5.46,9.63,3.91-9.63,3.9-9.62-3.9Zm-13.48,5.47,9.63,3.9-9.63,3.9-9.62-3.9Zm-13.47,5.46,9.62,3.9L271.85,327l-9.63-3.91Zm-23.11,9.37,9.63-3.91,9.62,3.91-9.62,3.9ZM262.22,334l9.63-3.9,9.62,3.9-9.62,3.9Zm13.48,5.46,9.62-3.9,9.63,3.9-9.63,3.91Zm23.1,9.37-9.62-3.9,9.62-3.9,9.63,3.9Zm13.48-5.46-9.63-3.91,9.63-3.9,9.63,3.9Zm13.48-5.47-9.63-3.9,9.63-3.9,9.63,3.9Zm13.48-5.46-9.63-3.9,9.63-3.91,9.63,3.91ZM352.72,327l-9.63-3.91,9.63-3.9,9.63,3.9Z"/><polygon class="cls-64" points="315.17 287.59 319.02 289.15 227.56 326.23 223.71 324.67 315.17 287.59"/></g><path class="cls-65" d="M309.64,342.12c-37.23,0-66.4-8.09-66.4-18.42s29.17-18.41,66.4-18.41S376,313.38,376,323.7,346.87,342.12,309.64,342.12Zm0-34.86c-38.38,0-64.16,8.5-64.16,16.44s25.78,16.45,64.16,16.45,64.16-8.5,64.16-16.45S348,307.26,309.64,307.26Z"/><g class="cls-62"><path class="cls-66" d="M362.24,309.09c2.3,2.15,3.56,4.44,3.56,6.83,0,12.2-32.65,22.1-72.93,22.1-20.9,0-39.74-2.67-53-6.94,9.49,8.86,37,15.27,69.36,15.27,40.28,0,72.94-9.89,72.94-22.1C382.14,318.38,374.57,313,362.24,309.09Z"/></g></g></g></g></svg>