<svg xmlns="http://www.w3.org/2000/svg" xmlns:xlink="http://www.w3.org/1999/xlink" viewBox="0 0 750 500"><defs><style>.cls-1{fill:#001e3b;}.cls-2{fill:#ffd7c1;}.cls-11,.cls-12,.cls-13,.cls-14,.cls-17,.cls-19,.cls-20,.cls-21,.cls-22,.cls-24,.cls-25,.cls-26,.cls-27,.cls-29,.cls-3,.cls-30,.cls-32,.cls-33,.cls-34,.cls-36,.cls-37,.cls-38,.cls-39,.cls-8,.cls-9{fill:none;}.cls-17,.cls-3,.cls-36{stroke:#fff;}.cls-11,.cls-12,.cls-19,.cls-24,.cls-25,.cls-29,.cls-3,.cls-32,.cls-37,.cls-38,.cls-8{stroke-miterlimit:10;}.cls-29,.cls-3,.cls-32,.cls-37,.cls-38{stroke-width:1.01px;}.cls-4{fill:#111d36;}.cls-5{fill:#d48066;}.cls-6{fill:#f5425c;}.cls-7{fill:#fff;}.cls-29,.cls-8,.cls-9{stroke:#e2e2e2;}.cls-8,.cls-9{stroke-width:0.78px;}.cls-13,.cls-14,.cls-17,.cls-20,.cls-21,.cls-22,.cls-26,.cls-27,.cls-30,.cls-33,.cls-34,.cls-36,.cls-39,.cls-9{stroke-linecap:round;stroke-linejoin:round;}.cls-10{fill:#4580d4;}.cls-11{stroke:#1c5ba5;stroke-width:1.02px;}.cls-12{stroke:#d82b4c;stroke-width:0.99px;}.cls-13,.cls-14,.cls-20,.cls-21,.cls-22,.cls-24,.cls-26,.cls-27,.cls-33,.cls-34,.cls-39{stroke:#111d36;}.cls-13{stroke-width:0.74px;}.cls-14{stroke-width:0.72px;}.cls-15{fill:#ffb1a5;}.cls-16{clip-path:url(#clip-path);}.cls-17{stroke-width:1.49px;}.cls-18{clip-path:url(#clip-path-2);}.cls-19,.cls-25{stroke:#d8d8d8;}.cls-19{stroke-width:1.05px;}.cls-20{stroke-width:0.76px;}.cls-21{stroke-width:0.74px;}.cls-22{stroke-width:0.95px;}.cls-23{fill:#04446f;}.cls-24,.cls-25{stroke-width:1.04px;}.cls-26{stroke-width:0.75px;}.cls-27{stroke-width:0.73px;}.cls-28{fill:#f9a9a3;}.cls-30{stroke:#001e3b;}.cls-30,.cls-36{stroke-width:2.02px;}.cls-31{fill:#33c5a9;}.cls-32{stroke:#0c9f8c;}.cls-33{stroke-width:0.8px;}.cls-34{stroke-width:0.79px;}.cls-35{fill:#f53f5f;}.cls-37{stroke:#ef948b;}.cls-38{stroke:#000;}.cls-39{stroke-width:0.79px;}</style><clipPath id="clip-path"><path class="cls-1" d="M116.46,403.11s-12.31,23.62-13.11,30.52S124,443.36,127,432.21s.18-29.34.18-29.34Z"/></clipPath><clipPath id="clip-path-2"><path class="cls-1" d="M173.36,400.38s17.22,20.33,19.52,26.88-18,14-23.35,3.82-6.65-28.57-6.65-28.57Z"/></clipPath></defs><g id="BACKGROUNDv"><rect class="cls-2" x="-0.22" width="750" height="500"/></g><g id="OBJECTS"><line class="cls-3" x1="60.96" y1="367.37" x2="671.64" y2="367.37"/><path class="cls-4" d="M495.76,104.91c-4.48-4.51-2.14-18.64-2.14-18.64l-18.7-6.79-18.71,6.79s2.34,14.13-2.14,18.64-8.35,12.7-.76,21,21.61,3.62,21.61,3.62,14,4.66,21.61-3.62S500.16,109.34,495.76,104.91Z"/><polygon class="cls-5" points="437.78 184.7 438.81 246.63 445.87 247.12 450.27 183.36 437.78 184.7"/><path class="cls-5" d="M441.8,244.42c3.29-.49-17.8,1.83-16.53,18.37.08,1,1.2,3.58,2.34,3.22l.15-.05a2.63,2.63,0,0,0,1.95-2.66c-.31-2.71.29-7.62,7.7-10.21,0,0,1.52,1.59-1.87,5.22a1.62,1.62,0,0,0,.33,2.7h0a2.34,2.34,0,0,0,2.34-.4c2.65-2.16,9-7.84,7.66-13.49Z"/><path class="cls-6" d="M448,127.17s-10.53.62-11.38,16.52,1.13,41,1.13,41l12.49-1.34L454,142.84Z"/><polygon class="cls-5" points="488.18 382.21 485.97 406.27 478.33 407.28 477.3 382.15 488.18 382.21"/><path class="cls-7" d="M487.42,404.2l-4.68,1.3-4.93-.17s-1.31,9.81-1.7,17a1.36,1.36,0,0,0,1.07,1.41l9.71,2.22a1,1,0,0,0,1.17-.81l.07-.52s11.57,4.39,20.88.47a2.32,2.32,0,0,0,1.41-1.9l.23-2.38s-.71-3.69-14.47-7a11.65,11.65,0,0,1-7.31-5.4Z"/><path class="cls-8" d="M499.65,414.72s-5-.59-6.06,7.54"/><path class="cls-8" d="M510.65,420.83s-.47,2.92-13.57,1.79-20.75-4.09-20.75-4.09"/><path class="cls-9" d="M494.62,413.29a6.08,6.08,0,0,0-4.55,3.35"/><path class="cls-9" d="M490.8,410.83s-2.79.28-4.05,3.88"/><polygon class="cls-5" points="453.26 382.21 455.47 406.27 463.11 407.28 464.14 382.15 453.26 382.21"/><path class="cls-7" d="M454,404.2l4.68,1.3,4.93-.17s1.31,9.81,1.7,17a1.37,1.37,0,0,1-1.07,1.41L454.55,426a1,1,0,0,1-1.17-.81l-.07-.52s-11.57,4.39-20.88.47a2.32,2.32,0,0,1-1.41-1.9l-.23-2.38s.71-3.69,14.47-7a11.65,11.65,0,0,0,7.31-5.4Z"/><path class="cls-8" d="M441.79,414.72s5-.59,6.06,7.54"/><path class="cls-8" d="M430.79,420.83s.47,2.92,13.57,1.79,20.75-4.09,20.75-4.09"/><path class="cls-9" d="M446.81,413.29a6.09,6.09,0,0,1,4.56,3.35"/><path class="cls-9" d="M450.64,410.83s2.79.28,4.05,3.88"/><path class="cls-10" d="M455.57,188.74s-15.4,9.76-12.36,54.29S451,392.18,451,392.18h15.72L472,226.35l2.58-.11-.07,165.94h15.72l12.36-152.47s3.63-29.72-10.94-51A35.64,35.64,0,0,0,455.57,188.74Z"/><line class="cls-11" x1="466.95" y1="226.34" x2="480.84" y2="227.06"/><line class="cls-11" x1="456.98" y1="200.8" x2="448.18" y2="222.44"/><path class="cls-4" d="M455.57,181v7.74a183.3,183.3,0,0,1,36.08,0V181l-18.07-5.24Z"/><path class="cls-6" d="M459.57,124.45l-12.69,3s5.27,35.21,8.69,53.56c0,0,18.32-3,36.08,0,0,0,9.16-37,13.2-53.56l-14.59-3.88Z"/><line class="cls-12" x1="452.15" y1="162.65" x2="449.16" y2="143.96"/><path class="cls-6" d="M497.84,126.81s10.05-3.23,16.59,11.28,13.16,31.1,13.16,31.1l-12.13,3.26L496,143.55Z"/><line class="cls-12" x1="499.44" y1="149.48" x2="496" y2="143.55"/><polygon class="cls-5" points="527.59 176.91 497.04 211.96 494.11 203.54 515.46 172.45 527.59 176.91"/><polygon class="cls-5" points="494.11 203.54 490.26 204.41 497.06 220.52 499.56 208.29 494.11 203.54"/><path class="cls-5" d="M527.59,169.19s3.67,4.82,0,7.72S515.92,178,515.92,178l-.46-5.55Z"/><line class="cls-11" x1="489.04" y1="200.8" x2="497.84" y2="222.44"/><path class="cls-5" d="M482.49,123.5l-2-17.75a10.14,10.14,0,0,1-4.76,2.6,8.7,8.7,0,0,1-5.39-1.11l-2.22-1.84-1.2,18.32a3.68,3.68,0,0,1-.05.58l15.65-.29A4.21,4.21,0,0,1,482.49,123.5Z"/><path class="cls-4" d="M466.88,104.6s4.16,8.79,9.12,7.64c5.17-1.21,5.15-8.76,5.15-8.76Z"/><path class="cls-4" d="M493.77,83.85c0,10.84-8.44,19.63-18.85,19.63s-18.85-8.79-18.85-19.63,8.44-18.23,18.85-18.23S493.77,73,493.77,83.85Z"/><path class="cls-5" d="M489.05,83.48a66.38,66.38,0,0,1-1.7,14.83c-.84,3.59-3.18,6.1-6.5,8.12l-.61.37a11.51,11.51,0,0,1-11.61.12h0c-3.59-2.07-6.11-4.81-6.89-8.67a97.77,97.77,0,0,1-1.56-14.77s-1.34-15.12,14.23-14.83S489.05,83.48,489.05,83.48Z"/><path class="cls-5" d="M461.85,98c-2.75,2.29-8.5-6.71-5.84-9.16s4.69,2.34,4.69,2.34l.37,2,.79,3.83.21.86Z"/><path class="cls-13" d="M457.21,92s1.12-2.43,3.73,1.84"/><path class="cls-5" d="M487.49,98c2.75,2.29,8.49-6.71,5.83-9.16s-4.68,2.34-4.68,2.34l-.38,2L487.47,97l-.2.86Z"/><path class="cls-13" d="M492.13,92s-1.13-2.43-3.74,1.84"/><path class="cls-4" d="M471.32,73.6s5.12,10.15,20.07,13c0,0,1.74-18.5-13.34-19.94C478.05,66.64,475,65.11,471.32,73.6Z"/><path class="cls-4" d="M476.44,73.6s-5.12,9.31-18.09,13c0,0-1.41-15.81,13.42-19.28C471.77,67.3,474.61,65.56,476.44,73.6Z"/><path class="cls-4" d="M469.15,89.86a1.44,1.44,0,1,1-1.43-1.44A1.43,1.43,0,0,1,469.15,89.86Z"/><path class="cls-4" d="M482.44,89.86A1.44,1.44,0,1,1,481,88.42,1.43,1.43,0,0,1,482.44,89.86Z"/><path class="cls-14" d="M473.32,93v1.94a.76.76,0,0,0,.89.76l1-.22"/><path class="cls-4" d="M476.71,85.06l8.68,2.24S485,84.87,481.45,84,476.71,85.06,476.71,85.06Z"/><path class="cls-4" d="M471.32,85.06l-8.68,2.24s.39-2.43,3.94-3.32S471.32,85.06,471.32,85.06Z"/><path class="cls-14" d="M469.58,97.37s2.17,2.72,8.14.9"/><circle class="cls-4" cx="473.87" cy="60.74" r="4.04"/><rect class="cls-6" x="471.72" y="64.31" width="4.32" height="1.52"/><path class="cls-5" d="M474.52,117.62l-14.95,6.83S460,131,475.48,131c13.16,0,14.78-7.45,14.78-7.45Z"/><path class="cls-4" d="M151.73,114c-6.19-8.31-8.54-29.83-8.54-29.83l-17.82-4.73-.3,3.85-.31-3.85L107,84.25s1.48,15.48-4.71,23.79c-10.48,14.07-21.58,36.57-2.84,43,9.06,3.13,22.05-1.12,25.61-2,3.55.85,9.32.88,18.37-2.25C162.18,140.39,162.21,128.11,151.73,114Z"/><path class="cls-1" d="M103.32,433.63s-1.94,9.05,9.54,9.15c10.62.08,18.51-.17,15.33-28.74Z"/><polygon class="cls-15" points="113.03 375.4 116.46 403.11 127.15 402.87 124.38 370.13 113.03 375.4"/><path class="cls-1" d="M116.46,403.11s-12.31,23.62-13.11,30.52S124,443.36,127,432.21s.18-29.34.18-29.34Z"/><g class="cls-16"><path class="cls-7" d="M103,428.83s14.32-8,27.41,2.56l-4.11,10.77-18.37,4.16-8.57-5.09Z"/></g><line class="cls-17" x1="113.47" y1="418.41" x2="121.86" y2="418.69"/><line class="cls-17" x1="114.53" y1="414.91" x2="122.31" y2="415.17"/><line class="cls-17" x1="115.97" y1="411.43" x2="122.77" y2="411.65"/><path class="cls-1" d="M192.91,427.25s3.89,8.41-7.29,11c-10.34,2.43-18.09,3.92-21.29-24.65Z"/><polygon class="cls-15" points="170.6 372.6 173.36 400.38 162.88 402.51 158.37 369.96 170.6 372.6"/><path class="cls-1" d="M173.36,400.38s17.22,20.33,19.52,26.88-18,14-23.35,3.82-6.65-28.57-6.65-28.57Z"/><g class="cls-18"><path class="cls-7" d="M192.16,422.51S176.42,417.86,166,431l6.38,9.61H191.2l7.23-6.85Z"/></g><line class="cls-17" x1="179.66" y1="414.65" x2="171.53" y2="416.77"/><line class="cls-17" x1="177.84" y1="411.47" x2="170.31" y2="413.44"/><line class="cls-17" x1="175.68" y1="408.39" x2="169.09" y2="410.1"/><path class="cls-10" d="M96.48,207.79s-11.15,18.89-2.51,67S111.24,390,111.24,390l19.24-1.27-6-142.86,2.8.35,29.39,140.71,18.41-2.37-9.56-113.88s-4.1-42.43-8.17-55Z"/><line class="cls-11" x1="135.65" y1="247.45" x2="119.8" y2="244.61"/><path class="cls-15" d="M88.28,164.59l.5,19S80.23,208.3,83.47,220s10.8,16.89,10.8,16.89l4.24-17.51c-2-3.16-7.82-2.58-7.82-2.58l9.46-30.36a17.29,17.29,0,0,0,.62-3.84l2.54-18Z"/><line class="cls-11" x1="99.54" y1="215.93" x2="93.56" y2="240.41"/><path class="cls-7" d="M102.13,133.22s-18.46,2.55-17.43,35.67L110,172.73Z"/><path class="cls-15" d="M172.33,155.81l2,30.06s-.89,29.5-4.13,41.16-10.8,16.89-10.8,16.89l-4.24-17.51c2-3.16,7.82-2.59,7.82-2.59l-2-35.16a17.8,17.8,0,0,1-.63-3.84l-4.14-26.34Z"/><line class="cls-11" x1="153.67" y1="220.3" x2="160.08" y2="247.45"/><path class="cls-7" d="M158.15,122.11s18.55-3.85,16.9,37.36l-23.68,6.81Z"/><path class="cls-7" d="M121.53,124.27l-19.4,9,5.44,47.13L96.48,207.79s42.91,15.28,60.89,7.86L156,181.5l2.13-59.39Z"/><path class="cls-19" d="M106.69,172.73a58.35,58.35,0,0,1-2.71-26.4"/><line class="cls-19" x1="156.88" y1="139.63" x2="156.35" y2="164.59"/><path class="cls-15" d="M134.36,125.29l-2.69-18.1a10.42,10.42,0,0,1-4.78,2.84,8.89,8.89,0,0,1-5.56-.93L119,107.3l-.55,18.8a2.92,2.92,0,0,1,0,.59s2.49,3.59,8.81,3.46,7.21-4.34,7.21-4.34A3,3,0,0,1,134.36,125.29Z"/><path class="cls-4" d="M117.73,108s4.59,8.84,9.62,7.48c5.25-1.42,5-9.15,5-9.15Z"/><path class="cls-4" d="M143.17,83.35c.38,10.4-7.4,19.12-17.39,19.49S107.4,95.06,107,84.66s7.46-17.76,17.44-18.13S142.79,73,143.17,83.35Z"/><path class="cls-15" d="M139.61,84.44a71.2,71.2,0,0,1-1.18,15.62c-.72,3.79-3,6.51-6.35,8.76l-.6.41a11.55,11.55,0,0,1-11.89.56h0c-3.76-2-6.44-4.82-7.38-8.84a103.62,103.62,0,0,1-2.16-15.44s-2-15.81,14-16.08S139.61,84.44,139.61,84.44Z"/><path class="cls-15" d="M112.28,99.93c-2.73,2.45-9-6.56-6.31-9.16S110.85,93,110.85,93l.46,2.06,1,3.9.24.87Z"/><path class="cls-20" d="M107.31,94s1.06-2.53,3.89,1.74"/><path class="cls-15" d="M138.53,99c2.9,2.24,8.45-7.2,5.63-9.6S139.45,92,139.45,92L139.14,94,138.48,98l-.18.89Z"/><path class="cls-20" d="M143.06,92.69s-1.24-2.45-3.76,2"/><path class="cls-21" d="M123.84,94.39l.07,2a.77.77,0,0,0,.94.74l1-.26"/><path class="cls-20" d="M121.83,100s4.27,1.37,7.17-1.45"/><path class="cls-22" d="M116.16,91.71a3.32,3.32,0,0,1,3.9-.24"/><path class="cls-22" d="M129,91.32a3.31,3.31,0,0,1,3.89-.24"/><path class="cls-4" d="M127,86.15l9,2s-.5-2.48-4.17-3.25S127,86.15,127,86.15Z"/><path class="cls-4" d="M121.49,86.35,112.69,89s.31-2.51,3.92-3.55S121.49,86.35,121.49,86.35Z"/><path class="cls-4" d="M127.7,67.24s-10.66-.42-14.81,6.84c-4.51,1.62-4,11-4,11l4.63-.44a15.07,15.07,0,0,1-.29-5.46,12.63,12.63,0,0,0,4.47,5.9s12.89.81,24.37.54C142.1,85.66,143.19,68.15,127.7,67.24Z"/><path class="cls-4" d="M323.81,426.63s-12,7.13-10.24,10.39,15.22-2.09,22.16-9.66l7.26-.11-.49-9.77Z"/><path class="cls-15" d="M336.39,388.06s-.56,27.95-12.58,38.57c0,0,1,3.17,6.12.54s12.57-9.69,12.57-9.69c0-1.73,2.88-29.11,2.88-29.11Z"/><path class="cls-4" d="M442.46,426.08s11.66,5.84,10.1,9.22-14.49-.59-21.94-7.66l-7.25.4-.19-9.78Z"/><path class="cls-15" d="M427.24,388.48s2.5,27.84,15.22,37.6c0,0-.78,3.24-6.07,1s-13.21-8.79-13.21-8.79c-.08-1.74-4.9-28.84-4.9-28.84Z"/><path class="cls-23" d="M342.65,186.7s-20,22-21,57.1,4.94,149.65,4.94,149.65l38.1,4.59a838.94,838.94,0,0,1-7.08-86.37c-1.06-44.06,1.67-82.79,1.67-82.79l2-.09s19.22,79.36,20.63,85.7,13,83.55,13,83.55l48.3-2.47-29.11-94.12s-9.91-52.59-13.46-65.57c-4.67-17-21.86-49.18-21.86-49.18Z"/><rect class="cls-4" x="342.65" y="177.97" width="36.14" height="8.74"/><line class="cls-24" x1="363.16" y1="229.34" x2="352.28" y2="227.9"/><path class="cls-15" d="M322,154.58l-11.28,24.75a6.22,6.22,0,0,0,0,5.17c3.27,7.23,12.72,27.47,19.06,34.33l4.49-9.12-8.68-27.81,11.51-20.64Z"/><line class="cls-24" x1="327.75" y1="224.36" x2="338.14" y2="201.79"/><path class="cls-7" d="M331.52,132.58s-7.86,1.23-16.1,24.42c0,0,12.93,14.74,24.66,14.43Z"/><path class="cls-15" d="M402.27,154.58l11.28,24.75a6.22,6.22,0,0,1,0,5.17c-3.27,7.23-15.58,29.81-21.93,36.66l-4.45-8.87,11.51-30.39-11.51-20.64Z"/><line class="cls-24" x1="392.38" y1="224.36" x2="381.98" y2="201.79"/><path class="cls-7" d="M391.25,124s5.66-1,10.77,11.21,12.33,25.09,12.33,25.09-12.85,10.83-27.17,10.38l-4.41-20Z"/><path class="cls-7" d="M342.65,127.65l-11.13,4.93,5.56,40s-.85,4.07,5.57,5.36h37.89s5.78-1.72,6.64-7.28S391.25,124,391.25,124l-10.71-.68Z"/><line class="cls-25" x1="334.3" y1="150.65" x2="336.84" y2="170.7"/><line class="cls-25" x1="389.92" y1="149.06" x2="387.18" y2="170.7"/><path class="cls-4" d="M380.25,83.8c-1.33-10.33-4.46-13.69-11.35-16.37C356.7,62.67,350.06,71,350.06,71s-7.61-2.2-9.17,15.49c-1.25,14.14-5.27,12.35-5.79,28.05h52.08C387.18,98.51,382.69,102.63,380.25,83.8Z"/><path class="cls-15" d="M369.13,125.69l-2-18a10.4,10.4,0,0,1-4.84,2.63,8.78,8.78,0,0,1-5.45-1.12s-2.25-1.87-2.25-1.87l-1.22,18.57a3.79,3.79,0,0,1-.05.58l15.86-.29A3,3,0,0,1,369.13,125.69Z"/><path class="cls-4" d="M353.31,108s4.22,8.91,9.24,7.74c5.24-1.22,5.22-8.87,5.22-8.87Z"/><path class="cls-4" d="M378.79,84.58c0,10-7.76,18-17.34,18s-17.33-8.08-17.33-18,7.76-16.76,17.33-16.76S378.79,74.6,378.79,84.58Z"/><path class="cls-15" d="M375.78,85.5a70.57,70.57,0,0,1-1.73,15.4c-.85,3.72-3.23,6.33-6.59,8.43l-.61.38a11.39,11.39,0,0,1-11.76.13h0c-3.65-2.16-6.2-5-7-9a102.94,102.94,0,0,1-1.59-15.34s-1.35-15.69,14.42-15.39S375.78,85.5,375.78,85.5Z"/><path class="cls-15" d="M348.21,99.84c-2.78,2.31-8.61-6.81-5.91-9.28s4.75,2.36,4.75,2.36l.38,2.06.8,3.88.21.87Z"/><path class="cls-26" d="M343.51,93.78s1.14-2.46,3.79,1.86"/><path class="cls-15" d="M374.19,99.84c2.79,2.31,8.61-6.81,5.91-9.28s-4.74,2.36-4.74,2.36L375,95l-.8,3.88-.2.87Z"/><path class="cls-26" d="M378.89,93.78s-1.14-2.46-3.78,1.86"/><path class="cls-4" d="M346.73,88.63s6.3-6.76,4.85-15.4a12.41,12.41,0,0,0-5.9,8.43C344.46,87.75,346.73,88.63,346.73,88.63Z"/><path class="cls-4" d="M349,75.77s6.9,12.24,29.16,12.51c0,0,1.76-18.75-13.52-20.21C364.62,68.07,352.71,67.17,349,75.77Z"/><circle class="cls-4" cx="354.16" cy="91.6" r="1.45"/><path class="cls-4" d="M369.08,91.6a1.46,1.46,0,1,1-1.45-1.45A1.46,1.46,0,0,1,369.08,91.6Z"/><path class="cls-27" d="M359.83,94.77v2a.76.76,0,0,0,.9.77l1-.22"/><path class="cls-7" d="M355.54,100.38h10s-.79,2.51-5,2.51A5.83,5.83,0,0,1,355.54,100.38Z"/><path class="cls-4" d="M363.27,86.74l8.8,2.27s-.4-2.46-4-3.36S363.27,86.74,363.27,86.74Z"/><path class="cls-4" d="M357.81,86.74,349,89s.4-2.46,4-3.36S357.81,86.74,357.81,86.74Z"/><path class="cls-15" d="M355.87,121.44l-13.22,6.21s2.27,8.37,19.12,7.51,18.77-11.83,18.77-11.83l-17.27-1.89Z"/><path class="cls-28" d="M295.27,242.66V253a14,14,0,0,1-2.66,8.22l-10.24,14.17v-37.5Z"/><path class="cls-23" d="M284.33,121.53s6.95.06,9,21,4.9,105.85,4.9,105.85l-23.12-1.47V144.23Z"/><polygon class="cls-15" points="224.03 372.23 222.73 401.59 234.06 402.01 236.37 367.38 224.03 372.23"/><path class="cls-1" d="M206.88,433.05s-2.63,9.47,9.52,10.29c11.24.77,19.6,1,18-29.44Z"/><path class="cls-7" d="M222.73,401.59s-14.53,24.21-15.82,31.46,21.21,11.62,25.09,0,2.06-31,2.06-31Z"/><path class="cls-29" d="M209.65,425.61s12.33-5.92,23.55,2.6"/><line class="cls-30" x1="218.59" y1="417.6" x2="227.45" y2="418.42"/><line class="cls-30" x1="219.94" y1="413.96" x2="228.16" y2="414.72"/><line class="cls-30" x1="221.68" y1="410.36" x2="228.86" y2="411.03"/><polygon class="cls-31" points="224.83 201.59 215.13 388.75 238.47 389.31 254.04 238.39 224.83 201.59"/><line class="cls-32" x1="215.67" y1="378.23" x2="239.61" y2="378.23"/><path class="cls-1" d="M246.26,412l-.52,3s9.86,3.81,13.24,5.93,29.23,15.63,33.77,5.84l-32.48-14Z"/><path class="cls-15" d="M250.91,380.25c-.29.87-2.89,20.15-2.89,20.15h11.53c.64-2,5.33-22.17,5.33-22.17Z"/><path class="cls-7" d="M248,400.4,246.29,412l11.85,4.41a17.35,17.35,0,0,1,2.61,1.25c4.65,2.74,22,12.31,32,9.07,0,0,6.93-13.28-11.55-17.9s-21.68-8.44-21.68-8.44Z"/><path class="cls-29" d="M281.2,408.84s-8.57,1.18-10.63,13.9"/><line class="cls-30" x1="271.15" y1="409.9" x2="273.54" y2="406.58"/><line class="cls-30" x1="267.55" y1="408.48" x2="269.76" y2="405.41"/><line class="cls-30" x1="264.31" y1="406.58" x2="266.1" y2="404.09"/><path class="cls-29" d="M247.28,405.41s8.54,1.75,6.29,9.31"/><polygon class="cls-31" points="254.04 238.39 261.05 292.37 248.48 389.31 269.92 388.06 284.74 291.84 285.93 231.76 254.04 238.39"/><line class="cls-32" x1="250.04" y1="377.25" x2="271.58" y2="376.2"/><path class="cls-7" d="M283.6,203.36,290.4,240s-33.24,21.16-75.27,7.13L222.45,204Z"/><path class="cls-23" d="M217.64,130.44l7.62-6,17.2-3.64,26.68-6,15.19,6.72s9.69,72.89,4.59,89.21c0,0-45.23,13.49-70.89,3.69l1.56-64.65L215.39,137A5.86,5.86,0,0,1,217.64,130.44Z"/><path class="cls-24" d="M285.93,136.78l3.54,56.43a29.37,29.37,0,0,1-5.14,18.51l-.3.42"/><path class="cls-28" d="M247.94,225.39,237.17,218l1.47-2.39a2.27,2.27,0,0,0-3.06-3.15l-13.38,3.93L215,227.27c5.53,6.17,9.62,6.65,12.11,5.93l.79.38,9.24,4a1.84,1.84,0,0,0,2.47-.54c.4-.58.64-1.57-1.08-2.76l1.72,1.19a1.93,1.93,0,0,0,2.6-.6c.52-.77.16-1.91-.84-2.76l1.35.74a2,2,0,0,0,2.76-.8,2,2,0,0,0-.73-2.57l-1.9-1.3,2.34.91a2.14,2.14,0,0,0,2.91-1A2.21,2.21,0,0,0,247.94,225.39Z"/><polygon class="cls-23" points="189.4 159 231.54 212.14 216.03 227.27 172.66 183 189.4 159"/><path class="cls-23" d="M224.14,125.57s-27.7,16.72-50.19,37.3A14.49,14.49,0,0,0,172.66,183h0c4.64,5.43,12.55,2.43,18.61-1.35l46.88-31.25Z"/><line class="cls-24" x1="218.86" y1="162.92" x2="230.87" y2="154.58"/><line class="cls-24" x1="201.05" y1="174.46" x2="190.04" y2="174.46"/><polyline class="cls-24" points="218.46 196.91 230.53 212.14 227.91 214.7"/><path class="cls-23" d="M250.41,94.36c-.51.73-17.87-2.58-24,11.83s-1.19,18.21-1.19,18.21l30.16,3.92s6.48,2.48,11.18-5.67,3.47-21.78-4.36-24.34S250.41,94.36,250.41,94.36Z"/><path class="cls-24" d="M225.26,124.4s8.71,5.68,30.16,3.92"/><path class="cls-24" d="M269.14,114.81s-.14,4.65-2.54,7.84"/><path class="cls-4" d="M245.41,117.39s-10.79-12.08-1.06-18.79,25.27,8.55,18.56,24.05Z"/><path class="cls-15" d="M262.21,110c-.23-4.22-.43-7.8-.43-7.8A19.41,19.41,0,0,1,255.6,105a9.41,9.41,0,0,1-5.83-1.19l-3.42-2s0,.75-.12,2c-.18,3.05-.54,9-.82,13.57a14,14,0,0,0,10.54,6l.53.06a21.74,21.74,0,0,0,3.16,0,9.35,9.35,0,0,0,3.27-.81C262.78,120.56,262.47,114.88,262.21,110Z"/><path class="cls-4" d="M245.65,102.53s4.77,8.69,10.44,7.45c5.93-1.3,6.15-8.89,6.15-8.89Z"/><path class="cls-15" d="M270,78.52A75.3,75.3,0,0,1,268.17,95c-.9,4-3.45,6.76-7,9l-.65.41a12.18,12.18,0,0,1-12.57.14h0c-3.89-2.3-6.61-5.34-7.45-9.61a108.84,108.84,0,0,1-1.69-16.38s-1.45-16.77,15.4-16.44S270,78.52,270,78.52Z"/><path class="cls-15" d="M240.6,94.26c-3,2.57-9.22-7.59-6.34-10.32s4.91,1.71,4.91,1.71l.58,3.21.87,4.32.22,1Z"/><path class="cls-33" d="M235.55,87.36s1.22-2.63,4,2"/><path class="cls-15" d="M268.16,94.32c3,2.52,9.09-7.74,6.17-10.43s-4.88,1.8-4.88,1.8l-.53,3.22-.79,4.33-.21,1Z"/><path class="cls-33" d="M273.1,87.33s-1.26-2.61-4,2.06"/><path class="cls-4" d="M248.48,84a1.56,1.56,0,1,1-1.56-1.55A1.55,1.55,0,0,1,248.48,84Z"/><path class="cls-4" d="M262.86,84a1.56,1.56,0,1,1-1.55-1.55A1.54,1.54,0,0,1,262.86,84Z"/><path class="cls-34" d="M253.34,87.51v2a.82.82,0,0,0,1,.82l1.11-.23"/><path class="cls-4" d="M256.52,78.31l9,2.32s-.41-2.52-4.08-3.43S256.52,78.31,256.52,78.31Z"/><path class="cls-4" d="M251,78.31l-9,2.32s.4-2.52,4.07-3.43S251,78.31,251,78.31Z"/><path class="cls-34" d="M248.48,91.78s1.82,3.3,8.72,2.2"/><path class="cls-4" d="M239.3,86.37s3.59-11.58,1-19.08C240.29,67.29,232.16,71.32,239.3,86.37Z"/><path class="cls-4" d="M269.34,86.37s-4.54-11.58-1.94-19.08C267.4,67.29,275.59,70.39,269.34,86.37Z"/><path class="cls-35" d="M236.16,74.83h35.46S273.8,56,253.89,56.09,236.16,74.83,236.16,74.83Z"/><path class="cls-4" d="M247.27,71.41h13.1s-.53-4.94-6.48-5.08S247.27,71.41,247.27,71.41Z"/><rect class="cls-35" x="221.73" y="72.83" width="14.84" height="2"/><path class="cls-1" d="M555.44,414l.51,2.95s-9.85,3.82-13.23,5.94S513.49,438.5,509,428.72l32.48-14Z"/><path class="cls-15" d="M558,382.23c.29.86-4.28,20.14-4.28,20.14H542.14L544,380.21Z"/><path class="cls-23" d="M553.67,402.37,555.41,414l-11.85,4.41a16.42,16.42,0,0,0-2.61,1.24c-4.65,2.74-22,12.32-32,9.08,0,0-6.93-13.29,11.55-17.91s21.67-8.44,21.67-8.44Z"/><line class="cls-36" x1="530.55" y1="411.87" x2="528.16" y2="408.55"/><line class="cls-36" x1="534.15" y1="410.46" x2="531.94" y2="407.39"/><line class="cls-36" x1="537.39" y1="408.55" x2="535.6" y2="406.06"/><path class="cls-31" d="M559,211c-10.44,49.62-23.47,184.13-23.47,184.13l24.36.55L592.31,218S560.76,202.65,559,211Z"/><line class="cls-32" x1="536.73" y1="383.46" x2="561.96" y2="383.46"/><path class="cls-1" d="M636.55,435s2.62,9.46-9.52,10.29c-11.24.77-19.6,1-18.06-29.44Z"/><polygon class="cls-15" points="619.39 374.21 620.69 403.56 609.36 403.99 607.05 369.35 619.39 374.21"/><path class="cls-23" d="M620.69,403.56s14.53,24.22,15.82,31.47-21.21,11.62-25.09,0-2.06-31-2.06-31Z"/><line class="cls-36" x1="624.83" y1="419.57" x2="615.97" y2="420.4"/><line class="cls-36" x1="623.48" y1="415.94" x2="615.26" y2="416.7"/><line class="cls-36" x1="621.74" y1="412.34" x2="614.56" y2="413"/><path class="cls-31" d="M615.7,211c7.54,58.06,10.71,184.13,10.71,184.13l-26.37.55-19.3-174.13S614.59,202.4,615.7,211Z"/><line class="cls-32" x1="587.78" y1="259.66" x2="573.92" y2="256.69"/><line class="cls-32" x1="598.76" y1="383.46" x2="626.08" y2="383.46"/><path class="cls-15" d="M627.12,148.41l22.58,21.78a10.29,10.29,0,0,1-.88,14.38h0c-4.18,3.77-10.25,4.43-14.08.29L611.4,164.3Z"/><path class="cls-15" d="M669.86,135.7l-35.18,36.66a9.4,9.4,0,0,0,1.23,13.6h0a9.39,9.39,0,0,0,13.9-2.59l29-42.23Z"/><path class="cls-15" d="M669.86,135.7s-1.41-5,2.37-16a1.81,1.81,0,0,1,1.61-1.21h0a1.81,1.81,0,0,1,1.9,1.88l-.33,5.12,3.37,15.66Z"/><path class="cls-15" d="M675.41,125.48l6.41-14.86c.29-.63,1.08-1.36,1.91-1.06h0a1.47,1.47,0,0,1,1.09,1.86l-4,10.77,7-11.64a1.24,1.24,0,0,1,1.65-.45h0a1.24,1.24,0,0,1,.53,1.6L684,125l7.18-10a1.37,1.37,0,0,1,1.71-.44h0a1.39,1.39,0,0,1,.62,1.9L687.15,128l8.44-5.4a1.3,1.3,0,0,1,1.82.67h0a1.28,1.28,0,0,1-.43,1.5l-8.22,7.35s-2.59,5.59-10,9l-6.08-8Z"/><line class="cls-37" x1="642.98" y1="163.71" x2="637.67" y2="169.25"/><path class="cls-1" d="M601.32,124.66c20.62,3.08,36.35,27,36.35,27l-19.86,23.67-14.93-25.23Z"/><path class="cls-15" d="M559.55,168.4l-22.12,88.29-9-1.68S534,199.92,543,162.65Z"/><path class="cls-15" d="M528.8,252.14s-15.78,24.48.41,33.54a2.73,2.73,0,0,0,3.4-1l.12-.16a3.24,3.24,0,0,0,.11-4.06c-2.21-2.52-5-7.9.64-15.72,0,0,2.66.55,1.77,6.59-.22,1.56.83,2.77,2.22,2.5h0a2.86,2.86,0,0,0,2.09-2c1.17-4,3.34-14-1.95-18.79Z"/><path class="cls-1" d="M564,128.81s-16.14,3.68-26.49,36l25.86,15.11,6.07-21.46Z"/><path class="cls-1" d="M601.32,124.66l12.18,4.62c3.19,1.17,6,9.95,5.19,13.24l2.88,89.89c-22,17.92-69.15,3-69.15,3l6.79-97.21c-.51-2.29.76-7.78,2.94-8.65L578.61,123Z"/><line class="cls-38" x1="556.54" y1="176.43" x2="558.38" y2="150.01"/><line class="cls-38" x1="619.67" y1="173.14" x2="619.49" y2="147.24"/><path class="cls-15" d="M596,126.14l-1.11-20.41a19.14,19.14,0,0,1-6.1,2.77,9.22,9.22,0,0,1-5.74-1.18l-3.38-2-1.1,19.06c0,.21-.15,1.92-.19,2.12l17.66.14A4.9,4.9,0,0,1,596,126.14Z"/><path class="cls-4" d="M579,106s4.7,8.57,10.3,7.34c5.84-1.28,6.06-8.75,6.06-8.75Z"/><path class="cls-15" d="M603,82.35a74,74,0,0,1-1.82,16.21c-.89,3.92-3.39,6.67-6.93,8.87l-.65.41a12,12,0,0,1-12.39.14h0c-3.83-2.27-6.52-5.27-7.35-9.48a108.13,108.13,0,0,1-1.66-16.15s-1.43-16.53,15.18-16.21S603,82.35,603,82.35Z"/><path class="cls-15" d="M574,97.87c-2.93,2.53-9.09-7.48-6.26-10.18s4.84,1.7,4.84,1.7l.58,3.16.85,4.26.22,1Z"/><path class="cls-39" d="M569,91.07s1.19-2.6,4,2"/><path class="cls-15" d="M601.16,97.93c3,2.48,9-7.63,6.08-10.28s-4.81,1.77-4.81,1.77l-.52,3.17-.78,4.27-.2,1Z"/><path class="cls-39" d="M606,91s-1.24-2.57-3.95,2"/><path class="cls-27" d="M586.55,91.15v2a.81.81,0,0,0,1,.81l1.1-.24"/><path class="cls-4" d="M589.69,82.15l8.84,2.28s-.4-2.48-4-3.38S589.69,82.15,589.69,82.15Z"/><path class="cls-4" d="M584.2,82.15l-8.84,2.28s.4-2.48,4-3.38S584.2,82.15,584.2,82.15Z"/><path class="cls-7" d="M581.38,97.06h11.5s-.91,3.21-5.75,3.21A6.62,6.62,0,0,1,581.38,97.06Z"/><path class="cls-22" d="M578.36,88.24a3.88,3.88,0,0,1,4.1,0"/><path class="cls-22" d="M596.14,88.24a4.08,4.08,0,0,0-4.2,0"/><path class="cls-4" d="M572.71,90.09s3.55-11.42,1-18.81C573.69,71.28,565.68,75.25,572.71,90.09Z"/><path class="cls-4" d="M602.32,90.09s-4.47-11.42-1.9-18.81C600.42,71.28,608.48,74.34,602.32,90.09Z"/><path class="cls-4" d="M572.51,73s22.2,11.39,30.81,2.36c0,0,7-7.1-.71-12.58s-25.55,4.16-25.55,4.16S573.08,67.88,572.51,73Z"/><path class="cls-4" d="M572.51,73s-4.14-7.35,7.65-11c0,0,2.87,2.94-1.23,6.81S572.51,73,572.51,73Z"/><path class="cls-15" d="M578.61,123l-7,2.79s1,8.27,11.62,8.29A26.4,26.4,0,0,0,603,125l-9.23-2.57Z"/></g></svg>