<svg xmlns="http://www.w3.org/2000/svg" viewBox="0 0 734.41 200.29"><defs><style>.cls-1{fill:#fff;}.cls-2{fill:#ed1b24;}.cls-3{fill:#211d1e;}</style></defs><g id="Layer_2" data-name="Layer 2"><g id="Layer_1-2" data-name="Layer 1"><rect class="cls-1" x="97.12" y="5.77" width="197.93" height="191.65"/><path class="cls-2" d="M196.14,200.22c-30.65,0-61.3-.07-91.95.07a15,15,0,0,1-11.41-4.85q-45.1-45.23-90.42-90.25c-2.95-2.92-3.3-4.47-.12-7.61Q47.83,52.49,93.05,7.05a14,14,0,0,1,10.52-4.59q93.21.09,186.41,0c4.47,0,8,1.88,11.26,5.13q44.49,44.72,89.28,89.16c3.5,3.46,3.7,5.32,0,8.94q-45.18,44.67-89.93,89.8a15.22,15.22,0,0,1-11.53,4.71Q242.62,200.16,196.14,200.22ZM295.93,101q0-45.46,0-90.93c0-1.71,1.07-4.22-.71-5-2-.9-3.44,1.39-4.82,2.77q-44.81,44.79-89.65,89.55c-3.24,3.22-2.8,5.12.17,8.07q44.94,44.72,89.69,89.6c1.26,1.26,2.49,3.29,4.48,2.42,1.81-.79.85-3,.85-4.52Q296,146.93,295.93,101Zm-197.77.22q0,45,0,89.93c0,1.89-1,4.62,1,5.5,2.32,1,3.5-1.81,4.92-3.23q44.57-44.37,89.13-88.74c2.64-2.62,2.79-3.91.08-6.6q-45-44.66-89.89-89.52c-1.15-1.15-2.09-3.67-4.2-2.75s-1.07,3.28-1.07,5Q98.11,56,98.16,101.18Z"/><path class="cls-3" d="M427.12,43.8c0-12.15.16-24.31-.09-36.46-.07-3.86,1.35-4.87,4.9-4.93,14.3-.24,14.3-.31,14.3,13.8,0,5,.09,10,0,15-.08,3.1,1,4.61,4.28,4.57,9-.1,18-.12,27,0,3.13,0,4-1.3,4-4.19-.1-8.32.12-16.65-.12-25-.1-3.41,1.11-4.19,4.3-4.22,13.85-.12,13.84-.21,13.84,13.6,0,20.64-.63,41.32.34,61.92.36,7.56-2.27,7.63-7.82,7.47-10.57-.3-10.57-.1-10.57-10.8,0-6.66-.11-13.32,0-20,.07-3.08-.75-4.54-4.18-4.47-8.82.19-17.65.17-26.47,0-3.5-.07-4.69,1.3-4.62,4.7.15,8.49-.11,17,.16,25.48.11,3.6-.75,5-4.61,5.06-14.57.22-14.57.34-14.56-14.12V43.8Z"/><path class="cls-3" d="M586.79,43.91c0-12.16.16-24.32-.08-36.47-.07-3.65.86-5.08,4.64-5,12.49.19,25-.48,37.46.35,13.91.93,24.85,11,20.22,27.26-1.36,4.78-5,7.87-9.19,9.87-3.63,1.75-2.18,2.37.1,3.51,5.56,2.76,10.43,5.83,12.4,12.56a21.77,21.77,0,0,1-14.77,26.85c-15.75,4.6-31.77,1.48-47.64,2.42-3,.18-3.21-1.88-3.19-4.34C586.85,68.56,586.79,56.24,586.79,43.91ZM604.61,61.1c0,11.46,0,11.46,11.52,11.46,2.34,0,4.68.08,7-.06,6.14-.38,10.46-4.18,10.93-9.49.71-8.06-1.45-11.52-8.61-13.31a33.92,33.92,0,0,0-7.87-1.14C602.41,48.41,604.76,47.38,604.61,61.1Zm-.08-35.43c0,2.66,0,5.32,0,8,0,2.12.68,3.68,3.05,3.61,5.92-.19,11.84.61,17.7-1.65,5.61-2.15,6.86-6.13,6.49-11.34s-4-7.75-8.61-8.81a35.49,35.49,0,0,0-7.94-.44C604.53,14.93,604.53,15,604.53,25.67Z"/><path class="cls-3" d="M566.49,25c-5.49.28-9.15.91-11.56-5.34-3.16-8.25-15-9.3-21.5-3.05-2.26,2.16-3.65,4.87-3,8,.9,4.51,4.68,6.33,8.42,7.66,8.21,2.93,16.76,5,24.78,8.36s13.52,9.24,13.69,18.83c.18,10.09-3.94,18-12.78,22.39-13.74,6.81-28,7.39-42.18.69-8.26-3.91-11.19-11.26-12.8-19.5-.5-2.52,1-3.31,3.12-3.35,4-.08,8-.11,12,0,2.18.05,3.75.85,4.05,3.45.82,7.09,6.45,10,13.54,10.41,7.37.45,14.13-3.46,16.1-9.15C560,59.65,555.6,54.55,549,52.6c-8.81-2.6-17.74-4.74-26.1-9-15-7.55-15.69-28.46-1-37.29C535.39-1.71,549.86-2,564.19,4.85c3.52,1.67,5.91,4.57,8,7.88,2.26,3.63,3.3,7.89,1.75,11.34C572.67,26.84,568.38,24.55,566.49,25Z"/><path class="cls-3" d="M661.47,44.6c-.48-15.42,3.59-28.83,17.09-38C693.93-3.78,721-.83,729.94,13.17c.26.42.68.75.92,1.17,5.87,10.17,4.3,12.88-7.12,13.12-5.18.11-8.37-.37-10.65-6.51-3-8.07-17.73-8.55-24.56-1.42-8.84,9.25-9.25,20.83-7.9,32.61A32.51,32.51,0,0,0,684,63.5c5.36,10.41,20.47,13.07,28.18,4.81.34-.37.83-.61,1.1-1,1.51-2.23.77-6.32,4.34-6.69a53.64,53.64,0,0,1,14.43,0c3.88.65,2.1,4.34,1.33,6.58a26.44,26.44,0,0,1-17.24,17.24c-13,4.33-26,4-38-2.85-10.56-6.06-15-16.36-16.55-28C661.13,50.64,661.47,47.59,661.47,44.6Z"/><path class="cls-3" d="M451.4,165.47c0-10.16.06-20.32-.13-30.48,0-.67,2-7-2.92-2-1.5,1.55-3.14,1.11-4.4-1a20.43,20.43,0,0,0-7.35-7.19c-1.6-1-3.4-2.46-1.52-4.26,1.45-1.41,3.34-3.87,6-1.62s5.11,4.69,7.63,7.07c.55.52.78,1.78,1.76,1.26a2.51,2.51,0,0,0,.88-2.08c-.58-4.55,1.89-5,5.66-5,17.15.15,34.32.06,51.48.06,2.73,0,5.31-.26,5.26,4s-2.79,3.43-5.15,3.47c-5.16.09-10.33,0-15.49.06-2.39,0-3,.39-1.58,3.15,3.29,6.32,8.82,4.34,13.83,4.68,1.77.11,3.82-.76,5.25.68,1.23,1.25,1.08,3.13.83,4.77s-1.72,1.75-3.1,1.75c-3.5,0-7,0-10.5,0-2.66,0-4.93-.06-4.92,3.78s2.2,4.28,5.19,4.17q3.49-.14,7,0c2.43.13,3.44,1.65,3.54,4,.1,2.57-1.58,3.07-3.56,3.12-2.66.06-5.33.1-8-.05s-4.08.53-4.13,3.52,1,4.38,4,4.25c2.32-.1,4.66.05,7-.06,2.94-.13,4.83.69,4.82,4.1s-2.41,3-4.53,3.09-4,.09-6,0c-3.16-.17-5.52.11-5.36,4.39.15,3.79,1.33,5.51,5.34,5.16,3.48-.3,7-.06,10.49-.11,2.05,0,3.16.87,3.1,3s-.48,3.71-3,3.71c-13.33,0-26.66,0-40-.06-3.06,0-3.07-2.43-3.06-4.7,0-7.16.11-14.33,0-21.49,0-1.18-.16-4.11-.74-3.43-1.77,2.08-6.17-1.13-6.16,3.35,0,9.33-.06,18.66,0,28,0,3.37,2.76,2.68,4.82,2.68,15.16,0,30.32,0,45.48,0,2.86,0,5.47-.1,5.59,3.8.14,4.14-2.91,3.3-5.24,3.3-17.83.05-35.66-.07-53.48.11-3.76,0-4.83-1.11-4.74-4.84C451.56,185.45,451.4,175.46,451.4,165.47Zm7.43-26.57h0c0,3.16,0,6.31,0,9.47,0,.95.05,2.17,1.19,2.37.37.07,1-1.09,1.47-1.69,3.62-4.47,4.83-10,6.82-15.22,1.73-4.53.37-6.59-5-6.38-3.87.15-5,1.43-4.61,5A63.45,63.45,0,0,1,458.83,138.9Zm21,3.66c-2.56,1-6.77-1.83-7,3.75-.19,4.54,2.61,4.76,5.79,4.4s7.67,1.92,7.54-4.56C486,140.53,481.92,143.69,479.79,142.56Zm-.49,30.22c-3.31-.26-6.35-.65-6.22,4.42.1,4,1.52,5.4,5.37,5,3.38-.37,7.54,1.27,7.56-4.91C486,171.66,482.39,172.91,479.3,172.78Zm.57-15c-2.89.38-6.77-1.46-6.84,3.91,0,4.6,3.14,4,5.8,3.74s7.06,2,7.15-3.85C486.06,156.34,482.29,158.3,479.87,157.78ZM480,135.7c1.58-.71,5.18.82,4.52-1.75-.62-2.35-3-5.69-6-5.94-3.6-.3-2.73,4-3.05,5.7C475,136.44,478.29,135.14,480,135.7Z"/><path class="cls-3" d="M573.72,158c-10.16,0-20.32-.09-30.47.06-3.18.05-4.44-.85-4.35-4.22.21-8.16.28-16.33,0-24.47-.15-4.27,1.63-5.07,5.36-4.76,3.94.33,8.93,3.35,10.65-3.7.35-1.43,3-1,4.6-1,1.15,0,2,.76,1.67,1.92-1,3.89,1.87,3,3.79,3.19s4.35-.67,4.51,2.45-2.25,2.6-4.2,2.77c-1.32.11-3.51-.7-3.36,1.67.12,1.95,2.1,1.73,3.58,1.79,1.93.08,3.89.33,3.91,2.81s-1.88,2.74-3.86,2.76c-1.43,0-3.59-.38-3.55,1.65,0,2.62,2.49,1.39,3.91,1.53,1.78.17,3.08.17,3.22,2.64.16,2.64-1.3,2.52-3,2.71s-4.63-1-4.32,2.36,3.3,1.85,5.18,2.1c2.81.37,4.24-.69,4.19-3.9-.14-8.79,0-17.59,0-26.39,0-2.22-.27-4.46,3.1-4.43,3,0,4.83.76,4.46,4.26-.17,1.56-.36,3.9,2.22,3.38,2-.39,5.27,1.3,5.74-2.26.41-3.18,2.56-3.06,4.68-3.2,2.64-.16,2.49,1.79,2.89,3.67.89,4.25,4.54,2.77,7,2.48,8.57-1,8.54-1.2,8.54,7,0,6.82-.14,13.66.07,20.48.11,3.5-1.15,4.7-4.61,4.65C594.7,157.86,584.21,158,573.72,158Zm9-5.65c2,0,4.29.34,4.28-2.31,0-3.19-2.78-2-4.55-2.27s-3.81-.37-3.66,2.51C578.92,153.38,581.33,151.93,582.68,152.3Zm15.72-4.62c-1.5.43-3.93-1-4.23,2-.28,2.77,1.68,2.73,3.6,2.67s4.41.38,4.44-2.56C602.23,147.26,600,147.93,598.4,147.68Zm-48.56,0c-1.9-.42-3.37-.24-3.32,2.22s1.74,2.51,3.48,2.38,4.07.78,4.18-2.08C554.31,147,551.57,148.06,549.84,147.69Zm.88-5.2c1.25-.12,3.31.28,3.21-1.36-.19-2.95-3.13-1.46-4.76-2.16-1.32-.56-2.46-.09-2.27,1.47C547.18,142.69,549.08,142.47,550.72,142.49Zm-.4-12.27c-1.62-.05-3.63-.92-3.63,1.83,0,1.14.36,2.75,1.85,2.14,1.79-.72,5,.66,5.21-2.43C553.89,129.67,551.54,130.52,550.32,130.22Zm47.83,12.31c1.35-.42,3.82.77,3.78-1.66,0-1.69-2.21-1.6-3.65-1.51s-3.84-.71-3.76,1.76C594.59,143.2,596.8,142.23,598.15,142.53Zm-15.79-12.44c-1.38.14-3.28-.78-3.39,1.58-.09,1.92,1.22,2.44,3,2.13s4.3.53,4.46-1.81C586.6,129.07,583.68,130.88,582.36,130.09Zm.26,12.45c1.06-.52,3.68.78,3.62-1.69,0-2.16-2.49-1.56-4.06-1.76-1.4-.17-2.92-.21-3,1.57C579,143,580.88,142.48,582.62,142.54Zm14.71-8.7c1.79.24,4-.76,4-1.87,0-1.89-2.27-1.81-3.9-1.71-1.35.08-3.2-.45-3,1.94C594.55,134.09,596.07,133.81,597.33,133.84Z"/><path class="cls-3" d="M574.89,200.19c-12.33,0-24.67,0-37,0-2.31,0-4.4.09-4.3-3.22.08-2.94,1.23-4.09,4.29-4,5.49.23,11,.13,16.49,0,1.53,0,4,.9,4.27-1.26s-2.17-3-3.67-4.16c-.11-.09-.33,0-.49-.08-2.57-.8-6.83,1.74-7.6-1.44-1.11-4.55-.44-9.57-.28-14.39.06-1.76,1.79-1.64,3.13-1.64,16.33,0,32.66,0,49,0,3,0,4.27,1.25,4.11,4.21a44.5,44.5,0,0,0,0,6c.41,4.9-.59,8.22-6.67,7.33-2.38-.34-4.56,1-4.5,3.56.06,2.8,2.66,1.87,4.3,1.9q7.75.15,15.5,0c3.06-.06,4.77,1.08,4.7,4.31-.07,3.5-2.8,2.75-4.75,2.77C599.22,200.23,587.06,200.19,574.89,200.19Zm.33-12.74c-1.83,0-3.65,0-5.48,0-1.29,0-3-.37-3.45,1.19s.85,2.92,2.16,3.52c4.27,1.94,8.69,1.39,12.94,0,1.25-.42,2.94-1.82,2.58-3.29-.51-2.14-2.73-1.25-4.28-1.36S576.71,187.45,575.22,187.45Zm-1-10.25H557.34c-1.33,0-2.9-.11-3,1.72s1.16,2.13,2.66,2.13q17.18,0,34.33,0c1.4,0,3.06-.35,3.14-1.82.1-2-1.85-2-3.28-2C585.54,177.18,579.9,177.22,574.26,177.2Z"/><path class="cls-3" d="M574.12,167.72H540.69c-2.22,0-4.47.3-4.38-3.09.09-3.21,1.86-3.63,4.61-3.62q33.18.13,66.36,0c2.93,0,5.72.34,5.63,3.94s-3.19,2.7-5.36,2.71C596.4,167.75,585.26,167.72,574.12,167.72Z"/><path class="cls-3" d="M449.13,169.11a80.57,80.57,0,0,1-13.8,29.1c-1.66,2.23-3.1,1-4.95-.22-2.1-1.41-2.34-2.92-1-4.5,6.64-7.89,10.48-17,12.69-27,.41-1.84.91-4.12,3.71-3.82C447.88,162.91,449.35,165.22,449.13,169.11Z"/><path class="cls-3" d="M432.59,137.65c1.14.86,2.17,1.64,3.2,2.4,3.24,2.39,5.63,5.55,8.24,8.54s1.15,4.55-1,6.39c-2.79,2.36-3.45.26-4.85-1.82-2.08-3.14-4.38-6.26-7.73-8.31-1.44-.88-2.21-2.4-1.4-3.8S431.33,138.8,432.59,137.65Z"/></g></g></svg>