<svg id="Layer_1" data-name="Layer 1" xmlns="http://www.w3.org/2000/svg" viewBox="0 0 5000 5000"><defs><style>.cls-1{fill:#e3d9cc;}.cls-1,.cls-10,.cls-11,.cls-12,.cls-13,.cls-14,.cls-15,.cls-16,.cls-17,.cls-18,.cls-19,.cls-2,.cls-20,.cls-21,.cls-22,.cls-23,.cls-24,.cls-25,.cls-26,.cls-27,.cls-28,.cls-29,.cls-3,.cls-30,.cls-31,.cls-32,.cls-33,.cls-34,.cls-35,.cls-36,.cls-37,.cls-38,.cls-39,.cls-4,.cls-40,.cls-41,.cls-42,.cls-43,.cls-44,.cls-45,.cls-46,.cls-47,.cls-48,.cls-49,.cls-5,.cls-50,.cls-51,.cls-52,.cls-53,.cls-54,.cls-55,.cls-56,.cls-57,.cls-58,.cls-59,.cls-6,.cls-60,.cls-61,.cls-62,.cls-63,.cls-64,.cls-65,.cls-66,.cls-68,.cls-69,.cls-7,.cls-70,.cls-72,.cls-73,.cls-74,.cls-75,.cls-76,.cls-8,.cls-9{fill-rule:evenodd;}.cls-2{fill:#faece8;}.cls-3{fill:#664038;}.cls-4{fill:#362122;}.cls-5{fill:#0da18d;}.cls-6{fill:#048c7a;}.cls-7{fill:#faa66e;}.cls-8{fill:#fff7f5;}.cls-9{fill:#ffb685;}.cls-10{fill:#e8935a;}.cls-11{fill:#4fbbab;}.cls-12{fill:#a36115;}.cls-13{fill:#db4f30;}.cls-14{fill:#b82c0d;}.cls-15{fill:#59372f;}.cls-16{fill:#6b4840;}.cls-17{fill:#ff7252;}.cls-18{fill:#fefefe;}.cls-19{fill:#401b0f;}.cls-20{fill:#8f2f23;}.cls-21{fill:#b13b32;}.cls-22{fill:#f2f2f2;}.cls-23{fill:#ffb584;}.cls-24{fill:#ffb384;}.cls-25{fill:#feb283;}.cls-26{fill:#feb182;}.cls-27{fill:#feaf81;}.cls-28{fill:#feae81;}.cls-29{fill:#feac80;}.cls-30{fill:#feab7f;}.cls-31{fill:#fdaa7e;}.cls-32{fill:#fda87e;}.cls-33{fill:#fda77d;}.cls-34{fill:#fda67c;}.cls-35{fill:#fda47b;}.cls-36{fill:#fda37b;}.cls-37{fill:#fca27a;}.cls-38{fill:#fca079;}.cls-39{fill:#fc9f79;}.cls-40{fill:#fc9d78;}.cls-41{fill:#fc9c77;}.cls-42{fill:#fc9b76;}.cls-43{fill:#fb9976;}.cls-44{fill:#fb9875;}.cls-45{fill:#fb9774;}.cls-46{fill:#fb9573;}.cls-47{fill:#fb9473;}.cls-48{fill:#fb9272;}.cls-49{fill:#fa9171;}.cls-50{fill:#fa9071;}.cls-51{fill:#fa8e70;}.cls-52{fill:#fa8d6f;}.cls-53{fill:#fa8c6e;}.cls-54{fill:#fa8a6e;}.cls-55{fill:#f9896d;}.cls-56{fill:#f9886c;}.cls-57{fill:#f9866b;}.cls-58{fill:#f9856b;}.cls-59{fill:#f9836a;}.cls-60{fill:#f98269;}.cls-61{fill:#f88168;}.cls-62{fill:#f87f68;}.cls-63{fill:#f87e67;}.cls-64{fill:#b8701e;}.cls-65{fill:#bf7e35;}.cls-66{fill:#f29f68;}.cls-67{fill:#cbfbed;}.cls-68{fill:#b1eee5;}.cls-69{fill:#a6e3db;}.cls-70{fill:#a9ebe3;}.cls-71{fill:#bef7f1;}.cls-72{fill:#a9edea;}.cls-73{fill:#a0e4e2;}.cls-74{fill:#a2eae9;}.cls-75{fill:#542022;}.cls-76{fill:#653638;}</style></defs><path class="cls-1" d="M2603.23,4014.38c-990.44,0-1793.37,48.62-1793.37,108.56s802.93,108.59,1793.37,108.59,1793.33-48.62,1793.33-108.59-802.88-108.56-1793.33-108.56Z"/><path class="cls-2" d="M3767.21,3803.35s-15.42-46.55-38.34-112.4c-56.16,18.93-124.16,41.42-178.78,59.09,30.54,70.44,52.95,122.09,52.95,122.09l100.41,92.18,63.76-161Z"/><path class="cls-3" d="M3603,3872.13s-19.94,27.94-10.12,79,35.14,85.7,35.14,85.7l333.65-95.94,32.11-29.38c-17.92-89.38-174-97-226.61-108.18-16.66,29.7-106.85,126.07-164.17,68.78Z"/><path class="cls-2" d="M3916.28,3836c-5-1.82-9.74-3.76-14.87-5.35-10,9.87-20.11,22.11-24.73,30.84a6.25,6.25,0,0,0,3.45,9.14,8.93,8.93,0,0,0,10.51-4.16c4.61-8.61,15-20.9,25.64-30.47Z"/><path class="cls-2" d="M3881.45,3824.7c-5.3-1.29-10.38-2.75-15.68-3.86-6.36,7.37-13.6,16.73-16.93,23a6.27,6.27,0,0,0,3.45,9.16,8.94,8.94,0,0,0,10.53-4.16c3.51-6.61,11.28-16.46,18.63-24.18Z"/><path class="cls-4" d="M3626.11,4031.07l363.47-119.67a17.15,17.15,0,0,1,21.6,10.88h0a17.14,17.14,0,0,1-10.9,21.58L3636.81,4063.5a17.12,17.12,0,0,1-21.55-10.88h0a17.14,17.14,0,0,1,10.85-21.55Z"/><path class="cls-5" d="M2823.86,2314.35c-20.62,119.64-75.16,464.05-92.07,560.9-23.88,137-4.19,184.3,212.62,210.63s479.42-169.62,448.25-505.8c-10.62-114.67,219.37-295.31,99.8-363.62-104.85-59.87-639.19-72.79-668.6,97.89Z"/><path class="cls-6" d="M2922.6,2333s-97.22,412.58-121.15,549.56-27.11,183,189.71,209.32c99.07,12,454.84,42.61,533.84-38,56.64-57.8,92.15-367.83,65.5-580.13-18.1-144-62-176.23-142.59-216.69-106.71-53.51-270.73-11.49-525.31,76Z"/><path class="cls-2" d="M2914.05,3915.16l24.08-111.56,161.34,29.33-20.42,105.76c16.25,79.38-69.92,101-112.68,79.13s-61.18-96.4-52.32-102.66Z"/><path class="cls-7" d="M2944.34,2318.34s-115.71,69-202.41,211.82-147.45,408.89-147.45,408.89-51.37,40.49-80.87,86c-20.55,31.71-13.38,51.45,10.87,30.6,10.25-8.84-31.12,20.34-16.78,11.25-11.13,14.19-10.7-17.92,8.15-4.09s-26.63,42.71,26.33-6.68c-29.08,38.24-7.37,33.14,9.34,48.69s1.66-9,19.48-24.39c-13,24.23-38.16,87.44-13.3,91.25s44.1-61.06,61.94-78.53l47.93-32.94c4.29,5.79,10.4,53,17,59.42,6.43,6.31,16.83,5.93,27-18.3,16.26-40,.41-127.11.41-127.11,49.67-239.13,136.25-347.84,317.5-471.17,30.62-20.82,76.81-92.15,42.53-149.93s-89.35-61.86-127.69-34.8Z"/><path class="cls-7" d="M2944.34,2318.34s-115.68,69-202.41,211.82c90.57-26.1,147.23,40.1,165.51,67.69,35.08-32.26,75.44-63,122.06-94.78,30.62-20.8,76.81-92.15,42.53-149.93s-89.35-61.86-127.69-34.8Z"/><path class="cls-8" d="M2835.07,2383.51c42,67.92,100.16,125.59,173.35,154.92l-45.78,56.29c-40.79-14.34-160.38-106.51-173.81-159.87l46.24-51.34Z"/><path class="cls-2" d="M2835.07,2383.51c18.4,54.64,108.94,131.3,179.71,162.6,122.12-68.56,227.78-241.05,100.46-287.52-12.14-4.44-6.66-20.65-21.4-18.5-80,11.71-200.49,66.46-258.77,143.42Z"/><path class="cls-9" d="M3670.84,2349.48c129.81,64.92,227.52-89.73,250.24-214.74-.11-.06-24.39-42.26-32.92-81.2-3.43-15.6-4.92-74.56,19.69-59.67,7.92,4.77,24.68,49.27,30.19,53.89l41.44-58.56c13.35-21.13,17.12-88.67,42.2-90.69s15.1,65.3,8.06,91.87c13.8-19.05,33.59-105.78,53.46-94.47s-.33,67.59-19.82,111.49c40.16-60.25,38.72-96,60.28-86.86s-12.19,87-19.79,103.39c11.86-12.14,26-42.25,33.92-53.21,18.83-25.85,30.29-8.33,17.62,27.24-10.07,28.29-75.57,145.84-105.25,159.79-23.58,262.26-286.49,477.79-493.06,303.85-94-79.15,113.74-112.12,113.74-112.12Z"/><path class="cls-7" d="M3670.84,2349.48c44.17,22.09,84.58,18.76,119.64-.17-29.05,28.92-78.22,92.28-57.3,174.56-58.86,3.69-119.56-14.69-176.08-62.27l-1.21-1.08c35.09-49.83,66.92-84.13,95.24-107.2,11.88-2.58,19.71-3.84,19.71-3.84Z"/><path class="cls-8" d="M3665.84,2335c-23.6,78.48-70,140.9-134.83,191.88l53.43,40.19c76.48-55,120.6-137.34,132.82-206.57l-51.42-25.5Z"/><path class="cls-2" d="M3665.84,2335c-23.42,77.9-69.41,146.65-128.5,196.65-46.06-30.59-59.39-54.69-86.9-70.39-108.26-61.89-193-145.59-106.54-210.36,17.44-13.07,41.57-23.52,68.63-16.83,89.65,22.18,167.64,53.51,253.31,100.93Z"/><path class="cls-7" d="M3992.78,2121.81s9.7-20.47,27.39-34.15c10.93-8.45,26.91-13.73,37.71-16.61,38.47-10.24-58.53-24.93-65.1,50.76Z"/><polygon class="cls-10" points="3138.24 2057.5 3288.59 2083.72 3301.32 2233.12 3219.54 2249.88 3134 2247.69 3138.24 2057.5 3138.24 2057.5"/><path class="cls-4" d="M2899.74,2985.22c-4.8,83.92,28.29,288.12,74,443.43-34.68,219.11-89.65,328.53-91.19,364.85l239,43.42c25.62-118.33,64.62-230.7,90.26-349.06,20.17-93.24,10.58-189.93-15.85-312.68,17.47-.13,54.32,1.67,71.76,1.54l274.34,641.85,228.28-81.94-249.48-751.54s-525.46-174-621.12.13Z"/><path class="cls-2" d="M2897.59,2994.89s45.43-502.42,62.57-597.15c15.15-83.87,60.93-133,128.88-157,26.61,25.36,77-22,128.25-22.47,56.11-.5,113.41,43,142.46,4.82,85.41,11.74,141.47,52.33,143.39,168.41,2.32,142.78,15,602.9,15,602.9,17.39,4.44-375.53,75.34-620.54.53Z"/><path class="cls-10" d="M3071.73,2254.17c34.8-24.33,114.64-40.1,170.17-42.1,46.39-1.69,105.61,2.48,130.34,21.2-26.6,32.14-96.06-15-154.8-15s-115.7,46.72-145.71,35.94Z"/><polygon class="cls-8" points="3352.45 2477 3485.32 2477 3491.63 2597.12 3427.7 2627.99 3358.76 2597.12 3352.45 2477 3352.45 2477"/><path class="cls-8" d="M3135.18,2193.47c43.82,37.41,118.73,29.91,162.45-3.33l86,37c-29.38,36.67-75,57.52-123.65,65.24l-42.28-74.13-30.19,76.33c-50.66-4.67-97.58-22.16-125.67-49.32l73.37-51.77Z"/><path class="cls-3" d="M3089.24,3885.83c16.08,3.28,93.39,97.41,85.9,161.92H2853.93s-6-73.75,63.42-163.58c117.78,38.24,169.37,14.76,171.89,1.66Z"/><path class="cls-4" d="M3169.36,4042.48H2862.83a17.12,17.12,0,0,0-17.06,17.06h0a17.18,17.18,0,0,0,17.06,17.11h306.53a17.17,17.17,0,0,0,17.11-17.11h0a17.11,17.11,0,0,0-17.11-17.06Z"/><path class="cls-2" d="M3112.26,3939c4.85,1.42,10.35-.48,12.22-4.24s-.5-8-5.4-9.41c-14.82-4.34-37.56-7.37-59.29-6.24-17.7.89-35,4.57-47.73,12.45-4.09,2.57-4.77,7.17-1.52,10.3s9.19,3.63,13.28,1.08c9.34-5.78,22.89-8.53,37-9.26,19.06-1,38.72,1.64,51.44,5.32Z"/><path class="cls-2" d="M3118.32,3965.64c4.85,1.39,10.35-.5,12.22-4.26s-.51-8-5.4-9.42c-14.82-4.31-37.56-7.37-59.29-6.23-17.7.88-35,4.57-47.73,12.47-4.09,2.55-4.77,7.14-1.52,10.3s9.19,3.6,13.28,1.06c9.34-5.78,22.89-8.54,37-9.24,19.06-1,38.72,1.61,51.44,5.32Z"/><path class="cls-11" d="M2917.35,2304.07c42.86,226.49,17.57,315.59-71.25,494.85l66,40c104.22-130.87,168.89-430.56,112.43-583.54l-107.18,48.66Z"/><path class="cls-11" d="M3421.46,2231c100.69,244.88,91.88,517.1,91.45,567.66l56.21-13c15.85-99.7,16.48-464-33.77-522.71l-113.89-32Z"/><path class="cls-12" d="M2282.07,1385.74c19.06,91.65,40.67,190,58.18,289.54C2538,2798.64,1248.74,2894.58,1095.86,2280.6c-114.77-460.92,75.35-926.08,186.91-988.88s591.51-407.05,999.3,94Z"/><path class="cls-9" d="M2282.17,3893s-89.65-419.12-123.4-640.18-208.33-192.18-231.1-96.54,63.23,324.44,106.46,474,88.45,309.43,88.45,309.43c47.5,61.68,138.72,65.82,220.4,41.72,49.77-14.67,66.81-30.37,66.41-38.34-18.61-16.56-84.28-34.53-127.22-50.08Z"/><path class="cls-7" d="M2208.19,3529.51c-17.62-91.62-27.11-130.65-49.42-276.71s-209.75-186.2-231.1-96.57,39.68,257.27,84.81,402.56c29.38,1.82,138.42-4.19,195.71-29.28Z"/><path class="cls-2" d="M2289.44,3892.24s-9.61-45-23.75-113.25c-58.13,11.43-128.47,24.86-185,35.26,21.05,73.85,37.83,130.57,37.83,130.57,47.43,61.69,142.74,60.65,224.42,36.55,49.77-14.67,66.81-30.37,66.41-38.34-18.61-16.56-77-35.24-119.95-50.79Z"/><path class="cls-3" d="M2122.58,3939.65s-24.39,25.41-21.36,77.33,23.68,89.53,23.68,89.53l343.35-51.62,35.61-24.88s13.68-25.6-21.28-53.51-73.19-33.47-73.19-33.47c.4,8-16.64,23.67-66.41,38.34-81.68,24.1-172.9,20-220.4-41.72Z"/><path class="cls-4" d="M2124,4101.94l376-71.23a17.17,17.17,0,0,1,20,13.63h0a17.21,17.21,0,0,1-13.61,20l-376,71.2a17.12,17.12,0,0,1-19.94-13.6h0a17.13,17.13,0,0,1,13.61-20Z"/><path class="cls-9" d="M1549,3268c-21.51,79.33-17.77,128.19-64.47,238,0,0-260.43,208-263.51,279.72s147.73,44,284.11-57.93c100.66-75.19,161.51-118,176.89-172.84,5.45-19.44,33.92-117.35,40.48-144.33C1751.74,3308.05,1549,3268,1549,3268Z"/><path class="cls-7" d="M1536.24,3323.9c-10.13,52.07-16.89,100.1-51.75,182.06l-6.51,5.25c48.51,12.49,122.92,30.11,204,43.62,5.5-19.59,33.87-117.32,40.43-144.28,17.72-62-49.6-101.24-105.5-122.49-31.61,8.48-58.29,21-80.72,35.84Z"/><path class="cls-13" d="M1420.86,2362.56c-19.51,117.69-70.85,456.5-86.88,551.78-22.64,134.79-2.17,181.16,217.68,205.74s483.46-169.59,448.07-499.82c-12-112.62,218.76-291.58,96.95-358-106.82-58.2-647.95-67.67-675.82,100.26Z"/><path class="cls-14" d="M1515.59,2329.32s-88.34,457-111,591.84-25.39,180,194.45,204.57c100.44,11.24,461,39.13,540-40.61,56.66-57.12,89.15-362,59.74-570.54-19.94-141.37-64.71-172.82-146.77-212.1-108.64-52-279.59-60.65-536.44,26.84Z"/><path class="cls-15" d="M1510.19,2868.94s-63.81,131.45-113.06,292.61S1339.31,3411,1339.31,3411c124.23,127.41,787,120.15,949.25-1.94,0,0-51.24-377.12-149.78-560.83s-516.57-210-628.59,20.68Z"/><path class="cls-16" d="M1399.08,3448.46c12,5.07,25.21,9.79,39.35,14.16,22.39-187.76,172-633.24,126.63-516.25-90.26,232.75-139.33,393.81-166,502.09Zm130.59,35.39q20.83,3.6,42.86,6.54c-2.35-180.2,102.93-655.6,69.79-533.19-67.57,249.51-98.76,417.23-112.65,526.65Zm156.44,17c16.56.88,33.42,1.56,50.36,2,7.9-258.67,53.94-647.07,32-539.57-51,249.61-73.46,421.8-82.37,537.53Zm179.26,1.23c16.66-.65,33.27-1.51,49.73-2.6,5.32-127.29,1-300.69-26.35-529.77-14.69-123.38,5.22,234.56-23.38,532.37Zm178.2-15.87q26-3.8,50.59-8.38c-5.33-109.62-23.35-277.42-71-526.88-21.15-110.65,24.94,307.59,20.39,535.26Zm153.87-33.9q21.46-7,40-14.87c-18.33-108.61-54.7-269.44-125.78-501-36-117.27,77.44,326.59,85.82,515.87Z"/><path class="cls-2" d="M1510.19,2868.94s29.81-341.41,45.33-437.15c22.79-140.23,152.93-173.88,281.84-177.46,134-3.74,251.85,7.09,267.17,175.82,13,143.77,34.25,418.11,34.25,418.11,17.62,4.65-352.41,106.75-628.59,20.68Z"/><path class="cls-10" d="M1669.58,2278.63c35.87-22.56,106.77-33,162.83-31.7,46.8,1.06,106.36,8.86,130.7,29.35-27.87,30.95-90.26,42.31-152.71,38.57-56-3.35-110.93-23.47-140.82-36.22Z"/><path class="cls-9" d="M2298.38,2444.61s99.47,64.44,171.1,192.72S2591,2978.71,2591,2978.71s15.52,15.9,29.45,27.74c0,0-5.07,79.93-39.55,99.47s-28.07,12.09-40.89,12.39l-26.93-25.57c-.61-3.6.25,7.73-2.15,18.66-21.1-12.12-33.87-39.93-29.48-82.74-36-211.8-108.58-310.16-263.94-424.4-26.2-19.28-64.54-83.47-32.48-133.17s80.49-51.49,113.33-26.48Z"/><path class="cls-7" d="M2298.38,2444.61s99.47,64.44,171.1,192.72c-78.77-25.87-130.69,30.51-147.65,54.16-29.84-29.48-64.32-57.82-104.3-87.23-26.2-19.28-64.54-83.47-32.48-133.17s80.49-51.49,113.33-26.48Z"/><path class="cls-9" d="M2591,2978.71c20.82,17.14,76.7,72.67,77.82,100.46,1.41,36.44-23.1,61.81-67.4,85.11-7,3.68-13,15.49-21.2,18.14-31.47,10.15-45.89-12.87-66.79-61.05-48.51,8.76-42.3-39.83-32-92.71,7.4-37.94,109.55-49.95,109.55-49.95Z"/><path class="cls-3" d="M2346.79,2418c-38.09,70.7-110.38,144.22-184.08,176.48l41.55,40.76c90.51-35.11,157-106.46,183.8-172.37-11.59-14-27.26-30.61-41.27-44.87Z"/><path class="cls-2" d="M2173.08,2589.27c-121.73-63.41-212.62-227.34-89.55-277.14,11-4.45,9.31-13,24-12.47,63.91,2.42,171.29,55.86,239.26,118.33-14.84,81.2-101.24,143.72-173.71,171.28Z"/><path class="cls-17" d="M2025.55,2261.92c104.75,243.2,96.27,501.28,112.35,575.16,11.51.53,24.66-5.3,38.24-12.77,14.84-101.47,19-472-32.51-529.2l-118.08-33.19Z"/><polygon class="cls-10" points="1751.79 2079.18 1903.97 2105.71 1916.82 2256.9 1834.08 2273.86 1747.5 2271.61 1751.79 2079.18 1751.79 2079.18"/><path class="cls-10" d="M1680.36,2269.77c35.69-22.84,106.57-33.9,162.68-33.06,46.82.68,106.49,8,131,28.19-51.19,57.85-242.54,47.2-293.65,4.87Z"/><path class="cls-10" d="M1686,2276.84c34.53-24.61,104.85-39.22,161-41.27,46.85-1.69,106.89,2.53,132.46,21.46-48.28,60.27-240.24,59.41-293.5,19.81Z"/><path class="cls-3" d="M1845.46,2292.84a20.84,20.84,0,0,1,20.77,21.81,22.45,22.45,0,0,1-22.46,21.46,20.87,20.87,0,0,1-20.8-21.81,22.47,22.47,0,0,1,22.49-21.46Z"/><path class="cls-4" d="M1097.4,3799.58c-6.18-8.4-18.22-1.84-23.42,10.45-22.42,53.16,8.28,149.48,45.28,216.42,28.29,51.14,77.09,93.82,113.63,106.24,28.93,9.84,52.13-1.44,37.21-27.74l-172.7-305.37Z"/><path class="cls-3" d="M1229,3740.22c-59.27,7.52-111.21,43.72-129.92,63.68-6.11,11-28.09,115.38,57.83,235.87,32.89,46.12,62.65,64.92,87.38,68.36,91.65,12.62,93.19-168.76,99.35-227.93l-114.64-140Z"/><path class="cls-2" d="M1343.65,3880.2s56-54.92,106.69-103.91c-41.19-43.52-90.76-96.4-130.16-139-51.75,57.95-91.17,103-91.17,103-37.11,100.3-14.31,184.08,21,215.93,61.23,55.13,82.48-31.6,93.59-76Z"/><path class="cls-9" d="M1308,1958.15c-121.66,10.63-159.27-157.4-62.65-192.89-100.61-267.47,45.44-569.65,394.41-652.95,241.53-57.65,524.25,35.77,617,320.63,62.27,191.25,79.48,386.14,19.28,521.15-146.57,329-814.56,336.56-968.05,4.06Z"/><path class="cls-7" d="M1308,1958.15c-31.27,8.36-57-8.66-75.47-21.28,35.74,7.27,70.57,4.24,105.1-24.15,120,318.33,690.69,339.28,885.44,124.06C2010.76,2281.61,1447.31,2260,1308,1958.15Z"/><path class="cls-7" d="M1221.43,1926.75c-45.58-48.28-43.21-136.85,23.88-161.49-100.61-267.47,45.44-569.65,394.41-652.95,241.53-57.65,524.25,35.77,617,320.63a1237.58,1237.58,0,0,1,41.82,164.72c-117.31-286.78-502.64-92.6-745.35-179.43-85.85,234-253.75,329.11-331.77,508.52Z"/><path class="cls-10" d="M2157.66,1553.37a96.23,96.23,0,1,1-90.41,101.57,96.18,96.18,0,0,1,90.41-101.57Z"/><path class="cls-10" d="M1572.28,1604.48c56.66-3.23,105,37.13,108.08,90.21s-40.44,98.69-97.08,101.92-105-37.1-108.08-90.18,40.44-98.72,97.08-102Z"/><path class="cls-18" d="M1583.84,1613.64c56.67-3.23,105.05,37.13,108.11,90.19s-40.44,98.74-97.11,101.94-105-37.13-108-90.18,40.43-98.69,97-101.95Z"/><path class="cls-19" d="M1595.27,1635.22a69.07,69.07,0,1,1-65,72.9,69,69,0,0,1,65-72.9Z"/><path class="cls-18" d="M2149.89,1567.32a96.24,96.24,0,1,1-90.42,101.57,96.19,96.19,0,0,1,90.42-101.57Z"/><path class="cls-19" d="M2136,1596.35c35.19-2,65.48,27.21,67.65,65.3s-24.56,70.62-59.75,72.62-65.47-27.24-67.67-65.33,24.59-70.57,59.77-72.59Z"/><path class="cls-19" d="M1500.09,1704.63c38.32-62.59,116.56-82.18,173.76-36.52,12.82,10.25,21.88,22.57,8.48-6.13-22.67-48.52-86.1-59.62-132-43.06-35.82,12.95-71.23,55.8-67.24,101.16,2.07,24.31,7.72-.33,17-15.45Z"/><path class="cls-18" d="M1562.13,1670.58a19.41,19.41,0,1,1-18.27,20.47,19.39,19.39,0,0,1,18.27-20.47Z"/><path class="cls-18" d="M2104,1629a19.41,19.41,0,1,1-18.27,20.47A19.41,19.41,0,0,1,2104,1629Z"/><path class="cls-19" d="M2075,1632.9c-12.14,10.55-22.76,27.66-13.22-2.52,15.39-48.79,65-68.91,109.74-62.25,45.82,6.82,82.19,41,82.87,85.22.07,8-4.07,3-7.47-1.72-38.8-53.51-103.59-78.15-171.92-18.73Z"/><path class="cls-10" d="M1991.88,1805.62c1.94,76.83-118.08,82.51-128.63,27.49,14.21,3.63,31.25,9.67,57.25,6.56,22.34-2.65,53.38-12.32,71.38-34.05Z"/><path class="cls-7" d="M1270.7,1870.59s-15.75-24.46,8-31.57c12.39-3.69,20.39,6.86,25,17.69,4.26,10,5.68,20.29,5,19.89a88.27,88.27,0,0,0-8.81-9.21c-9.49-8.61-24-17.32-29.18,3.2Z"/><path class="cls-20" d="M1787.71,1980.72c93.77,31.3,183,3.2,253.89-26,28.38-11.71,12,38.75,7,51.82-25.62,66.94-107.52,108.66-178.3,100.38C1810.9,2100,1768.6,2058.1,1752,2021c-19-42.53-19.39-58.58,35.69-40.23Z"/><path class="cls-21" d="M1992.66,2074.89c-35.56,24.51-80.89,36.85-122.39,32-56.08-6.51-96.92-44.27-115.25-79.71,48.44-21.68,224.8-33.09,237.64,47.71Z"/><path class="cls-18" d="M1792.38,1982.23c87.61,24.56,170.22,2,237.31-22.74,2.07,45.13-54.77,71.25-119.64,79.33-56.84,7.07-102.35-7.32-117.67-56.59Z"/><path class="cls-22" d="M1792.38,1982.23c87.61,24.56,170.22,2,237.31-22.74a47.73,47.73,0,0,1-1.77,15.57c-97.17,39.83-179.56,33.7-229.05,22.87a89.86,89.86,0,0,1-6.49-15.7Z"/><path class="cls-12" d="M1473.79,1588.38c33.22-35.87,101.57-54.75,134.94-59,63.2-8.2,31-42,.4-40.74-57.85,2.33-120.9,38.67-151.8,79.26-24.35,32.08-23.17,63.28,16.46,20.5Z"/><path class="cls-9" d="M1551.89,1808.8c87,8.33,152.65,64.85,146.59,126.26S1617,2039.38,1530,2031s-152.66-64.87-146.65-126.23,81.55-104.34,168.51-96Z"/><path class="cls-23" d="M1550,1810.09c85.06,8.18,149.32,63.4,143.44,123.4s-79.74,102-164.75,93.87S1379.37,1964,1385.25,1904,1465,1802,1550,1810.09Z"/><path class="cls-24" d="M1548.1,1811.43c83.09,8,145.94,61.89,140.19,120.55s-77.87,99.67-161,91.75-146-61.89-140.24-120.55,77.9-99.7,161-91.75Z"/><path class="cls-25" d="M1546.18,1812.74c81.23,7.72,142.61,60.43,137,117.67s-76,97.43-157.3,89.66-142.56-60.43-137-117.68,76-97.4,157.25-89.65Z"/><path class="cls-26" d="M1544.29,1814.05c79.28,7.52,139.23,58.94,133.77,114.85s-74.23,95.08-153.54,87.53-139.22-58.93-133.77-114.87,74.23-95,153.54-87.51Z"/><path class="cls-27" d="M1542.37,1815.34c77.36,7.34,135.9,57.5,130.57,112s-72.39,92.76-149.75,85.41-135.9-57.47-130.62-112,72.44-92.76,149.8-85.44Z"/><path class="cls-28" d="M1540.48,1816.65c75.47,7.12,132.51,56,127.39,109.14s-70.6,90.49-146.07,83.35-132.54-56-127.37-109.14,70.58-90.47,146-83.35Z"/><path class="cls-29" d="M1538.56,1818c73.55,6.92,129.18,54.5,124.18,106.32s-68.75,88.14-142.3,81.22-129.19-54.52-124.19-106.31,68.76-88.14,142.31-81.23Z"/><path class="cls-30" d="M1536.64,1819.28c71.63,6.71,125.85,53,121,103.43s-66.93,85.85-138.57,79.13-125.85-53-121-103.46,67-85.82,138.57-79.1Z"/><path class="cls-31" d="M1534.77,1820.59c69.67,6.51,122.47,51.54,117.72,100.61s-65.09,83.52-134.78,77-122.49-51.54-117.77-100.61,65.12-83.49,134.83-77Z"/><path class="cls-32" d="M1532.85,1821.9c67.8,6.29,119.14,50.08,114.57,97.76s-63.3,81.2-131.1,74.89-119.13-50.1-114.54-97.76,63.28-81.2,131.07-74.89Z"/><path class="cls-33" d="M1531,1823.19c65.88,6.11,115.75,48.61,111.34,94.93s-61.49,78.9-127.37,72.77S1399.18,1942.3,1403.6,1896s61.48-78.85,127.36-72.77Z"/><path class="cls-34" d="M1529,1824.5c63.94,5.93,112.4,47.13,108.16,92.08s-59.65,76.58-123.63,70.67-112.4-47.12-108.13-92.07,59.64-76.58,123.6-70.68Z"/><path class="cls-35" d="M1527.15,1825.81c62,5.71,109.06,45.67,104.92,89.23s-57.82,74.26-119.86,68.55-109.07-45.63-104.93-89.2,57.83-74.25,119.87-68.58Z"/><path class="cls-36" d="M1525.23,1827.13c60.12,5.5,105.71,44.14,101.72,86.37s-56,72-116.11,66.46-105.7-44.17-101.74-86.4,56-71.94,116.13-66.43Z"/><path class="cls-37" d="M1523.31,1828.44c58.21,5.3,102.38,42.68,98.57,83.52s-54.19,69.64-112.4,64.34-102.38-42.68-98.54-83.52,54.17-69.62,112.37-64.34Z"/><path class="cls-38" d="M1521.44,1829.75c56.29,5.08,99,41.2,95.31,80.67s-52.35,67.32-108.66,62.24-99-41.21-95.31-80.69,52.33-67.32,108.66-62.22Z"/><path class="cls-39" d="M1519.53,1831c54.36,4.9,95.66,39.75,92.12,77.84s-50.53,65-104.92,60.12-95.64-39.72-92.1-77.84,50.53-65,104.9-60.12Z"/><path class="cls-40" d="M1517.63,1832.35c52.43,4.7,92.26,38.27,88.9,75s-48.74,62.67-101.16,58-92.31-38.24-88.93-74.94,48.72-62.73,101.19-58.06Z"/><path class="cls-41" d="M1515.72,1833.66c50.55,4.5,88.92,36.78,85.69,72.14s-46.87,60.38-97.43,55.91-89-36.78-85.69-72.14,46.87-60.35,97.43-55.91Z"/><path class="cls-42" d="M1513.82,1835c48.62,4.29,85.59,35.31,82.49,69.31s-45.08,58-93.69,53.76-85.6-35.29-82.49-69.29,45-58.07,93.69-53.78Z"/><path class="cls-43" d="M1511.9,1836.29c46.7,4.06,82.24,33.82,79.31,66.43s-43.24,55.76-90,51.7S1419,1920.59,1422,1888s43.24-55.73,89.93-51.69Z"/><path class="cls-44" d="M1510,1837.6c44.77,3.86,78.9,32.34,76.1,63.61s-41.42,53.41-86.2,49.57-78.9-32.36-76.1-63.61,41.42-53.45,86.2-49.57Z"/><path class="cls-45" d="M1508.12,1838.91c42.86,3.66,75.52,30.87,72.84,60.73s-39.58,51.14-82.48,47.48-75.5-30.87-72.85-60.75,39.58-51.12,82.49-47.46Z"/><path class="cls-46" d="M1506.2,1840.2c41,3.49,72.19,29.41,69.66,57.93s-37.76,48.79-78.72,45.33-72.19-29.38-69.67-57.9,37.74-48.82,78.73-45.36Z"/><path class="cls-47" d="M1504.31,1841.51c39,3.29,68.78,27.92,66.46,55s-36,46.52-75,43.27-68.84-27.89-66.49-55,36-46.5,75-43.27Z"/><path class="cls-48" d="M1502.39,1842.85c37.13,3.06,65.47,26.4,63.25,52.2s-34.12,44.17-71.25,41.12-65.48-26.4-63.26-52.2,34.13-44.2,71.26-41.12Z"/><path class="cls-49" d="M1500.5,1844.16c35.21,2.83,62.11,24.94,60,49.32s-32.33,41.88-67.52,39-62.11-25-60-49.37,32.28-41.85,67.52-39Z"/><path class="cls-50" d="M1498.58,1845.48c33.26,2.62,58.76,23.45,56.84,46.49s-30.47,39.55-63.76,36.9-58.76-23.47-56.87-46.49,30.47-39.58,63.79-36.9Z"/><path class="cls-51" d="M1496.66,1846.79c31.4,2.42,55.43,22,53.66,43.62s-28.67,37.25-60,34.83-55.4-22-53.63-43.67,28.67-37.23,60-34.78Z"/><path class="cls-52" d="M1494.79,1848.08c29.43,2.24,52,20.52,50.38,40.81s-26.8,34.91-56.29,32.69-52-20.5-50.43-40.82,26.86-34.93,56.34-32.68Z"/><path class="cls-53" d="M1492.87,1849.39c27.51,2,48.67,19,47.23,38s-25,32.61-52.58,30.57-48.69-19-47.2-37.94,25-32.64,52.55-30.59Z"/><path class="cls-54" d="M1491,1850.7c25.62,1.84,45.33,17.54,44,35.11s-23.17,30.29-48.81,28.47-45.33-17.56-44-35.11,23.17-30.31,48.84-28.47Z"/><path class="cls-55" d="M1489.06,1852c23.7,1.62,42,16.06,40.82,32.26s-21.36,28-45.08,26.35-42-16-40.84-32.25,21.4-28,45.1-26.36Z"/><path class="cls-56" d="M1487.17,1853.33c21.76,1.41,38.62,14.59,37.61,29.4s-19.59,25.67-41.35,24.23-38.64-14.59-37.61-29.38,19.54-25.69,41.35-24.25Z"/><path class="cls-57" d="M1485.25,1854.64c19.84,1.24,35.29,13.1,34.38,26.55s-17.7,23.35-37.56,22.14-35.31-13.1-34.43-26.55,17.75-23.38,37.61-22.14Z"/><path class="cls-58" d="M1483.33,1855.93c18,1,32,11.63,31.22,23.72s-15.92,21-33.87,20-31.93-11.64-31.22-23.7,15.93-21.08,33.87-20Z"/><path class="cls-59" d="M1481.46,1857.24c16,.81,28.58,10.15,28,20.87s-14.08,18.73-30.11,17.92-28.6-10.14-28-20.84,14.08-18.76,30.13-18Z"/><path class="cls-60" d="M1479.55,1858.55c14.08.61,25.21,8.68,24.78,18s-12.27,16.41-26.4,15.8-25.22-8.63-24.79-18,12.27-16.46,26.41-15.83Z"/><path class="cls-61" d="M1477.65,1859.86c12.19.41,21.86,7.2,21.53,15.17s-10.4,14.11-22.61,13.71-21.86-7.22-21.61-15.2,10.48-14.08,22.69-13.68Z"/><path class="cls-62" d="M1475.73,1861.18c10.3.17,18.51,5.7,18.38,12.31s-8.61,11.82-18.91,11.59-18.52-5.7-18.37-12.32,8.61-11.81,18.9-11.58Z"/><path class="cls-63" d="M1473.84,1862.49c8.33,0,15.17,4.24,15.17,9.46s-6.84,9.5-15.17,9.5-15.19-4.27-15.19-9.47,6.81-9.49,15.19-9.49Z"/><path class="cls-12" d="M2229,1528c-34.93-28.55-100.81-33-132.41-30.27-59.85,5-33.62-35-4.87-40.16,54.21-9.76,117.06,13,150.36,46.72,26.25,26.63,28.62,57.7-13.08,23.71Z"/><path class="cls-9" d="M2150.59,1772.83c-67.19,17.19-112.82,80.07-101.82,140.49s74.41,95.39,141.6,78.25,112.85-80.09,101.87-140.51-74.43-95.39-141.65-78.23Z"/><path class="cls-23" d="M2152.21,1774c-65.7,16.75-110.35,78.27-99.6,137.3s72.77,93.29,138.5,76.53,110.35-78.27,99.62-137.33-72.79-93.29-138.52-76.5Z"/><path class="cls-24" d="M2153.85,1775.06c-64.24,16.38-107.88,76.42-97.4,134.15s71.1,91.19,135.34,74.79,107.9-76.43,97.43-134.16-71.13-91.17-135.37-74.78Z"/><path class="cls-25" d="M2155.47,1776.14c-62.78,16-105.41,74.66-95.19,131s69.41,89.07,132.21,73.07,105.43-74.64,95.19-131-69.44-89.08-132.21-73.1Z"/><path class="cls-26" d="M2157.06,1777.25c-61.24,15.63-102.94,72.82-92.94,127.85s67.8,87,129.08,71.38,102.93-72.82,92.94-127.85-67.75-87-129.08-71.38Z"/><path class="cls-27" d="M2158.72,1778.36c-59.82,15.2-100.46,71-90.76,124.72s66.13,84.83,125.9,69.64,100.5-71,90.79-124.69-66.13-84.84-125.93-69.67Z"/><path class="cls-28" d="M2160.34,1779.5c-58.31,14.76-98,69.16-88.52,121.51s64.46,82.71,122.74,67.94,98-69.21,88.55-121.53-64.44-82.71-122.77-67.92Z"/><path class="cls-29" d="M2162,1780.58c-56.81,14.42-95.51,67.42-86.3,118.36s62.8,80.62,119.62,66.23,95.51-67.39,86.35-118.38-62.83-80.57-119.67-66.21Z"/><path class="cls-30" d="M2163.57,1781.69c-55.33,14-93,65.58-84.1,115.23s61.13,78.47,116.53,64.49,93-65.55,84.08-115.2-61.13-78.52-116.51-64.52Z"/><path class="cls-31" d="M2165.21,1782.8c-53.89,13.61-90.59,63.76-81.88,112s59.46,76.38,113.38,62.8,90.54-63.76,81.85-112.07-59.46-76.38-113.35-62.78Z"/><path class="cls-32" d="M2166.85,1783.89c-52.43,13.23-88.12,62-79.69,108.91s57.83,74.26,110.23,61.09,88.09-62,79.66-108.92-57.8-74.26-110.2-61.08Z"/><path class="cls-33" d="M2168.46,1785c-50.93,12.77-85.61,60.12-77.43,105.73s56.13,72.16,107.07,59.34,85.61-60.15,77.44-105.73-56.14-72.14-107.08-59.34Z"/><path class="cls-34" d="M2170.08,1786.14c-49.47,12.39-83.14,58.3-75.22,102.55s54.5,70.07,103.94,57.62S2282,1888,2274,1843.76s-54.52-70-103.94-57.62Z"/><path class="cls-35" d="M2171.72,1787.25c-48,12-80.69,56.51-73,99.39s52.8,67.95,100.81,55.94,80.67-56.52,73-99.42-52.83-67.93-100.79-55.91Z"/><path class="cls-36" d="M2173.31,1788.36c-46.49,11.58-78.2,54.69-70.77,96.24s51.16,65.8,97.65,54.22,78.22-54.7,70.8-96.27-51.16-65.8-97.68-54.19Z"/><path class="cls-37" d="M2175,1789.44c-45,11.23-75.72,52.91-68.55,93.09s49.49,63.71,94.5,52.5,75.75-52.88,68.58-93.09-49.52-63.7-94.53-52.5Z"/><path class="cls-38" d="M2176.59,1790.55c-43.54,10.81-73.27,51.09-66.36,90s47.84,61.56,91.38,50.76,73.27-51.09,66.35-89.93-47.85-61.59-91.37-50.79Z"/><path class="cls-39" d="M2178.21,1791.66c-42.05,10.4-70.83,49.25-64.16,86.78s46.19,59.47,88.24,49,70.8-49.24,64.13-86.75-46.16-59.47-88.21-49.07Z"/><path class="cls-40" d="M2179.82,1792.77c-40.56,10-68.3,47.46-61.91,83.63s44.5,57.37,85.08,47.32,68.33-47.42,61.89-83.59-44.47-57.38-85.06-47.36Z"/><path class="cls-41" d="M2181.46,1793.89c-39.09,9.61-65.85,45.63-59.72,80.46s42.86,55.25,82,45.64,65.83-45.64,59.69-80.47-42.88-55.25-81.93-45.63Z"/><path class="cls-42" d="M2183.05,1795c-37.61,9.21-63.35,43.81-57.44,77.28s41.14,53.16,78.8,43.92,63.35-43.82,57.44-77.29-41.19-53.15-78.8-43.91Z"/><path class="cls-43" d="M2184.69,1796.08c-36.12,8.84-60.9,42-55.25,74.16s39.53,51,75.65,42.18,60.9-42,55.28-74.11-39.53-51-75.68-42.23Z"/><path class="cls-44" d="M2186.33,1797.19c-34.68,8.41-58.45,40.21-53,71s37.86,48.89,72.52,40.48,58.43-40.18,53-71-37.84-48.94-72.5-40.51Z"/><path class="cls-45" d="M2188,1798.33c-33.19,8-56,38.34-50.83,67.79s36.19,46.8,69.38,38.77,56-38.39,50.84-67.82-36.22-46.79-69.39-38.74Z"/><path class="cls-46" d="M2189.57,1799.41c-31.71,7.63-53.46,36.58-48.62,64.67s34.56,44.68,66.23,37.05,53.46-36.57,48.62-64.64-34.53-44.7-66.23-37.08Z"/><path class="cls-47" d="M2191.21,1800.52c-30.24,7.25-51,34.76-46.42,61.52s32.86,42.53,63.1,35.33,51-34.78,46.39-61.48-32.86-42.59-63.07-35.37Z"/><path class="cls-48" d="M2192.8,1801.63c-28.73,6.84-48.52,32.94-44.17,58.36s31.24,40.44,60,33.6,48.53-32.94,44.17-58.34-31.2-40.46-60-33.62Z"/><path class="cls-49" d="M2194.44,1802.72c-27.26,6.46-46.07,31.15-42,55.2s29.55,38.34,56.81,31.91,46.07-31.15,41.95-55.18-29.55-38.34-56.81-31.93Z"/><path class="cls-50" d="M2196.05,1803.83c-25.77,6-43.56,29.33-39.75,52.05s27.91,36.22,53.69,30.18,43.61-29.35,39.75-52-27.92-36.24-53.69-30.21Z"/><path class="cls-51" d="M2197.69,1805c-24.33,5.6-41.11,27.48-37.56,48.86s26.28,34.1,50.56,28.47,41.12-27.51,37.53-48.86-26.22-34.13-50.53-28.47Z"/><path class="cls-52" d="M2199.31,1806.05c-22.82,5.23-38.67,25.7-35.29,45.71s24.54,32,47.38,26.76,38.64-25.67,35.31-45.69-24.58-32-47.4-26.78Z"/><path class="cls-53" d="M2200.92,1807.16c-21.32,4.85-36.14,23.88-33.06,42.56s22.89,29.88,44.22,25,36.2-23.88,33.12-42.56-22.92-29.86-44.28-25Z"/><path class="cls-54" d="M2202.54,1808.27c-19.84,4.44-33.67,22.09-30.85,39.4s21.26,27.77,41.1,23.33,33.69-22.06,30.89-39.41-21.25-27.76-41.14-23.32Z"/><path class="cls-55" d="M2204.15,1809.36c-18.37,4.06-31.19,20.29-28.62,36.24s19.59,25.65,38,21.61,31.23-20.27,28.65-36.22-19.61-25.65-38-21.63Z"/><path class="cls-56" d="M2205.8,1810.47c-16.89,3.66-28.75,18.47-26.43,33.11s17.92,23.53,34.83,19.87,28.72-18.45,26.4-33.07-17.89-23.55-34.8-19.91Z"/><path class="cls-57" d="M2207.44,1811.6c-15.43,3.24-26.31,16.64-24.21,29.91s16.23,21.43,31.68,18.18,26.25-16.64,24.2-29.91-16.25-21.43-31.67-18.18Z"/><path class="cls-58" d="M2209.05,1812.71c-14,2.83-23.8,14.82-22,26.76s14.59,19.31,28.54,16.46,23.78-14.82,22-26.76-14.59-19.31-28.52-16.46Z"/><path class="cls-59" d="M2210.67,1813.83c-12.47,2.44-21.33,13-19.79,23.6s12.95,17.18,25.39,14.74,21.35-13,19.81-23.6-12.94-17.19-25.41-14.74Z"/><path class="cls-60" d="M2212.31,1814.91c-11,2.07-18.86,11.21-17.57,20.45s11.28,15.06,22.24,13.05,18.88-11.24,17.56-20.45-11.25-15.09-22.23-13Z"/><path class="cls-61" d="M2213.9,1816c-9.49,1.67-16.36,9.42-15.32,17.29s9.61,13,19.1,11.31,16.41-9.39,15.35-17.29-9.59-12.95-19.13-11.31Z"/><path class="cls-62" d="M2215.54,1817.13c-8,1.24-13.91,7.57-13.1,14.11s7.92,10.85,15.95,9.59,13.93-7.54,13.13-14.08-7.93-10.85-16-9.62Z"/><path class="cls-63" d="M2217.18,1818.24c-6.56.84-11.44,5.76-10.91,11s6.29,8.71,12.83,7.88,11.43-5.76,10.9-11-6.31-8.74-12.82-7.88Z"/><path class="cls-64" d="M1273.33,2541.11s-141.07-203.64-84.53-489.74c41.72-211.17,117.37-296.83,179.13-392.72,78.93-122.52,134.79-193.65,151.37-339,268.66,187.74,485.53-18.28,709.39,153,68.91,52.73,107,203.34,107,203.34,116.71-562.54-466.45-831.5-934.51-585.38-517.44,272-511.53,1164.48-127.82,1450.53Z"/><path class="cls-65" d="M1310.89,1744.31c19.41-30,38.84-57.39,57-85.66,35.64-55.31,66.59-100.18,91.32-146.12-198.47-5-298-107.93-332.22-153.49-32.86,61.61-63,130.44-82.18,189.51,56.44,83.64,154.32,163.15,266,195.76Zm606.43-343.5c98.49-5.47,193.34-7,289.11,56,50.91-64.14,73.14-126,81-178.65A494.69,494.69,0,0,0,2186,1150.5c-26.25,80.14-99.43,170.12-268.64,250.31Z"/><path class="cls-9" d="M2733.35,1888.59c-118.48,14-160.23-148.9-66.94-186.45-106.31-258.12,27.16-557.52,365.34-649.4,234.05-63.55,512.91,19.11,612.06,294.44,66.56,184.81,89.25,374.59,34.55,508.22-133.17,325.65-785.08,353.14-945,33.19Z"/><path class="cls-66" d="M2660.78,1704.66c1.82-.88,3.69-1.74,5.63-2.52a479.33,479.33,0,0,1-17.79-51.19c-31.45-202.43,91-411.15,207.1-521.4,50.53-32.41,109.29-58.66,176-76.81a582.57,582.57,0,0,1,68.55-14.21c130.54,4.24,275.48,51,338,66.71a203.51,203.51,0,0,1,27.26,9.22c77.14,51.51,140.64,128.24,178.28,232.72l.68,2c-49.27,20.83-106.11,1-119.29-49.47,11.06,22-69.51,48.77-87.48,13.63-13,20.4-197.36,67.75-221.77-8.78-34.3,8-56.11-2.27-76.6-24-8.26,52.17-123.58,80.89-173.23,46,0,0-5.5,31.25-52.32,76.73s-132,44.75-132,44.75c6.16,27.54,7.42,53.87-22.82,76.48,0,0,26.45,45,16.48,106.11s-44.95,66.61-44.95,66.61a94,94,0,0,1-4.72,40.59c-7.5,21.94-39.78,30.67-39.78,30.67a393.2,393.2,0,0,1-25.27-63.86Z"/><path class="cls-7" d="M2733.35,1888.59c-30.26,9.08-55.93-6.74-74.31-18.53,35.14,6,69,2,101.87-26.73,126.81,307.18,684.58,310.41,868.23,94.38-199.85,245.44-750.61,241.4-895.79-49.12Z"/><path class="cls-10" d="M3550.74,1467.73a94,94,0,1,1-85.21,101.89,93.95,93.95,0,0,1,85.21-101.89Z"/><path class="cls-10" d="M2980.76,1535.32c55.18-4.87,103.64,33.07,108.23,84.78s-36.47,97.58-91.72,102.48-103.64-33.12-108.21-84.78,36.47-97.61,91.7-102.48Z"/><path class="cls-18" d="M2992.32,1543.9c55.23-4.87,103.69,33.09,108.26,84.81s-36.5,97.56-91.7,102.45-103.69-33.09-108.23-84.81,36.47-97.58,91.67-102.45Z"/><path class="cls-19" d="M3004.13,1564.6a67.48,67.48,0,1,1-61.28,73.2,67.49,67.49,0,0,1,61.28-73.2Z"/><path class="cls-18" d="M3543.53,1481.58a94,94,0,1,1-85.22,101.9,94,94,0,0,1,85.22-101.9Z"/><path class="cls-19" d="M3530.85,1510.36c34.33-3,64.77,24.58,68.05,61.71s-21.86,69.66-56.13,72.69-64.77-24.61-68.05-61.71,21.86-69.66,56.13-72.69Z"/><path class="cls-19" d="M2913.32,1635.27c35.48-62.29,111.31-83.75,168.53-40.94,12.8,9.62,22,21.41,8.05-6.21-23.57-46.69-85.84-55.63-130.14-38.06-34.58,13.73-67.8,56.62-62.6,100.81,2.83,23.65,7.57-.58,16.16-15.6Z"/><path class="cls-18" d="M2972.83,1600.14a19,19,0,1,1-17.21,20.54,19,19,0,0,1,17.21-20.54Z"/><path class="cls-18" d="M3500.62,1543.17a18.94,18.94,0,1,1-17.22,20.55,19,19,0,0,1,17.22-20.55Z"/><path class="cls-19" d="M3472.45,1547.89c-11.54,10.65-21.41,27.66-13-2.12,13.58-48,61.44-69.19,105.28-64,45,5.25,81.48,37.51,83.47,80.7.36,7.77-3.88,3-7.32-1.47-39.5-51.06-103.48-73.14-168.4-13.07Z"/><path class="cls-10" d="M3396.47,1719c4.24,75-112.77,84.1-124.74,30.72,14,3.13,30.8,8.51,56.09,4.69,21.73-3.3,51.74-13.65,68.65-35.41Z"/><path class="cls-7" d="M2694.33,1804.21s-16.11-23.42,6.89-31.07c11.94-4,20.12,6.08,24.94,16.53,4.46,9.64,6.18,19.64,5.45,19.26a84.37,84.37,0,0,0-8.86-8.76c-9.54-8.08-23.93-16.15-28.42,4Z"/><path class="cls-20" d="M3202.45,1896.14c92.48,27.68,178.7-2.38,247.08-33.1,27.36-12.26,12.87,37.49,8.38,50.38-23,66.14-101.72,109.35-171.08,103.42-58.16-5-100.71-44.6-118-80.37-19.84-41-20.69-56.62,33.65-40.33Z"/><path class="cls-21" d="M3405.38,1981.88c-34,25-77.86,38.41-118.55,35-54.93-4.67-95.94-40.31-114.9-74.36,46.62-22.64,218.44-39.1,233.45,39.4Z"/><path class="cls-18" d="M3207,1897.47c86.27,21.33,166.26-3.2,231-29.38,3.36,44-51.39,71.23-114.44,81.08-55.28,8.6-100.13-4.09-116.59-51.7Z"/><path class="cls-22" d="M3207,1897.47c86.27,21.33,166.26-3.2,231-29.38a47.72,47.72,0,0,1-1.26,15.25c-93.7,41.82-174.31,38.34-222.95,29.25a87.53,87.53,0,0,1-6.82-15.12Z"/><path class="cls-19" d="M2884.11,1522.57c31.33-36,97.53-56.51,130-61.74,61.46-9.86,29.05-41.87-.84-39.77-56.41,4-116.89,41.42-145.81,82-22.82,32-20.72,62.47,16.68,19.53Z"/><path class="cls-9" d="M2967,1735.38c85.14,5.53,151,58.73,146.95,118.83s-76.43,104.35-161.59,98.79-151-58.71-146.95-118.83,76.43-104.3,161.59-98.79Z"/><path class="cls-23" d="M2965.21,1736.72c83.27,5.37,147.66,57.37,143.72,116.15s-74.71,102-158,96.62-147.68-57.37-143.74-116.13,74.74-102,158-96.64Z"/><path class="cls-24" d="M2963.34,1738.08c81.45,5.22,144.41,56,140.54,113.45s-73,99.68-154.42,94.46S2805.13,1889.93,2809,1832.5s73-99.67,154.37-94.42Z"/><path class="cls-25" d="M2961.53,1739.42c79.55,5.07,141,54.67,137.33,110.75s-71.3,97.38-150.81,92.28-141.05-54.67-137.31-110.78,71.28-97.38,150.79-92.25Z"/><path class="cls-26" d="M2959.71,1740.73c77.69,5,137.76,53.36,134.13,108.1s-69.62,95.06-147.26,90.11-137.71-53.36-134.07-108.1,69.56-95.06,147.2-90.11Z"/><path class="cls-27" d="M2957.89,1742.07c75.77,4.82,134.43,52,130.9,105.4s-67.9,92.76-143.67,87.94-134.38-52-130.85-105.41,67.9-92.75,143.62-87.93Z"/><path class="cls-28" d="M2956.07,1743.4c73.91,4.67,131.13,50.69,127.67,102.73s-66.15,90.44-140.06,85.77-131.07-50.66-127.64-102.73,66.18-90.44,140-85.77Z"/><path class="cls-29" d="M2954.26,1744.74c72,4.54,127.76,49.35,124.46,100.06s-64.49,88.11-136.48,83.57-127.77-49.32-124.43-100,64.46-88.14,136.45-83.6Z"/><path class="cls-30" d="M2952.44,1746.08c70.17,4.39,124.49,48,121.26,97.35s-62.78,85.82-132.92,81.43-124.44-48-121.21-97.38,62.75-85.79,132.87-81.4Z"/><path class="cls-31" d="M2950.62,1747.44c68.28,4.24,121.16,46.62,118,94.63s-61.08,83.52-129.31,79.26-121.13-46.65-118-94.68,61.06-83.5,129.28-79.21Z"/><path class="cls-32" d="M2948.8,1748.73c66.41,4.16,117.83,45.31,114.82,92s-59.34,81.2-125.72,77.09-117.82-45.31-114.79-92,59.34-81.19,125.69-77.08Z"/><path class="cls-33" d="M2947,1750.07c64.51,4,114.49,44,111.59,89.32s-57.63,78.88-122.14,74.89S2822,1870.34,2824.87,1825s57.63-78.88,122.12-74.91Z"/><path class="cls-34" d="M2945.17,1751.43c62.65,3.84,111.19,42.61,108.38,86.63s-55.93,76.58-118.55,72.71-111.19-42.63-108.36-86.62,55.91-76.58,118.53-72.72Z"/><path class="cls-35" d="M2943.35,1752.77c60.76,3.68,107.88,41.27,105.16,83.92s-54.22,74.26-115,70.58-107.88-41.27-105.15-84,54.21-74.23,114.94-70.52Z"/><path class="cls-36" d="M2941.54,1754.11c58.88,3.53,104.54,39.93,101.94,81.22s-52.5,72-111.38,68.4-104.55-39.93-101.93-81.25,52.5-72,111.37-68.37Z"/><path class="cls-37" d="M2939.72,1755.42c57,3.43,101.21,38.59,98.69,78.6s-50.79,69.61-107.78,66.18-101.21-38.57-98.69-78.55,50.78-69.64,107.78-66.23Z"/><path class="cls-38" d="M2937.9,1756.76c55.13,3.28,97.91,37.25,95.51,75.89s-49.09,67.32-104.19,64-97.94-37.23-95.51-75.9,49.07-67.29,104.19-64Z"/><path class="cls-39" d="M2936.08,1758.09c53.26,3.16,94.61,35.92,92.28,73.2s-47.4,65-100.61,61.89-94.6-35.92-92.28-73.22,47.36-65,100.61-61.87Z"/><path class="cls-40" d="M2934.27,1759.43c51.34,3,91.27,34.56,89.05,70.52s-45.67,62.7-97,59.7-91.24-34.56-89.05-70.52,45.66-62.68,97-59.7Z"/><path class="cls-41" d="M2932.45,1760.77c49.47,2.85,87.94,33.22,85.84,67.85s-43.94,60.35-93.44,57.52-87.94-33.24-85.84-67.85,44-60.37,93.44-57.52Z"/><path class="cls-42" d="M2930.63,1762.11c47.61,2.72,84.63,31.88,82.64,65.14s-42.25,58.06-89.86,55.36-84.63-31.86-82.64-65.15,42.26-58,89.86-55.35Z"/><path class="cls-43" d="M2928.81,1763.44c45.74,2.58,81.3,30.55,79.41,62.48s-40.54,55.73-86.25,53.15-81.32-30.51-79.43-62.47,40.54-55.73,86.27-53.16Z"/><path class="cls-44" d="M2927,1764.78c43.84,2.43,78,29.21,76.17,59.77s-38.79,53.44-82.66,51-78-29.2-76.2-59.79,38.84-53.41,82.69-51Z"/><path class="cls-45" d="M2925.18,1766.12c42,2.27,74.66,27.84,73,57.09s-37.1,51.12-79.08,48.85-74.69-27.84-73-57.12,37.1-51.12,79.08-48.82Z"/><path class="cls-46" d="M2923.36,1767.46c40.08,2.14,71.33,26.5,69.77,54.42s-35.42,48.79-75.5,46.64-71.38-26.5-69.79-54.42,35.39-48.79,75.52-46.64Z"/><path class="cls-47" d="M2921.49,1768.77c38.27,2,68.08,25.19,66.59,51.77s-33.7,46.44-71.94,44.45-68-25.14-66.53-51.72,33.72-46.47,71.88-44.5Z"/><path class="cls-48" d="M2919.68,1770.11c36.34,1.89,64.71,23.83,63.38,49.07s-32,44.17-68.33,42.3-64.72-23.8-63.33-49.07,32-44.17,68.28-42.3Z"/><path class="cls-49" d="M2917.86,1771.47c34.48,1.72,61.44,22.47,60.15,46.34s-30.27,41.85-64.72,40.16-61.41-22.49-60.15-46.37,30.29-41.84,64.72-40.13Z"/><path class="cls-50" d="M2916,1772.81c32.61,1.56,58.11,21.13,56.95,43.69s-28.58,39.5-61.19,37.94-58.05-21.13-56.89-43.67,28.6-39.58,61.13-38Z"/><path class="cls-51" d="M2914.23,1774.12c30.74,1.44,54.79,19.82,53.71,41s-26.86,37.2-57.55,35.79-54.77-19.81-53.71-41,26.88-37.2,57.55-35.79Z"/><path class="cls-52" d="M2912.41,1775.46c28.85,1.29,51.44,18.45,50.5,38.34s-25.16,34.88-54,33.6-51.44-18.46-50.48-38.32,25.17-34.91,54-33.62Z"/><path class="cls-53" d="M2910.59,1776.8c27,1.16,48.16,17.11,47.25,35.64s-23.4,32.58-50.38,31.42-48.11-17.06-47.25-35.64,23.45-32.56,50.38-31.42Z"/><path class="cls-54" d="M2908.77,1778.14c25.09,1,44.83,15.77,44.07,32.93s-21.75,30.29-46.79,29.28-44.81-15.77-44.05-32.94,21.73-30.28,46.77-29.27Z"/><path class="cls-55" d="M2907,1779.47c23.22.86,41.49,14.44,40.84,30.27s-20,28-43.22,27.1-41.47-14.41-40.81-30.26,20-28,43.19-27.11Z"/><path class="cls-56" d="M2905.14,1780.81c21.3.73,38.16,13.08,37.61,27.59s-18.33,25.67-39.61,24.94-38.16-13.1-37.6-27.62,18.3-25.64,39.6-24.91Z"/><path class="cls-57" d="M2903.32,1782.15c19.44.58,34.86,11.74,34.4,24.89s-16.6,23.34-36,22.76-34.83-11.73-34.38-24.91,16.59-23.35,36-22.74Z"/><path class="cls-58" d="M2901.5,1783.49c17.57.45,31.55,10.4,31.2,22.21s-14.89,21-32.46,20.57-31.55-10.37-31.17-22.21,14.87-21,32.43-20.57Z"/><path class="cls-59" d="M2899.69,1784.82c15.7.31,28.22,9.07,28,19.54s-13.17,18.7-28.85,18.38-28.24-9-28-19.52,13.15-18.72,28.85-18.4Z"/><path class="cls-60" d="M2897.87,1786.16c13.83.15,24.89,7.7,24.73,16.84s-11.45,16.4-25.29,16.25-24.88-7.72-24.71-16.86,11.49-16.41,25.27-16.23Z"/><path class="cls-61" d="M2896.05,1787.47c11.94,0,21.58,6.39,21.53,14.19s-9.77,14.08-21.68,14.06-21.61-6.39-21.56-14.19,9.8-14.08,21.71-14.06Z"/><path class="cls-62" d="M2894.23,1788.81c10.08-.1,18.28,5,18.33,11.49s-8.08,11.78-18.1,11.91-18.3-5-18.35-11.48,8.08-11.79,18.12-11.92Z"/><path class="cls-63" d="M2892.42,1790.17c8.18-.27,14.94,3.69,15.09,8.79s-6.33,9.46-14.54,9.72-14.91-3.69-15.09-8.81,6.38-9.44,14.54-9.7Z"/><path class="cls-19" d="M3619.65,1440.82c-35-26.78-99.42-29.1-130.19-25.54-58.26,6.76-33.87-33.15-6-39.08,52.63-11.13,114.65,9.22,148.19,41.09,26.48,25.22,29.68,55.48-12,23.53Z"/><path class="cls-9" d="M3550.47,1682.22c-65.1,18.78-107.76,81.58-95.24,140.21s75.57,90.92,140.67,72.11,107.75-81.6,95.21-140.23-75.57-90.89-140.64-72.09Z"/><path class="cls-23" d="M3552.06,1683.23c-63.66,18.38-105.36,79.76-93.14,137.08s73.9,88.9,137.56,70.52,105.35-79.73,93.09-137.08-73.86-88.87-137.51-70.52Z"/><path class="cls-24" d="M3553.7,1684.29c-62.22,17.92-103,77.87-91.07,133.93s72.19,86.85,134.41,68.93,103-77.89,91.06-133.93-72.18-86.88-134.4-68.93Z"/><path class="cls-25" d="M3555.31,1685.3c-60.8,17.52-100.68,76.08-89,130.77s70.5,84.86,131.28,67.37,100.69-76,89-130.77-70.5-84.86-131.28-67.37Z"/><path class="cls-26" d="M3556.9,1686.33c-59.36,17.07-98.28,74.21-86.88,127.65s68.81,82.84,128.13,65.75,98.33-74.18,86.95-127.59-68.83-82.84-128.2-65.81Z"/><path class="cls-27" d="M3558.54,1687.37c-57.92,16.63-95.94,72.36-84.83,124.46s67.11,80.85,125,64.21,95.94-72.36,84.81-124.46-67.09-80.84-125-64.21Z"/><path class="cls-28" d="M3560.16,1688.4c-56.51,16.21-93.57,70.53-82.77,121.34s65.43,78.8,121.92,62.59,93.59-70.49,82.79-121.3-65.45-78.8-121.94-62.63Z"/><path class="cls-29" d="M3561.75,1689.44c-55,15.75-91.2,68.68-80.67,118.15s63.76,76.81,118.78,61.06,91.25-68.66,80.72-118.18-63.76-76.81-118.83-61Z"/><path class="cls-30" d="M3563.39,1690.5c-53.64,15.32-88.87,66.79-78.62,115s62.06,74.78,115.7,59.46,88.87-66.83,78.62-115-62.06-74.79-115.7-59.44Z"/><path class="cls-31" d="M3565,1691.51c-52.2,14.89-86.52,65-76.58,111.84s60.38,72.79,112.57,57.9,86.53-65,76.58-111.86-60.37-72.8-112.57-57.88Z"/><path class="cls-32" d="M3566.65,1692.54c-50.79,14.47-84.16,63.16-74.51,108.72s58.65,70.75,109.46,56.28,84.16-63.12,74.49-108.71-58.69-70.75-109.44-56.29Z"/><path class="cls-33" d="M3568.26,1693.55c-49.37,14-81.78,61.31-72.44,105.56s57,68.78,106.36,54.75,81.78-61.31,72.39-105.58-57-68.73-106.31-54.73Z"/><path class="cls-34" d="M3569.88,1694.61c-47.91,13.58-79.46,59.45-70.37,102.41s55.32,66.73,103.23,53.13,79.43-59.45,70.35-102.4-55.31-66.77-103.21-53.14Z"/><path class="cls-35" d="M3571.49,1695.65c-46.47,13.15-77.06,57.6-68.27,99.24s53.63,64.72,100.1,51.55,77.06-57.6,68.28-99.25-53.64-64.72-100.11-51.54Z"/><path class="cls-36" d="M3573.11,1696.68c-45,12.72-74.69,55.73-66.21,96.09s51.92,62.7,97,50,74.71-55.76,66.2-96.09-51.94-62.72-97-50Z"/><path class="cls-37" d="M3574.75,1697.69c-43.62,12.3-72.37,53.92-64.16,93s50.25,60.71,93.87,48.39,72.34-53.91,64.13-92.94-50.25-60.7-93.84-48.41Z"/><path class="cls-38" d="M3576.34,1698.73c-42.15,11.86-70,52.09-62,89.8s48.53,58.69,90.71,46.8,70-52,62.07-89.78-48.56-58.69-90.74-46.82Z"/><path class="cls-39" d="M3578,1699.76c-40.74,11.44-67.67,50.23-60,86.65s46.85,56.67,87.61,45.24,67.62-50.23,60-86.63-46.9-56.69-87.61-45.26Z"/><path class="cls-40" d="M3579.59,1700.8c-39.32,11-65.27,48.38-57.92,83.52s45.18,54.65,84.45,43.64,65.27-48.39,58-83.52-45.18-54.62-84.48-43.64Z"/><path class="cls-41" d="M3581.18,1701.83c-37.86,10.55-62.9,46.55-55.83,80.34s43.49,52.66,81.38,42.11,62.9-46.55,55.86-80.37-43.49-52.65-81.41-42.08Z"/><path class="cls-42" d="M3582.83,1702.87c-36.45,10.12-60.56,44.67-53.79,77.21s41.8,50.61,78.24,40.48,60.58-44.67,53.82-77.21-41.85-50.6-78.27-40.48Z"/><path class="cls-43" d="M3584.44,1703.88c-35,9.69-58.18,42.86-51.72,74s40.14,48.62,75.12,38.92,58.2-42.85,51.74-74-40.13-48.62-75.14-38.92Z"/><path class="cls-44" d="M3586,1704.91c-33.54,9.27-55.83,41-49.62,70.93s38.44,46.59,72,37.3,55.84-41,49.63-70.9-38.42-46.59-72-37.33Z"/><path class="cls-45" d="M3587.67,1706c-32.13,8.83-53.46,39.17-47.58,67.74s36.75,44.6,68.91,35.74,53.46-39.14,47.58-67.72-36.75-44.6-68.91-35.76Z"/><path class="cls-46" d="M3589.31,1707c-30.74,8.41-51.14,37.33-45.51,64.62s35.06,42.55,65.76,34.15,51.13-37.31,45.53-64.59-35.09-42.58-65.78-34.18Z"/><path class="cls-47" d="M3590.93,1708c-29.31,8-48.74,35.48-43.44,61.46s33.37,40.53,62.67,32.58,48.74-35.46,43.44-61.43-33.39-40.56-62.67-32.61Z"/><path class="cls-48" d="M3592.54,1709.05c-27.86,7.52-46.39,33.62-41.37,58.31s31.71,38.54,59.55,31,46.39-33.62,41.34-58.28-31.68-38.57-59.52-31Z"/><path class="cls-49" d="M3594.16,1710.06c-26.43,7.12-44,31.8-39.3,55.18s30,36.52,56.44,29.43,44-31.81,39.3-55.15-30-36.53-56.44-29.46Z"/><path class="cls-50" d="M3595.77,1711.1c-25,6.68-41.67,29.93-37.23,52s28.32,34.5,53.31,27.84,41.67-30,37.23-52-28.32-34.53-53.31-27.86Z"/><path class="cls-51" d="M3597.39,1712.16c-23.58,6.21-39.33,28.09-35.16,48.84s26.65,32.48,50.2,26.27,39.3-28.12,35.16-48.86-26.63-32.49-50.2-26.25Z"/><path class="cls-52" d="M3599,1713.17c-22.11,5.8-36.95,26.27-33.06,45.71s24.94,30.49,47,24.71,37-26.28,33.06-45.74-24.93-30.46-47.05-24.68Z"/><path class="cls-53" d="M3600.62,1714.2c-20.7,5.38-34.58,24.41-31,42.56s23.28,28.47,44,23.12,34.58-24.44,31-42.56-23.27-28.47-44-23.12Z"/><path class="cls-54" d="M3602.24,1715.26c-19.29,4.92-32.21,22.54-28.93,39.38s21.58,26.47,40.84,21.53,32.21-22.57,28.92-39.4-21.58-26.46-40.83-21.51Z"/><path class="cls-55" d="M3603.88,1716.27C3586,1720.79,3574,1737,3577,1752.52s19.89,24.45,37.71,19.94,29.89-20.73,26.89-36.22-19.92-24.46-37.71-20Z"/><path class="cls-56" d="M3605.47,1717.31c-16.41,4.08-27.49,18.88-24.79,33.11s18.17,22.41,34.6,18.33,27.52-18.86,24.82-33.07-18.23-22.41-34.63-18.37Z"/><path class="cls-57" d="M3607.11,1718.37c-15,3.63-25.14,17-22.75,29.91s16.51,20.42,31.51,16.78,25.13-17,22.71-29.94-16.51-20.39-31.47-16.75Z"/><path class="cls-58" d="M3608.72,1719.37c-13.55,3.24-22.79,15.2-20.64,26.81s14.81,18.38,28.34,15.2,22.79-15.2,20.67-26.79-14.84-18.42-28.37-15.22Z"/><path class="cls-59" d="M3610.31,1720.38c-12.06,2.81-20.39,13.36-18.55,23.65s13.1,16.41,25.22,13.66,20.44-13.35,18.6-23.65-13.15-16.38-25.27-13.66Z"/><path class="cls-60" d="M3612,1721.42c-10.67,2.35-18.09,11.51-16.5,20.52s11.45,14.39,22.08,12,18.07-11.51,16.56-20.47-11.46-14.41-22.14-12.09Z"/><path class="cls-61" d="M3613.57,1722.48c-9.27,1.89-15.7,9.67-14.44,17.31s9.77,12.4,19,10.48,15.7-9.64,14.43-17.34-9.76-12.34-19-10.45Z"/><path class="cls-62" d="M3615.16,1723.51c-7.78,1.47-13.33,7.8-12.34,14.19s8,10.35,15.87,8.88,13.33-7.82,12.4-14.18-8.11-10.38-15.93-8.89Z"/><path class="cls-63" d="M3616.82,1724.52c-6.38,1.06-11,6-10.32,11.06s6.41,8.33,12.75,7.29,11-5.95,10.3-11-6.37-8.33-12.73-7.32Z"/><path class="cls-9" d="M1441.26,2386.61s-112.6,71.84-194.36,215.81-139.76,383.68-139.76,383.68S1001,3074.19,973.09,3120.21c-19.41,32-11.79,51.34,11.64,30,9.94-9,29.66-35.49,43.61-44.9-10.65,14.36-59,83.29-39.88,96.47s24.84-21.86,75.88-72.34c-27.67,38.72-58.51,89.38-41.5,104.32s53.56-65.3,70.78-81.07c-12.17,24.4-35.29,87.73-10.56,90.79s41.93-61.77,59.12-79.64l51.89-48.56c4.42,5.55,11.82,52.12,18.58,58.36,6.56,6.05,16.86,5.35,26.2-19,14.94-40.11-8.63-111.36-8.63-111.36,42.23-238.37,124.84-348.65,300.82-476.12,29.73-21.53,73.4-93.54,37.71-149.8s-90.32-58.68-127.49-30.77Z"/><path class="cls-7" d="M1441.26,2386.61s-112.6,71.84-194.36,215.81c89-28.52,147,35.44,166,62.22,33.8-33,72.89-64.67,118.18-97.46,29.7-21.5,73.4-93.54,37.71-149.8s-90.32-58.68-127.49-30.77Z"/><path class="cls-3" d="M1331.74,2448.05c42.83,69,120.29,138.82,196.75,166.86l-39.43,43.67c-93.57-29.86-165.12-97.81-196.22-162.68,10.85-14.89,25.62-32.61,38.9-47.85Z"/><path class="cls-2" d="M1517.71,2610.24c119-71.5,200.66-242.61,73.35-285.34-11.41-3.79-10.25-12.55-25-11.08-64.41,6.36-169.52,67-234.28,134.23,20,81,111,138.87,186,162.19Z"/><path class="cls-17" d="M1497.92,2320.91c46,227.09,40.23,334.11-47.6,519.1,15.19,22.59,21.22,27,68.68,31.6,104-136.73,156.06-443.4,97.15-595.6l-118.23,44.9Z"/><path class="cls-3" d="M1707.24,2272.1s36.58,41.72,111.84,33.84,109.37-53,109.37-53c33.65-23.47,86.15-13.85,114.11,12.5,5.76,5.45,5.91,9.39-.78,20.09-13.3,21.28-33.85,56.79-85.29,68.5-71.53,16.28-102.55-54.8-97.8-56.44l-18.76,6.44s-35.54,66.89-112.32,76-131.28-78.22-130.9-87.91c-.93-14.18,62.57-53.69,110.53-20.06Z"/><path class="cls-67" d="M1286.71,1783.41c25.24,15.52,68.3,39,78.39,38.27,5.91-.43-7.39,2.09-7,6.63s-4,8.61-9.95,9c-7,.53-42.48-16.63-72.09-36.19l10.66-17.72Z"/><path class="cls-67" d="M1308,1958.15c32.21,46.57,87.58,130.24,175.8,152.15,5.58,1.37,8.58,6.06,6.66,10.43s-8,6.79-13.6,5.4c-61.59-15.2-134.1-63.08-192.84-166.16,6.51,1.39,14.14-.63,24-1.82Z"/><path class="cls-68" d="M1345.16,1811.43c11.16,89.07,24.77,189.81,36.45,281.58,53,39.25,161,104.4,315.21,123.86,294.25,29.93,642.42-88.87,622.33-439.57-173.43,40.94-285.29,4.19-393.6,7.73-142.59,4.67-284.06,101.26-580.39,26.4Z"/><path class="cls-69" d="M1345.16,1811.43c11.16,89.07,24.77,189.81,36.45,281.58a604,604,0,0,0,50.89,33.75c-6.67-123.68-41.6-254-58.21-309.91-9.54-1.79-19.23-3.63-29.13-5.42Z"/><path class="cls-70" d="M1683.06,2215c141.37,16.58,290.17,5,413.77-58.18q6.74-4.17,13.58-8.56c-22.79-99-68.17-293.65-206.9-284-134.35,9.36-284.94,273-316.92,329.56a699,699,0,0,0,96.47,21.16Z"/><path class="cls-71" d="M2686.15,1702.46c25.24,15.12,68.33,37.89,78.4,37,5.9-.48-7.4,2.2-7,6.77s-4.07,8.65-10,9.16c-7,.63-42.48-15.95-72.09-35l10.65-17.87Z"/><path class="cls-71" d="M2732.74,1888.51c32.21,46,87.59,128.81,175.81,149.33,5.57,1.28,8.58,5.9,6.66,10.29s-8,6.92-13.61,5.63c-61.56-14.21-134.1-61-192.83-163.05,6.51,1.29,14.13-.88,24-2.2Z"/><path class="cls-72" d="M2744.61,1729.5c11.15,88.89,24.73,189.43,36.45,281,53,38.42,161,101.8,315.2,118.78,294.28,25.24,642.43-99.19,622.33-449.58-173.42,43.71-285.32,8.81-393.6,14.08-142.58,7-284.06,105.83-580.38,35.72Z"/><path class="cls-73" d="M2744.61,1729.5c11.15,88.89,24.73,189.43,36.45,281a597.49,597.49,0,0,0,50.88,33c-6.66-123.58-41.6-253.32-58.2-309q-14.28-2.49-29.13-5Z"/><path class="cls-74" d="M3082.5,2127.64c141.38,14.29,290.2.28,413.77-64.87,4.5-2.82,9-5.78,13.61-8.78-22.82-98.59-68.2-292.56-206.92-280.65C3168.6,1784.87,3018,2051,2986,2108a693,693,0,0,0,96.47,19.61Z"/><path class="cls-75" d="M2708.51,1684.62c49.27-7.27,64.24-122.44,19.19-168.1,0,0,21.35-15.12,30.64-38.65s-19.13-66.41-19.13-66.41,12.62,14,39,13.61a40.2,40.2,0,0,0,35.87-22.11c47.23,17.46,133.7-43.32,104.09-84.84,0,0,19.59,7.73,37.71-1.43s11.66-38.85,11.66-38.85c12.22,52.12,145.21,43.89,171.74-47.33,0,0-8.28,34.79,32.11,42.56s64.36-20.8,64.36-20.8c-1.21,78,141.2,93.59,198.52-.53,0,0-7.27,46,30.92,50.23s79.71-39.2,79.71-39.2-14.59,48.56,21.35,70,71.48-1.52,71.48-1.52c13.41,44.73,29.64,86.3,45.64,150.06,48.92-21.25,91.4-75.6,45.86-123.2,42.41-72.82,13.56-216-45.48-215.35,7.14-42.46-18.3-96.52-65.65-79.31,46.14-60.75-63-187-202.51-108.84,8.1-68.83-74.69-119.11-136.88-29.53,5.25-47.86-48.74-65.83-79.53-44-51.11-77.82-208.36-2.09-212,62.22,0,0-26.15-39.28-76.68-32.94s-61,58.33-61,58.33-25.55-11-47.25.41-26.86,38.29-26.86,38.29c-137.84-50.21-203.94,75.57-195.51,142.1,0,0-44.28-9.34-72.24,38.52s-2.07,83.39-2.07,83.39c-90.46,26.1-103.51,107.45-59.67,181.16-41.19,30.46-27.21,97.85,20.6,83.29-60,38.24-14.19,167,61.58,140.19-80.59,149.72,226.21,156.39,180.42,8.63Z"/><path class="cls-76" d="M3684.92,1131.19c1.32-40-23.67-83.44-66.78-67.77,16.63-21.88,13.1-52.25-4.75-78.52-188.5,164.64-902.2,14-1191.11,400.21,2,19.06,8.33,38.9,18.61,58.36,63.78-66.71,153.76-160.78,308.21-206.44,233.45-68.94,717.74-9.7,935.82-105.84Z"/></svg>