<svg xmlns="http://www.w3.org/2000/svg" viewBox="0 0 2599 1733"><defs><style>.cls-1{isolation:isolate;}.cls-2{fill:#0070ba;}.cls-3{fill:#fff;}.cls-4{fill:#60c4de;}.cls-5{fill:#ededed;}.cls-6{fill:#d4d4d4;}.cls-7{fill:#00ae9d;}.cls-11,.cls-32,.cls-48,.cls-51,.cls-8{fill:none;}.cls-8{stroke:#00978a;}.cls-11,.cls-8{stroke-miterlimit:10;stroke-width:5.85px;}.cls-9{fill:#00978a;}.cls-10{fill:#67bea8;}.cls-11{stroke:#00a08e;}.cls-12{fill:#00a08e;}.cls-13{fill:#50b9a7;}.cls-14{fill:#de8148;}.cls-15{fill:#f6a654;}.cls-16{fill:#f8af5a;}.cls-17{fill:#f9bb8d;}.cls-18{fill:#331b19;}.cls-19{fill:#c2c2c2;}.cls-20,.cls-29{fill:#dadada;}.cls-21{fill:#dda87e;}.cls-22{fill:#ebe1db;}.cls-22,.cls-23,.cls-27,.cls-29,.cls-37,.cls-41,.cls-43{mix-blend-mode:multiply;}.cls-23{fill:#f4f1f2;}.cls-24{fill:#e2a079;}.cls-25{fill:#d48f6c;}.cls-26{fill:#f5a58e;}.cls-27,.cls-44{fill:#ebdcd8;}.cls-28{fill:#a2816c;}.cls-30{fill:#5b2c0b;}.cls-31{fill:#f8f7f7;}.cls-32,.cls-51{stroke:#c6c6c6;stroke-linecap:round;stroke-linejoin:round;}.cls-32{stroke-width:0.79px;stroke-dasharray:5.2 10.39;}.cls-33{fill:#e4f4fe;}.cls-34{fill:#c3e6fa;}.cls-35{fill:#dae8ef;}.cls-36{fill:#242b2d;}.cls-37{fill:#c8c8c8;}.cls-38{fill:#a1d2d9;}.cls-39{fill:#b22930;}.cls-40{fill:#e4ad82;}.cls-41{fill:#e3e3e3;}.cls-42{fill:#dfa372;}.cls-45{opacity:0.3;}.cls-46{fill:#ebebeb;}.cls-47{fill:#61b9d9;}.cls-49{fill:#cc2d39;}.cls-50{fill:#d12833;}.cls-51{stroke-width:0.79px;stroke-dasharray:5.29 10.58;}.cls-52{fill:#fcddce;}.cls-53{fill:#6e3438;}.cls-54{fill:#b7e2fa;}.cls-55{fill:#f9c5af;}.cls-56{fill:#5b2b2d;}.cls-57{mix-blend-mode:soft-light;}</style></defs><g class="cls-1"><g id="Capa_1" data-name="Capa 1"><rect class="cls-2" x="0.01" width="2598.07" height="1732.04"/><rect class="cls-3" x="168.56" y="188.29" width="657.79" height="844.83"/><rect class="cls-4" x="203.46" y="216.86" width="588.02" height="787.67"/><rect class="cls-3" x="188.29" y="392.06" width="621.62" height="39.57"/><rect class="cls-3" x="188.29" y="280.27" width="621.62" height="39.57"/><rect class="cls-3" x="474.06" y="188.28" width="50.1" height="223.56"/><path class="cls-3" d="M313.28,891.29s5.58-6.88,15.55-18.72,24.19-28.79,41.59-48.82,37.73-43.36,59.78-68.12l34.09-38.09c11.69-12.89,23.56-26,35.43-39.1l35.73-38.83,34.83-37.41c22.66-24.2,44-46.63,62.43-65.71s34-34.74,44.85-45.83,17.24-17.19,17.24-17.19-5.58,6.88-15.55,18.72S655.07,521,637.66,541s-37.72,43.37-59.78,68.12l-34.09,38.08-35.44,39.1-35.73,38.83-34.84,37.4c-22.66,24.2-44,46.63-62.42,65.71S341.31,863,330.5,874.1,313.28,891.29,313.28,891.29Z"/><path class="cls-3" d="M454.7,845.54s3.16-4.4,8.9-11.92,13.9-18.28,24-30.91,22-27.31,35-42.82c6.53-7.71,13.16-15.8,20.12-23.81l21-24.39,21.31-24.11c7-8,14.12-15.64,20.88-23.16,13.6-15,26.49-28.78,37.69-40.47s20.8-21.21,27.38-28,10.61-10.42,10.61-10.42-3.15,4.4-8.89,11.92-13.89,18.29-24,30.91-22,27.31-35,42.82C607.18,678.9,600.57,687,593.59,695l-21,24.38-21.31,24.11c-7,8-14.12,15.64-20.88,23.16-13.61,15-26.5,28.77-37.7,40.46s-20.79,21.22-27.37,28S454.7,845.54,454.7,845.54Z"/><rect class="cls-3" x="791.47" y="188.29" width="657.79" height="844.83"/><rect class="cls-4" x="826.36" y="216.86" width="588.02" height="787.67"/><rect class="cls-3" x="811.2" y="392.06" width="621.62" height="39.57"/><rect class="cls-3" x="811.2" y="280.27" width="621.62" height="39.57"/><rect class="cls-3" x="1096.96" y="188.28" width="50.1" height="223.56"/><path class="cls-3" d="M936.18,891.29s5.59-6.88,15.56-18.72,24.19-28.79,41.59-48.82,37.73-43.36,59.78-68.12c11.05-12.36,22.48-25.12,34.09-38.09l35.43-39.1,35.73-38.83,34.83-37.41c22.65-24.2,44-46.63,62.42-65.71s34.06-34.74,44.86-45.83,17.24-17.19,17.24-17.19-5.58,6.88-15.56,18.72S1278,521,1260.57,541s-37.73,43.37-59.78,68.12l-34.1,38.08c-11.68,12.9-23.56,26-35.43,39.1l-35.73,38.83-34.84,37.4c-22.66,24.2-44,46.63-62.43,65.71s-34,34.75-44.85,45.84S936.18,891.29,936.18,891.29Z"/><path class="cls-3" d="M1077.61,845.54s3.16-4.4,8.9-11.92,13.9-18.28,24-30.91,22-27.31,35-42.82c6.54-7.71,13.16-15.8,20.13-23.81s14-16.22,21-24.39L1208,687.58c7-8,14.11-15.64,20.87-23.16,13.61-15,26.49-28.78,37.7-40.47s20.8-21.21,27.38-28,10.61-10.42,10.61-10.42-3.16,4.4-8.9,11.92-13.89,18.29-24,30.91-22,27.31-35,42.82c-6.53,7.71-13.14,15.81-20.12,23.81l-21,24.38-21.32,24.11c-7,8-14.11,15.64-20.88,23.16-13.61,15-26.49,28.77-37.69,40.46s-20.79,21.22-27.38,28S1077.61,845.54,1077.61,845.54Z"/><rect class="cls-5" x="0.01" y="1368.48" width="2598.07" height="363.57"/><path class="cls-6" d="M2396.48,1525c0,18.17-83.23,32.9-185.91,32.9s-185.89-14.73-185.89-32.9,83.23-32.91,185.89-32.91S2396.48,1506.78,2396.48,1525Z"/><path class="cls-7" d="M2283.09,1121.36c-.2,108.51-42.9,152.18-73.14,152.18s-68.77-70.12-73.13-152.18c-5.85-110.14,50.71-232,73.13-232S2283.28,1020,2283.09,1121.36Z"/><line class="cls-8" x1="2209.75" y1="897.12" x2="2209.75" y2="1285.25"/><polygon class="cls-9" points="2207.44 1256.15 2260.23 1193.03 2212.05 1259.74 2207.44 1256.15"/><polygon class="cls-9" points="2207.44 1185.06 2270.41 1108.84 2212.05 1188.65 2207.44 1185.06"/><polygon class="cls-9" points="2207.44 1113.98 2265.02 1044.68 2212.05 1117.57 2207.44 1113.98"/><polygon class="cls-9" points="2207.44 1042.89 2250.2 992.68 2212.05 1046.48 2207.44 1042.89"/><polygon class="cls-9" points="2207.44 971.81 2234.52 941.75 2212.05 975.4 2207.44 971.81"/><polygon class="cls-9" points="2207.44 1259.74 2159.26 1193.03 2212.05 1256.15 2207.44 1259.74"/><polygon class="cls-9" points="2207.44 1188.65 2149.07 1108.84 2212.05 1185.06 2207.44 1188.65"/><polygon class="cls-9" points="2207.44 1117.57 2154.46 1044.68 2212.05 1113.98 2207.44 1117.57"/><polygon class="cls-9" points="2207.44 1046.48 2169.3 992.68 2212.05 1042.89 2207.44 1046.48"/><polygon class="cls-9" points="2207.44 975.4 2184.97 941.75 2212.05 971.81 2207.44 975.4"/><path class="cls-10" d="M2166.89,1110.48c65.67,86.37,58.24,147,34.21,165.33s-97.23-14-150.48-76.58c-71.49-84-100.49-215.22-82.66-228.82S2105.54,1029.78,2166.89,1110.48Z"/><line class="cls-11" x1="1972.52" y1="976.73" x2="2208.02" y2="1285.25"/><polygon class="cls-12" points="2188.54 1263.52 2192.2 1181.31 2194.39 1263.57 2188.54 1263.52"/><polygon class="cls-12" points="2145.4 1207.01 2149.22 1108.21 2151.25 1207.06 2145.4 1207.01"/><polygon class="cls-12" points="2102.27 1150.51 2106 1060.49 2108.12 1150.56 2102.27 1150.51"/><polygon class="cls-12" points="2059.14 1094 2062.66 1028.15 2064.99 1094.06 2059.14 1094"/><polygon class="cls-12" points="2016.01 1037.49 2019.3 997.17 2021.86 1037.55 2016.01 1037.49"/><polygon class="cls-12" points="2190.72 1266.37 2111.95 1242.58 2192.21 1260.71 2190.72 1266.37"/><polygon class="cls-12" points="2147.58 1209.87 2052.76 1181.84 2149.07 1204.21 2147.58 1209.87"/><polygon class="cls-12" points="2104.45 1153.37 2018.12 1127.57 2105.94 1147.71 2104.45 1153.37"/><polygon class="cls-12" points="2061.32 1096.86 1998.35 1077.23 2062.81 1091.2 2061.32 1096.86"/><polygon class="cls-12" points="2018.19 1040.35 1979.91 1027.24 2019.68 1034.69 2018.19 1040.35"/><path class="cls-13" d="M2248.88,1110.48c-65.68,86.37-58.25,147-34.21,165.33s97.22-14,150.47-76.58c71.49-84,100.49-215.22,82.67-228.82S2310.23,1029.78,2248.88,1110.48Z"/><line class="cls-11" x1="2443.24" y1="976.73" x2="2207.74" y2="1285.25"/><polygon class="cls-12" points="2221.37 1263.57 2223.57 1181.31 2227.22 1263.52 2221.37 1263.57"/><polygon class="cls-12" points="2264.51 1207.06 2266.55 1108.21 2270.36 1207.01 2264.51 1207.06"/><polygon class="cls-12" points="2307.64 1150.56 2309.76 1060.49 2313.49 1150.51 2307.64 1150.56"/><polygon class="cls-12" points="2350.79 1094.06 2353.11 1028.15 2356.64 1094 2350.79 1094.06"/><polygon class="cls-12" points="2393.9 1037.55 2396.48 997.17 2399.75 1037.49 2393.9 1037.55"/><polygon class="cls-12" points="2223.55 1260.71 2303.83 1242.58 2225.04 1266.37 2223.55 1260.71"/><polygon class="cls-12" points="2266.69 1204.21 2363 1181.84 2268.18 1209.87 2266.69 1204.21"/><polygon class="cls-12" points="2309.82 1147.71 2397.64 1127.57 2311.31 1153.37 2309.82 1147.71"/><polygon class="cls-12" points="2352.97 1091.2 2417.41 1077.23 2354.46 1096.86 2352.97 1091.2"/><polygon class="cls-12" points="2396.08 1034.69 2435.85 1027.24 2397.57 1040.35 2396.08 1034.69"/><rect class="cls-14" x="2130.71" y="1501.12" width="154.34" height="31.1"/><polygon class="cls-15" points="2291.37 1516.1 2122.09 1516.1 2070.82 1246.57 2342.64 1246.57 2291.37 1516.1"/><rect class="cls-16" x="2061.6" y="1239.66" width="289.1" height="63.35"/><path class="cls-6" d="M547.38,1525c0,18.17-83.23,32.9-185.9,32.9s-185.9-14.73-185.9-32.9,83.23-32.91,185.9-32.91S547.38,1506.78,547.38,1525Z"/><path class="cls-7" d="M434,1121.36c-.2,108.51-42.89,152.18-73.13,152.18s-68.78-70.12-73.13-152.18c-5.86-110.14,50.7-232,73.13-232S434.18,1020,434,1121.36Z"/><line class="cls-8" x1="360.65" y1="897.12" x2="360.65" y2="1285.25"/><polygon class="cls-9" points="358.34 1256.15 411.13 1193.03 362.96 1259.74 358.34 1256.15"/><polygon class="cls-9" points="358.34 1185.06 421.32 1108.84 362.96 1188.65 358.34 1185.06"/><polygon class="cls-9" points="358.34 1113.98 415.93 1044.68 362.96 1117.57 358.34 1113.98"/><polygon class="cls-9" points="358.34 1042.89 401.1 992.68 362.96 1046.48 358.34 1042.89"/><polygon class="cls-9" points="358.34 971.81 385.42 941.75 362.96 975.4 358.34 971.81"/><polygon class="cls-9" points="358.34 1259.74 310.17 1193.03 362.96 1256.15 358.34 1259.74"/><polygon class="cls-9" points="358.34 1188.65 299.98 1108.84 362.96 1185.06 358.34 1188.65"/><polygon class="cls-9" points="358.34 1117.57 305.37 1044.68 362.96 1113.98 358.34 1117.57"/><polygon class="cls-9" points="358.34 1046.48 320.2 992.68 362.96 1042.89 358.34 1046.48"/><polygon class="cls-9" points="358.34 975.4 335.88 941.75 362.96 971.81 358.34 975.4"/><path class="cls-10" d="M317.79,1110.48c65.68,86.37,58.24,147,34.21,165.33s-97.22-14-150.48-76.58C130,1115.23,101,984,118.86,970.41S256.44,1029.78,317.79,1110.48Z"/><line class="cls-11" x1="123.42" y1="976.73" x2="358.93" y2="1285.25"/><polygon class="cls-12" points="339.44 1263.52 343.1 1181.31 345.3 1263.57 339.44 1263.52"/><polygon class="cls-12" points="296.31 1207.01 300.12 1108.21 302.16 1207.06 296.31 1207.01"/><polygon class="cls-12" points="253.17 1150.51 256.9 1060.49 259.02 1150.56 253.17 1150.51"/><polygon class="cls-12" points="210.04 1094 213.56 1028.15 215.89 1094.06 210.04 1094"/><polygon class="cls-12" points="166.91 1037.49 170.2 997.17 172.76 1037.55 166.91 1037.49"/><polygon class="cls-12" points="341.63 1266.37 262.85 1242.58 343.12 1260.71 341.63 1266.37"/><polygon class="cls-12" points="298.49 1209.87 203.67 1181.84 299.98 1204.21 298.49 1209.87"/><polygon class="cls-12" points="255.35 1153.37 169.03 1127.57 256.85 1147.71 255.35 1153.37"/><polygon class="cls-12" points="212.22 1096.86 149.26 1077.23 213.71 1091.2 212.22 1096.86"/><polygon class="cls-12" points="169.09 1040.35 130.81 1027.24 170.58 1034.69 169.09 1040.35"/><path class="cls-13" d="M399.78,1110.48c-65.68,86.37-58.24,147-34.2,165.33s97.21-14,150.47-76.58c71.48-84,100.49-215.22,82.67-228.82S461.14,1029.78,399.78,1110.48Z"/><line class="cls-11" x1="594.15" y1="976.73" x2="358.64" y2="1285.25"/><polygon class="cls-12" points="372.28 1263.57 374.47 1181.31 378.13 1263.52 372.28 1263.57"/><polygon class="cls-12" points="415.41 1207.06 417.45 1108.21 421.26 1207.01 415.41 1207.06"/><polygon class="cls-12" points="458.55 1150.56 460.66 1060.49 464.4 1150.51 458.55 1150.56"/><polygon class="cls-12" points="501.69 1094.06 504.02 1028.15 507.54 1094 501.69 1094.06"/><polygon class="cls-12" points="544.81 1037.55 547.38 997.17 550.66 1037.49 544.81 1037.55"/><polygon class="cls-12" points="374.45 1260.71 454.73 1242.58 375.95 1266.37 374.45 1260.71"/><polygon class="cls-12" points="417.59 1204.21 513.91 1181.84 419.08 1209.87 417.59 1204.21"/><polygon class="cls-12" points="460.73 1147.71 548.55 1127.57 462.22 1153.37 460.73 1147.71"/><polygon class="cls-12" points="503.87 1091.2 568.32 1077.23 505.36 1096.86 503.87 1091.2"/><polygon class="cls-12" points="546.99 1034.69 586.76 1027.24 548.48 1040.35 546.99 1034.69"/><rect class="cls-14" x="281.62" y="1501.12" width="154.34" height="31.1"/><polygon class="cls-15" points="442.27 1516.1 272.99 1516.1 221.72 1246.57 493.54 1246.57 442.27 1516.1"/><rect class="cls-16" x="212.51" y="1239.66" width="289.1" height="63.35"/><path class="cls-17" d="M1585.75,1732c6.75-97.77,11.89-178.13,11.89-196.07,0-66.65-21-121.16-60-121.16s-70.62,54-70.62,120.67c0,17.52,1.91,98.27,4.42,196.56Z"/><path class="cls-18" d="M1596.8,1732c9.54-123.06,17.08-236.18,17.08-236.18H1627l-5.08-317.06s-103.2,14-138.85-4.81c-40.71,113.42-41.4,357.76-33.48,558.05Z"/><path class="cls-17" d="M1767.84,1732c2.51-98.29,4.42-179,4.42-196.56,0-66.65-31.62-120.67-70.63-120.67s-60,54.51-60,121.16c0,17.94,5.14,98.3,11.89,196.07Z"/><path class="cls-18" d="M1642.51,1732h147.25c7.92-200.29,7.22-444.63-33.49-558-35.65,18.85-138.85,4.81-138.85,4.81l-5.08,317.06h13.09S1633,1609,1642.51,1732Z"/><path class="cls-17" d="M1744.83,965.51c6.52,23.59,50,321.18,50,321.18l35.86-14.8s-54-327.72-56.71-354-28.08-72-49.87-80.88S1736.3,934.65,1744.83,965.51Z"/><path class="cls-19" d="M1685.1,395.7c0,30.06-38.66,54.43-86.34,54.43s-86.35-24.37-86.35-54.43,38.65-54.43,86.35-54.43S1685.1,365.63,1685.1,395.7Z"/><path class="cls-20" d="M1558.05,706.78c0,35.51,44.66,84.15,19.66,84.15-103.26-5.3-134.22-123.86-139.49-161.27s49.54,12.81,74.55,12.81S1558.05,671.26,1558.05,706.78Z"/><path class="cls-20" d="M1660.47,706.78c0,35.51-44.66,84.15-19.65,84.15,103.25-5.3,134.83-123.86,140.1-161.27s-50.16,12.81-75.17,12.81S1660.47,671.26,1660.47,706.78Z"/><path class="cls-21" d="M1682.75,825.19s-9.69,77-66.55,77c-59,0-66.55-77-66.55-77s22-2.16,28.25-15,5.22-39.1,5.22-39.1h59.52s-1.76,23.46,5.65,36.69S1682.75,825.19,1682.75,825.19Z"/><path class="cls-17" d="M1786.8,610.38c.22-26.22-17-43.53-34.13-30.2C1753.15,481.09,1738,409,1600.57,409c-113.65,0-127.77,69.36-129.51,175-18.53-20-39.26-1.79-39,30.94.15,20.94,9.17,49.25,40.84,49.25.19,0,.37,0,.55,0,15.8,85.57,98.92,134.11,134.26,134.11,39.27,0,131.75-57.92,142.41-134.3C1779,661.69,1786.62,630.55,1786.8,610.38Z"/><path class="cls-22" d="M1481.85,661.66s-43.76-11.32-46.55-67.75a61.53,61.53,0,0,0-3.26,21c.15,20.94,9.17,49.25,40.84,49.25.19,0,.37,0,.55,0,15.8,85.57,98.92,134.11,134.26,134.11C1506.51,764.89,1481.85,661.66,1481.85,661.66Z"/><path class="cls-23" d="M1600.57,409c-112.38,0-127.43,67.83-129.44,171.46a64.48,64.48,0,0,1,3.45,13.17c4.38,6.32,5.86,11.64,6,19.22,2.41,3.06,4.62,6,6.89,9.22,2.77,3.92,4.71,3.18,6.06.61-5.21-33.86,2-72,26.36-91,19.28-15,41.35-3.31,87.76-1.41s69.48-24.8,83.7-2.39,32.9,83.44,33.48,94.36c.38,2.46.73,4.91,1,7.34,3.48-9.87,4.23-22.07,8.83-30.33,4.76-8.54,10.53-15.77,18-21.34C1752.91,480,1736.94,409,1600.57,409Z"/><path class="cls-24" d="M1649.42,699.47c-1.53,1.47-14.65,6.65-41.85,6.7-15.4,0-32.79-4.51-39.38-6.76,0,0,29.86-4.55,33.06-4.42,4.87.21,7.64,5,7.64,5s6.28-4.44,9.76-4.3C1620.85,695.82,1649.42,699.47,1649.42,699.47Z"/><path class="cls-25" d="M1649.42,699.47c-3.7,6-18.09,21.29-41.53,21.34s-36.08-15.17-39.7-21.4a151.44,151.44,0,0,0,41.27,6.15C1638.53,705.5,1649.42,699.47,1649.42,699.47Z"/><path class="cls-26" d="M1704.7,639.18c0,5.28-10.84,9.56-24.22,9.56s-24.22-4.28-24.22-9.56,10.85-9.56,24.22-9.56S1704.7,633.9,1704.7,639.18Z"/><path class="cls-26" d="M1514.13,639.18c0,5.28,10.85,9.56,24.23,9.56s24.22-4.28,24.22-9.56-10.85-9.56-24.22-9.56S1514.13,633.9,1514.13,639.18Z"/><path class="cls-27" d="M1631.51,650.34s-2.38,11.32-23,11.32c-20.38,0-23-11.32-23-11.32s6.14,5.66,23,5.66C1624.4,656,1631.51,650.34,1631.51,650.34Z"/><path class="cls-20" d="M1563.06,575.35c-1.43,2.22-12.22-4.61-24.45-3.29-22.15,2.4-31.26,11.13-31.26,11.13s12.55-16.72,27.27-19.16c15.24-2.53,26.23-.48,29,2.06S1564.49,573.13,1563.06,575.35Z"/><path class="cls-20" d="M1658.23,575.35c1.43,2.22,12.23-4.61,24.45-3.29,22.15,2.4,31.26,11.13,31.26,11.13s-12.55-16.72-27.27-19.16c-15.24-2.53-26.23-.48-29,2.06S1656.8,573.13,1658.23,575.35Z"/><path class="cls-20" d="M1729.34,451.33c-46.59-68.23-183.24-79.37-249.79-5.43C1432.66,498,1440,584.7,1440,584.7s18.18-15.37,31.1-.7c-1.2,30.19,16.38,38.1,16.38,38.1s-11.94-35.87,7.12-79.87c25.3-58.45,47.07-22.59,106.34-22.88s88.42-53.91,118.77,31.18c11.68,32.75,3.34,91.94,3.34,91.94l13.67-38.9c6.84-17.75,23.62-30.4,39.13-23.48C1772,534.87,1754.81,488.63,1729.34,451.33Z"/><path class="cls-17" d="M1371.78,1309c1-14.92,37.12-57.89,48.54-53.61,9.5,3.57,11.55,47.28,4.68,65.17-4.44.79-9.72,7.16-12.46,10.2S1370.85,1323.89,1371.78,1309Z"/><path class="cls-17" d="M1385.33,1365.68c4.21-9.61,10.51-24.85,14.93-38.54a32.35,32.35,0,0,1-8.53-5.15c-6.36,11.92-12.71,27.69-16.6,37.15-5.64,13.71-6.17,21.53-2.62,23.3C1375.56,1384,1379.88,1378.14,1385.33,1365.68Z"/><path class="cls-17" d="M1373.64,1355.67c4.57-8.76,11.47-22.66,16.42-35.2a39.27,39.27,0,0,1-8.86-6c-6.79,10.8-13.06,26-17.31,34.68-6.17,12.51-7,19.77-3.63,21.57C1363.2,1372.25,1367.71,1367,1373.64,1355.67Z"/><path class="cls-17" d="M1365.64,1343c3.9-7.49,9.78-19.34,14-30a33.66,33.66,0,0,1-7.56-5.15c-5.81,9.22-11.15,22.24-14.78,29.6-5.26,10.68-6,16.87-3.1,18.41C1356.73,1357.09,1360.58,1352.64,1365.64,1343Z"/><path class="cls-17" d="M1401.68,1366.37c3-9.4,9.22-27.49,12-40.67-3.18-.8-8.67.41-11.41-1.25-4.91,11.78-8.56,27.86-11.33,37.07-4,13.36-3.66,20.65,0,21.87C1394.13,1384.44,1397.71,1378.53,1401.68,1366.37Z"/><path class="cls-17" d="M1441,1322.07c-5.3-8.34-4.6-31-13.39-41.25-2.57,2-15.44,12-18.43,13.14,6.4,11,13.84,24.1,19.5,31.89,8.2,11.28,18,11.43,21.21,9.25C1452.59,1333.23,1443.63,1326.29,1441,1322.07Z"/><path class="cls-17" d="M1479,969.78c-6.52,23.59-50,321.18-50,321.18l-35.86-14.81s54-327.72,56.7-354,28.08-72,49.87-80.87S1487.56,938.92,1479,969.78Z"/><path class="cls-28" d="M1758.81,1159s-1.91-81.19,0-111.74c9.28-12.33-4.14-44.67-4.48-62.92-.59-30.63-11.13-46.07-18.82-77.22-8.35-33.79,9.49-66.76,3.2-70.43-40.1-23.4-82.45-21-82.45-21s-16.76,25-44.37,25-44.38-20.83-44.38-20.83-60.58,2.07-89.24,25.22c-5.66,4.57,18.47,62,18.47,62s-18.24,46.59-18.82,77.22c-.35,18.25-7.65,70.83,1.63,83.15,1.91,30.55-2.12,98.21-2.12,98.21l-30.71,127.5s42.35,38.76,174.58,38.1c136.67-.67,174.58-27.78,174.58-27.78Z"/><path class="cls-29" d="M1676.83,1042.44a319.48,319.48,0,0,0-127.45,0s28.53-22.54,63.73-22.54S1676.83,1042.44,1676.83,1042.44Z"/><path class="cls-27" d="M1536.65,618.08c-9.46,3.15-18.8,1.48-22.83-3.59a9.58,9.58,0,0,0,.45,3.27c2.41,7.25,13.34,10.15,24.42,6.46s18.11-12.55,15.69-19.8a9.05,9.05,0,0,0-1.6-2.88C1552.59,608,1546.11,614.94,1536.65,618.08Z"/><path class="cls-27" d="M1682.7,620.2c9.46,3.15,18.8,1.48,22.83-3.59a9.49,9.49,0,0,1-.45,3.26c-2.41,7.26-13.34,10.16-24.42,6.47s-18.1-12.55-15.69-19.81a9.55,9.55,0,0,1,1.59-2.88C1666.76,610.13,1673.24,617.05,1682.7,620.2Z"/><path class="cls-27" d="M1656.11,678.76c9.46,3.14,11.31,45.77,11.31,45.77s-2.77-34.9-13.84-38.58-18.46-24.29-18.46-24.29S1646.65,675.61,1656.11,678.76Z"/><path class="cls-27" d="M1557.73,678.76c-9.46,3.14-11.3,45.77-11.3,45.77s2.77-34.9,13.85-38.58,18.45-24.29,18.45-24.29S1567.19,675.61,1557.73,678.76Z"/><path class="cls-30" d="M1689.32,606.67a11.9,11.9,0,1,1-11.89-11.89A11.89,11.89,0,0,1,1689.32,606.67Z"/><path class="cls-30" d="M1529.51,606.67a11.9,11.9,0,1,0,11.9-11.89A11.89,11.89,0,0,0,1529.51,606.67Z"/><path class="cls-28" d="M1484.79,973.74c-6.53,23.59-49,309.29-49,309.29l-45.76-16.4s32.3-301,45.18-348.59c14.81-54.8,37.15-72.49,58.94-81.38S1493.31,942.88,1484.79,973.74Z"/><path class="cls-29" d="M1483.35,929.75c-14.14,30.85-14,64.63-24.37,96.61-3.59,11.09-11.17,18.15-18.37,26.84-8.85,10.69,2.71,13.24,9.05,22.37,8.13,11.7,1.72,31.1.25,43.58-1.88,16-3.48,31.92-4.91,47.94-1.38,15.33-2.69,30.74-5.5,45.89-3.68,19.88-11.82,52.54-32.17,59.84l28.49,10.21s42.44-285.7,49-309.29c4.11-14.9,11.51-49.44,15.62-80.19C1495,905.71,1488.83,917.81,1483.35,929.75Z"/><path class="cls-17" d="M1852.08,1304.7c-.94-14.93-37.11-57.89-48.54-53.61-9.49,3.57-11.55,47.27-4.67,65.16,4.43.79,9.71,7.17,12.45,10.21S1853,1319.63,1852.08,1304.7Z"/><path class="cls-17" d="M1838.53,1361.42c-4.21-9.62-10.51-24.86-14.93-38.54a32.49,32.49,0,0,0,8.53-5.16c6.36,11.92,12.71,27.69,16.6,37.15,5.64,13.71,6.18,21.53,2.63,23.3C1848.3,1379.7,1844,1373.87,1838.53,1361.42Z"/><path class="cls-17" d="M1850.22,1351.41c-4.57-8.76-11.47-22.67-16.42-35.2a39.42,39.42,0,0,0,8.86-6c6.79,10.81,13.06,26.06,17.31,34.69,6.18,12.5,7,19.76,3.63,21.56C1860.67,1368,1856.15,1362.75,1850.22,1351.41Z"/><path class="cls-17" d="M1858.23,1338.68c-3.91-7.48-9.79-19.34-14-30a33.27,33.27,0,0,0,7.55-5.15c5.81,9.23,11.15,22.24,14.79,29.6,5.26,10.68,6,16.87,3.09,18.41C1867.13,1352.83,1863.28,1348.37,1858.23,1338.68Z"/><path class="cls-17" d="M1822.19,1362.1c-3.06-9.4-9.23-27.48-12-40.66,3.19-.81,8.68.4,11.41-1.26,4.91,11.78,8.56,27.86,11.34,37.07,4,13.36,3.66,20.66,0,21.88C1829.74,1380.17,1826.16,1374.27,1822.19,1362.1Z"/><path class="cls-17" d="M1782.91,1317.81c5.29-8.35,4.59-31,13.38-41.26,2.57,2,15.45,12,18.43,13.15-6.4,11-13.84,24.1-19.49,31.88-8.2,11.28-18,11.43-21.21,9.25C1771.28,1329,1780.23,1322,1782.91,1317.81Z"/><path class="cls-28" d="M1739.08,969.48c6.52,23.59,49,309.28,49,309.28l45.76-16.4s-32.3-300.95-45.18-348.59c-14.81-54.79-37.15-72.49-58.94-81.38S1730.55,938.62,1739.08,969.48Z"/><path class="cls-29" d="M1740.52,925.49c14.14,30.84,14,64.62,24.36,96.6,3.59,11.09,11.17,18.15,18.37,26.85,8.85,10.69-2.71,13.23-9,22.36-8.13,11.7-1.72,31.11-.25,43.58,1.88,16,3.49,31.93,4.92,47.94,1.37,15.34,2.68,30.74,5.49,45.9,3.68,19.88,11.82,52.53,32.17,59.83L1788,1278.76s-42.44-285.69-49-309.28c-4.12-14.9-11.52-49.44-15.63-80.19C1728.85,901.45,1735,913.54,1740.52,925.49Z"/><polygon class="cls-31" points="1694.53 672.66 1711.29 684.42 1738.21 617.56 1741.34 593.91 1694.53 672.66"/><polygon class="cls-31" points="1526.29 670.78 1510.33 683.61 1479.11 618.65 1474.44 595.25 1526.29 670.78"/><path class="cls-31" d="M1605.93,798.27c-110.86,0-107.81-140.23-103.46-146.48,1-1.38,3.29-1.64,4.7-1.47a32.92,32.92,0,0,1,6.94,2.07c3,1.06,5.9,2.11,8.88,3.05a47.89,47.89,0,0,0,10.4,2.29,39.53,39.53,0,0,0,8.21-.08c.56-.07,1.11-.17,1.66-.29a51.48,51.48,0,0,0,8.71-3.25c1.78-.76,3.58-1.44,5.38-2.14,6.25-2.44,12.05-5.79,18-9.08a72.14,72.14,0,0,1,36.19-9.47h.31a72.14,72.14,0,0,1,36.19,9.47c5.9,3.29,11.7,6.64,18,9.08,1.8.7,3.61,1.38,5.38,2.14a51.48,51.48,0,0,0,8.71,3.25c.55.12,1.1.22,1.66.29a39.53,39.53,0,0,0,8.21.08,47.89,47.89,0,0,0,10.4-2.29c3-.94,5.94-2,8.88-3.05a33.1,33.1,0,0,1,6.94-2.07c1.41-.17,3.75.09,4.71,1.47,4.34,6.25,7,146.48-103.82,146.48Z"/><path class="cls-32" d="M1606.13,795.31c-106.88,0-103.93-133.27-99.74-139.2.92-1.31,3.18-1.56,4.53-1.4a32.27,32.27,0,0,1,6.69,2c2.84,1,5.69,2,8.56,2.9a46.9,46.9,0,0,0,10,2.17,38.72,38.72,0,0,0,7.91-.07c.54-.07,1.08-.16,1.61-.28a49.24,49.24,0,0,0,8.39-3.09c1.71-.72,3.46-1.36,5.19-2,6-2.32,11.62-5.5,17.3-8.63a70.47,70.47,0,0,1,34.9-9h.29a70.47,70.47,0,0,1,34.9,9c5.68,3.13,11.27,6.31,17.3,8.63,1.73.67,3.48,1.31,5.19,2a49.24,49.24,0,0,0,8.39,3.09c.53.12,1.06.21,1.61.28a38.72,38.72,0,0,0,7.91.07,46.9,46.9,0,0,0,10-2.17c2.87-.9,5.72-1.9,8.56-2.9a32.27,32.27,0,0,1,6.69-2c1.35-.16,3.61.09,4.53,1.4,4.19,5.93,6.79,139.2-100.09,139.2Z"/><path class="cls-33" d="M1606.31,789.12c-103.47,0-100.62-123.3-96.56-128.79.89-1.21,3.08-1.45,4.39-1.3a32.64,32.64,0,0,1,6.47,1.83c2.75.93,5.51,1.85,8.29,2.68a46.82,46.82,0,0,0,9.71,2,38.44,38.44,0,0,0,7.66-.07c.52-.06,1-.15,1.55-.25a49.41,49.41,0,0,0,8.13-2.86c1.66-.67,3.34-1.27,5-1.88a139.59,139.59,0,0,0,16.75-8,70.74,70.74,0,0,1,33.78-8.33h.28a70.75,70.75,0,0,1,33.79,8.33,139.59,139.59,0,0,0,16.75,8c1.68.61,3.36,1.21,5,1.88a49.09,49.09,0,0,0,8.13,2.86c.51.1,1,.19,1.55.25a38.44,38.44,0,0,0,7.66.07,47,47,0,0,0,9.71-2c2.78-.83,5.54-1.75,8.29-2.68a32.64,32.64,0,0,1,6.47-1.83c1.31-.15,3.5.09,4.39,1.3,4,5.49,6.58,128.79-96.89,128.79Z"/><path class="cls-34" d="M1539,692.44s45.88,15.86,78.23,15.71c30-.14,72.57-15.71,72.57-15.71s-38.49,3.88-72.3,3.42S1539,692.44,1539,692.44Z"/><path class="cls-34" d="M1539,727.41s48.76,14.65,76.83,14.16c30-.52,74-14.16,74-14.16s-38.49,2.46-72.3,2S1539,727.41,1539,727.41Z"/><path class="cls-34" d="M1539,754.5s48.23,16.69,79.61,16.46c30.05-.21,71.19-18.57,71.19-18.57s-39.33,8.39-73.15,7.92S1539,754.5,1539,754.5Z"/><path class="cls-35" d="M1512.53,668.28c.87-1.17,3-1.39,4.25-1.25a31.27,31.27,0,0,1,6.25,1.76c2.66.9,5.32,1.79,8,2.6a45,45,0,0,0,9.39,1.93,36.5,36.5,0,0,0,7.39-.06c.51-.06,1-.14,1.51-.25a48.18,48.18,0,0,0,7.85-2.76c1.6-.64,3.23-1.22,4.85-1.81a136.16,136.16,0,0,0,16.18-7.72,68.26,68.26,0,0,1,32.64-8.05h.27a68.26,68.26,0,0,1,32.64,8.05,136.16,136.16,0,0,0,16.18,7.72c1.62.59,3.25,1.17,4.85,1.81a48.18,48.18,0,0,0,7.85,2.76c.5.11,1,.19,1.51.25a36.5,36.5,0,0,0,7.39.06,45,45,0,0,0,9.39-1.93c2.68-.81,5.34-1.7,8-2.6a31.27,31.27,0,0,1,6.25-1.76c1.27-.14,3.38.08,4.25,1.25,2.44,3.31,4.29,50.76-18.81,86.09,27.54-36.91,25.57-90.46,22.93-94-.89-1.21-3.08-1.45-4.39-1.3a32.64,32.64,0,0,0-6.47,1.83c-2.76.93-5.51,1.85-8.29,2.68a47,47,0,0,1-9.71,2,38.44,38.44,0,0,1-7.66-.07c-.52-.06-1-.15-1.55-.25a49.09,49.09,0,0,1-8.13-2.86c-1.66-.67-3.34-1.27-5-1.88a139.59,139.59,0,0,1-16.75-8,70.75,70.75,0,0,0-33.79-8.33h-.28a70.74,70.74,0,0,0-33.78,8.33,139.59,139.59,0,0,1-16.75,8c-1.68.61-3.36,1.21-5,1.88a49.41,49.41,0,0,1-8.13,2.86c-.51.1-1,.19-1.55.25a38.44,38.44,0,0,1-7.66.07,46.82,46.82,0,0,1-9.71-2c-2.78-.83-5.54-1.75-8.29-2.68a32.64,32.64,0,0,0-6.47-1.83c-1.31-.15-3.5.09-4.39,1.3-2.24,3-4.07,41.92,12.08,76.19C1508.79,704.85,1510.49,671.05,1512.53,668.28Z"/><path class="cls-17" d="M809.54,1732c5.48-141.86,17.28-262.64,32.22-287.8,37.19-62.61-36.64-82.43-128.29-25.51,2,81.76,8.8,197.58,16.83,313.31Z"/><path class="cls-36" d="M862.91,1732c7.06-81.94,13-208,13-291.5,0,0-98.08-104-189.74-47.1-1.57,19.1-.49,229.49,2.09,338.6Z"/><path class="cls-37" d="M861.93,1732c6-77.65,11.38-195.27,13.26-277.06-18.51,37.84-36.85,117.24-43.17,161.13-4.91,34.16-3.46,69.08-12.26,102.47-1,3.93-2.46,8.5-4,13.46Z"/><path class="cls-17" d="M948.75,1732H1028c8-115.73,14.86-231.55,16.83-313.31-91.65-56.92-165.49-37.1-128.29,25.51C931.47,1469.4,943.27,1590.18,948.75,1732Z"/><path class="cls-36" d="M1070,1732c2.58-109.11,3.66-319.5,2.08-338.6-91.65-56.91-189.73,47.1-189.73,47.1,0,83.47,5.93,209.56,13,291.5Z"/><path class="cls-37" d="M942.52,1732c-1.53-5-3-9.53-4-13.46-8.81-33.39-7.34-68.31-12.27-102.47-6.32-43.89-25.36-123.46-43.87-161.29,1.87,81.8,7.56,199.53,13.78,277.22Z"/><path class="cls-17" d="M626.45,1338.5l36.51-1.78,42.55-224.5L732.6,888.47s-15.93-83.74-48.23-65.22-40.2,139.13-46.77,267.64C633.6,1169,626.45,1338.5,626.45,1338.5Z"/><path class="cls-17" d="M1129,1338.5h-36.56L1039,1116.34l-38-222.16s11.83-84.42,45-67.49,46.93,137,59.76,265C1113.58,1169.53,1129,1338.5,1129,1338.5Z"/><path class="cls-36" d="M692.5,1413c-4.91-36.29-4.92-89.56.4-105.2s368-47.73,376.33-4.41c3.26.14,2.18,50.89-3.53,97.17C1057.26,1468.84,700.64,1473,692.5,1413Z"/><path class="cls-38" d="M1069.23,1303.41c-47.78,36.34-324.13,37.45-376.33,4.41-17.49-38.17,5.62-327.92,5.62-327.92L692.1,794.33S746,750.05,879.65,750.05s155.47,44.28,155.47,44.28l-7.5,167.41S1079.14,1261.6,1069.23,1303.41Z"/><path class="cls-39" d="M1069.23,1303.41c-47.78,36.34-324.13,37.45-376.33,4.41-17.49-38.17,5.62-327.92,5.62-327.92s-3.08-165.75-6.42-185.57,73.69-48.29,93.45-35.81c3.39,137.27,88.55,215.31,88.55,215.31s80.35-68.55,74.21-219c29.13-13,87.62,21.45,86.81,39.49s-7.5,167.41-7.5,167.41S1079.14,1261.6,1069.23,1303.41Z"/><path class="cls-40" d="M869,806.3c-81.45,0-67.45-50.58-67.45-50.58s5.89-20.43,18.62-57.89c23.69-69.72,90.44-78.89,94.63-14.87,12.81,44.94,12,69.21,12,69.21S950.49,806.3,869,806.3Z"/><path class="cls-17" d="M1048.52,508.25c-6-2.05-29.65,5.57-37.82,10.7.55-22.62,13.15-63.5,9.1-88.38-13.56-83.32-82-111.79-162.31-111.79-80,0-144.71,43.24-156.45,113.89a409.1,409.1,0,0,0-4.12,87.4c-10.62-6.4-22.34-9.09-29.88-6.66-19.39,6.25-21.29,30-10.64,61.47s33.19,52.84,50.85,47.61c4.74,32.85,10.11,51.72,19.17,73.65,15.19,36.78,79.72,67.85,134,67.85,66.31,0,124.5-26.49,143.13-67.85,12.37-27.48,13.21-39.53,16.52-73.65.6.22,1.2-.13,1.84,0,18.37,3.5,38.4-33.59,45.07-66.81C1073.54,523,1060.29,512.27,1048.52,508.25Z"/><path class="cls-20" d="M816,502.42c-1.24,2.32-17.22-6-35.56-3.72-25.16,3.11-35.06,11.57-35.06,11.57s1.28-17.41,22.07-23.85c18.75-5.81,42.36-4.71,45.3-2.41S817.21,500.1,816,502.42Z"/><path class="cls-41" d="M813.86,485.63a27,27,0,0,1-2,8.74c-.72,1.64-5.07-4.36-8.65-4.58-2.29-.13,3.45,4.82,1.27,5.45-1.15.34-11.5-5.81-12.65-5.45-2.35.75,2.54,4.88,0,4.93s-11.51-4.26-13.82-4.1c-1.84.13,4.8,4.09,2.8,4.8-1.71.6-12-2.1-13.77-1.21-1.26.65,3.7,3,2.47,3.74-1.41.85-10.33,1.4-11.8,2.08a30.4,30.4,0,0,0-12.43,10.24s9.9-8.46,35.06-11.57c18.34-2.26,34.32,6,35.56,3.72C817,500.43,816,490,813.86,485.63Z"/><path class="cls-20" d="M910,502.42c1.25,2.32,17.23-6,35.57-3.72,25.16,3.11,35.06,11.57,35.06,11.57s-1.28-17.41-22.08-23.85c-18.74-5.81-42.35-4.71-45.29-2.41S908.77,500.1,910,502.42Z"/><path class="cls-41" d="M912.12,485.63a26.38,26.38,0,0,0,2,8.74c.72,1.64,5.07-4.36,8.65-4.58,2.29-.13-3.45,4.82-1.27,5.45,1.15.34,11.49-5.81,12.65-5.45,2.36.75-2.54,4.88,0,4.93s11.51-4.26,13.82-4.1c1.84.13-4.81,4.09-2.8,4.8,1.7.6,12-2.1,13.77-1.21,1.25.65-3.7,3-2.46,3.74,1.4.85,10.31,1.4,11.78,2.08a30.39,30.39,0,0,1,12.44,10.24s-9.9-8.46-35.06-11.57c-18.34-2.26-34.32,6-35.57,3.72C909,500.43,910,490,912.12,485.63Z"/><path class="cls-27" d="M797.36,536.09a15.79,15.79,0,1,1-15.78-15.8A15.79,15.79,0,0,1,797.36,536.09Z"/><path class="cls-27" d="M783.4,557.24c-10.79,3.58-21.43,1.68-26-4.1a10.19,10.19,0,0,0,.51,3.72c2.75,8.27,15.22,11.58,27.85,7.38s20.65-14.32,17.89-22.59a10.79,10.79,0,0,0-1.81-3.29C801.58,545.75,794.19,553.65,783.4,557.24Z"/><path class="cls-27" d="M928.41,557.24c10.79,3.58,21.44,1.68,26-4.1a10.64,10.64,0,0,1-.52,3.72c-2.75,8.27-15.22,11.58-27.85,7.38s-20.64-14.32-17.9-22.59a11,11,0,0,1,1.82-3.29C910.23,545.75,917.62,553.65,928.41,557.24Z"/><path class="cls-30" d="M803.26,539.9a15.79,15.79,0,1,1-15.79-15.79A15.79,15.79,0,0,1,803.26,539.9Z"/><path class="cls-27" d="M913.54,536.09a15.79,15.79,0,1,0,15.79-15.8A15.79,15.79,0,0,0,913.54,536.09Z"/><path class="cls-30" d="M907.65,539.9a15.79,15.79,0,1,0,15.79-15.79A15.79,15.79,0,0,0,907.65,539.9Z"/><path class="cls-17" d="M1090.78,1456.92c-4.78,7.88-20.31,9.72-13.68.66C1097.2,1430.09,1098,1377,1098,1377l14.79,7S1110.52,1424.39,1090.78,1456.92Z"/><path class="cls-17" d="M1075.14,1455.08c-4.78,7.88-19.66,1.12-13-7.94,20.1-27.49,29.33-75,29.33-75l12.08,5.45S1094.88,1422.55,1075.14,1455.08Z"/><path class="cls-17" d="M1066.9,1437c-4.78,7.89-18.24,1.3-12.61-8.41,18.72-32.29,21.93-60.94,21.93-60.94l17.49.65S1086.64,1404.51,1066.9,1437Z"/><path class="cls-17" d="M1103.49,1455.45c-4.78,7.88-19.34,10.53-12.71,1.47,20.1-27.49,21.1-76.23,21.1-76.23l12.95,11.83S1123.23,1422.92,1103.49,1455.45Z"/><path class="cls-17" d="M1124,1400.37l-41.83-19.68-1.67-37.62s7.24-6.3,8.64-18.34c-.7-21.8,37.76-30.52,39.87,13.77S1124,1400.37,1124,1400.37Z"/><path class="cls-17" d="M1063.62,1396.29c-4.38,8.1-9.71-10.73-5.14-21,15.18-34.09,33.62-40.19,33.62-40.19l-9.95,45.57S1073.27,1378.47,1063.62,1396.29Z"/><path class="cls-17" d="M664.66,1456.92c4.78,7.88,20.31,9.72,13.68.66-20.1-27.49-20.91-80.57-20.91-80.57l-14.8,7S644.92,1424.39,664.66,1456.92Z"/><path class="cls-17" d="M680.3,1455.08c4.78,7.88,19.66,1.12,13-7.94-20.1-27.49-29.33-75-29.33-75l-12.08,5.45S660.55,1422.55,680.3,1455.08Z"/><path class="cls-17" d="M688.54,1437c4.78,7.89,18.23,1.3,12.6-8.41-18.72-32.29-21.93-60.94-21.93-60.94l-17.48.65S668.8,1404.51,688.54,1437Z"/><path class="cls-17" d="M651.94,1455.45c4.78,7.88,19.34,10.53,12.72,1.47-20.11-27.49-21.1-76.23-21.1-76.23l-12.95,11.83S632.21,1422.92,651.94,1455.45Z"/><path class="cls-17" d="M631.46,1400.37l41.83-19.68,1.67-37.62s-7.25-6.3-8.64-18.34c.7-21.8-37.76-30.52-39.87,13.77S631.46,1400.37,631.46,1400.37Z"/><path class="cls-17" d="M691.82,1396.29c4.38,8.1,9.7-10.73,5.14-21-15.19-34.09-33.62-40.19-33.62-40.19l9.95,45.57S682.17,1378.47,691.82,1396.29Z"/><path class="cls-20" d="M707.1,545.57C696.43,510.35,667,513.41,667,513.41S657.69,457,692.34,425c13.84-12.79,53,19,53,19s-26.28,18.28-27,52.23c-.57,27.71,8.44,59.48,8.44,59.48S709.21,553.09,707.1,545.57Z"/><path class="cls-29" d="M730.64,459.41A104.35,104.35,0,0,0,716,473.8c-9.58,11.3-4.52,37.66-11.12,50.31-1.64,3.13-10.68-6.77-14.07-8-7.13-2.61-16.17-6.32-24.22-5,.28,1.47.46,2.27.46,2.27s29.39-3.06,40.06,32.16c2.11,7.52,19.69,10.12,19.69,10.12s-9-31.77-8.44-59.48A65.79,65.79,0,0,1,730.64,459.41Z"/><path class="cls-20" d="M1008.46,540.41c10.67-35.21,40.06-32.16,40.06-32.16s.33-68.49-22.24-86.29c-18.5-14.61-56,16.87-56,16.87s26.28,18.27,27,52.23c.57,27.71-8.44,59.48-8.44,59.48S1006.35,547.93,1008.46,540.41Z"/><path class="cls-29" d="M984.91,454.26a104.36,104.36,0,0,1,14.66,14.38c9.58,11.3,4.52,37.66,11.13,50.31,1.63,3.14,10.67-6.76,14.06-8,7.13-2.61,16.17-6.31,24.22-5-.28,1.47-.46,2.27-.46,2.27s-29.39-3.05-40.06,32.16c-2.11,7.52-19.69,10.13-19.69,10.13s9-31.77,8.44-59.48A65.69,65.69,0,0,0,984.91,454.26Z"/><path class="cls-27" d="M862.67,682.42a61.75,61.75,0,0,0,18.89-2.64S877.49,687,862.85,687c-13.46,0-19.48-8.85-19.48-8.85A43.37,43.37,0,0,0,862.67,682.42Z"/><path class="cls-27" d="M860.27,569.65c-11.8.2-19.54,3.79-19.54,3.79s4.36-9.48,19.47-9.74c13.88-.23,19.88,11.26,19.88,11.26A36.39,36.39,0,0,0,860.27,569.65Z"/><path class="cls-22" d="M914.23,658.77c-5,8.76-29.56-1.31-54.05-.67-23,.59-45.95,12.57-52.08.67H808c4.88,16.41,29.13,8.14,53.17,8.26,24.77.12,49.33,8.12,53.16-8.26Z"/><path class="cls-22" d="M946.74,401.45c-8,8.77-46.91-1.31-85.81-.66-36.47.59-73,12.57-82.69.66h-.18c7.75,16.41,46.25,8.15,84.41,8.26,39.33.12,78.33,8.12,84.4-8.26Z"/><path class="cls-22" d="M923.38,434c-5.78,8.75-33.91-1.32-62-.68-26.35.6-52.73,12.57-59.76.68h-.13c5.6,16.4,33.43,8.14,61,8.25,28.43.12,56.61,8.12,61-8.25Z"/><path class="cls-20" d="M934,621.62a54,54,0,0,1-8.45,6.83c-.75.51-11.1-2.38-12-1.84-1.85,1.17,5.59,5.82,3.24,7a103.68,103.68,0,0,1-16.12,6.74c-2.19.7-6.48-5.68-8.89-5.06-1.24.31-.5,7.67-1.8,7.95a128.2,128.2,0,0,1-17.62,2.64c-2.52.21-5.51-23.85-8.18-23.78-1.36,0-2.35,24.26-3.76,24.26-1.92,0-3.81,0-5.65-.07-1.22,0-3.29-10.42-4.48-10.48-2.35-.1-3.77,10.1-6,9.92a182.71,182.71,0,0,1-32.71-5.5c-1.18-.31,5.93-13.34,4.82-13.66,0,0-12.42,11.45-14.31,10.82-13.4-4.49-20.5-9-20.5-9s16-12.64,46.36-21.64c9.64.56,24.19,13.82,55.94,1.81C906.88,611.09,934,621.62,934,621.62Z"/><path class="cls-41" d="M909.59,623l-8.82-4.22-2.71,7.82s-13.12-11.41-15.52-10.79c-1.24.32.32,9-1,9.25-5.36,1.19-1.07-8.21-7.46-7.69-2.51.21-1,7.63-3.7,7.71-1.36,0-3.69-7-5.1-7-1.91,0-12.83,13.7-14.69,13.64-1.21,0-2.6-11.88-2.6-11.88L836.66,629s2.45-10-1.66-13.17c-1.18-.32-12.25,11.11-13.36,10.79l.71-7.82s-34.85,5-23.38-.7a180.36,180.36,0,0,1,29-11.27c9.64.56,24.19,13.82,55.94,1.81,14.21,1.52,30,6.12,40,9.41,3.45,1.15-10.58-1.49-14.24-.66C906.71,618,909.59,623,909.59,623Z"/><path class="cls-42" d="M857.7,606.18c-19.16,0-35.16-7-39.3-16.5a12.12,12.12,0,0,0-1.08,4.82c0,11.78,18.08,21.32,40.38,21.32s40.36-9.54,40.36-21.32a11.94,11.94,0,0,0-1.07-4.82C892.85,599.13,876.85,606.18,857.7,606.18Z"/><path class="cls-42" d="M829.48,604.91c-.08-.08-.13-.18-.2-.26a24.85,24.85,0,0,1-8.51,1.53c-11,0-20.22-7-22.6-16.5a20.2,20.2,0,0,0-.61,4.82c0,11.78,10.38,21.32,23.21,21.32A24.27,24.27,0,0,0,836.66,610,20.32,20.32,0,0,1,829.48,604.91Z"/><path class="cls-42" d="M888.41,604.91c.07-.08.13-.18.19-.26a24.91,24.91,0,0,0,8.52,1.53c11,0,20.21-7,22.59-16.5a20.21,20.21,0,0,1,.62,4.82c0,11.78-10.39,21.32-23.21,21.32a24.28,24.28,0,0,1-15.9-5.81A20.45,20.45,0,0,0,888.41,604.91Z"/><g class="cls-43"><path class="cls-44" d="M819.26,582H758.63a25.34,25.34,0,0,1-25.31-25.31V535.58a25.33,25.33,0,0,1,25.31-25.31h60.63a25.33,25.33,0,0,1,25.31,25.31v21.09A25.34,25.34,0,0,1,819.26,582ZM758.63,518.7a16.9,16.9,0,0,0-16.88,16.88v21.09a16.89,16.89,0,0,0,16.88,16.87h60.63a16.9,16.9,0,0,0,16.88-16.87V535.58a16.9,16.9,0,0,0-16.88-16.88Z"/><path class="cls-44" d="M960.05,582H899.41a25.35,25.35,0,0,1-25.31-25.31V535.58a25.34,25.34,0,0,1,25.31-25.31h60.64a25.34,25.34,0,0,1,25.31,25.31v21.09A25.35,25.35,0,0,1,960.05,582ZM899.41,518.7a16.89,16.89,0,0,0-16.87,16.88v21.09a16.89,16.89,0,0,0,16.87,16.87h60.64a16.89,16.89,0,0,0,16.87-16.87V535.58a16.89,16.89,0,0,0-16.87-16.88Z"/><path class="cls-44" d="M878.32,543.46h-38a4.22,4.22,0,1,1,0-8.44h38a4.22,4.22,0,0,1,0,8.44Z"/></g><g class="cls-45"><rect class="cls-46" x="733.83" y="508.26" width="102.82" height="63.27" rx="21.09"/></g><path class="cls-47" d="M815.56,575.76H754.93a25.35,25.35,0,0,1-25.31-25.31V529.36a25.34,25.34,0,0,1,25.31-25.31h60.63a25.33,25.33,0,0,1,25.31,25.31v21.09A25.34,25.34,0,0,1,815.56,575.76Zm-60.63-63.28a16.9,16.9,0,0,0-16.88,16.88v21.09a16.89,16.89,0,0,0,16.88,16.87h60.63a16.89,16.89,0,0,0,16.88-16.87V529.36a16.9,16.9,0,0,0-16.88-16.88Z"/><g class="cls-45"><path class="cls-46" d="M977.44,550.45a21.09,21.09,0,0,1-21.09,21.09H895.71a21.1,21.1,0,0,1-21.09-21.09V529.36a21.1,21.1,0,0,1,21.09-21.1h60.64a21.1,21.1,0,0,1,21.09,21.1Z"/></g><path class="cls-47" d="M956.35,575.76H895.71a25.35,25.35,0,0,1-25.31-25.31V529.36a25.34,25.34,0,0,1,25.31-25.31h60.64a25.34,25.34,0,0,1,25.31,25.31v21.09A25.35,25.35,0,0,1,956.35,575.76Zm-60.64-63.28a16.89,16.89,0,0,0-16.87,16.88v21.09a16.89,16.89,0,0,0,16.87,16.87h60.64a16.9,16.9,0,0,0,16.88-16.87V529.36a16.9,16.9,0,0,0-16.88-16.88Z"/><path class="cls-47" d="M874.62,537.24h-38a4.22,4.22,0,1,1,0-8.44h38a4.22,4.22,0,0,1,0,8.44Z"/><polygon class="cls-48" points="745.97 908.39 713.26 971.68 745.97 1034.96 778.67 971.68 745.97 908.39"/><polygon class="cls-48" points="909.48 1098.25 942.18 1161.54 974.89 1098.25 942.18 1034.96 909.48 1098.25"/><polygon class="cls-48" points="745.97 781.82 713.26 845.1 745.97 908.39 778.67 845.1 745.97 781.82"/><polygon class="cls-48" points="1007.59 1161.54 1040.29 1098.25 1007.59 1034.96 974.89 1098.25 1007.59 1161.54"/><path class="cls-48" d="M1070.46,1283.21c-.36-22.84-4-59-9.12-99.11l-21,40.73Z"/><polygon class="cls-48" points="974.89 971.68 942.18 908.39 909.48 971.68 942.18 1034.96 974.89 971.68"/><polygon class="cls-48" points="713.26 1224.83 745.97 1288.11 778.67 1224.83 745.97 1161.54 713.26 1224.83"/><path class="cls-48" d="M948.31,754.84c.2,4.92.29,9.75.32,14.5l8.77-17A32.6,32.6,0,0,0,948.31,754.84Z"/><path class="cls-48" d="M974.89,971.68l32.7,63.28L1032,987.75c-2.68-16.23-4.36-26-4.36-26s.22-5.08.6-13.42l-20.63-39.93Z"/><path class="cls-48" d="M790.5,1328.49c13.72,1.13,28.17,2,43,2.49l-22.15-42.87Z"/><path class="cls-48" d="M697.72,941.6c.51,22.47.8,38.3.8,38.3s-.71,8.9-1.78,23.76l16.52-32Z"/><path class="cls-48" d="M920.18,1330.69c14.63-.62,28.94-1.52,42.6-2.72l-20.6-39.86Z"/><polygon class="cls-48" points="974.89 1224.83 1007.59 1288.11 1040.29 1224.83 1007.59 1161.54 974.89 1224.83"/><path class="cls-48" d="M854.35,1331.52c14.84.24,29.88.19,44.78-.15l-22.35-43.26Z"/><path class="cls-48" d="M693.23,806.34c1,15.91,2,43.43,2.88,72l17.15-33.2Z"/><polygon class="cls-48" points="909.48 1224.83 942.18 1288.11 974.89 1224.83 942.18 1161.54 909.48 1224.83"/><path class="cls-48" d="M974.89,845.1l32.7,63.29,24.55-47.51c.45-10.23.9-20.1,1.3-29l-25.85-50Z"/><path class="cls-48" d="M1014,769.37a120.27,120.27,0,0,0-17.82-9.6l11.39,22.05Z"/><path class="cls-48" d="M729.36,1320.24c10.69,2.25,22.89,4.17,36.18,5.76L746,1288.11Z"/><path class="cls-48" d="M693,1059.07c-1.63,26.38-3.33,56.83-4.6,87.27l24.85-48.09Z"/><path class="cls-48" d="M974.89,845.1,948,793c-2.1,36-9.21,66.31-18.25,91.25l12.45,24.1Z"/><path class="cls-48" d="M1053,1122.85c-1.86-12.95-3.77-25.79-5.65-38.26l-7.06,13.66Z"/><path class="cls-48" d="M759,756.51a144.34,144.34,0,0,0-23.16,5.78L746,781.82Z"/><path class="cls-48" d="M1063.12,1307.22a46.08,46.08,0,0,0,6.11-3.81,56.22,56.22,0,0,0,1.14-10.23Z"/><polygon class="cls-48" points="811.37 1161.54 844.07 1098.25 811.37 1034.96 778.67 1098.25 811.37 1161.54"/><path class="cls-48" d="M988.38,1325.28c12.85-1.59,24.79-3.48,35.48-5.68l-16.27-31.49Z"/><polygon class="cls-48" points="745.97 1034.96 713.26 1098.25 745.97 1161.54 778.67 1098.25 745.97 1034.96"/><polygon class="cls-48" points="778.67 1224.83 811.37 1288.11 844.07 1224.83 811.37 1161.54 778.67 1224.83"/><path class="cls-48" d="M811.37,908.39l-32.7,63.29,32.7,63.28,32.7-63.28L876.78,1035l32.7-63.28L896.94,947.4c-12.75,17.78-22.84,26.43-22.84,26.43s-60.66-55.59-81.62-155.46L778.67,845.1Z"/><polygon class="cls-48" points="876.78 1161.54 909.48 1098.25 876.78 1034.96 844.07 1098.25 876.78 1161.54"/><polygon class="cls-48" points="844.07 1224.83 876.78 1288.11 909.48 1224.83 876.78 1161.54 844.07 1224.83"/><path class="cls-48" d="M687.37,1174.7c-1.22,38.25-1.51,74.38.14,100l25.75-49.84Z"/><path class="cls-49" d="M713.26,1224.83l-25.75,49.84c1,15.62,2.72,27.33,5.39,33.15,7.72,4.89,20.38,9,36.46,12.42L746,1288.11Z"/><path class="cls-49" d="M778.67,1224.83,746,1288.11,765.54,1326c8,1,16.31,1.78,25,2.49l20.87-40.38Z"/><path class="cls-49" d="M844.07,1224.83l-32.7,63.28L833.52,1331c6.87.24,13.83.42,20.83.54l22.43-43.41Z"/><path class="cls-49" d="M909.48,1224.83l-32.7,63.28,22.35,43.26c7.06-.16,14.09-.39,21-.68l22-42.58Z"/><path class="cls-49" d="M974.89,1224.83l-32.71,63.28,20.6,39.86c8.84-.77,17.4-1.67,25.6-2.69l19.21-37.17Z"/><path class="cls-49" d="M1070.46,1283.21l-30.17-58.38-32.7,63.28,16.27,31.49c16.57-3.41,30.1-7.53,39.26-12.38l7.25-14C1070.5,1290.24,1070.52,1286.89,1070.46,1283.21Z"/><path class="cls-49" d="M746,1161.54l-32.71-63.29-24.85,48.09c-.4,9.5-.75,19-1,28.36l25.89,50.13Z"/><polygon class="cls-49" points="778.67 1098.25 745.97 1161.54 778.67 1224.83 811.37 1161.54 778.67 1098.25"/><polygon class="cls-49" points="844.07 1098.25 811.37 1161.54 844.07 1224.83 876.78 1161.54 844.07 1098.25"/><polygon class="cls-49" points="909.48 1098.25 876.78 1161.54 909.48 1224.83 942.18 1161.54 909.48 1098.25"/><polygon class="cls-49" points="974.89 1098.25 942.18 1161.54 974.89 1224.83 1007.59 1161.54 974.89 1098.25"/><path class="cls-49" d="M1007.59,1161.54l32.7,63.29,21-40.73c-2.52-19.87-5.38-40.68-8.34-61.25l-12.71-24.6Z"/><path class="cls-49" d="M746,1035l-32.71-63.28-16.52,32c-1,14-2.35,33.25-3.73,55.41l20.25,39.18Z"/><polygon class="cls-49" points="811.37 1034.96 778.67 971.68 745.97 1034.96 778.67 1098.25 811.37 1034.96"/><polygon class="cls-49" points="876.78 1034.96 844.07 971.68 811.37 1034.96 844.07 1098.25 876.78 1034.96"/><polygon class="cls-49" points="942.18 1034.96 909.48 971.68 876.78 1034.96 909.48 1098.25 942.18 1034.96"/><polygon class="cls-49" points="974.89 1098.25 1007.59 1034.96 974.89 971.68 942.18 1034.96 974.89 1098.25"/><path class="cls-49" d="M1040.29,1098.25l7.06-13.66c-5.89-39-11.61-74.2-15.37-96.84L1007.59,1035Z"/><path class="cls-49" d="M746,908.39,713.26,845.1l-17.15,33.2c.65,22.19,1.2,45,1.61,63.3l15.54,30.08Z"/><polygon class="cls-49" points="811.37 908.39 778.67 845.1 745.97 908.39 778.67 971.68 811.37 908.39"/><path class="cls-49" d="M942.18,908.39l-12.45-24.1a261.43,261.43,0,0,1-32.79,63.11l12.54,24.28Z"/><polygon class="cls-49" points="1007.59 908.39 974.89 845.1 942.18 908.39 974.89 971.68 1007.59 908.39"/><path class="cls-49" d="M1028.22,948.32c.85-19,2.46-54.85,3.92-87.44l-24.55,47.51Z"/><path class="cls-49" d="M746,781.82l-10.09-19.53c-23.6,7.92-45.59,21.26-43.78,32,.38,2.26.76,6.43,1.13,12l20,38.76Z"/><path class="cls-49" d="M778.67,845.1l13.81-26.73a330.22,330.22,0,0,1-6.93-59.85c-5.44-3.44-15.25-3.75-26.51-2L746,781.82Z"/><path class="cls-49" d="M1007.59,781.82,996.2,759.77c-13-5.63-27.12-9-38.8-7.41l-8.77,17c0,8.17-.2,16-.65,23.7l26.91,52.06Z"/><path class="cls-49" d="M1033.44,831.84c.82-18.33,1.46-32.67,1.68-37.51.32-7.07-8.52-16.68-21.1-25l-6.43,12.45Z"/><path class="cls-50" d="M874.62,1010.74S765.75,959.06,753.08,757.58c13.71-2.85,26.09-3.09,32.47.94,3.39,137.27,88.55,215.31,88.55,215.31s80.35-68.55,74.21-219c9-4,20.82-3.51,32.83-.34C990.37,951.68,874.62,1010.74,874.62,1010.74Z"/><path class="cls-38" d="M1089.12,1324.73c-24.37-25.15-61.61-368.36-61.61-368.36s2.29-105.15,7.61-162c65.34,21.1,112.68,516.84,91.65,530.4Z"/><path class="cls-38" d="M666.32,1324.73c32.31-38,33.39-368.36,33.39-368.36s-2.29-105.15-7.61-162c-65.34,21.1-91.9,500.5-66,532.13Z"/><polygon class="cls-31" points="759.13 630.46 738.11 644.62 707.14 560.16 704.06 530.5 759.13 630.46"/><polygon class="cls-31" points="960.27 629.65 981.62 643.33 1010.64 558.18 1013.03 528.45 960.27 629.65"/><path class="cls-31" d="M852.34,782.54c-136.62,0-132.86-177.66-127.51-185.57,1.19-1.74,4.07-2.08,5.8-1.86,2.92.36,5.78,1.61,8.55,2.63,3.63,1.33,7.27,2.66,10.94,3.86A57.66,57.66,0,0,0,763,604.49a46.81,46.81,0,0,0,10.11-.09c.69-.09,1.38-.22,2.05-.37,3.72-.85,7.17-2.57,10.73-4.12,2.19-1,4.41-1.82,6.63-2.71,7.71-3.09,14.85-7.34,22.12-11.5,11-6.34,26.58-12.34,44.61-12h.37c18-.33,33.56,5.67,44.61,12,7.27,4.16,14.41,8.41,22.12,11.5,2.21.89,4.44,1.75,6.63,2.71,3.55,1.55,7,3.27,10.73,4.12.67.15,1.35.28,2.05.37a46.81,46.81,0,0,0,10.11.09,57.58,57.58,0,0,0,12.82-2.89c3.68-1.2,7.31-2.53,11-3.86,2.77-1,5.62-2.27,8.54-2.63,1.73-.22,4.62.12,5.8,1.86,5.35,7.91,8.68,185.57-127.94,185.57Z"/><path class="cls-51" d="M852.59,778.79c-131.72,0-128.08-168.83-122.92-176.35,1.14-1.66,3.92-2,5.59-1.77,2.81.34,5.56,1.53,8.24,2.5,3.5,1.27,7,2.53,10.55,3.67a56.17,56.17,0,0,0,12.36,2.75,46.06,46.06,0,0,0,9.75-.09c.67-.09,1.33-.21,2-.35,3.58-.81,6.91-2.44,10.34-3.92,2.11-.91,4.26-1.73,6.39-2.57,7.43-2.94,14.32-7,21.33-10.93,10.65-6,25.62-11.73,43-11.41h.36c17.38-.32,32.36,5.39,43,11.41,7,4,13.89,8,21.32,10.93,2.14.84,4.28,1.66,6.4,2.57,3.42,1.48,6.75,3.11,10.34,3.92.65.14,1.31.26,2,.35a46,46,0,0,0,9.74.09,56.38,56.38,0,0,0,12.37-2.75c3.54-1.14,7-2.4,10.55-3.67,2.67-1,5.42-2.16,8.24-2.5,1.67-.21,4.45.11,5.59,1.77,5.16,7.52,8.37,176.35-123.35,176.35Z"/><path class="cls-33" d="M852.81,771c-127.51,0-124-156.2-119-163.16,1.1-1.53,3.79-1.83,5.41-1.64a38.71,38.71,0,0,1,8,2.31c3.39,1.18,6.78,2.35,10.21,3.4a56.48,56.48,0,0,0,12,2.54,46.43,46.43,0,0,0,9.43-.08q1-.12,1.92-.33a59.37,59.37,0,0,0,10-3.62c2-.84,4.12-1.6,6.19-2.38,7.2-2.72,13.86-6.45,20.65-10.12,10.31-5.56,24.8-10.84,41.63-10.55h.34c16.83-.29,31.33,5,41.64,10.55,6.78,3.67,13.45,7.4,20.64,10.12,2.07.78,4.14,1.54,6.19,2.38A59.68,59.68,0,0,0,938,614q.94.21,1.92.33a46.44,46.44,0,0,0,9.43.08,56.48,56.48,0,0,0,12-2.54c3.43-1.05,6.82-2.22,10.22-3.4a38.62,38.62,0,0,1,8-2.31c1.62-.19,4.31.11,5.41,1.64,5,7,8.11,163.16-119.4,163.16Z"/><path class="cls-34" d="M769.82,648.47s56.54,20.09,96.41,19.9c37-.17,89.43-19.9,89.43-19.9s-47.43,4.91-89.1,4.33S769.82,648.47,769.82,648.47Z"/><path class="cls-34" d="M769.82,692.77s60.09,18.56,94.68,17.94c37-.67,91.16-17.94,91.16-17.94s-47.43,3.12-89.1,2.53S769.82,692.77,769.82,692.77Z"/><path class="cls-34" d="M769.82,727.09s59.44,21.14,98.11,20.85c37-.26,87.73-23.53,87.73-23.53s-48.47,10.63-90.15,10S769.82,727.09,769.82,727.09Z"/><path class="cls-35" d="M737.24,617.87c1.07-1.49,3.67-1.77,5.23-1.59a38.15,38.15,0,0,1,7.71,2.23c3.27,1.14,6.55,2.27,9.86,3.28a54.14,54.14,0,0,0,11.56,2.46,44.83,44.83,0,0,0,9.12-.08c.63-.08,1.24-.18,1.85-.31a58,58,0,0,0,9.67-3.5c2-.81,4-1.55,6-2.3,6.95-2.63,13.39-6.23,19.95-9.77a82.32,82.32,0,0,1,40.22-10.2h.33a82.32,82.32,0,0,1,40.22,10.2c6.56,3.54,13,7.14,19.95,9.77,2,.75,4,1.49,6,2.3a58.3,58.3,0,0,0,9.67,3.5c.61.13,1.23.23,1.85.31a44.84,44.84,0,0,0,9.12.08,54.14,54.14,0,0,0,11.56-2.46c3.31-1,6.59-2.14,9.87-3.28a38.06,38.06,0,0,1,7.7-2.23c1.57-.18,4.17.1,5.23,1.59,3,4.18,5.29,64.3-23.17,109,33.93-46.76,31.51-114.6,28.25-119.13-1.1-1.53-3.79-1.83-5.41-1.64a38.62,38.62,0,0,0-8,2.31c-3.4,1.18-6.79,2.35-10.22,3.4a56.48,56.48,0,0,1-12,2.54,46.44,46.44,0,0,1-9.43-.08q-1-.12-1.92-.33a59.68,59.68,0,0,1-10-3.62c-2-.84-4.12-1.6-6.19-2.38-7.19-2.72-13.86-6.45-20.64-10.12-10.31-5.56-24.81-10.84-41.64-10.55h-.34c-16.83-.29-31.32,5-41.63,10.55-6.79,3.67-13.46,7.4-20.65,10.12-2.07.78-4.14,1.54-6.19,2.38a59.37,59.37,0,0,1-10,3.62q-.94.21-1.92.33a46.43,46.43,0,0,1-9.43.08,56.48,56.48,0,0,1-12-2.54c-3.43-1.05-6.82-2.22-10.21-3.4a38.71,38.71,0,0,0-8-2.31c-1.62-.19-4.31.11-5.41,1.64-2.76,3.84-5,53.11,14.89,96.51C732.63,664.18,734.72,621.37,737.24,617.87Z"/><path class="cls-4" d="M2496.32,382.93c-.84,160.25-131.44,289.47-291.7,288.63S1915.14,540.11,1916,379.86s131.45-289.48,291.7-288.63S2497.16,222.67,2496.32,382.93Z"/><polygon class="cls-52" points="2370.26 588.58 2042.05 588.58 2042.05 292.52 2206.84 185.85 2370.26 292.52 2370.26 588.58"/><polygon class="cls-53" points="2294.68 323.29 2294.68 290.57 2206.52 233.03 2117.63 290.57 2117.63 323.29 2294.68 323.29"/><polygon class="cls-54" points="2287.09 316.28 2287.09 295.57 2206.5 242.98 2125.22 295.57 2125.22 316.28 2287.09 316.28"/><rect class="cls-55" x="2042.05" y="572.86" width="328.21" height="15.72"/><rect class="cls-53" x="2060.51" y="365" width="118.98" height="223.59"/><rect class="cls-56" x="2071.79" y="380.39" width="96.41" height="77.95"/><rect class="cls-56" x="2071.79" y="472.69" width="96.41" height="105.64"/><rect class="cls-5" x="2160.52" y="465" width="7.68" height="23.59"/><rect class="cls-56" x="2192.82" y="362.95" width="158.96" height="175.38"/><rect class="cls-54" x="2201.4" y="371.66" width="141.8" height="157.95"/><g class="cls-57"><polygon class="cls-3" points="2201.4 442.2 2201.4 468.25 2285.56 371.66 2262.85 371.66 2201.4 442.2"/><polygon class="cls-3" points="2314.47 371.66 2303.56 371.66 2201.4 488.91 2201.4 501.45 2314.47 371.66"/><polygon class="cls-3" points="2343.2 391.16 2343.2 371.66 2337.91 371.66 2201.4 528.36 2201.4 529.61 2222.59 529.61 2343.2 391.16"/></g><rect class="cls-56" x="2268.12" y="368.08" width="8.38" height="165.12"/><rect class="cls-53" x="1966.41" y="225.16" width="268.71" height="26.67" transform="translate(209.55 1183.71) rotate(-33.03)"/><polygon class="cls-53" points="2416.91 322.92 2431.44 300.56 2206.15 154.08 2191.63 176.44 2416.91 322.92"/><g class="cls-57"><polygon class="cls-3" points="2206.5 242.98 2167.63 268.12 2125.67 316.28 2154.26 316.28 2213.91 247.82 2206.5 242.98"/><polygon class="cls-3" points="2228.36 257.26 2176.95 316.28 2190.7 316.28 2237.14 262.98 2228.36 257.26"/><polygon class="cls-3" points="2255.97 275.26 2220.24 316.28 2248.29 316.28 2273.86 286.94 2255.97 275.26"/></g><path class="cls-3" d="M2074.07,740h-.15c-.47,0-.71-.15-.71-.46a1.35,1.35,0,0,1,.22-.64,2.93,2.93,0,0,0,.31-1.31,4.4,4.4,0,0,0-1.13-3.07,6.06,6.06,0,0,0-3.69-1.65,4.65,4.65,0,0,0-4.08,1.92,9,9,0,0,0-1.34,5.21q.24,5.93,6,8.26t7.91,5.5a11.8,11.8,0,0,1,2.18,6.81,12.26,12.26,0,0,1-.6,3.76q-3.51,11-12.17,11c-.52,0-1.05,0-1.59-.08q-8.29-.88-8.3-10.24a21.82,21.82,0,0,1,.14-2.42,1.84,1.84,0,0,1,1.26-1.63,5.47,5.47,0,0,1,1.54-.42.85.85,0,0,1,.92.85q.18,8.86,6.17,10a6.14,6.14,0,0,0,1.42.18q3,0,5-3.4a13,13,0,0,0,1.67-6.07,11.14,11.14,0,0,0-1.24-5.83c-.82-1.34-3.14-2.89-6.93-4.65a13,13,0,0,1-7.4-8.32,9.55,9.55,0,0,1-.42-2.8c0-2.06.92-4.44,2.76-7.16a9.23,9.23,0,0,1,8.16-4.08,7,7,0,0,1,5.45,2.25,6.5,6.5,0,0,1,2,4.17,5.39,5.39,0,0,1-1.53,3.54A2.59,2.59,0,0,1,2074.07,740Z"/><path class="cls-3" d="M2095.34,733.12a65.29,65.29,0,0,1,.29,7.16c0,1.07,0,2.22,0,3.44q-.14,9.12-.14,12.28v1.45c.1,2.77.14,5.19.14,7.27,0,5.35-.34,8.44-1,9.29a3.72,3.72,0,0,1-2.27,1.17,2.45,2.45,0,0,1-.46,0c-.68,0-1-.32-1-1a1.33,1.33,0,0,1,0-.32v-.67q0-2.7.18-16.21,0-4.26.39-13.2t.5-10.85h0c-.9,0-1.62,0-2.17.07-2,.17-3.52.25-4.67.25a8.39,8.39,0,0,1-3.2-.42c-.31-.15-.46-.32-.46-.54s.26-.61.78-1a3.58,3.58,0,0,1,1.92-.85h.18c-.1,0-.15,0-.15-.07s2.64-.44,7.91-.89c.64,0,1.44-.07,2.41-.07,1.19,0,2.59,0,4.22.11,1.35.07,2.55.1,3.58.1a26.69,26.69,0,0,0,3.09-.14l.54,0c.72,0,1.09.23,1.09.7a1.64,1.64,0,0,1-.18.68,3.2,3.2,0,0,1-2.3,2,23.81,23.81,0,0,1-4.72.39c-.82,0-1.71,0-2.66-.07Z"/><path class="cls-3" d="M2108,765.18a62.51,62.51,0,0,1-2.52,7.91,2.76,2.76,0,0,1-2.19,1.31,3.85,3.85,0,0,1-.68.08c-.52,0-.78-.21-.78-.61a2.06,2.06,0,0,1,.07-.46q1.56-5.14,5.16-19.22t6.23-21.64a3.86,3.86,0,0,1,1.91-1.81,2.91,2.91,0,0,1,1.28-.39.91.91,0,0,1,.89.68,96.84,96.84,0,0,1,3,12.23c1,5.32,2.07,9.87,3.12,13.64s2.08,7.27,3.08,10.5a36.92,36.92,0,0,1,1.51,5.58v.08c-.17.73-.91,1.36-2.24,1.88a3.25,3.25,0,0,1-1.17.28c-.56,0-.85-.32-.85-1,0,.07,0,.11,0,.11a23.38,23.38,0,0,1-1.6-4.33c-.29-.8-.73-2.3-1.35-4.5-.21-.74-.41-1.44-.6-2.09q-1.84.24-5.78,1A36.79,36.79,0,0,1,2108,765.18Zm.85-3.37q8.45-1.48,10.44-1.77c-1-4-1.88-8.1-2.67-12.24s-1.34-7-1.7-8.62q-3,9.2-4.1,14.19T2108.89,761.81Z"/><path class="cls-3" d="M2136.38,757.84q-1.7-3.95-4.7-12.06T2127,732a1.06,1.06,0,0,1-.11-.46c0-.55.41-1,1.24-1.53a2.53,2.53,0,0,1,1.24-.42,1,1,0,0,1,.89.53,122.6,122.6,0,0,1,5,12.46q2.2,6.48,3.37,9.42a170.84,170.84,0,0,0,7.91-20.64c.28-.83,1.11-1.42,2.48-1.77a3.49,3.49,0,0,1,.92-.15c.52,0,.79.22.79.64a1.46,1.46,0,0,1-.11.5q-4.86,15.36-7.56,21.19t-2.94,6c0,.42,0,.88,0,1.35q0,2.34-.17,7.21a22.65,22.65,0,0,1-1,7q-.86,2.1-2.31,2.1a1.27,1.27,0,0,1-1-.57,2.31,2.31,0,0,1-.17-1.1q0-.75.37-7.08C2136,762.43,2136.21,759.5,2136.38,757.84Z"/><path class="cls-3" d="M2177.7,765.18a62.51,62.51,0,0,1-2.52,7.91,2.76,2.76,0,0,1-2.19,1.31,3.85,3.85,0,0,1-.68.08c-.52,0-.78-.21-.78-.61a1.61,1.61,0,0,1,.07-.46q1.56-5.14,5.16-19.22t6.23-21.64a3.86,3.86,0,0,1,1.91-1.81,2.91,2.91,0,0,1,1.28-.39.91.91,0,0,1,.89.68,95.41,95.41,0,0,1,3,12.23q1.55,8,3.13,13.64t3.08,10.5a36.92,36.92,0,0,1,1.51,5.58v.08c-.17.73-.91,1.36-2.24,1.88a3.25,3.25,0,0,1-1.17.28c-.56,0-.85-.32-.85-1,0,.07,0,.11,0,.11a23.38,23.38,0,0,1-1.6-4.33c-.29-.8-.73-2.3-1.35-4.5-.21-.74-.41-1.44-.6-2.09q-1.84.24-5.78,1A36.79,36.79,0,0,1,2177.7,765.18Zm.85-3.37Q2187,760.33,2189,760q-1.5-6-2.67-12.24t-1.7-8.62q-3,9.2-4.1,14.19T2178.55,761.81Z"/><path class="cls-3" d="M2208.56,733.12a65.86,65.86,0,0,1,.28,7.16c0,1.07,0,2.22,0,3.44q-.15,9.12-.15,12.28v1.45q.15,4.15.15,7.27c0,5.35-.35,8.44-1,9.29a3.72,3.72,0,0,1-2.26,1.17,2.6,2.6,0,0,1-.46,0c-.69,0-1-.32-1-1a2,2,0,0,1,0-.32v-.67q0-2.7.18-16.21c0-2.84.16-7.24.39-13.2s.38-9.55.5-10.85h0c-.9,0-1.62,0-2.16.07-2,.17-3.52.25-4.68.25a8.29,8.29,0,0,1-3.19-.42c-.31-.15-.47-.32-.47-.54s.26-.61.78-1a3.61,3.61,0,0,1,1.92-.85h.18c-.1,0-.15,0-.15-.07s2.64-.44,7.91-.89c.64,0,1.45-.07,2.42-.07,1.18,0,2.59,0,4.22.11,1.34.07,2.54.1,3.58.1a26.5,26.5,0,0,0,3.08-.14l.54,0c.73,0,1.1.23,1.1.7a1.64,1.64,0,0,1-.18.68,3.19,3.19,0,0,1-2.31,2,23.74,23.74,0,0,1-4.72.39c-.82,0-1.71,0-2.66-.07Z"/><path class="cls-3" d="M2247.11,757c0,.81-.06,1.63-.1,2.45q-.21,4-.29,9.15,0,4.51-1,5.64c-.92,1-1.68,1.56-2.27,1.56s-.8-.31-1-.92q0,.08.21-6.1.18-5.74.29-10.14.63-25.08,1-27c.11-.59.67-1.08,1.66-1.45a2.3,2.3,0,0,1,.86-.22c.44,0,.69.25.74.75.26,2.76.39,6.29.39,10.56,0,3.77-.1,8.09-.29,13a.21.21,0,0,0,.11,0q3.12-1,13.76-1.13h.22c0-.69.09-1.46.14-2.31.16-2.69.27-4.86.32-6.49v-.85c0-1.28,0-3.13-.11-5.57,0-1.18,0-2.25,0-3.19,0-1.28,0-2.35.07-3.23.05-.57.52-1.11,1.39-1.63a2.17,2.17,0,0,1,1-.35.71.71,0,0,1,.7.53q.93,2.37.93,11.31,0,5.33-.32,13c0,.73,0,1.58,0,2.55,0,1.3,0,2.83.06,4.58q.11,4,.11,6.13v1c-.05,2.32-.08,3.8-.11,4.44v.17a2.19,2.19,0,0,1,0,.36.6.6,0,0,1,0,.21c-.07.59-.58,1.15-1.5,1.67a2.72,2.72,0,0,1-1.31.42,1.05,1.05,0,0,1-.81-.35c-.38-.43-.57-1.77-.57-4v-.78q0-.57,0-1.35c0-1.32,0-3.1-.14-5.32,0-1.63-.07-3.06-.07-4.29,0-.9,0-1.69,0-2.38,0-.38.06-.92.11-1.63a2.38,2.38,0,0,1-1.38.64q-2.31.26-6.56.43C2250.53,756.8,2248.48,756.91,2247.11,757Z"/><path class="cls-3" d="M2281.13,731.31q0-.49,1.08-1.47a3.72,3.72,0,0,1,2.57-1q7.06,1.25,9.76,11.14a41.37,41.37,0,0,1,1.42,10.92c0,1.59-.09,3.22-.25,4.9a29.89,29.89,0,0,1-4.72,13.8c-2.61,3.92-5.7,5.88-9.3,5.88a11.6,11.6,0,0,1-3-.42q-8.29-2.26-8.3-17.1a60.86,60.86,0,0,1,.53-8.12q2.24-16.14,10.64-18A.7.7,0,0,1,2281.13,731.31Zm2.44,1.52a1.94,1.94,0,0,1-1.11,1.12,8.57,8.57,0,0,0-1.39.69,7.37,7.37,0,0,0-1.59,1.67,14.26,14.26,0,0,0-1.86,3.69,42.11,42.11,0,0,0-2.52,11.56c-.12,1.77-.18,3.43-.18,5q0,8.87,2.2,12c1.47,2.12,3.13,3.17,5,3.17q3.9,0,6.14-3.93c1.8-3.12,2.79-7.35,3-12.66,0-.95.07-1.87.07-2.77q0-15.61-7.7-19.58S2283.57,732.81,2283.57,732.83Z"/><path class="cls-3" d="M2305,738.58q0,5.43,0,18.76t-.34,15.89c-.1.76-.79,1.39-2.09,1.88a3,3,0,0,1-1.07.25.92.92,0,0,1-1-.88q.15-.75.16-19.83t0-22.7c.17-1.07.57-1.72,1.23-2a4.57,4.57,0,0,1,1.33-.37,1.84,1.84,0,0,1,.74.14,13.47,13.47,0,0,1,2.19,2.66,82.45,82.45,0,0,1,4.89,8.21c2.05,3.8,3.56,6.46,4.56,8q2.91-5.57,9.22-17.59a4.12,4.12,0,0,1,2.44-1.49,3,3,0,0,1,1.07-.25c.54,0,.82.3.82.92v0q-.36,11-.36,20,0,13,.57,22.09v.18c0,1-.75,1.8-2.23,2.34a5,5,0,0,1-1.46.28c-.64,0-1-.28-1-.85v-.14q-.32-8.3-.32-18.19,0-7.87.22-16.78-7.39,13.8-7.38,14c-.87,1.14-1.66,1.7-2.34,1.7a1.75,1.75,0,0,1-1.42-1A164.66,164.66,0,0,1,2305,738.58Z"/><path class="cls-3" d="M2336.92,775.36a1.86,1.86,0,0,1-.64.14c-.45,0-.67-.26-.67-.78a1.32,1.32,0,0,1,.28-.85c0-1,0-2,0-3.23q0-3.58.11-8.58.18-7.56.18-11.31,0-16.68.21-18.55a2.63,2.63,0,0,1-1.21-.5.75.75,0,0,1-.21-.46c0-.38.37-.74,1.1-1.1q1.74-.89,8.27-.92h3q5.58,0,6.85.1c.78.07,1.17.31,1.17.71a1.66,1.66,0,0,1-.46,1,3.71,3.71,0,0,1-2.48,1.53c-1.3.11-3.2.17-5.68.17-1.56,0-3.35,0-5.35-.07-.48,0-.91,0-1.31,0,.07.82.11,2,.13,3.58q.23,8,.27,11c0,2,.07,3.15.09,3.53q3.58-.36,8.58-.36h.07c.69,0,1,.2,1,.6a3.44,3.44,0,0,1-.59,1.28,2.32,2.32,0,0,1-1.72,1.13c-3.31.27-5.76.44-7.34.54q.07,5.25.07,8.51c0,1.23,0,2.32,0,3.26,0,2.34-.07,4.08-.14,5.22q-.08.74-.18,1.35a38.06,38.06,0,0,1,6.85-.54c2.15,0,4.52.12,7.13.36.73.07,1.1.32,1.1.74a1.57,1.57,0,0,1-.29.78,3,3,0,0,1-2.06,1.53c-.75.09-2.74.14-6,.14h-6.74c-1.63,0-2.64.07-3,.07h0A1.24,1.24,0,0,1,2336.92,775.36Z"/></g></g></svg>