<svg xmlns="http://www.w3.org/2000/svg" viewBox="0 0 240 240"><defs><style>.cls-1{fill:#cbcbcb;}.cls-2{fill:#e3e3e3;}.cls-3{fill:#f0f0f0;}.cls-4{fill:#ccc;}.cls-5{fill:#f1f1f1;}</style></defs><g id="Layer_2" data-name="Layer 2"><g id="Layer_1-2" data-name="Layer 1"><path class="cls-1" d="M240,1V240H0V1ZM129.12,170c15.83,0,31.66,0,47.49,0,7.4,0,8.33-.95,8.34-8.4,0-18.17-.08-36.34.05-54.5.08-11.95-2.2-11.51-10.85-11.09-3.86.19-5.83-1.59-6.66-5.23-.93-4.06-2-8.09-3.15-12.09-2-6.89-3.49-7.66-10.46-5.8-9.66,2.58-19.34,5.08-29,7.67q-31.62,8.49-63.21,17c-5.22,1.42-5.94,2.48-4.65,7.36q7.68,29,15.52,58c1.7,6.22,3,7.08,9.58,7.1Q105.62,170.08,129.12,170Z"/><path class="cls-2" d="M240,1H0A14.28,14.28,0,0,1,3.5,0q38-.08,76,0Q157.76,0,236,0A17.63,17.63,0,0,1,240,1Z"/><path class="cls-3" d="M129.12,170.05q-23.5,0-47,0c-6.6,0-7.88-.88-9.58-7.1Q64.69,134,57,105c-1.29-4.88-.57-5.94,4.65-7.36q31.59-8.55,63.21-17c9.65-2.59,19.33-5.09,29-7.67,7-1.86,8.47-1.09,10.46,5.8,1.15,4,2.22,8,3.15,12.09.83,3.64,2.8,5.42,6.66,5.23,8.65-.42,10.93-.86,10.85,11.09-.13,18.16,0,36.33-.05,54.5,0,7.45-.94,8.39-8.34,8.4C160.78,170.07,145,170,129.12,170.05Zm-.63-7c13.65,0,27.3,0,40.95,0,7.28,0,8.49-1.14,8.52-8.34q.09-22.49,0-45c0-6.52-1.12-7.66-7.52-7.67q-41-.06-81.9,0c-6.41,0-7.5,1.14-7.52,7.67Q80.94,133,81,156.2c0,6.1.77,6.82,7,6.84C101.52,163.08,115,163.05,128.49,163.06ZM96,94.78,96.13,96c10.46,0,20.92.13,31.37-.15,1.62,0,3.42-1.72,4.72-3,3.24-3.31,8.12-3.9,10.94-.39a8.78,8.78,0,0,0,8.14,3.68c3.2-.21,6.42-.25,10.29-.39-1-3.85-1.79-6.69-2.47-9.56-1.67-7-2.61-7.57-9.68-5.65q-12.3,3.35-24.61,6.62Q110.42,90.94,96,94.78ZM72.55,137l1.4-.22q0-15.88,0-31.79c0-2.84-1.39-3.8-4.19-3.16-3.77.85-5.38,2.49-4.5,6.32C67.48,117.85,70.09,127.43,72.55,137Z"/><path class="cls-1" d="M128.49,163.06c-13.49,0-27,0-40.45,0-6.25,0-7-.74-7-6.84q-.08-23.22,0-46.46c0-6.53,1.11-7.66,7.52-7.67q41-.06,81.9,0c6.4,0,7.5,1.15,7.52,7.67q.07,22.49,0,45c0,7.2-1.24,8.33-8.52,8.34C155.79,163.08,142.14,163.06,128.49,163.06Zm39-5.35a17.21,17.21,0,0,0-2.17-2.55c-11.59-7.82-23.23-15.58-34.8-23.43-2.88-1.95-4.72-1-6.73,1.44-2.74,3.38-4,3.39-7.49.73s-6.81-5.35-10.24-8c-4.56-3.5-6.28-3.28-9,1.65-3.21,5.83-6.26,11.77-9.14,17.77a19.75,19.75,0,0,0-1.78,6.7c-.35,3.87,1.23,5.55,5,5.95a33.82,33.82,0,0,0,3.49.09q33.24,0,66.47,0C162.94,158.05,164.69,157.87,167.54,157.71ZM154.36,122c4.17,0,7.17-2.34,7.31-5.84.17-4.08-3.33-8-7.16-8a7.49,7.49,0,0,0-7.3,7.29C147.15,119.3,150,121.94,154.36,122Z"/><path class="cls-4" d="M96,94.78q14.43-3.86,28.84-7.71,12.31-3.28,24.61-6.62c7.07-1.92,8-1.36,9.68,5.65.68,2.87,1.47,5.71,2.47,9.56-3.87.14-7.09.18-10.29.39a8.78,8.78,0,0,1-8.14-3.68c-2.82-3.51-7.7-2.92-10.94.39-1.3,1.32-3.1,3-4.72,3-10.45.28-20.91.15-31.37.15Z"/><path class="cls-1" d="M72.55,137c-2.46-9.61-5.07-19.19-7.29-28.85-.88-3.83.73-5.47,4.5-6.32,2.8-.64,4.18.32,4.19,3.16q0,15.9,0,31.79Z"/><path class="cls-5" d="M167.54,157.71c-2.85.16-4.6.34-6.36.34q-33.23,0-66.47,0a33.82,33.82,0,0,1-3.49-.09c-3.8-.4-5.38-2.08-5-5.95a19.75,19.75,0,0,1,1.78-6.7c2.88-6,5.93-11.94,9.14-17.77,2.72-4.93,4.44-5.15,9-1.65,3.43,2.65,6.8,5.37,10.24,8s4.75,2.65,7.49-.73c2-2.49,3.85-3.39,6.73-1.44,11.57,7.85,23.21,15.61,34.8,23.43A17.21,17.21,0,0,1,167.54,157.71Z"/><path class="cls-5" d="M154.36,122c-4.35-.06-7.21-2.7-7.15-6.58a7.49,7.49,0,0,1,7.3-7.29c3.83,0,7.33,4,7.16,8C161.53,119.66,158.53,122.05,154.36,122Z"/></g></g></svg>