<svg xmlns="http://www.w3.org/2000/svg" viewBox="0 0 750 500"><defs><style>.cls-1{isolation:isolate;}.cls-2{fill:#f5f5f8;}.cls-3{fill:#c4c4d6;}.cls-4{fill:#e1e1ea;}.cls-14,.cls-5{fill:#513c6b;}.cls-5{opacity:0.2;mix-blend-mode:multiply;}.cls-6{fill:#362344;}.cls-7{fill:#422b53;}.cls-8{fill:#38bbff;}.cls-9{fill:#9b5d5a;}.cls-10{fill:#ffd63a;}.cls-11{fill:#873d4f;}.cls-12{fill:#2d1e3c;}.cls-13{fill:#fff;}.cls-15{fill:#665485;}.cls-16{fill:#a6cfea;}.cls-17{fill:#a3d1e4;}.cls-18{fill:#ff8b3a;}.cls-19{fill:#ffc297;}.cls-20{fill:#ffa788;}.cls-21{fill:#6c4856;}.cls-22{fill:#84bddb;}.cls-23{fill:#713d59;}.cls-24{fill:#ff6e80;}.cls-25{fill:#ffe165;}</style></defs><g class="cls-1"><g id="OBJECTS"><path class="cls-2" d="M209.58,24.26h0a72.63,72.63,0,0,1,72.63,72.63V228.47a0,0,0,0,1,0,0H137a0,0,0,0,1,0,0V96.89A72.63,72.63,0,0,1,209.58,24.26Z"/><path class="cls-3" d="M285.71,232H133.46V96.89a76.13,76.13,0,1,1,152.25,0Zm-145.25-7H278.71V96.89a69.13,69.13,0,1,0-138.25,0Z"/><rect class="cls-3" x="206.08" y="24.26" width="7" height="204.21"/><rect class="cls-3" x="136.96" y="97.62" width="145.25" height="7"/><rect class="cls-3" x="136.96" y="161.89" width="145.25" height="7"/><path class="cls-2" d="M618.91,24.26h0a72.63,72.63,0,0,1,72.63,72.63V228.47a0,0,0,0,1,0,0H546.28a0,0,0,0,1,0,0V96.89a72.63,72.63,0,0,1,72.63-72.63Z"/><path class="cls-3" d="M695,232H542.78V96.89a76.13,76.13,0,0,1,152.26,0Zm-145.26-7H688V96.89a69.13,69.13,0,0,0-138.26,0Z"/><rect class="cls-3" x="615.41" y="24.26" width="7" height="204.21"/><rect class="cls-3" x="546.28" y="97.62" width="145.25" height="7"/><rect class="cls-3" x="546.28" y="161.89" width="145.25" height="7"/><circle class="cls-4" cx="363.94" cy="92.52" r="15.95"/><rect class="cls-3" x="362.44" width="3" height="70.91"/><path class="cls-3" d="M390,101.12H337.89V82.27a26.05,26.05,0,0,1,26.05-26h0a26.05,26.05,0,0,1,26,26.05Z"/><path class="cls-3" d="M370.33,59.4c0,4.14-2.78,7.49-6.21,7.49s-6.22-3.35-6.22-7.49,2.79-7.48,6.22-7.48S370.33,55.27,370.33,59.4Z"/><circle class="cls-4" cx="481.07" cy="120.79" r="15.95" transform="translate(185.38 519.02) rotate(-67.5)"/><rect class="cls-3" x="479.57" width="3" height="99.19"/><path class="cls-3" d="M507.12,129.39H455V110.55a26,26,0,0,1,26.05-26h0a26,26,0,0,1,26.05,26.05Z"/><ellipse class="cls-3" cx="481.25" cy="87.68" rx="6.21" ry="7.49"/><circle class="cls-4" cx="69.95" cy="133.12" r="15.95" transform="translate(-79.8 146.8) rotate(-67.5)"/><rect class="cls-3" x="68.45" width="3" height="111.51"/><path class="cls-3" d="M96,141.72H43.9V122.87A26,26,0,0,1,70,96.83h0a26,26,0,0,1,26.05,26Z"/><ellipse class="cls-3" cx="70.13" cy="100" rx="6.21" ry="7.49"/><rect class="cls-4" y="419.72" width="750" height="80.28"/><path class="cls-4" d="M250.26,448.06h-7.59V199.7a3.79,3.79,0,0,1,3.79-3.79h0a3.8,3.8,0,0,1,3.8,3.79Z"/><rect class="cls-3" x="233.82" y="394.05" width="25.28" height="54"/><path class="cls-4" d="M509.85,448.06h-7.58V199.7a3.79,3.79,0,0,1,3.79-3.79h0a3.79,3.79,0,0,1,3.79,3.79Z"/><rect class="cls-3" x="493.42" y="394.05" width="25.28" height="54"/><ellipse class="cls-5" cx="122.28" cy="446.57" rx="88.4" ry="15.87"/><rect class="cls-6" x="92.89" y="265.88" width="4.31" height="12.79" transform="translate(190.09 544.55) rotate(180)"/><rect class="cls-6" x="63.29" y="265.88" width="4.31" height="12.79" transform="translate(130.89 544.55) rotate(180)"/><rect class="cls-7" x="46.43" y="274.94" width="66.85" height="75.77" rx="12.5" transform="translate(159.72 625.65) rotate(180)"/><path class="cls-7" d="M66.36,271.65H94.65a12.93,12.93,0,0,0,12.93-12.94h0a12.93,12.93,0,0,0-12.93-12.93H66.36a12.93,12.93,0,0,0-12.94,12.93h0A12.94,12.94,0,0,0,66.36,271.65Z"/><path class="cls-8" d="M115.71,249.78s10.05-10.8,1.8-22.46S92.12,216.09,84,220.6C72.3,227,66.73,253.31,85.72,259.09A238,238,0,0,0,115.71,249.78Z"/><path class="cls-9" d="M120.63,279.44S116.8,297,99.55,296.77s-24-17.33-24-17.33l14.21-5.27.37-4.64.63-10.73.3-5.15,4.88,2,8.92,3.67,1.29,11.41.29,3.71Z"/><path class="cls-10" d="M128.31,348.37A111.21,111.21,0,0,1,100,357.9c-17.71,3.46-32.81-7.07-32.81-7.07l8.37-20.06-5.45-49,5.45-2.31S88.84,286,99.62,286s21-6.58,21-6.58l4.31,2.75L118.3,333.7Z"/><path class="cls-11" d="M106.16,270.74c-6.65.83-12.53.3-16-1.21l.63-10.73A16.82,16.82,0,0,1,96,255.66l8.92,3.67Z"/><path class="cls-9" d="M84,243l-.06,4v.29c-3.6,3.53-7.52-.87-7.32-4.39a3.49,3.49,0,0,1,1-2.29C80.69,237.35,84,243,84,243Z"/><path class="cls-11" d="M84,246.93v.29c-3.6,3.53-7.52-.87-7.32-4.39a3.28,3.28,0,0,1,3-.83C81.66,242.47,83.47,244.7,84,246.93Z"/><path class="cls-9" d="M114.58,242.92l.06,4v.29c3.6,3.53,7.52-.87,7.32-4.39a3.51,3.51,0,0,0-1-2.3C117.9,237.3,114.58,242.92,114.58,242.92Z"/><path class="cls-11" d="M114.64,246.88v.29c3.6,3.53,7.52-.87,7.32-4.39a3.23,3.23,0,0,0-3-.83C116.93,242.42,115.12,244.65,114.64,246.88Z"/><path class="cls-9" d="M115.56,237.67s4.33,13.65.49,22.37c-4.4,10-30.16,7.81-33.29-1.73-3-9.05.66-19.94.66-19.94s11.06-1.07,15.92-7.74C104.18,234.94,112.92,237.3,115.56,237.67Z"/><path class="cls-12" d="M108.69,244.29c.32.23.46,2.8,0,3.07a1.26,1.26,0,0,1-1.42-.13,6.63,6.63,0,0,1,0-2.94C107.44,243.9,108.31,244,108.69,244.29Z"/><path class="cls-12" d="M92.91,243.92c.32.23.46,2.81,0,3.07a1.24,1.24,0,0,1-1.42-.13,6.63,6.63,0,0,1,0-2.94C91.66,243.53,92.53,243.66,92.91,243.92Z"/><path class="cls-11" d="M98.81,249c-1.09-1.36-2.62.66-.92.95,1.27,1.84,3.33,1.92,4.79,0,1.74-.26.4-2.31-.66-1C100.92,248.25,100.16,247.78,98.81,249Z"/><path class="cls-8" d="M87.61,242.74A11.49,11.49,0,0,1,94.94,241C91.88,237.53,87.91,241,87.61,242.74Z"/><path class="cls-8" d="M111.7,243s-3.13-3.57-6.28-4.17C109.51,236.6,112,241.19,111.7,243Z"/><path class="cls-13" d="M101.51,253.65a18.65,18.65,0,0,1-6-2.33C94.56,255.66,100,256.49,101.51,253.65Z"/><path class="cls-13" d="M100.19,247.08c1.36-.08,11.72,2.34,12.87,3.78s1.52,10-3.4,12.66-18,3-21.83-1.21-3-10.84-2-11.9S98.36,247.19,100.19,247.08Z"/><path class="cls-13" d="M112,252.05l6.35-.67a.43.43,0,0,0,.38-.48.42.42,0,0,0-.47-.39l-5,.53L117,240.73a.45.45,0,0,0-.26-.56.44.44,0,0,0-.56.27Z"/><path class="cls-13" d="M87.14,251.52l-3.87-11.08a.43.43,0,1,0-.82.29l3.36,9.63-4.94-1a.42.42,0,0,0-.51.34.43.43,0,0,0,.33.51Z"/><path class="cls-9" d="M124.94,282.19s6,1.52,14.71,41.15c7.55,2.54,19.55,7.43,19.55,7.43l-32.08-.58-5.31-23.71S120.33,288.92,124.94,282.19Z"/><path class="cls-9" d="M70.11,281.75s-4.6-.27-6.27,11.62c-1.85,13.11.66,40.33.66,40.33h36.9s4.76-.45,4.76-4.71c2.11-.23,8.88-.13,8.88-.13s-3.26-3.21-5.22-3.56c-2.75-.49-4.4-.7-12.07,2-4.23.57-22.93-3.12-22.93-3.12S80.5,289.49,70.11,281.75Z"/><path class="cls-14" d="M37,336.87a3.2,3.2,0,0,0,.93,2.25,3.16,3.16,0,0,0,2.24.93H204.62a3.18,3.18,0,1,0,0-6.36H40.15A3.18,3.18,0,0,0,37,336.87Z"/><path class="cls-5" d="M37,336.87a3.2,3.2,0,0,0,.93,2.25,3.16,3.16,0,0,0,2.24.93H204.62a3.18,3.18,0,0,0,3.18-3.18Z"/><rect class="cls-14" x="193.23" y="340.05" width="7.58" height="108.01" transform="translate(394.04 788.11) rotate(180)"/><rect class="cls-14" x="42.68" y="340.05" width="7.58" height="108.01" transform="translate(92.94 788.11) rotate(180)"/><rect class="cls-15" x="50.26" y="340.05" width="142.97" height="99.79" transform="translate(243.49 779.89) rotate(180)"/><rect class="cls-5" x="50.26" y="340.05" width="142.97" height="10.66" transform="translate(243.49 690.76) rotate(180)"/><rect class="cls-16" x="130.97" y="282.19" width="66.68" height="51.5" rx="5.66" transform="translate(328.62 615.89) rotate(180)"/><path class="cls-16" d="M102.54,327.84H173.8a4.57,4.57,0,0,1,4.57,4.57v1.28a0,0,0,0,1,0,0H102.54a0,0,0,0,1,0,0v-5.86A0,0,0,0,1,102.54,327.84Z" transform="translate(280.91 661.54) rotate(180)"/><path class="cls-13" d="M158.68,307.94a6.66,6.66,0,1,1,6.66,6.66A6.66,6.66,0,0,1,158.68,307.94Z"/><path class="cls-8" d="M87.49,224.59a10.44,10.44,0,0,0,4.7-6,7.72,7.72,0,0,0-1.65-7.27,9.18,9.18,0,0,0-3.87-2.29,15.05,15.05,0,0,0-15.78,4.42,11.23,11.23,0,0,0-2.74,5.89,7.64,7.64,0,0,0,1.88,6.1c1.79,1.89,4.52,2.52,7.11,2.84a22.13,22.13,0,0,0,7.53-.12,11.06,11.06,0,0,0,6.41-3.75"/><polygon class="cls-17" points="54.86 314.61 53.42 333.69 42.68 333.69 41.05 314.61 54.86 314.61"/><ellipse class="cls-5" cx="375.26" cy="446.57" rx="88.4" ry="15.87"/><rect class="cls-6" x="400.45" y="265.88" width="4.31" height="12.79"/><rect class="cls-6" x="430.05" y="265.88" width="4.31" height="12.79"/><rect class="cls-7" x="384.37" y="274.94" width="66.85" height="75.77" rx="12.5"/><path class="cls-7" d="M431.29,271.65H403a12.94,12.94,0,0,1-12.94-12.94h0A12.93,12.93,0,0,1,403,245.78h28.28a12.93,12.93,0,0,1,12.94,12.93h0A12.94,12.94,0,0,1,431.29,271.65Z"/><path class="cls-18" d="M382.35,247.51s-9.64-4.9-8.22-18l2.58,1.25a12.59,12.59,0,0,1,1-11.3c4.71,3.29,24.31-7.82,32.21.63,14.1-5.73,16.18,30.53,4.21,34.69C401.61,257.2,382.35,247.51,382.35,247.51Z"/><path class="cls-19" d="M377,279.44s3.83,17.55,21.09,17.33,24-17.33,24-17.33l-14.22-5.27-.37-4.64-.63-10.73-.3-5.15-4.88,2-8.92,3.67-1.29,11.41-.29,3.71Z"/><path class="cls-20" d="M391.49,270.74c6.66.83,12.53.3,16-1.21l-.63-10.73a16.7,16.7,0,0,0-5.18-3.14l-8.92,3.67Z"/><path class="cls-19" d="M414.71,244.34l.06,4v.29c3.6,3.53,7.52-.87,7.32-4.39a3.49,3.49,0,0,0-1-2.29C418,238.72,414.71,244.34,414.71,244.34Z"/><path class="cls-20" d="M414.77,248.3v.29c3.6,3.53,7.52-.87,7.32-4.39a3.28,3.28,0,0,0-3-.83C417.06,243.84,415.25,246.07,414.77,248.3Z"/><path class="cls-19" d="M383,245.27l-.06,4v.29c-3.6,3.53-7.52-.87-7.32-4.39a3.53,3.53,0,0,1,1-2.3C379.72,239.65,383,245.27,383,245.27Z"/><path class="cls-20" d="M383,249.23v.29c-3.6,3.53-7.52-.87-7.32-4.39a3.28,3.28,0,0,1,3-.83C380.69,244.77,382.5,247,383,249.23Z"/><path class="cls-19" d="M382.1,237.67s-3.53,13.36,1,21.75c6.56,12.23,27.78,9.61,31.81-1.11,3.35-8.91-.65-19.94-.65-19.94s-5.52-3.4-5.88-8.34C407.38,233.68,385.67,238.14,382.1,237.67Z"/><path class="cls-12" d="M389,244.29c-.32.23-.45,2.8.05,3.07a1.26,1.26,0,0,0,1.42-.13,6.63,6.63,0,0,0,0-2.94C390.21,243.9,389.34,244,389,244.29Z"/><path class="cls-12" d="M404.74,243.92c-.32.23-.45,2.81.05,3.07a1.24,1.24,0,0,0,1.42-.13,6.63,6.63,0,0,0,0-2.94C406,243.53,405.12,243.66,404.74,243.92Z"/><path class="cls-13" d="M395.46,254.42a19,19,0,0,0,6.38-.82C401.73,258,396.23,257.53,395.46,254.42Z"/><path class="cls-20" d="M397.61,242.74c1.94-.23,2.3,7.77,1.95,8.58s-4.09.79-4.53,0S395.83,243,397.61,242.74Z"/><path class="cls-18" d="M386.4,240.66c.12,1.61,6.05,1.42,5.69-.62S386.22,238.17,386.4,240.66Z"/><path class="cls-18" d="M403.52,240.66c.12,1.61,6.05,1.42,5.69-.62S403.34,238.17,403.52,240.66Z"/><path class="cls-21" d="M391.2,274.45s-23.76,5.78-25.55,7.42-9.32,44.49-9.32,44.49L329.9,328l-.41,5.66h41.1l3.4-19.63v19.63h62.9s0-45.58-2.53-51.5c-.61-1.43-26.48-8-26.48-8l-10.57,7.7Z"/><rect class="cls-22" x="335.44" y="329.83" width="40.83" height="3.87" rx="1.93"/><polygon class="cls-13" points="391.2 274.45 390.8 272.43 397.95 278.67 408.3 271.98 407.88 274.17 397.31 294.6 391.2 274.45"/><polygon class="cls-5" points="391.2 274.45 386.4 283.26 390.07 285.08 386.4 291.36 397.31 316.69 411.03 288.11 406.37 284.07 411.03 281.88 407.88 274.17 397.31 294.6 391.2 274.45"/><polygon class="cls-5" points="397.95 278.67 395.46 283.29 397.96 281.86 400.45 283.29 397.95 278.67"/><polygon class="cls-5" points="422.1 302.76 422.1 320.9 395.46 326.36 395.46 333.69 392.56 333.69 393.33 324.94 419.73 319.02 422.1 302.76"/><path class="cls-19" d="M395.46,326.36s-5.2-1.25-6.17-1.44-5.56,1.49-6.85,2.13-2.84,3.94-2.78,4.59,1.29.65,1.29.65l1.1-1.36s.67,2.76,1.14,2.76h1.58a9.93,9.93,0,0,0-.13-2.37s6.66,2.91,10.82,1.48A41.53,41.53,0,0,0,395.46,326.36Z"/><path class="cls-19" d="M382.63,327.31a38.24,38.24,0,0,0-3.87.91,1.06,1.06,0,0,0,0,1.42c.45.42,2.13,0,2.13,0"/><path class="cls-13" d="M399.68,329.43a.87.87,0,1,1-.86-.86A.86.86,0,0,1,399.68,329.43Z"/><path class="cls-13" d="M397.31,247c-1.35-.08-11.72,2.34-12.87,3.78s-1.52,10,3.41,12.66,18,3,21.82-1.22,3-10.83,2-11.9S399.14,247.07,397.31,247Z"/><path class="cls-13" d="M380.78,253.37a.43.43,0,0,1-.15-.84l3.67-1.36-3.56-8a.43.43,0,0,1,.79-.35l3.94,8.86-4.53,1.67A.45.45,0,0,1,380.78,253.37Z"/><path class="cls-13" d="M410.22,251.32l5.33-8.81a.44.44,0,0,1,.75.45l-4.46,7.36,4.85-.39a.43.43,0,0,1,.07.86Z"/><path class="cls-15" d="M296.17,313.69h69.2a4,4,0,0,1,4,4v2.22a0,0,0,0,1,0,0H292.2a0,0,0,0,1,0,0v-2.22A4,4,0,0,1,296.17,313.69Z"/><rect class="cls-15" x="292.2" y="319.89" width="7.4" height="14.67"/><rect class="cls-15" x="361.95" y="319.89" width="7.4" height="14.67"/><rect class="cls-14" x="299.59" y="319.89" width="62.35" height="14.67"/><rect class="cls-22" x="291.33" y="243.3" width="77.15" height="60.33" rx="4.65"/><path class="cls-5" d="M299.12,299.25h0a2.28,2.28,0,0,1-2.28-2.28h0a2.28,2.28,0,0,1,2.28-2.28h0A2.28,2.28,0,0,1,301.4,297h0A2.28,2.28,0,0,1,299.12,299.25Z"/><path class="cls-5" d="M306.7,299.25h0a2.28,2.28,0,0,1-2.27-2.28h0a2.28,2.28,0,0,1,2.27-2.28h0A2.28,2.28,0,0,1,309,297h0A2.28,2.28,0,0,1,306.7,299.25Z"/><rect class="cls-5" x="351.65" y="294.69" width="2.17" height="4.56"/><rect class="cls-5" x="346.19" y="294.69" width="2.17" height="4.56"/><path class="cls-17" d="M340.65,313.69H318.33V275.43a11.16,11.16,0,0,1,11.16-11.16h0a11.15,11.15,0,0,1,11.16,11.16Z"/><path class="cls-17" d="M346.93,313.69h-31.4a1,1,0,0,1-1-1h0a1,1,0,0,1,1-1h31.4a1,1,0,0,1,1,1h0A1,1,0,0,1,346.93,313.69Z"/><circle class="cls-22" cx="329.49" cy="276.08" r="6.66"/><rect class="cls-22" x="439.46" y="312.87" width="10.15" height="20.83"/><rect class="cls-13" x="441.67" y="309.77" width="6.28" height="3.1"/><rect class="cls-13" x="443.18" y="305.87" width="3.26" height="6.92"/><rect class="cls-13" x="439.79" y="305.01" width="6.65" height="1.37"/><path class="cls-13" d="M446.44,323c0,2.67-1.24,4.83-2.78,4.83s-2.77-2.16-2.77-4.83,1.24-4.83,2.77-4.83S446.44,320.32,446.44,323Z"/><path class="cls-14" d="M460.67,336.87a3.18,3.18,0,0,1-3.17,3.18H293a3.18,3.18,0,0,1-3.18-3.18,3.18,3.18,0,0,1,3.18-3.18H457.5A3.18,3.18,0,0,1,460.67,336.87Z"/><path class="cls-5" d="M460.67,336.87a3.18,3.18,0,0,1-3.17,3.18H293a3.18,3.18,0,0,1-3.18-3.18Z"/><rect class="cls-14" x="296.84" y="340.05" width="7.58" height="108.01"/><rect class="cls-14" x="447.39" y="340.05" width="7.58" height="108.01"/><rect class="cls-15" x="304.43" y="340.05" width="142.97" height="99.79"/><rect class="cls-5" x="304.43" y="340.05" width="142.97" height="10.66"/><ellipse class="cls-5" cx="636.51" cy="446.57" rx="88.4" ry="15.87"/><rect class="cls-6" x="660.07" y="265.88" width="4.31" height="12.79"/><rect class="cls-6" x="689.68" y="265.88" width="4.31" height="12.79"/><rect class="cls-7" x="643.99" y="274.94" width="66.85" height="75.77" rx="12.5"/><path class="cls-7" d="M690.92,271.65H662.63a12.94,12.94,0,0,1-12.94-12.94h0a12.93,12.93,0,0,1,12.94-12.93h28.29a12.93,12.93,0,0,1,12.93,12.93h0A12.93,12.93,0,0,1,690.92,271.65Z"/><path class="cls-23" d="M654.41,222c-10.73,1.24-18.94,7.79-18.54,21.7s0,39.76,0,39.76l2.38-2.61,1-1.31,35.7,1.54,2.93-2.14,4.37,3.7s1-22.22-.64-36.89C680.35,234.88,676.21,219.52,654.41,222Z"/><path class="cls-19" d="M636.65,279.44s3.82,17.55,21.08,17.33,24-17.33,24-17.33l-14.22-5.27-.36-4.64-.63-10.73-.3-5.15-4.89,2-8.92,3.67-1.29,11.41-.29,3.71Z"/><path class="cls-24" d="M690.08,350.83s-15.1,10.54-32.81,7.07a110.76,110.76,0,0,1-28.3-9.53l10-14.68s-9.12-45.36-6.63-51.49A37,37,0,0,1,646.86,275a19.56,19.56,0,0,1,4-.57s.29,8.68,8.11,8.68c8.21,0,8.57-9,8.57-9a25.36,25.36,0,0,1,4.77.62,36.9,36.9,0,0,1,14.9,7l-5.45,49Z"/><path class="cls-5" d="M672.27,274.78c-.92,5.41-4,15.92-14,15.92-10.2,0-11.4-10.55-11.38-15.68a19.56,19.56,0,0,1,4-.57s.29,8.68,8.11,8.68c8.21,0,8.57-9,8.57-9A25.36,25.36,0,0,1,672.27,274.78Z"/><path class="cls-20" d="M651.11,270.74c6.66.83,12.54.3,16-1.21l-.63-10.73a16.75,16.75,0,0,0-5.19-3.14l-8.92,3.67Z"/><path class="cls-19" d="M671.85,243l.6,3.92,0,.28c4,3,7.32-1.89,6.64-5.35a3.53,3.53,0,0,0-1.26-2.14C674.37,237,671.85,243,671.85,243Z"/><path class="cls-20" d="M672.45,246.91l0,.28c4,3,7.32-1.89,6.64-5.35a3.26,3.26,0,0,0-3.08-.41C674.11,242.18,672.62,244.63,672.45,246.91Z"/><path class="cls-19" d="M641.57,247.14l.48,3.93,0,.29c-3.08,4-7.57.17-7.85-3.34a3.51,3.51,0,0,1,.63-2.41C637.5,242,641.57,247.14,641.57,247.14Z"/><path class="cls-20" d="M642.05,251.07l0,.29c-3.08,4-7.57.17-7.85-3.34a3.24,3.24,0,0,1,2.85-1.24C639.17,247,641.27,248.93,642.05,251.07Z"/><path class="cls-19" d="M639.67,243.56s-2.21,12.64,2.79,20.74c5.73,9.3,31,3.59,32.74-6.29,1.68-9.37-2.75-18.2-2.75-18.2l-17.71,2-1.07-3.38-2.56,3.8C647.31,242.67,643.39,243.12,639.67,243.56Z"/><path class="cls-12" d="M647.13,246.76c-.29.27-.07,2.84.46,3a1.24,1.24,0,0,0,1.39-.32,6.57,6.57,0,0,0-.4-2.91C648.31,246.2,647.46,246.45,647.13,246.76Z"/><path class="cls-12" d="M663.17,245.16c-.29.27-.07,2.84.46,3a1.23,1.23,0,0,0,1.39-.33,6.55,6.55,0,0,0-.4-2.9C664.35,244.6,663.5,244.85,663.17,245.16Z"/><path class="cls-7" d="M666.51,241.82a11.48,11.48,0,0,0-7.08-2.58C662.88,236.15,666.43,240,666.51,241.82Z"/><path class="cls-7" d="M644.24,243s3.29-3.43,6.46-3.88C646.72,236.74,644,241.21,644.24,243Z"/><path class="cls-19" d="M632.34,282.19s-6,1.52-14.72,41.15c-7.55,2.54-19.55,7.43-19.55,7.43l32.09-.58,4.52-20.2S632.24,291.3,632.34,282.19Z"/><path class="cls-19" d="M687.17,281.75s4.59-.27,6.27,11.62c1.84,13.11-.66,40.33-.66,40.33H655.87s-4.76-.45-4.76-4.71c-2.1-.23-8.87-.13-8.87-.13s3.25-3.21,5.21-3.56c2.76-.49,4.4-.7,12.07,2,4.23.57,20.25-2.61,20.25-2.61S676.77,289.49,687.17,281.75Z"/><path class="cls-14" d="M720.3,336.87a3.18,3.18,0,0,1-3.18,3.18H552.65a3.18,3.18,0,0,1-3.18-3.18,3.18,3.18,0,0,1,3.18-3.18H717.12A3.19,3.19,0,0,1,720.3,336.87Z"/><path class="cls-5" d="M720.3,336.87a3.18,3.18,0,0,1-3.18,3.18H552.65a3.18,3.18,0,0,1-3.18-3.18Z"/><rect class="cls-14" x="556.47" y="340.05" width="7.58" height="108.01"/><rect class="cls-14" x="707.02" y="340.05" width="7.58" height="108.01"/><rect class="cls-15" x="564.05" y="340.05" width="142.97" height="99.79"/><rect class="cls-5" x="564.05" y="340.05" width="142.97" height="10.66"/><rect class="cls-16" x="559.63" y="282.19" width="66.68" height="51.5" rx="5.66"/><path class="cls-16" d="M578.91,327.84h75.83a0,0,0,0,1,0,0v1.28a4.57,4.57,0,0,1-4.57,4.57H578.91a0,0,0,0,1,0,0v-5.86A0,0,0,0,1,578.91,327.84Z"/><path class="cls-13" d="M598.59,307.94a6.66,6.66,0,1,0-6.66,6.66A6.66,6.66,0,0,0,598.59,307.94Z"/><path class="cls-20" d="M656,244.67c-2.25.48-1,5.41-2.14,7.26s3.82,1.2,4.49.13S657.73,244.29,656,244.67Z"/><path class="cls-13" d="M655.8,247.51c-1.35.06-11.42,3.53-12.41,5.08s-.49,10.11,4.69,12.24,18.17,1.17,21.58-3.45,1.9-11.09.74-12S657.64,247.43,655.8,247.51Z"/><path class="cls-13" d="M638.93,254.85a.42.42,0,0,1-.42-.33.43.43,0,0,1,.32-.53l4.42-1.06-4.45-8.07a.43.43,0,0,1,.76-.42l5,9.07L639,254.84Z"/><path class="cls-13" d="M669.2,250.5l3.25-9.92a.42.42,0,0,1,.55-.27.43.43,0,0,1,.28.54l-2.79,8.53,4.89-.91a.43.43,0,0,1,.51.35.44.44,0,0,1-.35.5Z"/><path class="cls-25" d="M660.07,295.92a1.35,1.35,0,1,1-1.35-1.35A1.35,1.35,0,0,1,660.07,295.92Z"/><path class="cls-25" d="M659.88,304.61a1.36,1.36,0,1,1-1.35-1.35A1.36,1.36,0,0,1,659.88,304.61Z"/><path class="cls-25" d="M659.68,313.3a1.35,1.35,0,1,1-1.35-1.35A1.35,1.35,0,0,1,659.68,313.3Z"/><rect class="cls-22" x="698.22" y="312.9" width="10.15" height="20.83" transform="translate(1406.6 646.63) rotate(180)"/><rect class="cls-13" x="699.88" y="309.81" width="6.28" height="3.1" transform="translate(1406.04 622.71) rotate(180)"/><rect class="cls-13" x="701.39" y="305.91" width="3.26" height="6.92" transform="translate(1406.04 618.73) rotate(180)"/><rect class="cls-13" x="701.39" y="305.04" width="6.65" height="1.37" transform="translate(1409.44 611.45) rotate(180)"/><path class="cls-13" d="M701.39,323c0,2.67,1.25,4.83,2.78,4.83S707,325.69,707,323s-1.25-4.83-2.78-4.83S701.39,320.36,701.39,323Z"/></g></g></svg>